####
#
# OBJ File Generated by Meshlab
#
####
# Object alphabet11.obj
#
# Vertices: 62
# Faces: 120
#
####
mtllib ./alphabet11.obj.mtl

vn 0.577350 0.577350 -0.577350
v -0.002665 0.373332 -0.020000
vn -0.617993 -0.523507 -0.586537
v -0.130668 0.325334 -0.020000
vn -0.577350 0.577350 -0.577350
v -0.130668 0.373332 -0.020000
vn -0.355824 -0.301422 -0.884610
v -0.098665 0.319999 -0.020000
vn 0.355824 -0.301422 -0.884610
v -0.034668 0.319999 -0.020000
vn -0.355824 0.301422 -0.884610
v -0.098665 0.053333 -0.020000
vn 0.617993 -0.523507 -0.586537
v -0.002665 0.325334 -0.020000
vn -0.577350 -0.577350 -0.577350
v -0.130668 0.000000 -0.020000
vn -0.617993 0.523507 -0.586537
v -0.130668 0.047998 -0.020000
vn 0.577350 -0.577350 -0.577351
v 0.130668 0.000000 -0.020000
vn 0.301511 0.301511 -0.904534
v -0.034668 0.058667 -0.020000
vn -0.300935 0.361407 -0.882510
v 0.077336 0.058667 -0.020000
vn -0.694756 0.123049 -0.708641
v 0.079201 0.068799 -0.020000
vn -0.695623 0.108809 -0.710119
v 0.081333 0.081333 -0.020000
vn -0.531326 0.612585 -0.585178
v 0.082666 0.090666 -0.020000
vn 0.577350 0.577350 -0.577350
v 0.130668 0.090666 -0.020000
vn 0.617993 -0.523507 0.586537
v -0.046668 0.330164 0.008000
vn 0.355824 -0.301422 0.884610
v -0.034668 0.319999 0.008000
vn 0.355824 -0.301422 0.884610
v -0.014665 0.335499 0.008000
vn 0.301511 0.301511 0.904534
v -0.034668 0.058667 0.008000
vn 0.617993 -0.523507 0.586537
v -0.002665 0.325334 0.008000
vn 0.301511 0.301511 0.904534
v -0.014665 0.361332 0.008000
vn -0.577350 0.577350 0.577350
v -0.130668 0.373332 0.008000
vn -0.301511 0.301511 0.904534
v -0.118668 0.361332 0.008000
vn 0.577350 0.577350 0.577350
v -0.002665 0.373332 0.008000
vn -0.355824 -0.301422 0.884610
v -0.118668 0.335499 0.008000
vn -0.577350 -0.577350 0.577350
v -0.130668 -0.000000 0.008000
vn -0.301511 -0.301512 0.904534
v -0.118668 0.012000 0.008000
vn -0.617993 0.523507 0.586537
v -0.130668 0.047998 0.008000
vn 0.577350 -0.577350 0.577350
v 0.130668 -0.000000 0.008000
vn 0.301511 -0.301511 0.904534
v 0.118668 0.012000 0.008000
vn 0.301511 0.301511 0.904534
v 0.118668 0.078666 0.008000
vn 0.577350 0.577350 0.577350
v -0.046668 0.046667 0.008000
vn -0.517795 0.621845 0.587534
v 0.087328 0.046667 0.008000
vn -0.300935 0.361407 0.882510
v 0.077336 0.058667 0.008000
vn -0.694757 0.123049 0.708641
v 0.079201 0.068799 0.008000
vn -0.695624 0.108809 0.710119
v 0.081333 0.081333 0.008000
vn -0.531326 0.612585 0.585178
v 0.082666 0.090666 0.008000
vn -0.301333 0.356919 0.884199
v 0.093052 0.078666 0.008000
vn 0.577350 0.577350 0.577350
v 0.130668 0.090666 0.008000
vn -0.697770 0.123582 0.705581
v 0.091018 0.066706 0.008000
vn -0.355824 0.301422 0.884610
v -0.118668 0.037833 0.008000
vn -0.355824 0.301422 0.884610
v -0.098665 0.053333 0.008000
vn -0.617993 0.523508 0.586536
v -0.086665 0.043167 0.008000
vn -0.355824 -0.301422 0.884610
v -0.098665 0.319999 0.008000
vn -0.617993 -0.523507 0.586537
v -0.130668 0.325334 0.008000
vn -0.617993 -0.523507 0.586537
v -0.086665 0.330164 0.008000
vn 0.577351 -0.577351 0.577349
v 0.118668 0.012000 0.020000
vn -0.617993 0.523507 0.586537
v -0.118668 0.037833 0.020000
vn -0.577350 -0.577350 0.577350
v -0.118668 0.012000 0.020000
vn -0.355824 0.301422 0.884610
v -0.086665 0.043167 0.020000
vn 0.301511 0.301511 0.904534
v -0.046668 0.046667 0.020000
vn -0.355824 -0.301422 0.884610
v -0.086665 0.330164 0.020000
vn -0.300935 0.361407 0.882510
v 0.087328 0.046667 0.020000
vn -0.694756 0.123049 0.708642
v 0.091018 0.066706 0.020000
vn -0.522390 0.618753 0.586732
v 0.093052 0.078666 0.020000
vn 0.577350 0.577350 0.577350
v 0.118668 0.078666 0.020000
vn -0.577350 0.577350 0.577350
v -0.118668 0.361332 0.020000
vn -0.617993 -0.523507 0.586537
v -0.118668 0.335499 0.020000
vn 0.577350 0.577350 0.577350
v -0.014665 0.361332 0.020000
vn 0.355824 -0.301422 0.884610
v -0.046668 0.330164 0.020000
vn 0.617993 -0.523507 0.586537
v -0.014665 0.335499 0.020000
# 62 vertices, 0 vertices normals


usemtl material_0
f 1//1 2//2 3//3
f 2//2 1//1 4//4
f 4//4 1//1 5//5
f 4//4 5//5 6//6
f 5//5 1//1 7//7
f 6//6 8//8 9//9
f 8//8 6//6 10//10
f 10//10 6//6 11//11
f 11//11 6//6 5//5
f 10//10 11//11 12//12
f 10//10 12//12 13//13
f 10//10 13//13 14//14
f 10//10 14//14 15//15
f 10//10 15//15 16//16
f 17//17 18//18 19//19
f 18//18 17//17 20//20
f 19//19 18//18 21//21
f 19//19 21//21 22//22
f 23//23 24//24 25//25
f 24//24 23//23 26//26
f 25//25 24//24 22//22
f 25//25 22//22 21//21
f 27//27 28//28 29//29
f 28//28 27//27 30//30
f 28//28 30//30 31//31
f 31//31 30//30 32//32
f 33//33 20//20 17//17
f 20//20 33//33 34//34
f 20//20 34//34 35//35
f 35//35 34//34 36//36
f 36//36 34//34 37//37
f 37//37 34//34 38//38
f 38//38 34//34 39//39
f 38//38 39//39 40//40
f 39//39 34//34 41//41
f 40//40 39//39 32//32
f 40//40 32//32 30//30
f 29//29 42//42 43//43
f 42//42 29//29 28//28
f 43//43 42//42 44//44
f 43//43 44//44 45//45
f 46//46 26//26 23//23
f 26//26 46//46 45//45
f 26//26 45//45 47//47
f 47//47 45//45 44//44
f 5//5 20//20 11//11
f 20//20 5//5 18//18
f 20//20 12//12 11//11
f 12//12 20//20 35//35
f 36//36 12//12 35//35
f 12//12 36//36 13//13
f 37//37 13//13 36//36
f 13//13 37//37 14//14
f 38//38 14//14 37//37
f 14//14 38//38 15//15
f 38//38 16//16 15//15
f 16//16 38//38 40//40
f 16//16 30//30 10//10
f 30//30 16//16 40//40
f 30//30 8//8 10//10
f 8//8 30//30 27//27
f 29//29 8//8 27//27
f 8//8 29//29 9//9
f 29//29 6//6 9//9
f 6//6 29//29 43//43
f 45//45 6//6 43//43
f 6//6 45//45 4//4
f 45//45 2//2 4//4
f 2//2 45//45 46//46
f 23//23 2//2 46//46
f 2//2 23//23 3//3
f 23//23 1//1 3//3
f 1//1 23//23 25//25
f 1//1 21//21 7//7
f 21//21 1//1 25//25
f 21//21 5//5 7//7
f 5//5 21//21 18//18
f 48//48 49//49 50//50
f 49//49 48//48 51//51
f 51//51 48//48 52//52
f 51//51 52//52 53//53
f 52//52 48//48 54//54
f 54//54 48//48 55//55
f 55//55 48//48 56//56
f 56//56 48//48 57//57
f 53//53 58//58 59//59
f 58//58 53//53 60//60
f 60//60 53//53 61//61
f 61//61 53//53 52//52
f 60//60 61//61 62//62
f 58//58 26//26 59//59
f 26//26 58//58 24//24
f 53//53 26//26 47//47
f 26//26 53//53 59//59
f 53//53 44//44 51//51
f 44//44 53//53 47//47
f 49//49 44//44 42//42
f 44//44 49//49 51//51
f 49//49 28//28 50//50
f 28//28 49//49 42//42
f 48//48 28//28 31//31
f 28//28 48//48 50//50
f 32//32 48//48 31//31
f 48//48 32//32 57//57
f 56//56 32//32 39//39
f 32//32 56//56 57//57
f 56//56 41//41 55//55
f 41//41 56//56 39//39
f 55//55 34//34 54//54
f 34//34 55//55 41//41
f 52//52 34//34 33//33
f 34//34 52//52 54//54
f 17//17 52//52 33//33
f 52//52 17//17 61//61
f 62//62 17//17 19//19
f 17//17 62//62 61//61
f 22//22 62//62 19//19
f 62//62 22//22 60//60
f 58//58 22//22 24//24
f 22//22 58//58 60//60
# 120 faces, 0 coords texture

# End of File
