####
#
# OBJ File Generated by Meshlab
#
####
# Object alphabet22.obj
#
# Vertices: 100
# Faces: 196
#
####
mtllib ./alphabet22.obj.mtl

vn 0.577350 0.577350 -0.577350
v -0.138664 0.372339 -0.020000
vn -0.617993 -0.523507 -0.586537
v -0.266667 0.324341 -0.020000
vn -0.577350 0.577350 -0.577350
v -0.266667 0.372339 -0.020000
vn -0.350037 -0.403434 -0.845408
v -0.234664 0.319007 -0.020000
vn 0.333773 -0.205890 -0.919894
v -0.170667 0.319007 -0.020000
vn 0.617993 -0.523507 -0.586537
v -0.138664 0.324341 -0.020000
vn 0.577350 0.577350 -0.577350
v 0.064001 0.372339 -0.020000
vn -0.617997 -0.523500 -0.586538
v -0.063997 0.324341 -0.020000
vn -0.577350 0.577350 -0.577350
v -0.063997 0.372339 -0.020000
vn -0.333781 -0.205894 -0.919890
v -0.031999 0.319007 -0.020000
vn 0.333781 -0.205894 -0.919890
v 0.032003 0.319007 -0.020000
vn 0.000001 -0.165191 -0.986262
v 0.000000 0.217676 -0.020000
vn 0.617997 -0.523500 -0.586538
v 0.064001 0.324341 -0.020000
vn 0.577350 0.577350 -0.577350
v 0.266667 0.372339 -0.020000
vn -0.617997 -0.523500 -0.586538
v 0.138668 0.324341 -0.020000
vn -0.577350 0.577350 -0.577350
v 0.138668 0.372339 -0.020000
vn -0.333781 -0.205894 -0.919890
v 0.170667 0.319007 -0.020000
vn 0.350044 -0.403438 -0.845404
v 0.234668 0.319007 -0.020000
vn 0.617997 -0.523500 -0.586538
v 0.266667 0.324341 -0.020000
vn -0.474621 -0.648403 -0.595239
v 0.069336 -0.000992 -0.020000
vn 0.000000 0.161317 -0.986903
v 0.101335 0.095008 -0.020000
vn 0.474752 -0.648328 -0.595215
v 0.133333 -0.000992 -0.020000
vn -0.474756 -0.648326 -0.595214
v -0.133333 -0.000992 -0.020000
vn -0.000001 0.161321 -0.986902
v -0.101331 0.095008 -0.020000
vn 0.474627 -0.648399 -0.595237
v -0.069332 -0.000992 -0.020000
vn -0.000006 0.839868 0.542791
v -0.101330 0.054424 0.008000
vn 0.333773 -0.205890 0.919894
v -0.170667 0.319007 0.008000
vn 0.698958 -0.431157 0.570581
v -0.186193 0.328584 0.008000
vn -0.000001 0.161321 0.986902
v -0.101331 0.095008 0.008000
vn -0.333781 -0.205895 0.919890
v -0.031999 0.319007 0.008000
vn -0.698957 -0.431154 0.570583
v -0.016473 0.328584 0.008000
vn -0.617997 -0.523501 0.586538
v -0.063997 0.324341 0.008000
vn -0.355831 -0.301421 0.884607
v -0.051997 0.334506 0.008000
vn -0.577350 0.577350 0.577350
v -0.063997 0.372339 0.008000
vn -0.000002 0.839867 0.542792
v 0.101335 0.054423 0.008000
vn 0.333781 -0.205894 0.919890
v 0.032003 0.319007 0.008000
vn 0.698958 -0.431154 0.570583
v 0.016477 0.328584 0.008000
vn 0.000000 0.161316 0.986903
v 0.101335 0.095008 0.008000
vn -0.698958 -0.431154 0.570582
v 0.186193 0.328584 0.008000
vn -0.333781 -0.205895 0.919890
v 0.170667 0.319007 0.008000
vn -0.617997 -0.523501 0.586538
v 0.138668 0.324341 0.008000
vn -0.355831 -0.301421 0.884607
v 0.150668 0.334506 0.008000
vn -0.577350 0.577350 0.577350
v 0.138668 0.372339 0.008000
vn -0.617993 -0.523507 0.586537
v -0.266667 0.324341 0.008000
vn -0.355823 -0.301422 0.884610
v -0.254667 0.334507 0.008000
vn -0.577350 0.577350 0.577350
v -0.266667 0.372339 0.008000
vn -0.350037 -0.403434 0.845408
v -0.234664 0.319007 0.008000
vn -0.521158 -0.600659 0.606303
v -0.225442 0.329635 0.008000
vn -0.474757 -0.648326 0.595214
v -0.133333 -0.000992 0.008000
vn -0.294622 -0.402336 0.866789
v -0.124546 0.011008 0.008000
vn 0.474626 -0.648400 0.595238
v -0.069332 -0.000992 0.008000
vn 0.294597 -0.402456 0.866742
v -0.078116 0.011008 0.008000
vn 0.000007 -0.839694 0.543060
v -0.000000 0.257379 0.008000
vn 0.000001 -0.165191 0.986262
v 0.000000 0.217676 0.008000
vn -0.294596 -0.402462 0.866740
v 0.078120 0.011008 0.008000
vn -0.474621 -0.648403 0.595238
v 0.069336 -0.000992 0.008000
vn 0.474753 -0.648328 0.595215
v 0.133333 -0.000992 0.008000
vn 0.294622 -0.402340 0.866787
v 0.124546 0.011008 0.008000
vn 0.521159 -0.600655 0.606306
v 0.225446 0.329635 0.008000
vn 0.350043 -0.403438 0.845404
v 0.234668 0.319007 0.008000
vn 0.355831 -0.301421 0.884607
v 0.254667 0.334506 0.008000
vn 0.617997 -0.523500 0.586538
v 0.266667 0.324341 0.008000
vn 0.301511 0.301511 0.904534
v 0.254667 0.360339 0.008000
vn -0.301511 0.301511 0.904534
v 0.150668 0.360339 0.008000
vn 0.577350 0.577350 0.577350
v 0.266667 0.372339 0.008000
vn 0.355831 -0.301421 0.884607
v 0.052001 0.334506 0.008000
vn 0.617997 -0.523501 0.586538
v 0.064001 0.324341 0.008000
vn 0.301511 0.301511 0.904534
v 0.052001 0.360339 0.008000
vn -0.301511 0.301511 0.904534
v -0.051997 0.360339 0.008000
vn 0.577350 0.577350 0.577350
v 0.064001 0.372339 0.008000
vn 0.355824 -0.301422 0.884610
v -0.150664 0.334507 0.008000
vn 0.617993 -0.523507 0.586537
v -0.138664 0.324341 0.008000
vn 0.301511 0.301511 0.904534
v -0.150664 0.360339 0.008000
vn -0.301511 0.301511 0.904534
v -0.254667 0.360339 0.008000
vn 0.577350 0.577350 0.577350
v -0.138664 0.372339 0.008000
vn -0.474756 -0.648326 0.595214
v -0.124546 0.011008 0.020000
vn 0.333773 -0.205890 0.919894
v -0.186193 0.328584 0.020000
vn -0.350036 -0.403434 0.845408
v -0.225442 0.329635 0.020000
vn -0.000001 0.161321 0.986902
v -0.101330 0.054424 0.020000
vn 0.474627 -0.648399 0.595237
v -0.078116 0.011008 0.020000
vn -0.333781 -0.205895 0.919890
v -0.016473 0.328584 0.020000
vn 0.000001 -0.165191 0.986262
v -0.000000 0.257379 0.020000
vn -0.474621 -0.648403 0.595239
v 0.078120 0.011008 0.020000
vn 0.333782 -0.205894 0.919890
v 0.016477 0.328584 0.020000
vn 0.000000 0.161316 0.986903
v 0.101335 0.054423 0.020000
vn 0.474752 -0.648328 0.595215
v 0.124546 0.011008 0.020000
vn -0.333782 -0.205894 0.919890
v 0.186193 0.328584 0.020000
vn 0.350043 -0.403438 0.845404
v 0.225446 0.329635 0.020000
vn -0.577350 0.577350 0.577350
v 0.150668 0.360339 0.020000
vn -0.617998 -0.523500 0.586538
v 0.150668 0.334506 0.020000
vn 0.577350 0.577350 0.577350
v 0.254667 0.360339 0.020000
vn 0.617997 -0.523501 0.586538
v 0.254667 0.334506 0.020000
vn -0.577350 0.577350 0.577350
v -0.051997 0.360339 0.020000
vn -0.617998 -0.523500 0.586538
v -0.051997 0.334506 0.020000
vn 0.577350 0.577350 0.577350
v 0.052001 0.360339 0.020000
vn 0.617998 -0.523500 0.586538
v 0.052001 0.334506 0.020000
vn -0.577350 0.577350 0.577350
v -0.254667 0.360339 0.020000
vn -0.617992 -0.523508 0.586536
v -0.254667 0.334507 0.020000
vn 0.577350 0.577350 0.577350
v -0.150664 0.360339 0.020000
vn 0.617993 -0.523508 0.586537
v -0.150664 0.334507 0.020000
# 100 vertices, 0 vertices normals


usemtl material_0
f 1//1 2//2 3//3
f 2//2 1//1 4//4
f 4//4 1//1 5//5
f 5//5 1//1 6//6
f 7//7 8//8 9//9
f 8//8 7//7 10//10
f 10//10 7//7 11//11
f 10//10 11//11 12//12
f 11//11 7//7 13//13
f 14//14 15//15 16//16
f 15//15 14//14 17//17
f 17//17 14//14 18//18
f 18//18 14//14 19//19
f 11//11 20//20 12//12
f 20//20 11//11 21//21
f 20//20 21//21 22//22
f 22//22 21//21 17//17
f 22//22 17//17 18//18
f 5//5 23//23 4//4
f 23//23 5//5 24//24
f 23//23 24//24 25//25
f 25//25 24//24 10//10
f 25//25 10//10 12//12
f 26//26 27//27 28//28
f 27//27 26//26 29//29
f 29//29 26//26 30//30
f 30//30 26//26 31//31
f 32//32 33//33 34//34
f 33//33 32//32 30//30
f 33//33 30//30 31//31
f 35//35 36//36 37//37
f 36//36 35//35 38//38
f 38//38 35//35 39//39
f 38//38 39//39 40//40
f 41//41 42//42 43//43
f 42//42 41//41 40//40
f 42//42 40//40 39//39
f 44//44 45//45 46//46
f 45//45 44//44 47//47
f 45//45 47//47 48//48
f 48//48 47//47 49//49
f 48//48 49//49 50//50
f 50//50 49//49 51//51
f 50//50 51//51 52//52
f 52//52 51//51 53//53
f 53//53 51//51 54//54
f 53//53 54//54 55//55
f 55//55 54//54 56//56
f 55//55 56//56 57//57
f 55//55 57//57 58//58
f 58//58 57//57 59//59
f 59//59 57//57 60//60
f 59//59 60//60 61//61
f 61//61 60//60 62//62
f 61//61 62//62 63//63
f 43//43 64//64 65//65
f 64//64 43//43 42//42
f 65//65 64//64 63//63
f 65//65 63//63 62//62
f 36//36 66//66 37//37
f 66//66 36//36 67//67
f 66//66 67//67 68//68
f 34//34 69//69 70//70
f 69//69 34//34 33//33
f 70//70 69//69 68//68
f 70//70 68//68 67//67
f 27//27 71//71 28//28
f 71//71 27//27 72//72
f 71//71 72//72 73//73
f 46//46 74//74 75//75
f 74//74 46//46 45//45
f 75//75 74//74 73//73
f 75//75 73//73 72//72
f 30//30 24//24 29//29
f 24//24 30//30 10//10
f 30//30 8//8 10//10
f 8//8 30//30 32//32
f 34//34 8//8 32//32
f 8//8 34//34 9//9
f 34//34 7//7 9//9
f 7//7 34//34 70//70
f 7//7 67//67 13//13
f 67//67 7//7 70//70
f 67//67 11//11 13//13
f 11//11 67//67 36//36
f 11//11 38//38 21//21
f 38//38 11//11 36//36
f 40//40 21//21 38//38
f 21//21 40//40 17//17
f 40//40 15//15 17//17
f 15//15 40//40 41//41
f 43//43 15//15 41//41
f 15//15 43//43 16//16
f 43//43 14//14 16//16
f 14//14 43//43 65//65
f 14//14 62//62 19//19
f 62//62 14//14 65//65
f 62//62 18//18 19//19
f 18//18 62//62 60//60
f 18//18 57//57 22//22
f 57//57 18//18 60//60
f 57//57 20//20 22//22
f 20//20 57//57 56//56
f 54//54 20//20 56//56
f 20//20 54//54 12//12
f 12//12 51//51 25//25
f 51//51 12//12 54//54
f 51//51 23//23 25//25
f 23//23 51//51 49//49
f 47//47 23//23 49//49
f 23//23 47//47 4//4
f 47//47 2//2 4//4
f 2//2 47//47 44//44
f 46//46 2//2 44//44
f 2//2 46//46 3//3
f 46//46 1//1 3//3
f 1//1 46//46 75//75
f 1//1 72//72 6//6
f 72//72 1//1 75//75
f 72//72 5//5 6//6
f 5//5 72//72 27//27
f 5//5 29//29 24//24
f 29//29 5//5 27//27
f 76//76 77//77 78//78
f 77//77 76//76 79//79
f 79//79 76//76 80//80
f 79//79 80//80 81//81
f 81//81 80//80 82//82
f 83//83 84//84 82//82
f 84//84 83//83 85//85
f 85//85 83//83 86//86
f 85//85 86//86 87//87
f 87//87 86//86 88//88
f 87//87 89//89 90//90
f 89//89 87//87 91//91
f 91//91 87//87 88//88
f 91//91 88//88 92//92
f 81//81 93//93 94//94
f 93//93 81//81 95//95
f 95//95 81//81 84//84
f 84//84 81//81 82//82
f 95//95 84//84 96//96
f 78//78 97//97 98//98
f 97//97 78//78 99//99
f 99//99 78//78 77//77
f 99//99 77//77 100//100
f 63//63 92//92 61//61
f 92//92 63//63 91//91
f 89//89 63//63 64//64
f 63//63 89//89 91//91
f 89//89 42//42 90//90
f 42//42 89//89 64//64
f 87//87 42//42 39//39
f 42//42 87//87 90//90
f 87//87 35//35 85//85
f 35//35 87//87 39//39
f 37//37 85//85 35//35
f 85//85 37//37 84//84
f 96//96 37//37 66//66
f 37//37 96//96 84//84
f 68//68 96//96 66//66
f 96//96 68//68 95//95
f 93//93 68//68 69//69
f 68//68 93//93 95//95
f 93//93 33//33 94//94
f 33//33 93//93 69//69
f 81//81 33//33 31//31
f 33//33 81//81 94//94
f 81//81 26//26 79//79
f 26//26 81//81 31//31
f 28//28 79//79 26//26
f 79//79 28//28 77//77
f 100//100 28//28 71//71
f 28//28 100//100 77//77
f 73//73 100//100 71//71
f 100//100 73//73 99//99
f 97//97 73//73 74//74
f 73//73 97//97 99//99
f 97//97 45//45 98//98
f 45//45 97//97 74//74
f 78//78 45//45 48//48
f 45//45 78//78 98//98
f 78//78 50//50 76//76
f 50//50 78//78 48//48
f 80//80 50//50 52//52
f 50//50 80//80 76//76
f 53//53 80//80 52//52
f 80//80 53//53 82//82
f 82//82 55//55 83//83
f 55//55 82//82 53//53
f 86//86 55//55 58//58
f 55//55 86//86 83//83
f 59//59 86//86 58//58
f 86//86 59//59 88//88
f 92//92 59//59 61//61
f 59//59 92//92 88//88
# 196 faces, 0 coords texture

# End of File
