# File produced by Open Asset Import Library (http://www.assimp.sf.net)
# (assimp v5.0.1588609223)

mtllib result.mtl

# 136 vertex positions
v  -0.47397447 4.6133137 -0.24999972
v  -0.66665643 3.4024954 -0.24999987
v  -0.70250821 4.5458174 -0.24999973
v  -0.62915796 3.5941522 -0.24999984
v  -0.51666254 3.7558126 -0.24999982
v  -0.35250342 3.8658094 -0.24999981
v  -0.2266947 4.6358123 -0.24999972
v  -0.16001379 3.9024751 -0.24999981
v  1.4666748 4.6358123 -0.24999972
v  0.79996753 3.9024751 -0.24999981
v  0.86664844 3.5024912 -0.24999985
v  1.4666748 3.5024912 -0.24999985
v  -1.4439662 3.6495876 -0.24999984
v  -1.4666748 1.6558218 -0.25000006
v  -1.4666748 3.4024954 -0.24999987
v  -1.4358408 1.3187504 -0.25000012
v  -1.3758404 3.8775079 -0.24999981
v  -1.3433392 1.0075077 -0.25000015
v  -1.2622976 4.086256 -0.24999978
v  -1.1891699 0.72209358 -0.25000018
v  -1.1033375 4.2758322 -0.24999976
v  -0.97333264 0.4625082 -0.25000021
v  -0.91229594 4.4333234 -0.24999975
v  -0.71333086 0.24667104 -0.25000024
v  -0.66665643 1.6358328 -0.25000006
v  -0.42666745 0.09250164 -0.25000027
v  -0.59582388 1.2775055 -0.25000012
v  -0.38332617 0.97583932 -0.25000015
v  -0.11334252 -6.9388939e-18 -0.25000027
v  -0.072498322 0.77083749 -0.25000018
v  0.22664392 -0.030833879 -0.25000027
v  0.29332483 0.7025035 -0.25000018
v  1.4666748 -0.030833879 -0.25000027
v  1.4666748 0.7025035 -0.25000018
v  -1.3433392 1.0075077 0.099999845
v  -1.2878194 1.3472261 0.099999875
v  -1.3166747 1.6626682 0.099999934
v  -1.1891699 0.72209352 0.099999815
v  -1.2039801 1.0651298 0.099999845
v  -1.0642873 0.80651611 0.099999815
v  -0.97333264 0.46250817 0.099999785
v  -0.86685663 0.56906807 0.099999785
v  -0.71333086 0.24667099 0.099999756
v  -0.62906706 0.37167019 0.099999756
v  -0.42666745 0.092501596 0.099999726
v  -0.36929905 0.23196529 0.099999756
v  -0.11334252 -4.1723251e-08 0.099999726
v  -0.08506012 0.14805059 0.099999756
v  0.22664392 -0.03083392 0.099999726
v  0.23343182 0.11916608 0.099999726
v  1.4666748 -0.03083392 0.099999726
v  1.3166749 0.11916608 0.099999726
v  1.3166749 0.55250347 0.099999785
v  -0.73679888 1.2171663 0.099999875
v  -0.59582388 1.2775055 0.099999875
v  -0.66665643 1.6358328 0.099999934
v  -0.48960876 0.86624998 0.099999815
v  -0.38332617 0.97583926 0.099999845
v  -0.12980652 0.62894779 0.099999815
v  -0.072498322 0.77083743 0.099999815
v  0.27943528 0.55250347 0.099999785
v  0.29332483 0.70250344 0.099999815
v  1.4666748 0.70250344 0.099999815
v  -0.81665647 3.4170318 0.10000014
v  -0.81665647 1.6211492 0.099999905
v  -0.77030706 3.6539259 0.10000017
v  -0.66665643 3.4024954 0.10000014
v  -0.62364107 3.864691 0.10000017
v  -0.62915796 3.5941522 0.10000014
v  -0.51666254 3.7558126 0.10000017
v  -0.41060328 4.0074396 0.1000002
v  -0.35250342 3.8658094 0.10000017
v  -0.17417252 4.052475 0.1000002
v  -0.16001379 3.9024751 0.1000002
v  0.92703128 4.052475 0.1000002
v  0.79996753 3.9024751 0.1000002
v  0.86664844 3.5024912 0.10000014
v  0.99371219 3.6524913 0.10000017
v  1.4666748 3.5024912 0.10000014
v  1.3166749 3.6524913 0.10000017
v  1.3166749 4.4858127 0.10000026
v  -1.4358408 1.3187504 0.099999875
v  -1.4666748 3.4024954 0.10000014
v  -1.4666748 1.6558218 0.099999934
v  -1.4439662 3.6495876 0.10000017
v  -1.3758404 3.8775079 0.1000002
v  -1.3166747 3.3956172 0.10000014
v  -1.2622976 4.086256 0.1000002
v  -1.2959647 3.6209633 0.10000014
v  -1.2366008 3.8195703 0.10000017
v  -1.1033375 4.2758322 0.10000023
v  -1.1377058 4.0013885 0.1000002
v  -0.99726868 4.1688743 0.10000023
v  -0.91229594 4.4333234 0.10000026
v  -0.82833165 4.3081427 0.10000023
v  -0.70250821 4.5458174 0.10000026
v  -0.64522165 4.4063311 0.10000026
v  -0.47397447 4.6133137 0.10000026
v  -0.44566274 4.46527 0.10000026
v  -0.2266947 4.6358123 0.10000029
v  -0.21988487 4.4858127 0.10000026
v  1.4666748 4.6358123 0.10000029
v  -0.82833165 4.3081427 0.25000027
v  -0.81665647 3.4170318 0.25000015
v  -0.64522165 4.4063311 0.25000027
v  -0.81665647 1.6211491 0.24999991
v  -0.77030706 3.6539259 0.25000015
v  -0.62364107 3.864691 0.25000021
v  -0.44566274 4.46527 0.25000027
v  -0.41060328 4.0074396 0.25000021
v  -0.21988487 4.4858127 0.25000027
v  -0.17417252 4.052475 0.25000021
v  1.3166749 4.4858127 0.25000027
v  0.92703128 4.052475 0.25000021
v  0.99371219 3.6524913 0.25000015
v  1.3166749 3.6524913 0.25000015
v  -1.2878194 1.3472261 0.24999991
v  -1.3166747 3.3956172 0.25000015
v  -1.3166747 1.6626682 0.24999991
v  -1.2959647 3.6209633 0.25000015
v  -1.2366008 3.8195703 0.25000021
v  -1.2039801 1.0651298 0.24999985
v  -1.1377058 4.0013885 0.25000021
v  -1.0642873 0.80651611 0.24999985
v  -0.99726868 4.1688743 0.25000021
v  -0.86685663 0.56906807 0.24999979
v  -0.62906706 0.37167016 0.24999979
v  -0.73679888 1.2171662 0.24999985
v  -0.48960876 0.86624998 0.24999985
v  -0.36929905 0.23196527 0.24999973
v  -0.12980652 0.62894779 0.24999979
v  -0.08506012 0.14805058 0.24999973
v  0.27943528 0.55250347 0.24999979
v  0.23343182 0.11916606 0.24999973
v  1.3166749 0.11916606 0.24999973
v  1.3166749 0.55250347 0.24999979

# 0 UV coordinates

# 34 vertex normals
vn 0 1.1920929e-07 -1
vn 0 -1.1920929e-07 1
vn 0.092202283 0.99574029 1.1870149e-07
vn 0 1 1.1920929e-07
vn 1 0 0
vn 0 -1 -1.1920929e-07
vn -0.045206621 -0.99897766 -1.1908742e-07
vn -0.18763873 -0.98223811 -1.1709191e-07
vn -0.38042173 -0.92481315 -1.1024632e-07
vn -0.55896842 -0.82918894 -9.8847025e-08
vn -0.70682818 -0.7073853 -8.4326899e-08
vn -0.82845819 -0.5600509 -6.676327e-08
vn -0.92411923 -0.38210419 -4.5550369e-08
vn -0.98199397 -0.18891233 -2.2520105e-08
vn -0.99896002 -0.04559515 -5.4353655e-09
vn -0.9989503 0.045806859 5.4606031e-09
vn -0.98180592 0.18988724 2.2636323e-08
vn -0.92326295 0.38416854 4.5796458e-08
vn -0.82647836 0.56296855 6.7111081e-08
vn -0.70414895 0.71005225 8.4644824e-08
vn -0.55704218 0.83048421 9.9001433e-08
vn -0.37990546 0.92502528 1.1027161e-07
vn -0.18783551 0.9822005 1.1708742e-07
vn -0.045352053 0.99897105 1.1908663e-07
vn -0.98638713 -0.16443966 -1.9602735e-08
vn 0.093974158 -0.99557465 -1.1868175e-07
vn 0.3795296 -0.9251796 -1.1029e-07
vn 0.70085615 -0.71330267 -8.5032305e-08
vn 0.92083395 -0.38995495 -4.6486253e-08
vn 0.99533719 -0.096456587 -1.1498521e-08
vn 0.99524289 0.097425029 1.1613968e-08
vn 0.91933048 0.39348623 4.6907214e-08
vn 0.69619393 0.71785372 8.5574833e-08
vn 0.37450039 0.92722678 1.1053405e-07

# Mesh 'C' with 268 faces
g C
usemtl font
f  1//1 2//1 3//1
f  2//1 1//1 4//1
f  4//1 1//1 5//1
f  5//1 1//1 6//1
f  6//1 1//1 7//1
f  6//1 7//1 8//1
f  8//1 7//1 9//1
f  8//1 9//1 10//1
f  10//1 9//1 11//1
f  11//1 9//1 12//1
f  13//1 14//1 15//1
f  14//1 13//1 16//1
f  16//1 13//1 17//1
f  16//1 17//1 18//1
f  18//1 17//1 19//1
f  18//1 19//1 20//1
f  20//1 19//1 21//1
f  20//1 21//1 22//1
f  22//1 21//1 23//1
f  22//1 23//1 24//1
f  24//1 23//1 3//1
f  24//1 3//1 25//1
f  24//1 25//1 26//1
f  25//1 3//1 2//1
f  26//1 25//1 27//1
f  26//1 27//1 28//1
f  26//1 28//1 29//1
f  29//1 28//1 30//1
f  29//1 30//1 31//1
f  31//1 30//1 32//1
f  31//1 32//1 33//1
f  33//1 32//1 34//1
f  35//2 36//2 37//2
f  36//2 35//2 38//2
f  36//2 38//2 39//2
f  39//2 38//2 40//2
f  40//2 38//2 41//2
f  40//2 41//2 42//2
f  42//2 41//2 43//2
f  42//2 43//2 44//2
f  44//2 43//2 45//2
f  44//2 45//2 46//2
f  46//2 45//2 47//2
f  46//2 47//2 48//2
f  48//2 47//2 49//2
f  48//2 49//2 50//2
f  50//2 49//2 51//2
f  50//2 51//2 52//2
f  52//2 51//2 53//2
f  54//2 55//2 56//2
f  55//2 54//2 57//2
f  55//2 57//2 58//2
f  58//2 57//2 59//2
f  58//2 59//2 60//2
f  60//2 59//2 61//2
f  60//2 61//2 62//2
f  62//2 61//2 53//2
f  62//2 53//2 63//2
f  63//2 53//2 51//2
f  54//2 64//2 65//2
f  64//2 54//2 66//2
f  66//2 54//2 67//2
f  66//2 67//2 68//2
f  67//2 54//2 56//2
f  68//2 67//2 69//2
f  68//2 69//2 70//2
f  68//2 70//2 71//2
f  71//2 70//2 72//2
f  71//2 72//2 73//2
f  73//2 72//2 74//2
f  73//2 74//2 75//2
f  75//2 74//2 76//2
f  75//2 76//2 77//2
f  75//2 77//2 78//2
f  78//2 77//2 79//2
f  78//2 79//2 80//2
f  80//2 79//2 81//2
f  82//2 83//2 84//2
f  83//2 82//2 85//2
f  85//2 82//2 86//2
f  86//2 82//2 35//2
f  86//2 35//2 87//2
f  86//2 87//2 88//2
f  87//2 35//2 37//2
f  88//2 87//2 89//2
f  88//2 89//2 90//2
f  88//2 90//2 91//2
f  91//2 90//2 92//2
f  91//2 92//2 93//2
f  91//2 93//2 94//2
f  94//2 93//2 95//2
f  94//2 95//2 96//2
f  96//2 95//2 97//2
f  96//2 97//2 98//2
f  98//2 97//2 99//2
f  98//2 99//2 100//2
f  100//2 99//2 101//2
f  100//2 101//2 102//2
f  102//2 101//2 81//2
f  102//2 81//2 79//2
f  62//3 34//4 32//3
f  34//4 62//3 63//4
f  34//5 51//5 33//5
f  51//5 34//5 63//5
f  51//6 31//7 33//6
f  31//7 51//6 49//7
f  49//7 29//8 31//7
f  29//8 49//7 47//8
f  47//8 26//9 29//8
f  26//9 47//8 45//9
f  45//9 24//10 26//9
f  24//10 45//9 43//10
f  43//10 22//11 24//10
f  22//11 43//10 41//11
f  38//12 22//11 41//11
f  22//11 38//12 20//12
f  35//13 20//12 38//12
f  20//12 35//13 18//13
f  82//14 18//13 35//13
f  18//13 82//14 16//14
f  84//15 16//14 82//14
f  16//14 84//15 14//15
f  83//16 14//15 84//15
f  14//15 83//16 15//16
f  85//17 15//16 83//16
f  15//16 85//17 13//17
f  86//18 13//17 85//17
f  13//17 86//18 17//18
f  88//19 17//18 86//18
f  17//18 88//19 19//19
f  91//20 19//19 88//19
f  19//19 91//20 21//20
f  91//20 23//21 21//20
f  23//21 91//20 94//21
f  94//21 3//22 23//21
f  3//22 94//21 96//22
f  96//22 1//23 3//22
f  1//23 96//22 98//23
f  98//23 7//24 1//23
f  7//24 98//23 100//24
f  100//24 9//4 7//24
f  9//4 100//24 102//4
f  9//5 79//5 12//5
f  79//5 9//5 102//5
f  79//6 11//6 12//6
f  11//6 79//6 77//6
f  76//25 11//25 77//25
f  11//25 76//25 10//25
f  76//6 8//26 10//6
f  8//26 76//6 74//26
f  74//26 6//27 8//26
f  6//27 74//26 72//27
f  72//27 5//28 6//27
f  5//28 72//27 70//28
f  5//28 69//29 4//29
f  69//29 5//28 70//28
f  4//29 67//30 2//30
f  67//30 4//29 69//29
f  2//30 56//31 25//31
f  56//31 2//30 67//30
f  25//31 55//32 27//32
f  55//32 25//31 56//31
f  27//32 58//33 28//33
f  58//33 27//32 55//32
f  58//33 30//34 28//33
f  30//34 58//33 60//34
f  60//34 32//3 30//34
f  32//3 60//34 62//3
f  103//2 104//2 105//2
f  104//2 103//2 106//2
f  105//2 104//2 107//2
f  105//2 107//2 108//2
f  105//2 108//2 109//2
f  109//2 108//2 110//2
f  109//2 110//2 111//2
f  111//2 110//2 112//2
f  111//2 112//2 113//2
f  113//2 112//2 114//2
f  113//2 114//2 115//2
f  113//2 115//2 116//2
f  117//2 118//2 119//2
f  118//2 117//2 120//2
f  120//2 117//2 121//2
f  121//2 117//2 122//2
f  121//2 122//2 123//2
f  123//2 122//2 124//2
f  123//2 124//2 125//2
f  125//2 124//2 126//2
f  125//2 126//2 103//2
f  103//2 126//2 106//2
f  106//2 126//2 127//2
f  106//2 127//2 128//2
f  128//2 127//2 129//2
f  129//2 127//2 130//2
f  129//2 130//2 131//2
f  131//2 130//2 132//2
f  131//2 132//2 133//2
f  133//2 132//2 134//2
f  133//2 134//2 135//2
f  133//2 135//2 136//2
f  64//30 106//31 65//31
f  106//31 64//30 104//30
f  66//29 104//30 64//30
f  104//30 66//29 107//29
f  68//28 107//29 66//29
f  107//29 68//28 108//28
f  110//27 68//28 71//27
f  68//28 110//27 108//28
f  112//26 71//27 73//26
f  71//27 112//26 110//27
f  114//6 73//26 75//6
f  73//26 114//6 112//26
f  114//25 78//25 115//25
f  78//25 114//25 75//25
f  116//6 78//6 80//6
f  78//6 116//6 115//6
f  81//5 116//5 80//5
f  116//5 81//5 113//5
f  111//24 81//4 101//24
f  81//4 111//24 113//4
f  109//23 101//24 99//23
f  101//24 109//23 111//24
f  105//22 99//23 97//22
f  99//23 105//22 109//23
f  103//21 97//22 95//21
f  97//22 103//21 105//22
f  125//20 95//21 93//20
f  95//21 125//20 103//21
f  125//20 92//19 123//19
f  92//19 125//20 93//20
f  123//19 90//18 121//18
f  90//18 123//19 92//19
f  121//18 89//17 120//17
f  89//17 121//18 90//18
f  120//17 87//16 118//16
f  87//16 120//17 89//17
f  118//16 37//15 119//15
f  37//15 118//16 87//16
f  119//15 36//14 117//14
f  36//14 119//15 37//15
f  117//14 39//13 122//13
f  39//13 117//14 36//14
f  122//13 40//12 124//12
f  40//12 122//13 39//13
f  124//12 42//11 126//11
f  42//11 124//12 40//12
f  127//10 42//11 44//10
f  42//11 127//10 126//11
f  130//9 44//10 46//9
f  44//10 130//9 127//10
f  132//8 46//9 48//8
f  46//9 132//8 130//9
f  134//7 48//8 50//7
f  48//8 134//7 132//8
f  135//6 50//7 52//6
f  50//7 135//6 134//7
f  53//5 135//5 52//5
f  135//5 53//5 136//5
f  133//3 53//4 61//3
f  53//4 133//3 136//4
f  131//34 61//3 59//34
f  61//3 131//34 133//3
f  129//33 59//34 57//33
f  59//34 129//33 131//34
f  54//32 129//33 57//33
f  129//33 54//32 128//32
f  65//31 128//32 54//32
f  128//32 65//31 106//31

