####
#
# OBJ File Generated by Meshlab
#
####
# Object alphabet12.obj
#
# Vertices: 96
# Faces: 188
#
####
mtllib ./alphabet12.obj.mtl

vn 0.397115 0.685874 -0.609817
v -0.082664 0.373332 -0.020000
vn -0.617993 -0.523507 -0.586537
v -0.173334 0.325334 -0.020000
vn -0.577350 0.577350 -0.577350
v -0.173334 0.373332 -0.020000
vn -0.355824 -0.301422 -0.884610
v -0.141331 0.319999 -0.020000
vn -0.355824 0.301422 -0.884610
v -0.141331 0.053333 -0.020000
vn -0.000000 0.285977 -0.958236
v 0.000002 0.229333 -0.020000
vn 0.036460 -0.135528 -0.990102
v -0.077334 0.245333 -0.020000
vn 0.000009 -0.831960 -0.554836
v 0.000002 0.112000 -0.020000
vn -0.397115 0.685874 -0.609816
v 0.082668 0.373332 -0.020000
vn -0.036457 -0.135522 -0.990103
v 0.077334 0.245333 -0.020000
vn -0.355831 0.301421 -0.884607
v 0.077334 0.053333 -0.020000
vn 0.577350 0.577350 -0.577350
v 0.173334 0.373332 -0.020000
vn 0.355831 -0.301421 -0.884607
v 0.141335 0.319999 -0.020000
vn 0.617998 -0.523500 -0.586538
v 0.173334 0.325334 -0.020000
vn -0.577350 -0.577350 -0.577350
v 0.045335 0.000000 -0.020000
vn -0.617997 0.523501 -0.586538
v 0.045335 0.047998 -0.020000
vn 0.577350 -0.577350 -0.577350
v 0.173334 0.000000 -0.020000
vn 0.355831 0.301421 -0.884607
v 0.141335 0.053333 -0.020000
vn 0.617997 0.523501 -0.586538
v 0.173334 0.047998 -0.020000
vn -0.577350 -0.577350 -0.577350
v -0.173334 0.000000 -0.020000
vn -0.617993 0.523507 -0.586537
v -0.173334 0.047998 -0.020000
vn 0.577350 -0.577350 -0.577350
v -0.045331 0.000000 -0.020000
vn 0.355824 0.301422 -0.884610
v -0.077334 0.053333 -0.020000
vn 0.617993 0.523507 -0.586537
v -0.045331 0.047998 -0.020000
vn -0.617993 0.523507 0.586537
v -0.173334 0.047998 0.008000
vn -0.355824 0.301422 0.884610
v -0.161334 0.037833 0.008000
vn -0.355824 0.301422 0.884610
v -0.141331 0.053333 0.008000
vn -0.301511 -0.301512 0.904534
v -0.161334 0.012000 0.008000
vn -0.617993 0.523508 0.586536
v -0.129331 0.043167 0.008000
vn -0.355824 -0.301422 0.884610
v -0.141331 0.319999 0.008000
vn -0.617993 -0.523507 0.586537
v -0.173334 0.325334 0.008000
vn -0.355824 -0.301422 0.884610
v -0.161334 0.335499 0.008000
vn -0.577350 0.577350 0.577350
v -0.173334 0.373332 0.008000
vn -0.617993 -0.523507 0.586537
v -0.129331 0.330164 0.008000
vn -0.617997 0.523500 0.586538
v 0.045335 0.047998 0.008000
vn -0.355831 0.301421 0.884607
v 0.057335 0.037833 0.008000
vn -0.355831 0.301421 0.884607
v 0.077334 0.053333 0.008000
vn -0.301511 -0.301511 0.904534
v 0.057335 0.012000 0.008000
vn -0.617997 0.523500 0.586538
v 0.089334 0.043167 0.008000
vn -0.036457 -0.135522 0.990103
v 0.077334 0.245333 0.008000
vn 0.218410 -0.811873 0.541442
v -0.089334 0.289939 0.008000
vn 0.036460 -0.135528 0.990102
v -0.077334 0.245333 0.008000
vn 0.000003 -0.288455 0.957493
v 0.000002 0.135917 0.008000
vn 0.355824 0.301422 0.884610
v -0.077334 0.053333 0.008000
vn 0.000010 -0.831960 0.554835
v 0.000002 0.112000 0.008000
vn -0.218402 -0.811876 0.541440
v 0.089334 0.289941 0.008000
vn -0.577350 -0.577350 0.577350
v -0.173334 -0.000000 0.008000
vn 0.577350 -0.577350 0.577350
v -0.045331 -0.000000 0.008000
vn 0.301511 -0.301511 0.904534
v -0.057331 0.012000 0.008000
vn 0.355824 0.301422 0.884610
v -0.057331 0.037833 0.008000
vn 0.617993 0.523507 0.586537
v -0.089334 0.043167 0.008000
vn 0.617993 0.523507 0.586537
v -0.045331 0.047998 0.008000
vn -0.577350 -0.577350 0.577350
v 0.045335 -0.000000 0.008000
vn 0.577350 -0.577350 0.577350
v 0.173334 -0.000000 0.008000
vn 0.301511 -0.301511 0.904534
v 0.161334 0.012000 0.008000
vn 0.355831 0.301421 0.884607
v 0.161334 0.037833 0.008000
vn 0.617997 0.523500 0.586538
v 0.129335 0.043167 0.008000
vn 0.355831 0.301421 0.884607
v 0.141335 0.053333 0.008000
vn 0.617997 -0.523500 0.586538
v 0.129335 0.330164 0.008000
vn 0.617997 0.523500 0.586538
v 0.173334 0.047998 0.008000
vn 0.355831 -0.301421 0.884607
v 0.141335 0.319999 0.008000
vn 0.355831 -0.301421 0.884607
v 0.161334 0.335499 0.008000
vn 0.617997 -0.523500 0.586538
v 0.173334 0.325334 0.008000
vn 0.301511 0.301511 0.904534
v 0.161334 0.361332 0.008000
vn -0.301511 0.301511 0.904534
v -0.161334 0.361332 0.008000
vn 0.397115 0.685874 0.609817
v -0.082664 0.373332 0.008000
vn 0.272683 0.470963 0.838950
v -0.089612 0.361332 0.008000
vn 0.000000 0.832161 0.554533
v 0.000002 0.205231 0.008000
vn 0.000000 0.285977 0.958236
v 0.000002 0.229333 0.008000
vn -0.272683 0.470963 0.838951
v 0.089616 0.361332 0.008000
vn -0.397115 0.685874 0.609817
v 0.082668 0.373332 0.008000
vn 0.577350 0.577350 0.577350
v 0.173334 0.373332 0.008000
vn -0.355824 -0.301422 0.884610
v -0.129331 0.330164 0.020000
vn -0.577350 0.577350 0.577350
v -0.161334 0.361332 0.020000
vn -0.617993 -0.523507 0.586537
v -0.161334 0.335499 0.020000
vn 0.397113 0.685871 0.609821
v -0.089612 0.361332 0.020000
vn 0.577350 -0.577350 0.577350
v -0.057331 0.012000 0.020000
vn -0.617993 0.523507 0.586537
v -0.161334 0.037833 0.020000
vn -0.577350 -0.577350 0.577350
v -0.161334 0.012000 0.020000
vn -0.355824 0.301422 0.884610
v -0.129331 0.043167 0.020000
vn 0.355821 0.301419 0.884611
v -0.089334 0.043167 0.020000
vn 0.617993 0.523507 0.586537
v -0.057331 0.037833 0.020000
vn 0.577350 -0.577350 0.577350
v 0.161334 0.012000 0.020000
vn -0.617997 0.523500 0.586538
v 0.057335 0.037833 0.020000
vn -0.577350 -0.577350 0.577350
v 0.057335 0.012000 0.020000
vn -0.355831 0.301421 0.884607
v 0.089334 0.043167 0.020000
vn 0.355831 0.301421 0.884607
v 0.129335 0.043167 0.020000
vn -0.036457 -0.135522 0.990103
v 0.089334 0.289941 0.020000
vn -0.397115 0.685874 0.609817
v 0.089616 0.361332 0.020000
vn 0.617997 0.523500 0.586538
v 0.161334 0.037833 0.020000
vn 0.355831 -0.301421 0.884607
v 0.129335 0.330164 0.020000
vn 0.577350 0.577350 0.577350
v 0.161334 0.361332 0.020000
vn 0.617997 -0.523501 0.586538
v 0.161334 0.335499 0.020000
vn 0.036462 -0.135528 0.990102
v -0.089334 0.289939 0.020000
vn 0.000000 0.285977 0.958236
v 0.000002 0.205231 0.020000
vn 0.000009 -0.831960 0.554836
v 0.000002 0.135917 0.020000
# 96 vertices, 0 vertices normals


usemtl material_0
f 1//1 2//2 3//3
f 2//2 1//1 4//4
f 4//4 1//1 5//5
f 6//6 7//7 1//1
f 7//7 6//6 8//8
f 8//8 6//6 9//9
f 8//8 9//9 10//10
f 10//10 9//9 11//11
f 12//12 13//13 9//9
f 13//13 12//12 14//14
f 11//11 15//15 16//16
f 15//15 11//11 17//17
f 17//17 11//11 18//18
f 18//18 11//11 9//9
f 18//18 9//9 13//13
f 17//17 18//18 19//19
f 5//5 20//20 21//21
f 20//20 5//5 22//22
f 22//22 5//5 23//23
f 23//23 5//5 1//1
f 23//23 1//1 7//7
f 22//22 23//23 24//24
f 25//25 26//26 27//27
f 26//26 25//25 28//28
f 27//27 26//26 29//29
f 27//27 29//29 30//30
f 31//31 32//32 33//33
f 32//32 31//31 30//30
f 32//32 30//30 34//34
f 34//34 30//30 29//29
f 35//35 36//36 37//37
f 36//36 35//35 38//38
f 37//37 36//36 39//39
f 37//37 39//39 40//40
f 41//41 42//42 43//43
f 42//42 41//41 44//44
f 43//43 42//42 45//45
f 43//43 45//45 46//46
f 46//46 45//45 40//40
f 46//46 40//40 39//39
f 47//47 28//28 25//25
f 28//28 47//47 48//48
f 28//28 48//48 49//49
f 49//49 48//48 50//50
f 51//51 44//44 41//41
f 44//44 51//51 50//50
f 44//44 50//50 52//52
f 52//52 50//50 48//48
f 53//53 38//38 35//35
f 38//38 53//53 54//54
f 38//38 54//54 55//55
f 55//55 54//54 56//56
f 57//57 58//58 59//59
f 58//58 57//57 56//56
f 58//58 56//56 60//60
f 60//60 56//56 54//54
f 59//59 61//61 62//62
f 61//61 59//59 58//58
f 62//62 61//61 63//63
f 62//62 63//63 64//64
f 33//33 65//65 66//66
f 65//65 33//33 32//32
f 66//66 65//65 67//67
f 66//66 67//67 68//68
f 66//66 68//68 69//69
f 69//69 68//68 70//70
f 69//69 70//70 71//71
f 71//71 70//70 72//72
f 72//72 70//70 64//64
f 72//72 64//64 63//63
f 71//71 6//6 69//69
f 6//6 71//71 9//9
f 71//71 12//12 9//9
f 12//12 71//71 72//72
f 12//12 63//63 14//14
f 63//63 12//12 72//72
f 63//63 13//13 14//14
f 13//13 63//63 61//61
f 13//13 58//58 18//18
f 58//58 13//13 61//61
f 58//58 19//19 18//18
f 19//19 58//58 60//60
f 19//19 54//54 17//17
f 54//54 19//19 60//60
f 54//54 15//15 17//17
f 15//15 54//54 53//53
f 35//35 15//15 53//53
f 15//15 35//35 16//16
f 35//35 11//11 16//16
f 11//11 35//35 37//37
f 40//40 11//11 37//37
f 11//11 40//40 10//10
f 10//10 45//45 8//8
f 45//45 10//10 40//40
f 42//42 8//8 45//45
f 8//8 42//42 7//7
f 7//7 44//44 23//23
f 44//44 7//7 42//42
f 44//44 24//24 23//23
f 24//24 44//44 52//52
f 24//24 48//48 22//22
f 48//48 24//24 52//52
f 48//48 20//20 22//22
f 20//20 48//48 47//47
f 25//25 20//20 47//47
f 20//20 25//25 21//21
f 25//25 5//5 21//21
f 5//5 25//25 27//27
f 30//30 5//5 27//27
f 5//5 30//30 4//4
f 30//30 2//2 4//4
f 2//2 30//30 31//31
f 33//33 2//2 31//31
f 2//2 33//33 3//3
f 33//33 1//1 3//3
f 1//1 33//33 66//66
f 1//1 69//69 6//6
f 69//69 1//1 66//66
f 73//73 74//74 75//75
f 74//74 73//73 76//76
f 77//77 78//78 79//79
f 78//78 77//77 80//80
f 80//80 77//77 81//81
f 80//80 81//81 73//73
f 73//73 81//81 76//76
f 81//81 77//77 82//82
f 83//83 84//84 85//85
f 84//84 83//83 86//86
f 86//86 83//83 87//87
f 86//86 87//87 88//88
f 88//88 87//87 89//89
f 87//87 83//83 90//90
f 89//89 91//91 92//92
f 91//91 89//89 87//87
f 92//92 91//91 93//93
f 76//76 94//94 95//95
f 94//94 76//76 81//81
f 95//95 94//94 96//96
f 95//95 96//96 88//88
f 95//95 88//88 89//89
f 78//78 29//29 26//26
f 29//29 78//78 80//80
f 78//78 28//28 79//79
f 28//28 78//78 26//26
f 77//77 28//28 49//49
f 28//28 77//77 79//79
f 50//50 77//77 49//49
f 77//77 50//50 82//82
f 81//81 50//50 51//51
f 50//50 81//81 82//82
f 41//41 81//81 51//51
f 81//81 41//41 94//94
f 94//94 43//43 96//96
f 43//43 94//94 41//41
f 46//46 96//96 43//43
f 96//96 46//46 88//88
f 88//88 39//39 86//86
f 39//39 88//88 46//46
f 84//84 39//39 36//36
f 39//39 84//84 86//86
f 84//84 38//38 85//85
f 38//38 84//84 36//36
f 83//83 38//38 55//55
f 38//38 83//83 85//85
f 56//56 83//83 55//55
f 83//83 56//56 90//90
f 87//87 56//56 57//57
f 56//56 87//87 90//90
f 59//59 87//87 57//57
f 87//87 59//59 91//91
f 93//93 59//59 62//62
f 59//59 93//93 91//91
f 64//64 93//93 62//62
f 93//93 64//64 92//92
f 89//89 64//64 70//70
f 64//64 89//89 92//92
f 89//89 68//68 95//95
f 68//68 89//89 70//70
f 67//67 95//95 68//68
f 95//95 67//67 76//76
f 74//74 67//67 65//65
f 67//67 74//74 76//76
f 74//74 32//32 75//75
f 32//32 74//74 65//65
f 73//73 32//32 34//34
f 32//32 73//73 75//75
f 73//73 29//29 80//80
f 29//29 73//73 34//34
# 188 faces, 0 coords texture

# End of File
