####
#
# OBJ File Generated by Meshlab
#
####
# Object alphabet13.obj
#
# Vertices: 80
# Faces: 156
#
####
mtllib ./alphabet13.obj.mtl

vn 0.402979 0.683462 -0.608678
v -0.069334 0.373332 -0.020000
vn -0.617993 -0.523507 -0.586537
v -0.165334 0.325334 -0.020000
vn -0.577350 0.577350 -0.577350
v -0.165334 0.373332 -0.020000
vn -0.355824 -0.301422 -0.884610
v -0.133331 0.319999 -0.020000
vn -0.355824 0.301422 -0.884610
v -0.133331 0.053333 -0.020000
vn -0.033665 0.130402 -0.990889
v 0.069334 0.122668 -0.020000
vn -0.731697 -0.188897 -0.654934
v -0.069334 0.250667 -0.020000
vn -0.402982 -0.683460 -0.608677
v 0.069334 0.000000 -0.020000
vn -0.577350 -0.577350 -0.577350
v -0.165334 0.000000 -0.020000
vn -0.617993 0.523507 -0.586537
v -0.165334 0.047998 -0.020000
vn 0.577350 -0.577350 -0.577350
v -0.037331 0.000000 -0.020000
vn 0.355824 0.301422 -0.884610
v -0.069334 0.053333 -0.020000
vn 0.617993 0.523507 -0.586537
v -0.037331 0.047998 -0.020000
vn 0.577350 0.577350 -0.577350
v 0.165334 0.373332 -0.020000
vn -0.617997 -0.523500 -0.586538
v 0.037335 0.325334 -0.020000
vn -0.577350 0.577350 -0.577350
v 0.037335 0.373332 -0.020000
vn -0.355831 -0.301421 -0.884607
v 0.069334 0.319999 -0.020000
vn 0.355831 -0.301421 -0.884607
v 0.133335 0.319999 -0.020000
vn 0.617997 -0.523500 -0.586538
v 0.165334 0.325334 -0.020000
vn 0.577350 -0.577350 -0.577350
v 0.133335 0.000000 -0.020000
vn -0.577350 0.577350 0.577350
v -0.165334 0.373332 0.008000
vn -0.301511 0.301511 0.904534
v -0.153334 0.361332 0.008000
vn 0.402979 0.683461 0.608678
v -0.069334 0.373332 0.008000
vn -0.355824 -0.301422 0.884610
v -0.153334 0.335499 0.008000
vn 0.274771 0.466018 0.841028
v -0.076409 0.361332 0.008000
vn -0.210214 0.814255 0.541108
v 0.081334 0.076187 0.008000
vn -0.033666 0.130402 0.990890
v 0.069334 0.122668 0.008000
vn -0.355831 -0.301421 0.884607
v 0.069334 0.319999 0.008000
vn -0.617998 -0.523500 0.586538
v 0.037335 0.325334 0.008000
vn -0.355831 -0.301421 0.884607
v 0.049335 0.335499 0.008000
vn -0.577350 0.577350 0.577350
v 0.037335 0.373332 0.008000
vn -0.617997 -0.523501 0.586538
v 0.081334 0.330164 0.008000
vn 0.210210 -0.814258 0.541106
v -0.081334 0.297150 0.008000
vn 0.033664 -0.130400 0.990890
v -0.069334 0.250667 0.008000
vn -0.274772 -0.466016 0.841029
v 0.076409 0.012000 0.008000
vn 0.355824 0.301422 0.884610
v -0.069334 0.053333 0.008000
vn -0.402982 -0.683460 0.608677
v 0.069334 -0.000000 0.008000
vn 0.577351 -0.577351 0.577350
v 0.133335 -0.000000 0.008000
vn 0.301511 -0.301511 0.904534
v 0.121335 0.012000 0.008000
vn 0.617998 -0.523501 0.586537
v 0.121335 0.330164 0.008000
vn 0.355831 -0.301421 0.884607
v 0.133335 0.319999 0.008000
vn 0.355831 -0.301421 0.884607
v 0.153334 0.335499 0.008000
vn 0.617998 -0.523500 0.586538
v 0.165334 0.325334 0.008000
vn 0.301511 0.301511 0.904534
v 0.153334 0.361332 0.008000
vn -0.301511 0.301511 0.904534
v 0.049335 0.361332 0.008000
vn 0.577350 0.577350 0.577350
v 0.165334 0.373332 0.008000
vn -0.617993 0.523507 0.586537
v -0.165334 0.047998 0.008000
vn -0.355824 0.301422 0.884610
v -0.153334 0.037833 0.008000
vn -0.355824 0.301422 0.884610
v -0.133331 0.053333 0.008000
vn -0.301511 -0.301512 0.904534
v -0.153334 0.012000 0.008000
vn -0.617993 0.523508 0.586536
v -0.121331 0.043167 0.008000
vn -0.355824 -0.301422 0.884610
v -0.133331 0.319999 0.008000
vn -0.617993 -0.523507 0.586537
v -0.165334 0.325334 0.008000
vn -0.617993 -0.523507 0.586537
v -0.121331 0.330164 0.008000
vn -0.577350 -0.577350 0.577350
v -0.165334 -0.000000 0.008000
vn 0.577350 -0.577350 0.577350
v -0.037331 -0.000000 0.008000
vn 0.301511 -0.301511 0.904534
v -0.049331 0.012000 0.008000
vn 0.355824 0.301422 0.884610
v -0.049331 0.037833 0.008000
vn 0.617993 0.523507 0.586537
v -0.081334 0.043167 0.008000
vn 0.617993 0.523507 0.586537
v -0.037331 0.047998 0.008000
vn 0.577350 -0.577351 0.577350
v -0.049331 0.012000 0.020000
vn -0.617993 0.523507 0.586537
v -0.153334 0.037833 0.020000
vn -0.577350 -0.577350 0.577350
v -0.153334 0.012000 0.020000
vn -0.355824 0.301422 0.884610
v -0.121331 0.043167 0.020000
vn 0.355824 0.301422 0.884610
v -0.081334 0.043167 0.020000
vn -0.355824 -0.301422 0.884610
v -0.121331 0.330164 0.020000
vn 0.617993 0.523507 0.586537
v -0.049331 0.037833 0.020000
vn -0.577350 0.577350 0.577350
v -0.153334 0.361332 0.020000
vn -0.617993 -0.523507 0.586537
v -0.153334 0.335499 0.020000
vn 0.402979 0.683461 0.608678
v -0.076409 0.361332 0.020000
vn 0.033665 -0.130400 0.990890
v -0.081334 0.297150 0.020000
vn -0.402982 -0.683460 0.608677
v 0.076409 0.012000 0.020000
vn -0.033666 0.130402 0.990890
v 0.081334 0.076187 0.020000
vn 0.577350 -0.577350 0.577350
v 0.121335 0.012000 0.020000
vn -0.355831 -0.301421 0.884607
v 0.081334 0.330164 0.020000
vn -0.577350 0.577350 0.577350
v 0.049335 0.361332 0.020000
vn -0.617997 -0.523501 0.586538
v 0.049335 0.335499 0.020000
vn 0.577350 0.577350 0.577350
v 0.153334 0.361332 0.020000
vn 0.355831 -0.301421 0.884607
v 0.121335 0.330164 0.020000
vn 0.617997 -0.523501 0.586538
v 0.153334 0.335499 0.020000
# 80 vertices, 0 vertices normals


usemtl material_0
f 1//1 2//2 3//3
f 2//2 1//1 4//4
f 4//4 1//1 5//5
f 6//6 7//7 1//1
f 7//7 6//6 8//8
f 5//5 9//9 10//10
f 9//9 5//5 11//11
f 11//11 5//5 12//12
f 12//12 5//5 1//1
f 12//12 1//1 7//7
f 11//11 12//12 13//13
f 14//14 15//15 16//16
f 15//15 14//14 17//17
f 17//17 14//14 18//18
f 17//17 18//18 6//6
f 6//6 18//18 8//8
f 18//18 14//14 19//19
f 20//20 8//8 18//18
f 21//21 22//22 23//23
f 22//22 21//21 24//24
f 23//23 22//22 25//25
f 23//23 25//25 26//26
f 23//23 26//26 27//27
f 27//27 26//26 28//28
f 29//29 30//30 31//31
f 30//30 29//29 28//28
f 30//30 28//28 32//32
f 32//32 28//28 26//26
f 33//33 34//34 35//35
f 34//34 33//33 36//36
f 35//35 34//34 37//37
f 35//35 37//37 38//38
f 35//35 38//38 39//39
f 39//39 38//38 40//40
f 40//40 38//38 41//41
f 40//40 41//41 42//42
f 42//42 41//41 43//43
f 42//42 43//43 44//44
f 31//31 45//45 46//46
f 45//45 31//31 30//30
f 46//46 45//45 44//44
f 46//46 44//44 43//43
f 47//47 48//48 49//49
f 48//48 47//47 50//50
f 49//49 48//48 51//51
f 49//49 51//51 52//52
f 53//53 24//24 21//21
f 24//24 53//53 52//52
f 24//24 52//52 54//54
f 54//54 52//52 51//51
f 55//55 50//50 47//47
f 50//50 55//55 56//56
f 50//50 56//56 57//57
f 57//57 56//56 58//58
f 59//59 36//36 33//33
f 36//36 59//59 58//58
f 36//36 58//58 60//60
f 60//60 58//58 56//56
f 31//31 15//15 29//29
f 15//15 31//31 16//16
f 31//31 14//14 16//16
f 14//14 31//31 46//46
f 14//14 43//43 19//19
f 43//43 14//14 46//46
f 43//43 18//18 19//19
f 18//18 43//43 41//41
f 18//18 38//38 20//20
f 38//38 18//18 41//41
f 38//38 8//8 20//20
f 8//8 38//38 37//37
f 34//34 8//8 37//37
f 8//8 34//34 7//7
f 7//7 36//36 12//12
f 36//36 7//7 34//34
f 36//36 13//13 12//12
f 13//13 36//36 60//60
f 13//13 56//56 11//11
f 56//56 13//13 60//60
f 56//56 9//9 11//11
f 9//9 56//56 55//55
f 47//47 9//9 55//55
f 9//9 47//47 10//10
f 47//47 5//5 10//10
f 5//5 47//47 49//49
f 52//52 5//5 49//49
f 5//5 52//52 4//4
f 52//52 2//2 4//4
f 2//2 52//52 53//53
f 21//21 2//2 53//53
f 2//2 21//21 3//3
f 21//21 1//1 3//3
f 1//1 21//21 23//23
f 1//1 27//27 6//6
f 27//27 1//1 23//23
f 28//28 6//6 27//27
f 6//6 28//28 17//17
f 28//28 15//15 17//17
f 15//15 28//28 29//29
f 61//61 62//62 63//63
f 62//62 61//61 64//64
f 64//64 61//61 65//65
f 64//64 65//65 66//66
f 65//65 61//61 67//67
f 66//66 68//68 69//69
f 68//68 66//66 70//70
f 70//70 66//66 71//71
f 71//71 66//66 65//65
f 70//70 71//71 72//72
f 70//70 72//72 73//73
f 73//73 72//72 74//74
f 73//73 74//74 75//75
f 75//75 76//76 77//77
f 76//76 75//75 78//78
f 78//78 75//75 79//79
f 79//79 75//75 74//74
f 78//78 79//79 80//80
f 68//68 24//24 69//69
f 24//24 68//68 22//22
f 66//66 24//24 54//54
f 24//24 66//66 69//69
f 66//66 51//51 64//64
f 51//51 66//66 54//54
f 62//62 51//51 48//48
f 51//51 62//62 64//64
f 62//62 50//50 63//63
f 50//50 62//62 48//48
f 61//61 50//50 57//57
f 50//50 61//61 63//63
f 58//58 61//61 57//57
f 61//61 58//58 67//67
f 65//65 58//58 59//59
f 58//58 65//65 67//67
f 33//33 65//65 59//59
f 65//65 33//33 71//71
f 71//71 35//35 72//72
f 35//35 71//71 33//33
f 74//74 35//35 39//39
f 35//35 74//74 72//72
f 40//40 74//74 39//39
f 74//74 40//40 79//79
f 80//80 40//40 42//42
f 40//40 80//80 79//79
f 44//44 80//80 42//42
f 80//80 44//44 78//78
f 76//76 44//44 45//45
f 44//44 76//76 78//78
f 76//76 30//30 77//77
f 30//30 76//76 45//45
f 75//75 30//30 32//32
f 30//30 75//75 77//77
f 75//75 26//26 73//73
f 26//26 75//75 32//32
f 25//25 73//73 26//26
f 73//73 25//25 70//70
f 68//68 25//25 22//22
f 25//25 68//68 70//70
# 156 faces, 0 coords texture

# End of File
