####
#
# OBJ File Generated by Meshlab
#
####
# Object alphabet9.obj
#
# Vertices: 88
# Faces: 172
#
####
mtllib ./alphabet9.obj.mtl

vn -0.066239 0.680690 -0.729571
v -0.064001 0.058667 -0.020000
vn -0.577350 -0.577350 -0.577350
v -0.080001 0.000000 -0.020000
vn -0.577350 0.577350 -0.577350
v -0.080001 0.058667 -0.020000
vn 0.033529 -0.716544 -0.696736
v -0.064001 0.000000 -0.020000
vn -0.260350 0.596741 -0.759025
v -0.045001 0.062400 -0.020000
vn 0.141264 -0.714743 -0.684973
v -0.041434 0.002117 -0.020000
vn -0.479606 0.454586 -0.750553
v -0.029600 0.073600 -0.020000
vn 0.285976 -0.671061 -0.684028
v -0.020666 0.008467 -0.020000
vn -0.610646 0.247070 -0.752375
v -0.019400 0.089333 -0.020000
vn 0.417672 -0.596947 -0.684985
v -0.001700 0.019050 -0.020000
vn -0.680737 0.066143 -0.729536
v -0.015999 0.106665 -0.020000
vn 0.577350 0.577350 -0.577350
v 0.080001 0.442664 -0.020000
vn -0.617993 -0.523507 -0.586537
v -0.048002 0.394666 -0.020000
vn -0.577350 0.577350 -0.577350
v -0.048002 0.442664 -0.020000
vn -0.355824 -0.301422 -0.884610
v -0.015999 0.389331 -0.020000
vn 0.355824 -0.301422 -0.884610
v 0.047998 0.389331 -0.020000
vn 0.521461 -0.505242 -0.687611
v 0.015466 0.033866 -0.020000
vn 0.605166 -0.402718 -0.686726
v 0.029699 0.051450 -0.020000
vn 0.672577 -0.279363 -0.685272
v 0.039865 0.070333 -0.020000
vn 0.714514 -0.140325 -0.685404
v 0.045965 0.090516 -0.020000
vn 0.617993 -0.523507 -0.586537
v 0.080001 0.394666 -0.020000
vn 0.716619 -0.033836 -0.696644
v 0.047998 0.112000 -0.020000
vn -0.577350 0.577350 0.577350
v -0.080001 0.058667 0.008000
vn -0.301511 0.301511 0.904534
v -0.068001 0.046667 0.008000
vn -0.066239 0.680690 0.729571
v -0.064001 0.058667 0.008000
vn -0.301511 -0.301511 0.904534
v -0.068001 0.012000 0.008000
vn -0.070476 0.724234 0.685943
v -0.062834 0.046667 0.008000
vn -0.260350 0.596740 0.759025
v -0.045001 0.062400 0.008000
vn -0.299846 0.687267 0.661632
v -0.040086 0.051136 0.008000
vn -0.479606 0.454586 0.750553
v -0.029600 0.073600 0.008000
vn -0.539925 0.511759 0.668269
v -0.020742 0.065204 0.008000
vn -0.610646 0.247070 0.752375
v -0.019400 0.089333 0.008000
vn -0.690817 0.279507 0.666819
v -0.008070 0.084749 0.008000
vn -0.680737 0.066143 0.729536
v -0.015999 0.106665 0.008000
vn -0.355824 -0.301422 0.884610
v -0.015999 0.389331 0.008000
vn -0.617993 -0.523507 0.586537
v -0.048002 0.394666 0.008000
vn -0.355824 -0.301422 0.884610
v -0.036002 0.404831 0.008000
vn -0.577350 0.577350 0.577350
v -0.048002 0.442664 0.008000
vn -0.617993 -0.523507 0.586537
v -0.003999 0.399496 0.008000
vn -0.724216 0.070367 0.685974
v -0.003999 0.105499 0.008000
vn -0.577350 -0.577350 0.577350
v -0.080001 -0.000000 0.008000
vn 0.033529 -0.716544 0.696736
v -0.064001 -0.000000 0.008000
vn 0.032545 -0.695509 0.717780
v -0.064563 0.012000 0.008000
vn 0.132377 -0.669778 0.730667
v -0.043772 0.013950 0.008000
vn 0.141264 -0.714743 0.684972
v -0.041434 0.002117 0.008000
vn 0.267209 -0.627021 0.731740
v -0.025398 0.019568 0.008000
vn 0.285977 -0.671062 0.684028
v -0.020666 0.008467 0.008000
vn 0.391411 -0.559413 0.730653
v -0.008615 0.028933 0.008000
vn 0.417672 -0.596947 0.684985
v -0.001700 0.019050 0.008000
vn 0.492601 -0.477279 0.727701
v 0.006814 0.042250 0.008000
vn 0.521461 -0.505242 0.687611
v 0.015466 0.033866 0.008000
vn 0.570139 -0.379409 0.728691
v 0.019665 0.058127 0.008000
vn 0.605166 -0.402718 0.686726
v 0.029699 0.051450 0.008000
vn 0.630842 -0.262028 0.730329
v 0.028727 0.074959 0.008000
vn 0.670448 -0.131671 0.730179
v 0.034131 0.092840 0.008000
vn 0.672577 -0.279363 0.685271
v 0.039865 0.070333 0.008000
vn 0.695394 -0.032834 0.717878
v 0.035998 0.112566 0.008000
vn 0.617993 -0.523508 0.586536
v 0.035998 0.399496 0.008000
vn 0.355823 -0.301422 0.884610
v 0.047998 0.389331 0.008000
vn 0.355824 -0.301422 0.884610
v 0.068001 0.404831 0.008000
vn 0.714514 -0.140325 0.685404
v 0.045965 0.090516 0.008000
vn 0.716619 -0.033836 0.696644
v 0.047998 0.112000 0.008000
vn 0.617993 -0.523507 0.586537
v 0.080001 0.394666 0.008000
vn 0.301511 0.301511 0.904534
v 0.068001 0.430664 0.008000
vn -0.301511 0.301511 0.904534
v -0.036002 0.430664 0.008000
vn 0.577350 0.577350 0.577350
v 0.080001 0.442664 0.008000
vn 0.033529 -0.716544 0.696736
v -0.064563 0.012000 0.020000
vn -0.577350 0.577350 0.577350
v -0.068001 0.046667 0.020000
vn -0.577350 -0.577350 0.577350
v -0.068001 0.012000 0.020000
vn -0.066239 0.680690 0.729571
v -0.062834 0.046667 0.020000
vn 0.141264 -0.714743 0.684972
v -0.043772 0.013950 0.020000
vn -0.260350 0.596741 0.759025
v -0.040086 0.051136 0.020000
vn 0.285976 -0.671062 0.684028
v -0.025398 0.019568 0.020000
vn -0.479606 0.454586 0.750553
v -0.020742 0.065204 0.020000
vn 0.417672 -0.596947 0.684985
v -0.008615 0.028933 0.020000
vn -0.610646 0.247070 0.752375
v -0.008070 0.084749 0.020000
vn 0.521461 -0.505242 0.687611
v 0.006814 0.042250 0.020000
vn -0.680737 0.066143 0.729536
v -0.003999 0.105499 0.020000
vn -0.355824 -0.301422 0.884610
v -0.003999 0.399496 0.020000
vn -0.577350 0.577350 0.577350
v -0.036002 0.430664 0.020000
vn -0.617993 -0.523507 0.586537
v -0.036002 0.404831 0.020000
vn 0.577350 0.577350 0.577350
v 0.068001 0.430664 0.020000
vn 0.355824 -0.301422 0.884610
v 0.035998 0.399496 0.020000
vn 0.605166 -0.402718 0.686726
v 0.019665 0.058127 0.020000
vn 0.672577 -0.279363 0.685272
v 0.028727 0.074959 0.020000
vn 0.714514 -0.140325 0.685404
v 0.034131 0.092840 0.020000
vn 0.716618 -0.033836 0.696644
v 0.035998 0.112566 0.020000
vn 0.617993 -0.523507 0.586537
v 0.068001 0.404831 0.020000
# 88 vertices, 0 vertices normals


usemtl material_0
f 1//1 2//2 3//3
f 2//2 1//1 4//4
f 4//4 1//1 5//5
f 4//4 5//5 6//6
f 6//6 5//5 7//7
f 6//6 7//7 8//8
f 8//8 7//7 9//9
f 8//8 9//9 10//10
f 10//10 9//9 11//11
f 12//12 13//13 14//14
f 13//13 12//12 15//15
f 15//15 12//12 16//16
f 15//15 16//16 11//11
f 11//11 16//16 10//10
f 10//10 16//16 17//17
f 17//17 16//16 18//18
f 18//18 16//16 19//19
f 19//19 16//16 20//20
f 16//16 12//12 21//21
f 22//22 20//20 16//16
f 23//23 24//24 25//25
f 24//24 23//23 26//26
f 25//25 24//24 27//27
f 25//25 27//27 28//28
f 28//28 27//27 29//29
f 28//28 29//29 30//30
f 30//30 29//29 31//31
f 30//30 31//31 32//32
f 32//32 31//31 33//33
f 32//32 33//33 34//34
f 34//34 33//33 35//35
f 36//36 37//37 38//38
f 37//37 36//36 35//35
f 37//37 35//35 39//39
f 39//39 35//35 33//33
f 39//39 33//33 40//40
f 41//41 26//26 23//23
f 26//26 41//41 42//42
f 26//26 42//42 43//43
f 43//43 42//42 44//44
f 44//44 42//42 45//45
f 44//44 45//45 46//46
f 46//46 45//45 47//47
f 46//46 47//47 48//48
f 48//48 47//47 49//49
f 48//48 49//49 50//50
f 50//50 49//49 51//51
f 50//50 51//51 52//52
f 52//52 51//51 53//53
f 52//52 53//53 54//54
f 54//54 53//53 55//55
f 55//55 53//53 56//56
f 55//55 56//56 57//57
f 57//57 56//56 58//58
f 58//58 56//56 59//59
f 58//58 59//59 60//60
f 59//59 56//56 61//61
f 59//59 61//61 62//62
f 60//60 59//59 63//63
f 60//60 63//63 64//64
f 38//38 65//65 66//66
f 65//65 38//38 37//37
f 66//66 65//65 64//64
f 66//66 64//64 63//63
f 23//23 2//2 41//41
f 2//2 23//23 3//3
f 23//23 1//1 3//3
f 1//1 23//23 25//25
f 25//25 5//5 1//1
f 5//5 25//25 28//28
f 28//28 7//7 5//5
f 7//7 28//28 30//30
f 32//32 7//7 30//30
f 7//7 32//32 9//9
f 34//34 9//9 32//32
f 9//9 34//34 11//11
f 35//35 11//11 34//34
f 11//11 35//35 15//15
f 35//35 13//13 15//15
f 13//13 35//35 36//36
f 38//38 13//13 36//36
f 13//13 38//38 14//14
f 38//38 12//12 14//14
f 12//12 38//38 66//66
f 12//12 63//63 21//21
f 63//63 12//12 66//66
f 63//63 16//16 21//21
f 16//16 63//63 59//59
f 16//16 62//62 22//22
f 62//62 16//16 59//59
f 22//22 61//61 20//20
f 61//61 22//22 62//62
f 20//20 56//56 19//19
f 56//56 20//20 61//61
f 19//19 53//53 18//18
f 53//53 19//19 56//56
f 18//18 51//51 17//17
f 51//51 18//18 53//53
f 51//51 10//10 17//17
f 10//10 51//51 49//49
f 49//49 8//8 10//10
f 8//8 49//49 47//47
f 47//47 6//6 8//8
f 6//6 47//47 45//45
f 45//45 4//4 6//6
f 4//4 45//45 42//42
f 42//42 2//2 4//4
f 2//2 42//42 41//41
f 67//67 68//68 69//69
f 68//68 67//67 70//70
f 70//70 67//67 71//71
f 70//70 71//71 72//72
f 72//72 71//71 73//73
f 72//72 73//73 74//74
f 74//74 73//73 75//75
f 74//74 75//75 76//76
f 76//76 75//75 77//77
f 76//76 77//77 78//78
f 78//78 77//77 79//79
f 79//79 80//80 81//81
f 80//80 79//79 82//82
f 82//82 79//79 83//83
f 83//83 79//79 77//77
f 83//83 77//77 84//84
f 83//83 84//84 85//85
f 83//83 85//85 86//86
f 83//83 86//86 87//87
f 82//82 83//83 88//88
f 78//78 33//33 76//76
f 33//33 78//78 40//40
f 76//76 31//31 74//74
f 31//31 76//76 33//33
f 72//72 31//31 29//29
f 31//31 72//72 74//74
f 70//70 29//29 27//27
f 29//29 70//70 72//72
f 68//68 27//27 24//24
f 27//27 68//68 70//70
f 68//68 26//26 69//69
f 26//26 68//68 24//24
f 67//67 26//26 43//43
f 26//26 67//67 69//69
f 71//71 43//43 44//44
f 43//43 71//71 67//67
f 73//73 44//44 46//46
f 44//44 73//73 71//71
f 75//75 46//46 48//48
f 46//46 75//75 73//73
f 77//77 48//48 50//50
f 48//48 77//77 75//75
f 52//52 77//77 50//50
f 77//77 52//52 84//84
f 54//54 84//84 52//52
f 84//84 54//54 85//85
f 55//55 85//85 54//54
f 85//85 55//55 86//86
f 57//57 86//86 55//55
f 86//86 57//57 87//87
f 58//58 87//87 57//57
f 87//87 58//58 83//83
f 88//88 58//58 60//60
f 58//58 88//88 83//83
f 64//64 88//88 60//60
f 88//88 64//64 82//82
f 80//80 64//64 65//65
f 64//64 80//80 82//82
f 80//80 37//37 81//81
f 37//37 80//80 65//65
f 79//79 37//37 39//39
f 37//37 79//79 81//81
f 79//79 40//40 78//78
f 40//40 79//79 39//39
# 172 faces, 0 coords texture

# End of File
