####
#
# OBJ File Generated by Meshlab
#
####
# Object alphabet3.obj
#
# Vertices: 144
# Faces: 288
#
####
mtllib ./alphabet3.obj.mtl

vn 0.032353 0.716253 -0.697090
v 0.040000 0.373332 -0.020000
vn -0.617993 -0.523507 -0.586537
v -0.141335 0.325334 -0.020000
vn -0.577350 0.577350 -0.577350
v -0.141335 0.373332 -0.020000
vn -0.355824 -0.301422 -0.884610
v -0.109332 0.319999 -0.020000
vn 0.301511 -0.301511 -0.904534
v -0.045335 0.314665 -0.020000
vn -0.355824 0.301422 -0.884610
v -0.109332 0.053333 -0.020000
vn -0.063306 -0.682103 -0.728511
v 0.034666 0.314665 -0.020000
vn -0.240950 -0.613589 -0.751965
v 0.050332 0.311731 -0.020000
vn 0.135753 0.714953 -0.685867
v 0.060068 0.371515 -0.020000
vn -0.447679 -0.487542 -0.749590
v 0.064266 0.302932 -0.020000
vn 0.274421 0.674828 -0.685055
v 0.078668 0.366065 -0.020000
vn -0.591503 -0.270709 -0.759501
v 0.074067 0.289999 -0.020000
vn -0.678123 -0.071442 -0.731468
v 0.077334 0.274666 -0.020000
vn -0.681220 0.065146 -0.729175
v 0.077334 0.133333 -0.020000
vn -0.577350 -0.577350 -0.577350
v -0.141335 0.000000 -0.020000
vn -0.617993 0.523507 -0.586537
v -0.141335 0.047998 -0.020000
vn 0.031829 -0.716123 -0.697248
v 0.008002 0.000000 -0.020000
vn 0.301511 0.301511 -0.904534
v -0.045335 0.058667 -0.020000
vn -0.065120 0.681232 -0.729165
v 0.002667 0.058667 -0.020000
vn -0.251046 0.605391 -0.755300
v 0.031000 0.064134 -0.020000
vn 0.134768 -0.715152 -0.685854
v 0.035134 0.002417 -0.020000
vn -0.465060 0.468292 -0.751280
v 0.055200 0.080534 -0.020000
vn 0.275349 -0.674967 -0.684545
v 0.060000 0.009666 -0.020000
vn -0.603598 0.252783 -0.756155
v 0.071800 0.104667 -0.020000
vn 0.406811 -0.604380 -0.685003
v 0.082600 0.021749 -0.020000
vn 0.401604 0.606833 -0.685907
v 0.095802 0.356983 -0.020000
vn 0.515507 -0.512749 -0.686542
v 0.102934 0.038666 -0.020000
vn 0.506686 0.520377 -0.687370
v 0.111469 0.344267 -0.020000
vn 0.605752 -0.404263 -0.685300
v 0.119734 0.059082 -0.020000
vn 0.597085 0.416660 -0.685481
v 0.124535 0.329017 -0.020000
vn 0.675220 -0.274218 -0.684750
v 0.131735 0.081666 -0.020000
vn 0.670291 0.287294 -0.684231
v 0.133868 0.312334 -0.020000
vn 0.715118 -0.134578 -0.685927
v 0.138935 0.106416 -0.020000
vn 0.714540 0.142976 -0.684829
v 0.139468 0.294217 -0.020000
vn 0.716131 -0.031863 -0.697238
v 0.141335 0.133333 -0.020000
vn 0.716692 0.034136 -0.696554
v 0.141335 0.274666 -0.020000
vn -0.577350 -0.577350 0.577350
v -0.141335 -0.000000 0.008000
vn -0.301511 -0.301511 0.904534
v -0.129335 0.012000 0.008000
vn -0.617993 0.523507 0.586537
v -0.141335 0.047998 0.008000
vn 0.031829 -0.716123 0.697248
v 0.008002 -0.000000 0.008000
vn 0.030941 -0.696140 0.717239
v 0.007468 0.012000 0.008000
vn 0.126631 -0.671971 0.729671
v 0.032901 0.014265 0.008000
vn 0.134768 -0.715152 0.685854
v 0.035134 0.002417 0.008000
vn 0.257688 -0.631675 0.731152
v 0.055443 0.020837 0.008000
vn 0.275349 -0.674968 0.684545
v 0.060000 0.009666 0.008000
vn 0.381254 -0.566412 0.730632
v 0.075865 0.031756 0.008000
vn 0.406811 -0.604380 0.685003
v 0.082600 0.021749 0.008000
vn 0.485399 -0.482802 0.728897
v 0.094388 0.047166 0.008000
vn 0.515507 -0.512749 0.686542
v 0.102934 0.038666 0.008000
vn 0.568213 -0.379211 0.730296
v 0.109703 0.065777 0.008000
vn 0.605752 -0.404263 0.685300
v 0.119734 0.059082 0.008000
vn 0.632310 -0.256792 0.730919
v 0.120558 0.086205 0.008000
vn 0.675220 -0.274218 0.684750
v 0.131735 0.081666 0.008000
vn 0.672088 -0.126481 0.729590
v 0.127086 0.108646 0.008000
vn 0.696128 -0.030974 0.717250
v 0.129335 0.133867 0.008000
vn 0.695282 0.033116 0.717974
v 0.129335 0.274095 0.008000
vn -0.577350 0.577350 0.577350
v -0.141335 0.373332 0.008000
vn -0.301511 0.301511 0.904534
v -0.129335 0.361332 0.008000
vn 0.032353 0.716253 0.697090
v 0.040000 0.373332 0.008000
vn -0.355824 -0.301422 0.884610
v -0.129335 0.335499 0.008000
vn 0.031435 0.695946 0.717406
v 0.039458 0.361332 0.008000
vn 0.127562 0.671811 0.729656
v 0.057819 0.359670 0.008000
vn 0.135753 0.714953 0.685867
v 0.060068 0.371515 0.008000
vn 0.257223 0.632533 0.730574
v 0.074125 0.354892 0.008000
vn 0.274422 0.674828 0.685055
v 0.078668 0.366065 0.008000
vn 0.377415 0.570285 0.729612
v 0.089148 0.346928 0.008000
vn 0.401604 0.606833 0.685907
v 0.095802 0.356983 0.008000
vn 0.478294 0.491217 0.727970
v 0.103063 0.335634 0.008000
vn 0.506687 0.520377 0.687370
v 0.111469 0.344267 0.008000
vn 0.560393 0.391056 0.730093
v 0.114646 0.322116 0.008000
vn 0.597085 0.416660 0.685481
v 0.124535 0.329017 0.008000
vn 0.626693 0.268607 0.731509
v 0.122778 0.307581 0.008000
vn 0.669292 0.133922 0.730831
v 0.127640 0.291850 0.008000
vn 0.670291 0.287294 0.684231
v 0.133868 0.312334 0.008000
vn 0.715118 -0.134578 0.685926
v 0.138935 0.106416 0.008000
vn 0.714540 0.142975 0.684829
v 0.139468 0.294217 0.008000
vn 0.716131 -0.031864 0.697238
v 0.141335 0.133333 0.008000
vn 0.716692 0.034136 0.696554
v 0.141335 0.274666 0.008000
vn -0.355824 0.301422 0.884610
v -0.129335 0.037833 0.008000
vn -0.355824 0.301422 0.884610
v -0.109332 0.053333 0.008000
vn -0.617993 0.523508 0.586536
v -0.097332 0.043167 0.008000
vn -0.355824 -0.301422 0.884610
v -0.109332 0.319999 0.008000
vn -0.617993 -0.523507 0.586537
v -0.141335 0.325334 0.008000
vn -0.617993 -0.523507 0.586537
v -0.097332 0.330164 0.008000
vn -0.063306 -0.682103 0.728511
v 0.034666 0.314665 0.008000
vn 0.301511 -0.301511 0.904534
v -0.045335 0.314665 0.008000
vn 0.301511 0.301511 0.904534
v -0.045335 0.058667 0.008000
vn -0.065120 0.681232 0.729166
v 0.002667 0.058667 0.008000
vn -0.251046 0.605391 0.755300
v 0.031000 0.064134 0.008000
vn -0.465060 0.468292 0.751280
v 0.055200 0.080534 0.008000
vn -0.603598 0.252783 0.756155
v 0.071800 0.104667 0.008000
vn -0.681220 0.065145 0.729175
v 0.077334 0.133333 0.008000
vn -0.678123 -0.071442 0.731468
v 0.077334 0.274666 0.008000
vn -0.591503 -0.270709 0.759501
v 0.074067 0.289999 0.008000
vn -0.447679 -0.487543 0.749590
v 0.064266 0.302932 0.008000
vn -0.240950 -0.613589 0.751965
v 0.050332 0.311731 0.008000
vn 0.577350 0.577350 0.577350
v -0.057335 0.046667 0.008000
vn 0.577350 -0.577350 0.577350
v -0.057335 0.326665 0.008000
vn -0.069209 0.724015 0.686303
v 0.003814 0.046667 0.008000
vn -0.286246 0.690275 0.664517
v 0.035693 0.052818 0.008000
vn -0.524573 0.528219 0.667689
v 0.063805 0.071869 0.008000
vn -0.689815 0.288890 0.663851
v 0.083108 0.099932 0.008000
vn -0.067163 -0.723655 0.686886
v 0.035780 0.326665 0.008000
vn -0.272285 -0.693383 0.667144
v 0.054798 0.323104 0.008000
vn -0.502683 -0.547444 0.669040
v 0.072515 0.311915 0.008000
vn -0.682109 -0.312176 0.661267
v 0.085246 0.295115 0.008000
vn -0.724020 0.069239 0.686295
v 0.089334 0.132186 0.008000
vn -0.725217 -0.076404 0.684268
v 0.089334 0.275931 0.008000
vn 0.031829 -0.716123 0.697248
v 0.007468 0.012000 0.020000
vn -0.617993 0.523507 0.586537
v -0.129335 0.037833 0.020000
vn -0.577350 -0.577350 0.577350
v -0.129335 0.012000 0.020000
vn -0.355824 0.301422 0.884610
v -0.097332 0.043167 0.020000
vn 0.301511 0.301511 0.904534
v -0.057335 0.046667 0.020000
vn -0.355824 -0.301422 0.884610
v -0.097332 0.330164 0.020000
vn -0.065120 0.681232 0.729166
v 0.003814 0.046667 0.020000
vn -0.251046 0.605391 0.755300
v 0.035693 0.052818 0.020000
vn 0.134768 -0.715152 0.685854
v 0.032901 0.014265 0.020000
vn 0.275349 -0.674968 0.684545
v 0.055443 0.020837 0.020000
vn -0.465060 0.468292 0.751280
v 0.063805 0.071869 0.020000
vn 0.406811 -0.604380 0.685003
v 0.075865 0.031756 0.020000
vn -0.603598 0.252783 0.756155
v 0.083108 0.099932 0.020000
vn 0.515507 -0.512749 0.686542
v 0.094388 0.047166 0.020000
vn -0.681220 0.065146 0.729175
v 0.089334 0.132186 0.020000
vn -0.678124 -0.071442 0.731467
v 0.089334 0.275931 0.020000
vn -0.577350 0.577350 0.577350
v -0.129335 0.361332 0.020000
vn -0.617993 -0.523507 0.586537
v -0.129335 0.335499 0.020000
vn 0.032353 0.716253 0.697090
v 0.039458 0.361332 0.020000
vn 0.301511 -0.301511 0.904534
v -0.057335 0.326665 0.020000
vn -0.063306 -0.682103 0.728511
v 0.035780 0.326665 0.020000
vn -0.240950 -0.613589 0.751965
v 0.054798 0.323104 0.020000
vn 0.135754 0.714953 0.685867
v 0.057819 0.359670 0.020000
vn -0.447679 -0.487543 0.749590
v 0.072515 0.311915 0.020000
vn 0.274422 0.674828 0.685055
v 0.074125 0.354892 0.020000
vn -0.591503 -0.270709 0.759501
v 0.085246 0.295115 0.020000
vn 0.401603 0.606833 0.685907
v 0.089148 0.346928 0.020000
vn 0.506686 0.520377 0.687370
v 0.103063 0.335634 0.020000
vn 0.605752 -0.404263 0.685300
v 0.109703 0.065777 0.020000
vn 0.597085 0.416660 0.685480
v 0.114646 0.322116 0.020000
vn 0.675220 -0.274218 0.684750
v 0.120558 0.086205 0.020000
vn 0.670291 0.287294 0.684231
v 0.122778 0.307581 0.020000
vn 0.715118 -0.134579 0.685927
v 0.127086 0.108646 0.020000
vn 0.714541 0.142976 0.684828
v 0.127640 0.291850 0.020000
vn 0.716133 -0.031864 0.697237
v 0.129335 0.133867 0.020000
vn 0.716692 0.034136 0.696554
v 0.129335 0.274095 0.020000
# 144 vertices, 0 vertices normals


usemtl material_0
f 1//1 2//2 3//3
f 2//2 1//1 4//4
f 4//4 1//1 5//5
f 4//4 5//5 6//6
f 5//5 1//1 7//7
f 7//7 1//1 8//8
f 8//8 1//1 9//9
f 8//8 9//9 10//10
f 10//10 9//9 11//11
f 10//10 11//11 12//12
f 12//12 11//11 13//13
f 13//13 11//11 14//14
f 6//6 15//15 16//16
f 15//15 6//6 17//17
f 17//17 6//6 18//18
f 18//18 6//6 5//5
f 17//17 18//18 19//19
f 17//17 19//19 20//20
f 17//17 20//20 21//21
f 21//21 20//20 22//22
f 21//21 22//22 23//23
f 23//23 22//22 24//24
f 23//23 24//24 25//25
f 25//25 24//24 14//14
f 25//25 14//14 11//11
f 25//25 11//11 26//26
f 25//25 26//26 27//27
f 27//27 26//26 28//28
f 27//27 28//28 29//29
f 29//29 28//28 30//30
f 29//29 30//30 31//31
f 31//31 30//30 32//32
f 31//31 32//32 33//33
f 33//33 32//32 34//34
f 33//33 34//34 35//35
f 35//35 34//34 36//36
f 37//37 38//38 39//39
f 38//38 37//37 40//40
f 38//38 40//40 41//41
f 41//41 40//40 42//42
f 42//42 40//40 43//43
f 42//42 43//43 44//44
f 44//44 43//43 45//45
f 44//44 45//45 46//46
f 46//46 45//45 47//47
f 46//46 47//47 48//48
f 48//48 47//47 49//49
f 48//48 49//49 50//50
f 50//50 49//49 51//51
f 50//50 51//51 52//52
f 52//52 51//51 53//53
f 52//52 53//53 54//54
f 54//54 53//53 55//55
f 55//55 53//53 56//56
f 57//57 58//58 59//59
f 58//58 57//57 60//60
f 59//59 58//58 61//61
f 59//59 61//61 62//62
f 59//59 62//62 63//63
f 63//63 62//62 64//64
f 63//63 64//64 65//65
f 65//65 64//64 66//66
f 65//65 66//66 67//67
f 67//67 66//66 68//68
f 67//67 68//68 69//69
f 69//69 68//68 70//70
f 69//69 70//70 71//71
f 71//71 70//70 72//72
f 71//71 72//72 73//73
f 71//71 73//73 74//74
f 74//74 73//73 56//56
f 74//74 56//56 53//53
f 74//74 53//53 75//75
f 74//74 75//75 76//76
f 76//76 75//75 77//77
f 76//76 77//77 78//78
f 39//39 79//79 80//80
f 79//79 39//39 38//38
f 80//80 79//79 81//81
f 80//80 81//81 82//82
f 83//83 60//60 57//57
f 60//60 83//83 82//82
f 60//60 82//82 84//84
f 84//84 82//82 81//81
f 57//57 2//2 83//83
f 2//2 57//57 3//3
f 57//57 1//1 3//3
f 1//1 57//57 59//59
f 59//59 9//9 1//1
f 9//9 59//59 63//63
f 63//63 11//11 9//9
f 11//11 63//63 65//65
f 65//65 26//26 11//11
f 26//26 65//65 67//67
f 67//67 28//28 26//26
f 28//28 67//67 69//69
f 28//28 71//71 30//30
f 71//71 28//28 69//69
f 30//30 74//74 32//32
f 74//74 30//30 71//71
f 32//32 76//76 34//34
f 76//76 32//32 74//74
f 34//34 78//78 36//36
f 78//78 34//34 76//76
f 36//36 77//77 35//35
f 77//77 36//36 78//78
f 35//35 75//75 33//33
f 75//75 35//35 77//77
f 33//33 53//53 31//31
f 53//53 33//33 75//75
f 31//31 51//51 29//29
f 51//51 31//31 53//53
f 29//29 49//49 27//27
f 49//49 29//29 51//51
f 49//49 25//25 27//27
f 25//25 49//49 47//47
f 47//47 23//23 25//25
f 23//23 47//47 45//45
f 45//45 21//21 23//23
f 21//21 45//45 43//43
f 43//43 17//17 21//21
f 17//17 43//43 40//40
f 40//40 15//15 17//17
f 15//15 40//40 37//37
f 39//39 15//15 37//37
f 15//15 39//39 16//16
f 39//39 6//6 16//16
f 6//6 39//39 80//80
f 82//82 6//6 80//80
f 6//6 82//82 4//4
f 82//82 2//2 4//4
f 2//2 82//82 83//83
f 85//85 5//5 7//7
f 5//5 85//85 86//86
f 5//5 87//87 18//18
f 87//87 5//5 86//86
f 87//87 19//19 18//18
f 19//19 87//87 88//88
f 88//88 20//20 19//19
f 20//20 88//88 89//89
f 89//89 22//22 20//20
f 22//22 89//89 90//90
f 91//91 22//22 90//90
f 22//22 91//91 24//24
f 92//92 24//24 91//91
f 24//24 92//92 14//14
f 93//93 14//14 92//92
f 14//14 93//93 13//13
f 94//94 13//13 93//93
f 13//13 94//94 12//12
f 95//95 12//12 94//94
f 12//12 95//95 10//10
f 95//95 8//8 10//10
f 8//8 95//95 96//96
f 96//96 7//7 8//8
f 7//7 96//96 85//85
f 97//97 87//87 98//98
f 87//87 97//97 99//99
f 87//87 99//99 88//88
f 88//88 99//99 89//89
f 89//89 99//99 100//100
f 89//89 100//100 90//90
f 90//90 100//100 101//101
f 90//90 101//101 91//91
f 91//91 101//101 102//102
f 91//91 102//102 92//92
f 92//92 102//102 93//93
f 98//98 86//86 103//103
f 86//86 98//98 87//87
f 103//103 86//86 85//85
f 103//103 85//85 96//96
f 103//103 96//96 104//104
f 104//104 96//96 95//95
f 104//104 95//95 105//105
f 105//105 95//95 94//94
f 105//105 94//94 106//106
f 106//106 94//94 93//93
f 106//106 93//93 102//102
f 106//106 102//102 107//107
f 106//106 107//107 108//108
f 109//109 110//110 111//111
f 110//110 109//109 112//112
f 112//112 109//109 113//113
f 112//112 113//113 114//114
f 113//113 109//109 115//115
f 115//115 109//109 116//116
f 116//116 109//109 117//117
f 116//116 117//117 118//118
f 116//116 118//118 119//119
f 119//119 118//118 120//120
f 119//119 120//120 121//121
f 121//121 120//120 122//122
f 121//121 122//122 123//123
f 123//123 122//122 124//124
f 114//114 125//125 126//126
f 125//125 114//114 127//127
f 127//127 114//114 128//128
f 128//128 114//114 113//113
f 127//127 128//128 129//129
f 127//127 129//129 130//130
f 127//127 130//130 131//131
f 131//131 130//130 132//132
f 131//131 132//132 133//133
f 133//133 132//132 134//134
f 133//133 134//134 135//135
f 135//135 134//134 124//124
f 135//135 124//124 136//136
f 136//136 124//124 122//122
f 136//136 122//122 137//137
f 136//136 137//137 138//138
f 138//138 137//137 139//139
f 138//138 139//139 140//140
f 140//140 139//139 141//141
f 140//140 141//141 142//142
f 142//142 141//141 143//143
f 142//142 143//143 144//144
f 125//125 60//60 126//126
f 60//60 125//125 58//58
f 114//114 60//60 84//84
f 60//60 114//114 126//126
f 114//114 81//81 112//112
f 81//81 114//114 84//84
f 110//110 81//81 79//79
f 81//81 110//110 112//112
f 110//110 38//38 111//111
f 38//38 110//110 79//79
f 109//109 38//38 41//41
f 38//38 109//109 111//111
f 117//117 41//41 42//42
f 41//41 117//117 109//109
f 118//118 42//42 44//44
f 42//42 118//118 117//117
f 120//120 44//44 46//46
f 44//44 120//120 118//118
f 122//122 46//46 48//48
f 46//46 122//122 120//120
f 50//50 122//122 48//48
f 122//122 50//50 137//137
f 52//52 137//137 50//50
f 137//137 52//52 139//139
f 54//54 139//139 52//52
f 139//139 54//54 141//141
f 55//55 141//141 54//54
f 141//141 55//55 143//143
f 56//56 143//143 55//55
f 143//143 56//56 144//144
f 73//73 144//144 56//56
f 144//144 73//73 142//142
f 72//72 142//142 73//73
f 142//142 72//72 140//140
f 70//70 140//140 72//72
f 140//140 70//70 138//138
f 68//68 138//138 70//70
f 138//138 68//68 136//136
f 135//135 68//68 66//66
f 68//68 135//135 136//136
f 133//133 66//66 64//64
f 66//66 133//133 135//135
f 131//131 64//64 62//62
f 64//64 131//131 133//133
f 127//127 62//62 61//61
f 62//62 127//127 131//131
f 125//125 61//61 58//58
f 61//61 125//125 127//127
f 113//113 99//99 97//97
f 99//99 113//113 115//115
f 98//98 113//113 97//97
f 113//113 98//98 128//128
f 129//129 98//98 103//103
f 98//98 129//129 128//128
f 130//130 103//103 104//104
f 103//103 130//130 129//129
f 132//132 104//104 105//105
f 104//104 132//132 130//130
f 132//132 106//106 134//134
f 106//106 132//132 105//105
f 134//134 108//108 124//124
f 108//108 134//134 106//106
f 124//124 107//107 123//123
f 107//107 124//124 108//108
f 123//123 102//102 121//121
f 102//102 123//123 107//107
f 121//121 101//101 119//119
f 101//101 121//121 102//102
f 116//116 101//101 100//100
f 101//101 116//116 119//119
f 115//115 100//100 99//99
f 100//100 115//115 116//116
# 288 faces, 0 coords texture

# End of File
