####
#
# OBJ File Generated by Meshlab
#
####
# Object alphabet10.obj
#
# Vertices: 100
# Faces: 196
#
####
mtllib ./alphabet10.obj.mtl

vn 0.577350 0.577350 -0.577350
v 0.128003 0.373332 0.000000
vn -0.617993 -0.523507 -0.586537
v -0.000000 0.325334 0.000000
vn -0.577350 0.577350 -0.577350
v -0.000000 0.373332 0.000000
vn -0.355824 -0.301422 -0.884610
v 0.032003 0.319999 0.000000
vn 0.355824 -0.301422 -0.884610
v 0.096000 0.319999 0.000000
vn -0.355824 0.301422 -0.884610
v 0.032003 0.053333 0.000000
vn 0.617993 -0.523507 -0.586537
v 0.128003 0.325334 0.000000
vn 0.577350 0.577350 -0.577350
v 0.304000 0.373332 0.000000
vn -0.625288 -0.512583 -0.588450
v 0.165336 0.325334 0.000000
vn -0.577350 0.577350 -0.577350
v 0.165336 0.373332 0.000000
vn -0.263934 -0.083811 -0.960892
v 0.192000 0.319999 0.000000
vn 0.289080 -0.547318 -0.785414
v 0.272001 0.319999 0.000000
vn 0.617997 -0.523500 -0.586538
v 0.304000 0.325334 0.000000
vn 0.133164 -0.372524 -0.918419
v 0.096000 0.162667 0.000000
vn 0.806717 0.243980 -0.538221
v 0.096000 0.218669 0.000000
vn 0.449097 -0.011402 -0.893410
v 0.149337 0.192000 0.000000
vn -0.334894 -0.707523 -0.622300
v 0.229333 0.000000 0.000000
vn 0.294381 0.532429 -0.793637
v 0.269336 0.053333 0.000000
vn 0.577350 -0.577350 -0.577350
v 0.304000 0.000000 0.000000
vn 0.615115 0.527696 -0.585808
v 0.304000 0.047998 0.000000
vn -0.577350 -0.577350 -0.577350
v -0.000000 0.000000 0.000000
vn -0.617993 0.523507 -0.586537
v -0.000000 0.047998 0.000000
vn 0.577350 -0.577350 -0.577350
v 0.128003 0.000000 0.000000
vn 0.355824 0.301422 -0.884610
v 0.096000 0.053333 0.000000
vn 0.617993 0.523507 -0.586537
v 0.128003 0.047998 0.000000
vn -0.617993 0.523507 0.586537
v -0.000000 0.047998 0.028000
vn -0.355824 0.301422 0.884610
v 0.012000 0.037833 0.028000
vn -0.355824 0.301422 0.884610
v 0.032003 0.053333 0.028000
vn -0.301511 -0.301512 0.904534
v 0.012000 0.012000 0.028000
vn -0.617993 0.523508 0.586536
v 0.044003 0.043167 0.028000
vn -0.355824 -0.301422 0.884610
v 0.032003 0.319999 0.028000
vn -0.617993 -0.523507 0.586537
v -0.000000 0.325334 0.028000
vn -0.355824 -0.301422 0.884610
v 0.012000 0.335499 0.028000
vn -0.577350 0.577350 0.577350
v -0.000000 0.373332 0.028000
vn -0.617993 -0.523507 0.586537
v 0.044003 0.330164 0.028000
vn -0.577350 -0.577350 0.577350
v -0.000000 -0.000000 0.028000
vn 0.577350 -0.577350 0.577350
v 0.128003 -0.000000 0.028000
vn 0.301511 -0.301511 0.904534
v 0.116003 0.012000 0.028000
vn 0.355824 0.301422 0.884610
v 0.116003 0.037833 0.028000
vn 0.617993 0.523507 0.586537
v 0.084000 0.043167 0.028000
vn 0.355824 0.301422 0.884610
v 0.096000 0.053333 0.028000
vn 0.707106 -0.000000 0.707107
v 0.084000 0.188554 0.028000
vn -0.456723 0.016397 0.889458
v 0.087376 0.192118 0.028000
vn 0.617993 -0.523507 0.586537
v 0.084000 0.330164 0.028000
vn 0.617993 0.523507 0.586537
v 0.128003 0.047998 0.028000
vn 0.449097 -0.011403 0.893411
v 0.149337 0.192000 0.028000
vn 0.357861 -0.677542 0.642551
v 0.266096 0.331180 0.028000
vn 0.812628 -0.020633 0.582417
v 0.133111 0.192412 0.028000
vn 0.289080 -0.547318 0.785414
v 0.272001 0.319999 0.028000
vn 0.355831 -0.301421 0.884607
v 0.292000 0.335499 0.028000
vn 0.617998 -0.523500 0.586538
v 0.304000 0.325334 0.028000
vn 0.301511 0.301511 0.904534
v 0.292000 0.361332 0.028000
vn -0.577350 0.577350 0.577350
v 0.165336 0.373332 0.028000
vn -0.301511 0.301511 0.904534
v 0.177336 0.361332 0.028000
vn 0.577350 0.577350 0.577350
v 0.304000 0.373332 0.028000
vn -0.366471 -0.300416 0.880596
v 0.177336 0.335171 0.028000
vn -0.793822 -0.252075 0.553449
v 0.215643 0.327507 0.028000
vn 0.076249 0.191348 0.978556
v 0.096000 0.218669 0.028000
vn -0.263934 -0.083811 0.960892
v 0.192000 0.319999 0.028000
vn -0.625288 -0.512583 0.588450
v 0.165336 0.325334 0.028000
vn 0.062497 -0.174832 0.982613
v 0.096000 0.162667 0.028000
vn -0.246596 -0.520977 0.817174
v 0.235013 0.012000 0.028000
vn -0.334894 -0.707523 0.622300
v 0.229333 -0.000000 0.028000
vn 0.577350 -0.577350 0.577350
v 0.304000 -0.000000 0.028000
vn 0.301511 -0.301511 0.904534
v 0.292000 0.012000 0.028000
vn 0.351708 0.301724 0.886151
v 0.292000 0.037703 0.028000
vn 0.372977 0.674579 0.637048
v 0.263149 0.042143 0.028000
vn 0.294381 0.532428 0.793637
v 0.269336 0.053333 0.028000
vn 0.615115 0.527696 0.585808
v 0.304000 0.047998 0.028000
vn 0.355824 -0.301422 0.884610
v 0.096000 0.319999 0.028000
vn 0.355824 -0.301422 0.884610
v 0.116003 0.335499 0.028000
vn 0.617993 -0.523507 0.586537
v 0.128003 0.325334 0.028000
vn 0.301511 0.301511 0.904534
v 0.116003 0.361332 0.028000
vn -0.301511 0.301511 0.904534
v 0.012000 0.361332 0.028000
vn 0.577350 0.577350 0.577350
v 0.128003 0.373332 0.028000
vn 0.577350 -0.577351 0.577350
v 0.116003 0.012000 0.040000
vn -0.617993 0.523507 0.586537
v 0.012000 0.037833 0.040000
vn -0.577350 -0.577350 0.577350
v 0.012000 0.012000 0.040000
vn -0.355824 0.301422 0.884610
v 0.044003 0.043167 0.040000
vn 0.355824 0.301422 0.884610
v 0.084000 0.043167 0.040000
vn -0.355824 -0.301422 0.884610
v 0.044003 0.330164 0.040000
vn 0.617993 0.523507 0.586537
v 0.116003 0.037833 0.040000
vn -0.577350 0.577350 0.577350
v 0.012000 0.361332 0.040000
vn -0.617993 -0.523507 0.586537
v 0.012000 0.335499 0.040000
vn 0.577350 0.577350 0.577350
v 0.116003 0.361332 0.040000
vn 0.355824 -0.301422 0.884610
v 0.084000 0.330164 0.040000
vn -1.000000 0.000000 0.000000
v 0.084000 0.188554 0.040000
vn 0.617993 -0.523507 0.586537
v 0.116003 0.335499 0.040000
vn -0.334894 -0.707523 0.622300
v 0.235013 0.012000 0.040000
vn 0.449097 -0.011403 0.893410
v 0.133111 0.192412 0.040000
vn -0.811048 0.029117 0.584255
v 0.087376 0.192118 0.040000
vn 0.294381 0.532428 0.793637
v 0.263149 0.042143 0.040000
vn 0.577350 -0.577350 0.577350
v 0.292000 0.012000 0.040000
vn 0.615115 0.527695 0.585808
v 0.292000 0.037703 0.040000
vn -0.263934 -0.083811 0.960893
v 0.215643 0.327507 0.040000
vn 0.289080 -0.547318 0.785414
v 0.266096 0.331180 0.040000
vn -0.577350 0.577350 0.577350
v 0.177336 0.361332 0.040000
vn -0.625288 -0.512583 0.588450
v 0.177336 0.335171 0.040000
vn 0.577350 0.577350 0.577350
v 0.292000 0.361332 0.040000
vn 0.617998 -0.523500 0.586538
v 0.292000 0.335499 0.040000
# 100 vertices, 0 vertices normals


usemtl material_0
f 1//1 2//2 3//3
f 2//2 1//1 4//4
f 4//4 1//1 5//5
f 4//4 5//5 6//6
f 5//5 1//1 7//7
f 8//8 9//9 10//10
f 9//9 8//8 11//11
f 11//11 8//8 12//12
f 12//12 8//8 13//13
f 11//11 14//14 15//15
f 14//14 11//11 16//16
f 16//16 11//11 12//12
f 16//16 17//17 14//14
f 17//17 16//16 18//18
f 17//17 18//18 19//19
f 19//19 18//18 20//20
f 6//6 21//21 22//22
f 21//21 6//6 23//23
f 23//23 6//6 24//24
f 24//24 6//6 5//5
f 24//24 5//5 15//15
f 24//24 15//15 14//14
f 23//23 24//24 25//25
f 26//26 27//27 28//28
f 27//27 26//26 29//29
f 28//28 27//27 30//30
f 28//28 30//30 31//31
f 32//32 33//33 34//34
f 33//33 32//32 31//31
f 33//33 31//31 35//35
f 35//35 31//31 30//30
f 36//36 29//29 26//26
f 29//29 36//36 37//37
f 29//29 37//37 38//38
f 38//38 37//37 39//39
f 40//40 41//41 42//42
f 41//41 40//40 39//39
f 42//42 41//41 43//43
f 42//42 43//43 44//44
f 41//41 39//39 45//45
f 45//45 39//39 37//37
f 46//46 47//47 48//48
f 47//47 46//46 49//49
f 47//47 49//49 50//50
f 50//50 49//49 51//51
f 50//50 51//51 52//52
f 53//53 54//54 55//55
f 54//54 53//53 56//56
f 55//55 54//54 52//52
f 55//55 52//52 51//51
f 57//57 58//58 43//43
f 58//58 57//57 59//59
f 60//60 56//56 53//53
f 56//56 60//60 59//59
f 56//56 59//59 57//57
f 43//43 61//61 62//62
f 61//61 43//43 41//41
f 62//62 61//61 63//63
f 62//62 63//63 64//64
f 62//62 64//64 65//65
f 65//65 64//64 66//66
f 67//67 46//46 48//48
f 46//46 67//67 68//68
f 68//68 67//67 66//66
f 68//68 66//66 69//69
f 69//69 66//66 64//64
f 44//44 70//70 71//71
f 70//70 44//44 43//43
f 70//70 43//43 58//58
f 71//71 70//70 72//72
f 71//71 72//72 73//73
f 34//34 74//74 75//75
f 74//74 34//34 33//33
f 75//75 74//74 73//73
f 75//75 73//73 72//72
f 12//12 46//46 16//16
f 46//46 12//12 49//49
f 16//16 68//68 18//18
f 68//68 16//16 46//46
f 68//68 20//20 18//18
f 20//20 68//68 69//69
f 20//20 64//64 19//19
f 64//64 20//20 69//69
f 64//64 17//17 19//19
f 17//17 64//64 63//63
f 61//61 17//17 63//63
f 17//17 61//61 14//14
f 14//14 41//41 24//24
f 41//41 14//14 61//61
f 41//41 25//25 24//24
f 25//25 41//41 45//45
f 25//25 37//37 23//23
f 37//37 25//25 45//45
f 37//37 21//21 23//23
f 21//21 37//37 36//36
f 26//26 21//21 36//36
f 21//21 26//26 22//22
f 26//26 6//6 22//22
f 6//6 26//26 28//28
f 31//31 6//6 28//28
f 6//6 31//31 4//4
f 31//31 2//2 4//4
f 2//2 31//31 32//32
f 34//34 2//2 32//32
f 2//2 34//34 3//3
f 34//34 1//1 3//3
f 1//1 34//34 75//75
f 1//1 72//72 7//7
f 72//72 1//1 75//75
f 72//72 5//5 7//7
f 5//5 72//72 70//70
f 5//5 58//58 15//15
f 58//58 5//5 70//70
f 59//59 15//15 58//58
f 15//15 59//59 11//11
f 59//59 9//9 11//11
f 9//9 59//59 60//60
f 53//53 9//9 60//60
f 9//9 53//53 10//10
f 53//53 8//8 10//10
f 8//8 53//53 55//55
f 8//8 51//51 13//13
f 51//51 8//8 55//55
f 51//51 12//12 13//13
f 12//12 51//51 49//49
f 76//76 77//77 78//78
f 77//77 76//76 79//79
f 79//79 76//76 80//80
f 79//79 80//80 81//81
f 80//80 76//76 82//82
f 81//81 83//83 84//84
f 83//83 81//81 85//85
f 85//85 81//81 86//86
f 86//86 81//81 80//80
f 86//86 80//80 87//87
f 85//85 86//86 88//88
f 83//83 33//33 84//84
f 33//33 83//83 74//74
f 81//81 33//33 35//35
f 33//33 81//81 84//84
f 81//81 30//30 79//79
f 30//30 81//81 35//35
f 77//77 30//30 27//27
f 30//30 77//77 79//79
f 77//77 29//29 78//78
f 29//29 77//77 27//27
f 76//76 29//29 38//38
f 29//29 76//76 78//78
f 39//39 76//76 38//38
f 76//76 39//39 82//82
f 80//80 39//39 40//40
f 39//39 80//80 82//82
f 42//42 80//80 40//40
f 80//80 42//42 87//87
f 44//44 87//87 42//42
f 87//87 44//44 86//86
f 88//88 44//44 71//71
f 44//44 88//88 86//86
f 73//73 88//88 71//71
f 88//88 73//73 85//85
f 83//83 73//73 74//74
f 73//73 83//83 85//85
f 89//89 90//90 91//91
f 90//90 89//89 92//92
f 92//92 89//89 93//93
f 92//92 93//93 94//94
f 90//90 95//95 91//91
f 95//95 90//90 96//96
f 95//95 97//97 98//98
f 97//97 95//95 99//99
f 99//99 95//95 96//96
f 99//99 96//96 100//100
f 97//97 56//56 98//98
f 56//56 97//97 54//54
f 95//95 56//56 57//57
f 56//56 95//95 98//98
f 95//95 43//43 91//91
f 43//43 95//95 57//57
f 91//91 62//62 89//89
f 62//62 91//91 43//43
f 93//93 62//62 65//65
f 62//62 93//93 89//89
f 66//66 93//93 65//65
f 93//93 66//66 94//94
f 92//92 66//66 67//67
f 66//66 92//92 94//94
f 48//48 92//92 67//67
f 92//92 48//48 90//90
f 47//47 90//90 48//48
f 90//90 47//47 96//96
f 100//100 47//47 50//50
f 47//47 100//100 96//96
f 52//52 100//100 50//50
f 100//100 52//52 99//99
f 97//97 52//52 54//54
f 52//52 97//97 99//99
# 196 faces, 0 coords texture

# End of File
