####
#
# OBJ File Generated by Meshlab
#
####
# Object alphabet17.obj
#
# Vertices: 184
# Faces: 368
#
####
mtllib ./alphabet17.obj.mtl

vn 0.032284 0.716236 -0.697111
v 0.023468 0.373332 -0.020000
vn -0.617993 -0.523507 -0.586537
v -0.149335 0.325334 -0.020000
vn -0.577350 0.577350 -0.577350
v -0.149335 0.373332 -0.020000
vn -0.355824 -0.301422 -0.884610
v -0.117332 0.319999 -0.020000
vn 0.301511 -0.301511 -0.904534
v -0.053335 0.314665 -0.020000
vn -0.355824 0.301422 -0.884610
v -0.117332 0.053333 -0.020000
vn -0.063056 -0.682222 -0.728421
v 0.023468 0.314665 -0.020000
vn 0.136149 0.715021 -0.685718
v 0.044501 0.371432 -0.020000
vn -0.248084 -0.606085 -0.755722
v 0.039200 0.311731 -0.020000
vn -0.464774 -0.466990 -0.752267
v 0.052266 0.302932 -0.020000
vn 0.276714 0.674309 -0.684643
v 0.063868 0.365732 -0.020000
vn -0.604897 -0.250942 -0.755730
v 0.061066 0.289999 -0.020000
vn -0.681482 -0.064601 -0.728978
v 0.063999 0.274666 -0.020000
vn 0.406697 0.604094 -0.685323
v 0.081568 0.356232 -0.020000
vn -0.681488 0.064589 -0.728974
v 0.063999 0.264001 -0.020000
vn -0.604906 0.250920 -0.755730
v 0.061066 0.248666 -0.020000
vn 0.366347 -0.059089 -0.928600
v 0.060801 0.170667 -0.020000
vn -0.464778 0.466979 -0.752271
v 0.052266 0.235732 -0.020000
vn 0.460616 -0.577713 -0.673855
v 0.088201 0.186268 -0.020000
vn 0.513618 0.514143 -0.686916
v 0.097601 0.342932 -0.020000
vn 0.609850 -0.413961 -0.675810
v 0.109601 0.209601 -0.020000
vn 0.603295 0.407645 -0.685464
v 0.110901 0.326932 -0.020000
vn 0.705596 -0.217061 -0.674551
v 0.123401 0.238133 -0.020000
vn 0.673657 0.278303 -0.684642
v 0.120401 0.309332 -0.020000
vn 0.714922 0.137372 -0.685576
v 0.126101 0.290132 -0.020000
vn 0.731640 -0.020234 -0.681391
v 0.128001 0.269332 -0.020000
vn -0.063056 0.682222 -0.728421
v 0.023468 0.223999 -0.020000
vn -0.577350 -0.577350 -0.577350
v -0.053335 0.165332 -0.020000
vn -0.577350 0.577350 -0.577350
v -0.053335 0.223999 -0.020000
vn -0.062198 -0.682630 -0.728113
v -0.034666 0.165332 -0.020000
vn -0.214974 -0.636280 -0.740901
v -0.019066 0.162465 -0.020000
vn -0.389261 -0.545348 -0.742342
v -0.002132 0.153866 -0.020000
vn -0.536501 -0.392529 -0.747052
v 0.013201 0.138999 -0.020000
vn -0.638026 -0.266362 -0.722478
v 0.024001 0.117334 -0.020000
vn -0.248085 0.606085 -0.755721
v 0.039200 0.226932 -0.020000
vn -0.467030 -0.652629 -0.596623
v 0.063999 -0.000000 -0.020000
vn 0.604440 0.416552 -0.679070
v 0.071733 0.158534 -0.020000
vn 0.340265 0.421539 -0.840550
v 0.113601 0.053333 -0.020000
vn 0.577350 -0.577350 -0.577350
v 0.149335 -0.000000 -0.020000
vn 0.657677 0.291422 -0.694647
v 0.079999 0.142399 -0.020000
vn 0.614068 0.529203 -0.585546
v 0.149335 0.047998 -0.020000
vn -0.577350 -0.577350 -0.577350
v -0.149335 -0.000000 -0.020000
vn -0.617993 0.523507 -0.586537
v -0.149335 0.047998 -0.020000
vn 0.577350 -0.577350 -0.577350
v -0.021332 -0.000000 -0.020000
vn 0.355824 0.301422 -0.884610
v -0.053335 0.053333 -0.020000
vn 0.617993 0.523507 -0.586537
v -0.021332 0.047998 -0.020000
vn -0.617993 0.523507 0.586537
v -0.149335 0.047998 0.008000
vn -0.355824 0.301422 0.884610
v -0.137335 0.037833 0.008000
vn -0.355824 0.301422 0.884610
v -0.117332 0.053333 0.008000
vn -0.301511 -0.301512 0.904534
v -0.137335 0.012000 0.008000
vn -0.617993 0.523508 0.586536
v -0.105332 0.043167 0.008000
vn -0.355824 -0.301422 0.884610
v -0.117332 0.319999 0.008000
vn -0.617993 -0.523507 0.586537
v -0.149335 0.325334 0.008000
vn -0.355824 -0.301422 0.884610
v -0.137335 0.335499 0.008000
vn -0.577350 0.577350 0.577350
v -0.149335 0.373332 0.008000
vn -0.617993 -0.523507 0.586537
v -0.105332 0.330164 0.008000
vn -0.577350 -0.577350 0.577350
v -0.149335 -0.000000 0.008000
vn 0.577350 -0.577350 0.577350
v -0.021332 -0.000000 0.008000
vn 0.301511 -0.301511 0.904534
v -0.033332 0.012000 0.008000
vn 0.355824 0.301422 0.884610
v -0.033332 0.037833 0.008000
vn 0.617993 0.523507 0.586537
v -0.065335 0.043167 0.008000
vn 0.355824 0.301422 0.884610
v -0.053335 0.053333 0.008000
vn 0.577350 -0.577350 0.577350
v -0.065335 0.177332 0.008000
vn 0.617993 0.523507 0.586537
v -0.021332 0.047998 0.008000
vn 0.301511 -0.301512 0.904534
v -0.053335 0.165332 0.008000
vn -0.065916 -0.723432 0.687242
v -0.033573 0.177332 0.008000
vn -0.062198 -0.682630 0.728112
v -0.034666 0.165332 0.008000
vn -0.214974 -0.636280 0.740901
v -0.019066 0.162465 0.008000
vn -0.235822 -0.697984 0.676170
v -0.015185 0.173953 0.008000
vn -0.389260 -0.545348 0.742342
v -0.002132 0.153866 0.008000
vn -0.428666 -0.600555 0.674966
v 0.004919 0.163744 0.008000
vn -0.536501 -0.392529 0.747052
v 0.013201 0.138999 0.008000
vn -0.598330 -0.437765 0.671091
v 0.023026 0.146188 0.008000
vn -0.638026 -0.266362 0.722478
v 0.024001 0.117334 0.008000
vn -0.665860 -0.277982 0.692356
v 0.035100 0.121967 0.008000
vn -0.467030 -0.652629 0.596622
v 0.063999 -0.000000 0.008000
vn -0.293021 -0.409468 0.863988
v 0.072587 0.012000 0.008000
vn 0.577350 -0.577350 0.577350
v 0.149335 -0.000000 0.008000
vn 0.301511 -0.301511 0.904534
v 0.137335 0.012000 0.008000
vn 0.350222 0.301821 0.886707
v 0.137335 0.037656 0.008000
vn 0.556112 0.383245 0.737470
v 0.061768 0.151666 0.008000
vn 0.366347 -0.059089 0.928600
v 0.060801 0.170667 0.008000
vn 0.813313 -0.131182 0.566845
v 0.041903 0.173715 0.008000
vn 0.604441 0.416552 0.679070
v 0.071733 0.158534 0.008000
vn 0.634470 0.281139 0.720006
v 0.069010 0.137530 0.008000
vn 0.498223 0.617226 0.608938
v 0.104860 0.042504 0.008000
vn 0.657677 0.291422 0.694647
v 0.079999 0.142399 0.008000
vn 0.340265 0.421539 0.840550
v 0.113601 0.053333 0.008000
vn 0.614069 0.529203 0.585546
v 0.149335 0.047998 0.008000
vn 0.416771 -0.522722 0.743682
v 0.080629 0.195765 0.008000
vn 0.460616 -0.577713 0.673854
v 0.088201 0.186268 0.008000
vn 0.555295 -0.376930 0.741331
v 0.099566 0.216413 0.008000
vn 0.609850 -0.413961 0.675810
v 0.109601 0.209601 0.008000
vn 0.639874 -0.196843 0.742842
v 0.111797 0.241703 0.008000
vn 0.705596 -0.217061 0.674551
v 0.123401 0.238133 0.008000
vn 0.678059 -0.018752 0.734768
v 0.115920 0.269666 0.008000
vn 0.673657 0.278302 0.684642
v 0.120401 0.309332 0.008000
vn 0.714922 0.137372 0.685576
v 0.126101 0.290132 0.008000
vn 0.731641 -0.020234 0.681390
v 0.128001 0.269332 0.008000
vn -0.301511 0.301511 0.904534
v -0.137335 0.361332 0.008000
vn 0.032284 0.716236 0.697111
v 0.023468 0.373332 0.008000
vn 0.031370 0.695971 0.717384
v 0.022927 0.361332 0.008000
vn 0.127875 0.671568 0.729825
v 0.042246 0.359587 0.008000
vn 0.136149 0.715021 0.685718
v 0.044501 0.371432 0.008000
vn 0.259044 0.631250 0.731041
v 0.059288 0.354571 0.008000
vn 0.276714 0.674309 0.684643
v 0.063868 0.365732 0.008000
vn 0.381520 0.566698 0.730271
v 0.074833 0.346228 0.008000
vn 0.406697 0.604095 0.685323
v 0.081568 0.356232 0.008000
vn 0.484170 0.484665 0.728478
v 0.089084 0.334406 0.008000
vn 0.513618 0.514143 0.686916
v 0.097601 0.342932 0.008000
vn 0.566193 0.382575 0.730111
v 0.100909 0.320181 0.008000
vn 0.603295 0.407644 0.685464
v 0.110901 0.326932 0.008000
vn 0.630636 0.260529 0.731043
v 0.109251 0.304726 0.008000
vn 0.671186 0.128968 0.729984
v 0.114259 0.287857 0.008000
vn -0.681482 -0.064601 0.728978
v 0.063999 0.274666 0.008000
vn -0.681488 0.064588 0.728974
v 0.063999 0.264001 0.008000
vn -0.604897 -0.250942 0.755729
v 0.061066 0.289999 0.008000
vn -0.464774 -0.466990 0.752267
v 0.052266 0.302932 0.008000
vn -0.248084 -0.606085 0.755722
v 0.039200 0.311731 0.008000
vn -0.063056 -0.682222 0.728421
v 0.023468 0.314665 0.008000
vn 0.301511 -0.301511 0.904534
v -0.053335 0.314665 0.008000
vn 0.301511 0.301511 0.904534
v -0.053335 0.223999 0.008000
vn -0.063056 0.682222 0.728421
v 0.023468 0.223999 0.008000
vn -0.248085 0.606085 0.755721
v 0.039200 0.226932 0.008000
vn -0.464778 0.466978 0.752271
v 0.052266 0.235732 0.008000
vn -0.604906 0.250920 0.755730
v 0.061066 0.248666 0.008000
vn 0.577350 0.577350 0.577350
v -0.065335 0.211999 0.008000
vn 0.577350 -0.577350 0.577350
v -0.065335 0.326665 0.008000
vn -0.066881 0.723605 0.686967
v 0.024577 0.211999 0.008000
vn -0.283191 0.691851 0.664188
v 0.043843 0.215591 0.008000
vn -0.525653 0.528141 0.666901
v 0.060887 0.227070 0.008000
vn -0.690520 0.286434 0.664182
v 0.072386 0.243970 0.008000
vn -0.690510 -0.286459 0.664182
v 0.072385 0.294695 0.008000
vn -0.723913 -0.068623 0.686470
v 0.075999 0.275804 0.008000
vn -0.723911 0.068610 0.686474
v 0.075999 0.262864 0.008000
vn -0.066880 -0.723605 0.686967
v 0.024577 0.326665 0.008000
vn -0.283190 -0.691851 0.664188
v 0.043843 0.323073 0.008000
vn -0.525641 -0.528148 0.666904
v 0.060887 0.311594 0.008000
vn 0.577350 -0.577351 0.577350
v -0.033332 0.012000 0.020000
vn -0.617993 0.523507 0.586537
v -0.137335 0.037833 0.020000
vn -0.577350 -0.577350 0.577350
v -0.137335 0.012000 0.020000
vn -0.355824 0.301422 0.884610
v -0.105332 0.043167 0.020000
vn 0.355824 0.301422 0.884610
v -0.065335 0.043167 0.020000
vn -0.355824 -0.301422 0.884610
v -0.105332 0.330164 0.020000
vn 0.617993 0.523507 0.586537
v -0.033332 0.037833 0.020000
vn -0.467030 -0.652629 0.596622
v 0.072587 0.012000 0.020000
vn 0.366348 -0.059090 0.928600
v 0.041903 0.173715 0.020000
vn -0.638026 -0.266362 0.722478
v 0.035100 0.121967 0.020000
vn 0.604441 0.416551 0.679071
v 0.061768 0.151666 0.020000
vn 0.657677 0.291422 0.694647
v 0.069010 0.137530 0.020000
vn 0.340265 0.421539 0.840550
v 0.104860 0.042504 0.020000
vn 0.577350 -0.577350 0.577350
v 0.137335 0.012000 0.020000
vn 0.614069 0.529203 0.585546
v 0.137335 0.037656 0.020000
vn -0.062198 -0.682630 0.728112
v -0.033573 0.177332 0.020000
vn -0.577350 0.577350 0.577350
v -0.065335 0.211999 0.020000
vn 0.904534 -0.301511 0.301511
v -0.065335 0.177332 0.020000
vn -0.063056 0.682222 0.728421
v 0.024577 0.211999 0.020000
vn -0.214975 -0.636280 0.740901
v -0.015185 0.173953 0.020000
vn -0.389261 -0.545348 0.742342
v 0.004919 0.163744 0.020000
vn -0.536501 -0.392529 0.747053
v 0.023026 0.146188 0.020000
vn -0.248085 0.606085 0.755722
v 0.043843 0.215591 0.020000
vn 0.460616 -0.577713 0.673854
v 0.080629 0.195765 0.020000
vn -0.464779 0.466978 0.752271
v 0.060887 0.227070 0.020000
vn -0.604907 0.250921 0.755729
v 0.072386 0.243970 0.020000
vn -0.681487 0.064589 0.728974
v 0.075999 0.262864 0.020000
vn -0.681482 -0.064601 0.728978
v 0.075999 0.275804 0.020000
vn -0.577350 0.577350 0.577350
v -0.137335 0.361332 0.020000
vn -0.617993 -0.523507 0.586537
v -0.137335 0.335499 0.020000
vn 0.032284 0.716236 0.697111
v 0.022927 0.361332 0.020000
vn 0.301511 -0.301511 0.904534
v -0.065335 0.326665 0.020000
vn -0.063055 -0.682222 0.728421
v 0.024577 0.326665 0.020000
vn 0.136149 0.715021 0.685718
v 0.042246 0.359587 0.020000
vn -0.248084 -0.606085 0.755722
v 0.043843 0.323073 0.020000
vn 0.276714 0.674309 0.684643
v 0.059288 0.354571 0.020000
vn -0.464774 -0.466990 0.752267
v 0.060887 0.311594 0.020000
vn 0.406697 0.604095 0.685323
v 0.074833 0.346228 0.020000
vn -0.604898 -0.250943 0.755729
v 0.072385 0.294695 0.020000
vn 0.513618 0.514143 0.686916
v 0.089084 0.334406 0.020000
vn 0.609850 -0.413961 0.675810
v 0.099566 0.216413 0.020000
vn 0.603295 0.407645 0.685464
v 0.100909 0.320181 0.020000
vn 0.705596 -0.217061 0.674551
v 0.111797 0.241703 0.020000
vn 0.673657 0.278302 0.684642
v 0.109251 0.304726 0.020000
vn 0.714923 0.137372 0.685576
v 0.114259 0.287857 0.020000
vn 0.731640 -0.020234 0.681391
v 0.115920 0.269666 0.020000
# 184 vertices, 0 vertices normals


usemtl material_0
f 1//1 2//2 3//3
f 2//2 1//1 4//4
f 4//4 1//1 5//5
f 4//4 5//5 6//6
f 5//5 1//1 7//7
f 7//7 1//1 8//8
f 7//7 8//8 9//9
f 9//9 8//8 10//10
f 10//10 8//8 11//11
f 10//10 11//11 12//12
f 12//12 11//11 13//13
f 13//13 11//11 14//14
f 13//13 14//14 15//15
f 16//16 17//17 18//18
f 17//17 16//16 19//19
f 19//19 16//16 15//15
f 19//19 15//15 14//14
f 19//19 14//14 20//20
f 19//19 20//20 21//21
f 21//21 20//20 22//22
f 21//21 22//22 23//23
f 23//23 22//22 24//24
f 23//23 24//24 25//25
f 23//23 25//25 26//26
f 27//27 28//28 29//29
f 28//28 27//27 30//30
f 30//30 27//27 31//31
f 31//31 27//27 32//32
f 32//32 27//27 33//33
f 33//33 27//27 34//34
f 34//34 27//27 35//35
f 34//34 35//35 36//36
f 36//36 35//35 18//18
f 36//36 18//18 17//17
f 36//36 17//17 37//37
f 36//36 37//37 38//38
f 36//36 38//38 39//39
f 38//38 37//37 40//40
f 39//39 38//38 41//41
f 6//6 42//42 43//43
f 42//42 6//6 44//44
f 44//44 6//6 45//45
f 45//45 6//6 5//5
f 45//45 5//5 29//29
f 45//45 29//29 28//28
f 44//44 45//45 46//46
f 47//47 48//48 49//49
f 48//48 47//47 50//50
f 49//49 48//48 51//51
f 49//49 51//51 52//52
f 53//53 54//54 55//55
f 54//54 53//53 52//52
f 54//54 52//52 56//56
f 56//56 52//52 51//51
f 57//57 50//50 47//47
f 50//50 57//57 58//58
f 50//50 58//58 59//59
f 59//59 58//58 60//60
f 61//61 62//62 63//63
f 62//62 61//61 60//60
f 62//62 60//60 64//64
f 64//64 60//60 58//58
f 63//63 65//65 66//66
f 65//65 63//63 62//62
f 66//66 65//65 67//67
f 66//66 67//67 68//68
f 66//66 68//68 69//69
f 69//69 68//68 70//70
f 69//69 70//70 71//71
f 71//71 70//70 72//72
f 71//71 72//72 73//73
f 73//73 72//72 74//74
f 73//73 74//74 75//75
f 75//75 74//74 76//76
f 75//75 76//76 77//77
f 77//77 76//76 78//78
f 77//77 78//78 79//79
f 79//79 78//78 80//80
f 81//81 82//82 83//83
f 82//82 81//81 84//84
f 84//84 81//81 85//85
f 84//84 85//85 86//86
f 84//84 86//86 87//87
f 87//87 86//86 88//88
f 88//88 86//86 80//80
f 88//88 80//80 89//89
f 89//89 80//80 78//78
f 82//82 90//90 83//83
f 90//90 82//82 91//91
f 90//90 91//91 92//92
f 92//92 91//91 93//93
f 92//92 93//93 94//94
f 94//94 93//93 95//95
f 94//94 95//95 96//96
f 96//96 95//95 97//97
f 97//97 95//95 98//98
f 98//98 95//95 99//99
f 55//55 100//100 101//101
f 100//100 55//55 54//54
f 101//101 100//100 102//102
f 101//101 102//102 103//103
f 101//101 103//103 104//104
f 104//104 103//103 105//105
f 104//104 105//105 106//106
f 106//106 105//105 107//107
f 106//106 107//107 108//108
f 108//108 107//107 109//109
f 108//108 109//109 110//110
f 110//110 109//109 111//111
f 110//110 111//111 112//112
f 112//112 111//111 113//113
f 112//112 113//113 114//114
f 112//112 114//114 97//97
f 97//97 114//114 96//96
f 67//67 28//28 30//30
f 28//28 67//67 65//65
f 28//28 62//62 45//45
f 62//62 28//28 65//65
f 62//62 46//46 45//45
f 46//46 62//62 64//64
f 46//46 58//58 44//44
f 58//58 46//46 64//64
f 58//58 42//42 44//44
f 42//42 58//58 57//57
f 47//47 42//42 57//57
f 42//42 47//47 43//43
f 47//47 6//6 43//43
f 6//6 47//47 49//49
f 52//52 6//6 49//49
f 6//6 52//52 4//4
f 52//52 2//2 4//4
f 2//2 52//52 53//53
f 55//55 2//2 53//53
f 2//2 55//55 3//3
f 55//55 1//1 3//3
f 1//1 55//55 101//101
f 101//101 8//8 1//1
f 8//8 101//101 104//104
f 104//104 11//11 8//8
f 11//11 104//104 106//106
f 106//106 14//14 11//11
f 14//14 106//106 108//108
f 108//108 20//20 14//14
f 20//20 108//108 110//110
f 20//20 112//112 22//22
f 112//112 20//20 110//110
f 22//22 97//97 24//24
f 97//97 22//22 112//112
f 24//24 98//98 25//25
f 98//98 24//24 97//97
f 25//25 99//99 26//26
f 99//99 25//25 98//98
f 26//26 95//95 23//23
f 95//95 26//26 99//99
f 23//23 93//93 21//21
f 93//93 23//23 95//95
f 21//21 91//91 19//19
f 91//91 21//21 93//93
f 91//91 17//17 19//19
f 17//17 91//91 82//82
f 17//17 84//84 37//37
f 84//84 17//17 82//82
f 37//37 87//87 40//40
f 87//87 37//37 84//84
f 40//40 88//88 38//38
f 88//88 40//40 87//87
f 88//88 41//41 38//38
f 41//41 88//88 89//89
f 41//41 78//78 39//39
f 78//78 41//41 89//89
f 78//78 36//36 39//39
f 36//36 78//78 76//76
f 74//74 36//36 76//76
f 36//36 74//74 34//34
f 72//72 34//34 74//74
f 34//34 72//72 33//33
f 72//72 32//32 33//33
f 32//32 72//72 70//70
f 70//70 31//31 32//32
f 31//31 70//70 68//68
f 68//68 30//30 31//31
f 30//30 68//68 67//67
f 115//115 15//15 116//116
f 15//15 115//115 13//13
f 117//117 13//13 115//115
f 13//13 117//117 12//12
f 118//118 12//12 117//117
f 12//12 118//118 10//10
f 118//118 9//9 10//10
f 9//9 118//118 119//119
f 119//119 7//7 9//9
f 7//7 119//119 120//120
f 120//120 5//5 7//7
f 5//5 120//120 121//121
f 5//5 122//122 29//29
f 122//122 5//5 121//121
f 122//122 27//27 29//29
f 27//27 122//122 123//123
f 123//123 35//35 27//27
f 35//35 123//123 124//124
f 124//124 18//18 35//35
f 18//18 124//124 125//125
f 126//126 18//18 125//125
f 18//18 126//126 16//16
f 116//116 16//16 126//126
f 16//16 116//116 15//15
f 127//127 122//122 128//128
f 122//122 127//127 129//129
f 122//122 129//129 123//123
f 123//123 129//129 124//124
f 124//124 129//129 130//130
f 124//124 130//130 125//125
f 125//125 130//130 131//131
f 125//125 131//131 126//126
f 126//126 131//131 132//132
f 126//126 132//132 116//116
f 116//116 132//132 115//115
f 115//115 132//132 133//133
f 133//133 132//132 134//134
f 134//134 132//132 135//135
f 128//128 121//121 136//136
f 121//121 128//128 122//122
f 136//136 121//121 120//120
f 136//136 120//120 119//119
f 136//136 119//119 137//137
f 137//137 119//119 118//118
f 137//137 118//118 138//138
f 138//138 118//118 117//117
f 138//138 117//117 133//133
f 133//133 117//117 115//115
f 139//139 140//140 141//141
f 140//140 139//139 142//142
f 142//142 139//139 143//143
f 142//142 143//143 144//144
f 143//143 139//139 145//145
f 146//146 147//147 148//148
f 147//147 146//146 149//149
f 149//149 146//146 150//150
f 150//150 146//146 151//151
f 151//151 146//146 152//152
f 151//151 152//152 153//153
f 154//154 155//155 156//156
f 155//155 154//154 157//157
f 157//157 154//154 158//158
f 157//157 158//158 159//159
f 157//157 159//159 160//160
f 157//157 160//160 148//148
f 157//157 148//148 161//161
f 161//161 148//148 147//147
f 161//161 147//147 162//162
f 161//161 162//162 163//163
f 163//163 162//162 164//164
f 164//164 162//162 165//165
f 165//165 162//162 166//166
f 144//144 167//167 168//168
f 167//167 144//144 169//169
f 169//169 144//144 170//170
f 170//170 144//144 143//143
f 170//170 143//143 156//156
f 170//170 156//156 155//155
f 169//169 170//170 171//171
f 169//169 171//171 172//172
f 172//172 171//171 173//173
f 172//172 173//173 174//174
f 174//174 173//173 175//175
f 174//174 175//175 176//176
f 176//176 175//175 177//177
f 176//176 177//177 166//166
f 176//176 166//166 178//178
f 178//178 166//166 162//162
f 178//178 162//162 179//179
f 178//178 179//179 180//180
f 180//180 179//179 181//181
f 180//180 181//181 182//182
f 182//182 181//181 183//183
f 183//183 181//181 184//184
f 114//114 184//184 96//96
f 184//184 114//114 183//183
f 113//113 183//183 114//114
f 183//183 113//113 182//182
f 111//111 182//182 113//113
f 182//182 111//111 180//180
f 109//109 180//180 111//111
f 180//180 109//109 178//178
f 176//176 109//109 107//107
f 109//109 176//176 178//178
f 174//174 107//107 105//105
f 107//107 174//174 176//176
f 172//172 105//105 103//103
f 105//105 172//172 174//174
f 169//169 103//103 102//102
f 103//103 169//169 172//172
f 167//167 102//102 100//100
f 102//102 167//167 169//169
f 167//167 54//54 168//168
f 54//54 167//167 100//100
f 144//144 54//54 56//56
f 54//54 144//144 168//168
f 144//144 51//51 142//142
f 51//51 144//144 56//56
f 140//140 51//51 48//48
f 51//51 140//140 142//142
f 140//140 50//50 141//141
f 50//50 140//140 48//48
f 139//139 50//50 59//59
f 50//50 139//139 141//141
f 60//60 139//139 59//59
f 139//139 60//60 145//145
f 143//143 60//60 61//61
f 60//60 143//143 145//145
f 63//63 143//143 61//61
f 143//143 63//63 156//156
f 154//154 63//63 66//66
f 63//63 154//154 156//156
f 158//158 66//66 69//69
f 66//66 158//158 154//154
f 159//159 69//69 71//71
f 69//69 159//159 158//158
f 160//160 71//71 73//73
f 71//71 160//160 159//159
f 160//160 75//75 148//148
f 75//75 160//160 73//73
f 148//148 77//77 146//146
f 77//77 148//148 75//75
f 152//152 77//77 79//79
f 77//77 152//152 146//146
f 80//80 152//152 79//79
f 152//152 80//80 153//153
f 151//151 80//80 86//86
f 80//80 151//151 153//153
f 85//85 151//151 86//86
f 151//151 85//85 150//150
f 81//81 150//150 85//85
f 150//150 81//81 149//149
f 83//83 149//149 81//81
f 149//149 83//83 147//147
f 162//162 83//83 90//90
f 83//83 162//162 147//147
f 92//92 162//162 90//90
f 162//162 92//92 179//179
f 94//94 179//179 92//92
f 179//179 94//94 181//181
f 96//96 181//181 94//94
f 181//181 96//96 184//184
f 166//166 135//135 165//165
f 135//135 166//166 134//134
f 165//165 132//132 164//164
f 132//132 165//165 135//135
f 164//164 131//131 163//163
f 131//131 164//164 132//132
f 161//161 131//131 130//130
f 131//131 161//161 163//163
f 157//157 130//130 129//129
f 130//130 157//157 161//161
f 155//155 129//129 127//127
f 129//129 155//155 157//157
f 128//128 155//155 127//127
f 155//155 128//128 170//170
f 171//171 128//128 136//136
f 128//128 171//171 170//170
f 173//173 136//136 137//137
f 136//136 173//173 171//171
f 175//175 137//137 138//138
f 137//137 175//175 173//173
f 175//175 133//133 177//177
f 133//133 175//175 138//138
f 177//177 134//134 166//166
f 134//134 177//177 133//133
# 368 faces, 0 coords texture

# End of File
