####
#
# OBJ File Generated by Meshlab
#
####
# Object alphabet0.obj
#
# Vertices: 84
# Faces: 168
#
####
mtllib ./alphabet0.obj.mtl

vn -0.617993 0.523507 0.586537
v -0.168001 0.047998 0.008000
vn -0.355824 0.301422 0.884610
v -0.156001 0.037833 0.008000
vn -0.349836 0.404437 0.845012
v -0.135999 0.053333 0.008000
vn -0.301511 -0.301512 0.904534
v -0.156001 0.012000 0.008000
vn -0.520142 0.601324 0.606517
v -0.126801 0.042700 0.008000
vn -0.332654 -0.203017 0.920937
v -0.050667 0.319999 0.008000
vn -0.701272 -0.427983 0.570130
v -0.035010 0.329555 0.008000
vn -0.617997 -0.523500 0.586538
v -0.082666 0.325334 0.008000
vn -0.355831 -0.301421 0.884607
v -0.070666 0.335499 0.008000
vn -0.577350 0.577350 0.577350
v -0.082666 0.373332 0.008000
vn -0.577350 -0.577350 0.577350
v 0.040002 -0.000000 0.008000
vn -0.301511 -0.301512 0.904534
v 0.052002 0.012000 0.008000
vn -0.617997 0.523500 0.586538
v 0.040002 0.047998 0.008000
vn 0.577350 -0.577350 0.577350
v 0.168001 -0.000000 0.008000
vn 0.301511 -0.301511 0.904534
v 0.156001 0.012000 0.008000
vn 0.355824 0.301422 0.884610
v 0.156001 0.037833 0.008000
vn -0.301511 0.301511 0.904534
v -0.070666 0.361332 0.008000
vn 0.474756 0.648326 0.595214
v 0.034668 0.373332 0.008000
vn 0.294622 0.402336 0.866789
v 0.025881 0.361332 0.008000
vn 0.521158 0.600659 0.606303
v 0.126777 0.042704 0.008000
vn 0.350037 0.403434 0.845408
v 0.135999 0.053333 0.008000
vn 0.617993 0.523507 0.586537
v 0.168001 0.047998 0.008000
vn -0.355831 0.301421 0.884607
v 0.052002 0.037833 0.008000
vn -0.332846 0.203504 0.920760
v 0.072001 0.053333 0.008000
vn -0.700881 0.428521 0.570206
v 0.087636 0.043773 0.008000
vn 0.333816 0.206003 0.919853
v -0.072001 0.053333 0.008000
vn 0.477170 -0.646955 0.594776
v -0.062716 0.124000 0.008000
vn 0.698866 0.431281 0.570599
v -0.087522 0.043754 0.008000
vn 0.295095 -0.400095 0.867665
v -0.053866 0.112000 0.008000
vn -0.474259 -0.648608 0.595304
v 0.062107 0.124000 0.008000
vn -0.294524 -0.402797 0.866608
v 0.053333 0.112000 0.008000
vn -0.577350 -0.577350 0.577350
v -0.168001 -0.000000 0.008000
vn 0.577350 -0.577350 0.577350
v -0.039998 -0.000000 0.008000
vn 0.301511 -0.301511 0.904534
v -0.051998 0.012000 0.008000
vn 0.355824 0.301422 0.884610
v -0.051998 0.037833 0.008000
vn 0.617993 0.523507 0.586537
v -0.039998 0.047998 0.008000
vn -0.332847 0.203504 -0.920760
v 0.072001 0.053333 -0.020000
vn -0.294524 -0.402797 -0.866608
v 0.053333 0.112000 -0.020000
vn 0.295095 -0.400095 -0.867665
v -0.053866 0.112000 -0.020000
vn 0.333816 0.206003 -0.919853
v -0.072001 0.053333 -0.020000
vn 0.617993 0.523507 -0.586537
v -0.039998 0.047998 -0.020000
vn 0.577350 -0.577350 -0.577350
v -0.039998 0.000000 -0.020000
vn -0.349836 0.404437 -0.845012
v -0.135999 0.053333 -0.020000
vn -0.617993 0.523507 -0.586537
v -0.168001 0.047998 -0.020000
vn -0.332654 -0.203017 -0.920937
v -0.050667 0.319999 -0.020000
vn -0.617997 -0.523500 -0.586538
v -0.082666 0.325334 -0.020000
vn -0.577350 0.577350 -0.577350
v -0.082666 0.373332 -0.020000
vn 0.474756 0.648326 -0.595214
v 0.034668 0.373332 -0.020000
vn 0.350037 0.403434 -0.845408
v 0.135999 0.053333 -0.020000
vn 0.617993 0.523507 -0.586537
v 0.168001 0.047998 -0.020000
vn 0.577350 -0.577350 -0.577350
v 0.168001 0.000000 -0.020000
vn -0.577350 -0.577350 -0.577350
v 0.040002 0.000000 -0.020000
vn -0.617997 0.523501 -0.586538
v 0.040002 0.047998 -0.020000
vn -0.000000 -0.163768 -0.986499
v 0.000000 0.282666 -0.020000
vn 0.280088 0.205566 0.937706
v -0.035201 0.170667 0.008000
vn 0.280088 0.205566 -0.937706
v -0.035201 0.170667 -0.020000
vn -0.000000 -0.163768 0.986499
v 0.000000 0.282666 0.008000
vn -0.280088 0.205566 -0.937706
v 0.035201 0.170667 -0.020000
vn -0.280088 0.205566 0.937706
v 0.035201 0.170667 0.008000
vn -0.666266 0.488994 0.563005
v 0.051551 0.158667 0.008000
vn 0.666266 0.488994 0.563005
v -0.051551 0.158667 0.008000
vn 0.000001 -0.839759 0.542959
v 0.000000 0.322688 0.008000
vn 0.577350 -0.577350 0.577350
v -0.051998 0.012000 0.020000
vn -0.617993 0.523507 0.586537
v -0.156001 0.037833 0.020000
vn -0.577350 -0.577350 0.577350
v -0.156001 0.012000 0.020000
vn -0.349836 0.404437 0.845012
v -0.126801 0.042700 0.020000
vn 0.333816 0.206003 0.919853
v -0.087522 0.043754 0.020000
vn 0.617993 0.523507 0.586537
v -0.051998 0.037833 0.020000
vn -0.332654 -0.203017 0.920937
v -0.035010 0.329555 0.020000
vn 0.295095 -0.400095 0.867665
v -0.062716 0.123999 0.020000
vn 0.280088 0.205565 0.937707
v -0.051551 0.158666 0.020000
vn 0.000000 -0.163768 0.986499
v 0.000000 0.322688 0.020000
vn -0.294524 -0.402798 0.866608
v 0.062107 0.123999 0.020000
vn -0.280088 0.205566 0.937707
v 0.051551 0.158666 0.020000
vn 0.577350 -0.577351 0.577350
v 0.156001 0.012000 0.020000
vn -0.617997 0.523501 0.586538
v 0.052002 0.037833 0.020000
vn -0.577350 -0.577350 0.577350
v 0.052002 0.012000 0.020000
vn -0.332846 0.203503 0.920760
v 0.087636 0.043773 0.020000
vn 0.350037 0.403434 0.845408
v 0.126777 0.042704 0.020000
vn 0.617993 0.523507 0.586537
v 0.156001 0.037833 0.020000
vn -0.577350 0.577350 0.577350
v -0.070666 0.361332 0.020000
vn -0.617997 -0.523501 0.586538
v -0.070666 0.335499 0.020000
vn 0.474757 0.648326 0.595214
v 0.025881 0.361332 0.020000
vn -0.577350 -0.577350 -0.577350
v -0.168001 0.000000 -0.020000
# 84 vertices, 0 vertices normals


usemtl material_0
f 1//1 2//2 3//3
f 2//2 1//1 4//4
f 3//3 2//2 5//5
f 3//3 5//5 6//6
f 6//6 5//5 7//7
f 8//8 9//9 10//10
f 9//9 8//8 6//6
f 9//9 6//6 7//7
f 11//11 12//12 13//13
f 12//12 11//11 14//14
f 12//12 14//14 15//15
f 15//15 14//14 16//16
f 10//10 17//17 18//18
f 17//17 10//10 9//9
f 18//18 17//17 19//19
f 18//18 19//19 20//20
f 18//18 20//20 21//21
f 21//21 20//20 16//16
f 21//21 16//16 22//22
f 22//22 16//16 14//14
f 13//13 23//23 24//24
f 23//23 13//13 12//12
f 24//24 23//23 25//25
f 26//26 27//27 28//28
f 27//27 26//26 29//29
f 27//27 29//29 30//30
f 30//30 29//29 31//31
f 30//30 31//31 24//24
f 30//30 24//24 25//25
f 32//32 4//4 1//1
f 4//4 32//32 33//33
f 4//4 33//33 34//34
f 34//34 33//33 35//35
f 35//35 26//26 28//28
f 26//26 35//35 36//36
f 36//36 35//35 33//33
f 31//31 37//37 24//24
f 37//37 31//31 38//38
f 31//31 39//39 38//38
f 39//39 31//31 29//29
f 39//39 26//26 40//40
f 26//26 39//39 29//29
f 26//26 41//41 40//40
f 41//41 26//26 36//36
f 41//41 33//33 42//42
f 33//33 41//41 36//36
f 1//1 43//43 44//44
f 43//43 1//1 3//3
f 6//6 43//43 3//3
f 43//43 6//6 45//45
f 6//6 46//46 45//45
f 46//46 6//6 8//8
f 10//10 46//46 8//8
f 46//46 10//10 47//47
f 10//10 48//48 47//47
f 48//48 10//10 18//18
f 48//48 21//21 49//49
f 21//21 48//48 18//18
f 21//21 50//50 49//49
f 50//50 21//21 22//22
f 50//50 14//14 51//51
f 14//14 50//50 22//22
f 14//14 52//52 51//51
f 52//52 14//14 11//11
f 13//13 52//52 11//11
f 52//52 13//13 53//53
f 13//13 37//37 53//53
f 37//37 13//13 24//24
f 54//54 55//55 56//56
f 55//55 54//54 57//57
f 55//55 58//58 56//56
f 58//58 55//55 59//59
f 57//57 58//58 59//59
f 58//58 57//57 54//54
f 60//60 55//55 61//61
f 55//55 60//60 59//59
f 55//55 62//62 61//61
f 62//62 55//55 57//57
f 62//62 57//57 59//59
f 62//62 59//59 60//60
f 63//63 64//64 65//65
f 64//64 63//63 66//66
f 66//66 63//63 67//67
f 67//67 63//63 68//68
f 67//67 69//69 66//66
f 69//69 67//67 70//70
f 69//69 70//70 71//71
f 69//69 71//71 72//72
f 73//73 71//71 70//70
f 71//71 73//73 74//74
f 75//75 76//76 77//77
f 76//76 75//75 78//78
f 78//78 75//75 79//79
f 79//79 75//75 80//80
f 69//69 81//81 82//82
f 81//81 69//69 83//83
f 83//83 69//69 72//72
f 83//83 72//72 74//74
f 83//83 74//74 79//79
f 79//79 74//74 73//73
f 79//79 73//73 78//78
f 16//16 75//75 15//15
f 75//75 16//16 80//80
f 79//79 16//16 20//20
f 16//16 79//79 80//80
f 19//19 79//79 20//20
f 79//79 19//19 83//83
f 81//81 19//19 17//17
f 19//19 81//81 83//83
f 81//81 9//9 82//82
f 9//9 81//81 17//17
f 69//69 9//9 7//7
f 9//9 69//69 82//82
f 69//69 5//5 66//66
f 5//5 69//69 7//7
f 64//64 5//5 2//2
f 5//5 64//64 66//66
f 64//64 4//4 65//65
f 4//4 64//64 2//2
f 63//63 4//4 34//34
f 4//4 63//63 65//65
f 35//35 63//63 34//34
f 63//63 35//35 68//68
f 67//67 35//35 28//28
f 35//35 67//67 68//68
f 27//27 67//67 28//28
f 67//67 27//27 70//70
f 73//73 27//27 30//30
f 27//27 73//73 70//70
f 73//73 25//25 78//78
f 25//25 73//73 30//30
f 76//76 25//25 23//23
f 25//25 76//76 78//78
f 76//76 12//12 77//77
f 12//12 76//76 23//23
f 75//75 12//12 15//15
f 12//12 75//75 77//77
f 62//62 71//71 61//61
f 71//71 62//62 72//72
f 72//72 60//60 74//74
f 60//60 72//72 62//62
f 71//71 60//60 61//61
f 60//60 71//71 74//74
f 45//45 40//40 43//43
f 40//40 45//45 39//39
f 39//39 45//45 56//56
f 39//39 56//56 38//38
f 38//38 56//56 58//58
f 43//43 84//84 44//44
f 84//84 43//43 42//42
f 42//42 43//43 40//40
f 42//42 40//40 41//41
f 48//48 46//46 47//47
f 46//46 48//48 45//45
f 45//45 48//48 54//54
f 45//45 54//54 56//56
f 54//54 48//48 58//58
f 58//58 48//48 49//49
f 58//58 49//49 38//38
f 38//38 49//49 37//37
f 37//37 52//52 53//53
f 52//52 37//37 51//51
f 51//51 37//37 49//49
f 51//51 49//49 50//50
f 33//33 84//84 42//42
f 84//84 33//33 32//32
f 1//1 84//84 32//32
f 84//84 1//1 44//44
# 168 faces, 0 coords texture

# End of File
