####
#
# OBJ File Generated by Meshlab
#
####
# Object alphabet2.obj
#
# Vertices: 136
# Faces: 268
#
####
mtllib ./alphabet2.obj.mtl

vn -0.136725 0.714942 -0.685685
v -0.037918 0.369065 -0.020000
vn 0.680817 -0.065977 -0.729476
v -0.053333 0.272200 -0.020000
vn -0.276855 0.674110 -0.684782
v -0.056201 0.363665 -0.020000
vn 0.602202 -0.255020 -0.756516
v -0.050333 0.287532 -0.020000
vn 0.462571 -0.470786 -0.751258
v -0.041333 0.300465 -0.020000
vn 0.248893 -0.606725 -0.754942
v -0.028200 0.309265 -0.020000
vn -0.032519 0.716294 -0.697040
v -0.018136 0.370865 -0.020000
vn 0.064338 -0.681608 -0.728883
v -0.012801 0.312198 -0.020000
vn 0.577350 0.577350 -0.577350
v 0.117334 0.370865 -0.020000
vn -0.301421 -0.355831 -0.884607
v 0.063997 0.312198 -0.020000
vn -0.523500 -0.617997 -0.586538
v 0.069332 0.280199 -0.020000
vn 0.577350 -0.577350 -0.577350
v 0.117334 0.280199 -0.020000
vn -0.714884 0.138263 -0.685437
v -0.115517 0.291967 -0.020000
vn -0.716338 -0.032696 -0.696987
v -0.117334 0.132466 -0.020000
vn -0.716376 0.032850 -0.696941
v -0.117334 0.272200 -0.020000
vn -0.714910 -0.137532 -0.685557
v -0.114867 0.105500 -0.020000
vn -0.673070 0.280064 -0.684500
v -0.110067 0.310201 -0.020000
vn -0.673572 -0.278508 -0.684642
v -0.107467 0.080601 -0.020000
vn -0.601851 0.409960 -0.685352
v -0.100984 0.326900 -0.020000
vn -0.603192 -0.407767 -0.685483
v -0.095134 0.057767 -0.020000
vn -0.511644 0.515934 -0.687046
v -0.088267 0.342067 -0.020000
vn -0.513643 -0.514048 -0.686969
v -0.077867 0.037001 -0.020000
vn -0.405513 0.604571 -0.685604
v -0.072984 0.354666 -0.020000
vn -0.407036 -0.603808 -0.685374
v -0.057066 0.019734 -0.020000
vn 0.680507 0.066615 -0.729707
v -0.053333 0.130867 -0.020000
vn -0.277281 -0.674077 -0.684643
v -0.034133 0.007400 -0.020000
vn 0.600715 0.257114 -0.756990
v -0.047666 0.102200 -0.020000
vn 0.459340 0.473631 -0.751452
v -0.030666 0.078067 -0.020000
vn -0.136585 -0.714986 -0.685667
v -0.009067 -0.000000 -0.020000
vn 0.245795 0.608566 -0.754475
v -0.005800 0.061667 -0.020000
vn -0.032413 -0.716268 -0.697072
v 0.018132 -0.002467 -0.020000
vn 0.063167 0.682169 -0.728461
v 0.023466 0.056200 -0.020000
vn 0.577350 -0.577350 -0.577350
v 0.117334 -0.002467 -0.020000
vn 0.577350 0.577350 -0.577350
v 0.117334 0.056200 -0.020000
vn -0.673572 -0.278508 0.684641
v -0.107467 0.080601 0.008000
vn -0.671135 -0.129111 0.730005
v -0.103026 0.107778 0.008000
vn -0.695819 -0.031759 0.717515
v -0.105334 0.133013 0.008000
vn -0.603191 -0.407767 0.685482
v -0.095134 0.057767 0.008000
vn -0.630556 -0.260722 0.731043
v -0.096318 0.085210 0.008000
vn -0.566127 -0.382711 0.730090
v -0.085143 0.064521 0.008000
vn -0.513643 -0.514048 0.686969
v -0.077867 0.037001 0.008000
vn -0.484271 -0.484653 0.728419
v -0.069349 0.045525 0.008000
vn -0.407036 -0.603809 0.685373
v -0.057066 0.019734 0.008000
vn -0.381898 -0.566518 0.730214
v -0.050325 0.029734 0.008000
vn -0.277281 -0.674077 0.684642
v -0.034133 0.007400 0.008000
vn -0.259574 -0.631031 0.731041
v -0.029544 0.018557 0.008000
vn -0.136585 -0.714986 0.685667
v -0.009067 -0.000000 0.008000
vn -0.128265 -0.671432 0.729882
v -0.006805 0.011844 0.008000
vn -0.032413 -0.716268 0.697072
v 0.018132 -0.002467 0.008000
vn -0.031493 -0.695924 0.717425
v 0.018675 0.009533 0.008000
vn 0.577350 -0.577350 0.577350
v 0.117334 -0.002467 0.008000
vn 0.301511 -0.301511 0.904534
v 0.105334 0.009533 0.008000
vn 0.301511 0.301511 0.904534
v 0.105334 0.044200 0.008000
vn 0.688065 0.294501 0.663201
v -0.058944 0.097373 0.008000
vn 0.600715 0.257114 0.756990
v -0.047666 0.102200 0.008000
vn 0.680507 0.066615 0.729707
v -0.053333 0.130867 0.008000
vn 0.518361 0.534488 0.667551
v -0.039169 0.069300 0.008000
vn 0.459340 0.473631 0.751453
v -0.030666 0.078067 0.008000
vn 0.279639 0.692359 0.665163
v -0.010385 0.050316 0.008000
vn 0.245795 0.608565 0.754475
v -0.005800 0.061667 0.008000
vn 0.067005 0.723627 0.686931
v 0.022355 0.044200 0.008000
vn 0.063167 0.682169 0.728461
v 0.023466 0.056200 0.008000
vn 0.577350 0.577350 0.577350
v 0.117334 0.056200 0.008000
vn 0.724184 -0.070180 0.686027
v -0.065333 0.273363 0.008000
vn 0.724307 0.070903 0.685822
v -0.065333 0.129692 0.008000
vn 0.688890 -0.291731 0.663569
v -0.061625 0.292314 0.008000
vn 0.680817 -0.065977 0.729476
v -0.053333 0.272200 0.008000
vn 0.521735 -0.531000 0.667706
v -0.049891 0.309175 0.008000
vn 0.602202 -0.255021 0.756517
v -0.050333 0.287532 0.008000
vn 0.462571 -0.470786 0.751258
v -0.041333 0.300465 0.008000
vn 0.283518 -0.691131 0.664797
v -0.032848 0.320595 0.008000
vn 0.248893 -0.606725 0.754941
v -0.028200 0.309265 0.008000
vn 0.068326 -0.723861 0.686554
v -0.013934 0.324198 0.008000
vn 0.064338 -0.681608 0.728883
v -0.012801 0.312198 0.008000
vn -0.523500 -0.617997 0.586538
v 0.074162 0.324198 0.008000
vn -0.301421 -0.355831 0.884607
v 0.063997 0.312198 0.008000
vn -0.523500 -0.617997 0.586538
v 0.069332 0.280199 0.008000
vn -0.301421 -0.355831 0.884607
v 0.079497 0.292199 0.008000
vn 0.577350 -0.577350 0.577350
v 0.117334 0.280199 0.008000
vn 0.301511 -0.301511 0.904534
v 0.105334 0.292199 0.008000
vn 0.301511 0.301511 0.904534
v 0.105334 0.358865 0.008000
vn -0.714910 -0.137532 0.685557
v -0.114867 0.105500 0.008000
vn -0.716376 0.032849 0.696941
v -0.117334 0.272200 0.008000
vn -0.716338 -0.032696 0.696987
v -0.117334 0.132466 0.008000
vn -0.714883 0.138263 0.685438
v -0.115517 0.291967 0.008000
vn -0.673070 0.280064 0.684500
v -0.110067 0.310201 0.008000
vn -0.695762 0.031904 0.717564
v -0.105334 0.271649 0.008000
vn -0.601852 0.409961 0.685352
v -0.100984 0.326900 0.008000
vn -0.670862 0.129749 0.730143
v -0.103677 0.289677 0.008000
vn -0.629813 0.262064 0.731203
v -0.098928 0.305566 0.008000
vn -0.511644 0.515934 0.687046
v -0.088267 0.342067 0.008000
vn -0.564645 0.384616 0.730237
v -0.091016 0.320111 0.008000
vn -0.482500 0.486545 0.728332
v -0.079781 0.333510 0.008000
vn -0.405513 0.604571 0.685604
v -0.072984 0.354666 0.008000
vn -0.380737 0.567634 0.729953
v -0.066267 0.344651 0.008000
vn -0.276855 0.674110 0.684783
v -0.056201 0.363665 0.008000
vn -0.259287 0.631333 0.730882
v -0.051618 0.352506 0.008000
vn -0.136725 0.714941 0.685686
v -0.037918 0.369065 0.008000
vn -0.128404 0.671429 0.729860
v -0.035653 0.357222 0.008000
vn -0.032519 0.716294 0.697040
v -0.018136 0.370865 0.008000
vn -0.031593 0.695884 0.717459
v -0.017591 0.358865 0.008000
vn 0.577350 0.577350 0.577350
v 0.117334 0.370865 0.008000
vn -0.405512 0.604572 0.685604
v -0.066267 0.344651 0.020000
vn 0.680817 -0.065977 0.729476
v -0.065333 0.273363 0.020000
vn -0.276855 0.674109 0.684783
v -0.051618 0.352506 0.020000
vn 0.680508 0.066615 0.729706
v -0.065333 0.129692 0.020000
vn 0.602204 -0.255021 0.756515
v -0.061625 0.292314 0.020000
vn 0.462571 -0.470786 0.751258
v -0.049891 0.309175 0.020000
vn -0.136726 0.714941 0.685686
v -0.035653 0.357222 0.020000
vn 0.248892 -0.606725 0.754942
v -0.032848 0.320595 0.020000
vn -0.032519 0.716294 0.697040
v -0.017591 0.358865 0.020000
vn 0.064338 -0.681608 0.728883
v -0.013934 0.324198 0.020000
vn 0.577350 0.577350 0.577350
v 0.105334 0.358865 0.020000
vn -0.301421 -0.355831 0.884607
v 0.074162 0.324198 0.020000
vn -0.523500 -0.617997 0.586538
v 0.079497 0.292199 0.020000
vn 0.577350 -0.577350 0.577350
v 0.105334 0.292199 0.020000
vn -0.714910 -0.137532 0.685557
v -0.103026 0.107778 0.020000
vn -0.716376 0.032849 0.696941
v -0.105334 0.271649 0.020000
vn -0.716339 -0.032696 0.696986
v -0.105334 0.133013 0.020000
vn -0.714884 0.138263 0.685438
v -0.103677 0.289677 0.020000
vn -0.673071 0.280064 0.684500
v -0.098928 0.305566 0.020000
vn -0.673572 -0.278508 0.684641
v -0.096318 0.085210 0.020000
vn -0.601851 0.409960 0.685352
v -0.091016 0.320111 0.020000
vn -0.603191 -0.407767 0.685483
v -0.085143 0.064521 0.020000
vn -0.511644 0.515934 0.687046
v -0.079781 0.333510 0.020000
vn -0.513643 -0.514048 0.686969
v -0.069349 0.045525 0.020000
vn -0.407036 -0.603809 0.685373
v -0.050325 0.029734 0.020000
vn 0.600715 0.257114 0.756990
v -0.058944 0.097373 0.020000
vn 0.459340 0.473631 0.751453
v -0.039169 0.069300 0.020000
vn -0.277281 -0.674077 0.684642
v -0.029544 0.018557 0.020000
vn 0.245795 0.608565 0.754475
v -0.010385 0.050316 0.020000
vn -0.136585 -0.714986 0.685667
v -0.006805 0.011844 0.020000
vn 0.063167 0.682169 0.728461
v 0.022355 0.044200 0.020000
vn -0.032413 -0.716268 0.697072
v 0.018675 0.009533 0.020000
vn 0.577350 -0.577350 0.577350
v 0.105334 0.009533 0.020000
vn 0.577350 0.577350 0.577350
v 0.105334 0.044200 0.020000
# 136 vertices, 0 vertices normals


usemtl material_0
f 1//1 2//2 3//3
f 2//2 1//1 4//4
f 4//4 1//1 5//5
f 5//5 1//1 6//6
f 6//6 1//1 7//7
f 6//6 7//7 8//8
f 8//8 7//7 9//9
f 8//8 9//9 10//10
f 10//10 9//9 11//11
f 11//11 9//9 12//12
f 13//13 14//14 15//15
f 14//14 13//13 16//16
f 16//16 13//13 17//17
f 16//16 17//17 18//18
f 18//18 17//17 19//19
f 18//18 19//19 20//20
f 20//20 19//19 21//21
f 20//20 21//21 22//22
f 22//22 21//21 23//23
f 22//22 23//23 24//24
f 24//24 23//23 3//3
f 24//24 3//3 25//25
f 24//24 25//25 26//26
f 25//25 3//3 2//2
f 26//26 25//25 27//27
f 26//26 27//27 28//28
f 26//26 28//28 29//29
f 29//29 28//28 30//30
f 29//29 30//30 31//31
f 31//31 30//30 32//32
f 31//31 32//32 33//33
f 33//33 32//32 34//34
f 35//35 36//36 37//37
f 36//36 35//35 38//38
f 36//36 38//38 39//39
f 39//39 38//38 40//40
f 40//40 38//38 41//41
f 40//40 41//41 42//42
f 42//42 41//41 43//43
f 42//42 43//43 44//44
f 44//44 43//43 45//45
f 44//44 45//45 46//46
f 46//46 45//45 47//47
f 46//46 47//47 48//48
f 48//48 47//47 49//49
f 48//48 49//49 50//50
f 50//50 49//49 51//51
f 50//50 51//51 52//52
f 52//52 51//51 53//53
f 54//54 55//55 56//56
f 55//55 54//54 57//57
f 55//55 57//57 58//58
f 58//58 57//57 59//59
f 58//58 59//59 60//60
f 60//60 59//59 61//61
f 60//60 61//61 62//62
f 62//62 61//61 53//53
f 62//62 53//53 63//63
f 63//63 53//53 51//51
f 54//54 64//64 65//65
f 64//64 54//54 66//66
f 66//66 54//54 67//67
f 66//66 67//67 68//68
f 67//67 54//54 56//56
f 68//68 67//67 69//69
f 68//68 69//69 70//70
f 68//68 70//70 71//71
f 71//71 70//70 72//72
f 71//71 72//72 73//73
f 73//73 72//72 74//74
f 73//73 74//74 75//75
f 75//75 74//74 76//76
f 75//75 76//76 77//77
f 75//75 77//77 78//78
f 78//78 77//77 79//79
f 78//78 79//79 80//80
f 80//80 79//79 81//81
f 82//82 83//83 84//84
f 83//83 82//82 85//85
f 85//85 82//82 86//86
f 86//86 82//82 35//35
f 86//86 35//35 87//87
f 86//86 87//87 88//88
f 87//87 35//35 37//37
f 88//88 87//87 89//89
f 88//88 89//89 90//90
f 88//88 90//90 91//91
f 91//91 90//90 92//92
f 91//91 92//92 93//93
f 91//91 93//93 94//94
f 94//94 93//93 95//95
f 94//94 95//95 96//96
f 96//96 95//95 97//97
f 96//96 97//97 98//98
f 98//98 97//97 99//99
f 98//98 99//99 100//100
f 100//100 99//99 101//101
f 100//100 101//101 102//102
f 102//102 101//101 81//81
f 102//102 81//81 79//79
f 62//62 34//34 32//32
f 34//34 62//62 63//63
f 34//34 51//51 33//33
f 51//51 34//34 63//63
f 51//51 31//31 33//33
f 31//31 51//51 49//49
f 49//49 29//29 31//31
f 29//29 49//49 47//47
f 47//47 26//26 29//29
f 26//26 47//47 45//45
f 45//45 24//24 26//26
f 24//24 45//45 43//43
f 43//43 22//22 24//24
f 22//22 43//43 41//41
f 38//38 22//22 41//41
f 22//22 38//38 20//20
f 35//35 20//20 38//38
f 20//20 35//35 18//18
f 82//82 18//18 35//35
f 18//18 82//82 16//16
f 84//84 16//16 82//82
f 16//16 84//84 14//14
f 83//83 14//14 84//84
f 14//14 83//83 15//15
f 85//85 15//15 83//83
f 15//15 85//85 13//13
f 86//86 13//13 85//85
f 13//13 86//86 17//17
f 88//88 17//17 86//86
f 17//17 88//88 19//19
f 91//91 19//19 88//88
f 19//19 91//91 21//21
f 91//91 23//23 21//21
f 23//23 91//91 94//94
f 94//94 3//3 23//23
f 3//3 94//94 96//96
f 96//96 1//1 3//3
f 1//1 96//96 98//98
f 98//98 7//7 1//1
f 7//7 98//98 100//100
f 100//100 9//9 7//7
f 9//9 100//100 102//102
f 9//9 79//79 12//12
f 79//79 9//9 102//102
f 79//79 11//11 12//12
f 11//11 79//79 77//77
f 76//76 11//11 77//77
f 11//11 76//76 10//10
f 76//76 8//8 10//10
f 8//8 76//76 74//74
f 74//74 6//6 8//8
f 6//6 74//74 72//72
f 72//72 5//5 6//6
f 5//5 72//72 70//70
f 5//5 69//69 4//4
f 69//69 5//5 70//70
f 4//4 67//67 2//2
f 67//67 4//4 69//69
f 2//2 56//56 25//25
f 56//56 2//2 67//67
f 25//25 55//55 27//27
f 55//55 25//25 56//56
f 27//27 58//58 28//28
f 58//58 27//27 55//55
f 58//58 30//30 28//28
f 30//30 58//58 60//60
f 60//60 32//32 30//30
f 32//32 60//60 62//62
f 103//103 104//104 105//105
f 104//104 103//103 106//106
f 105//105 104//104 107//107
f 105//105 107//107 108//108
f 105//105 108//108 109//109
f 109//109 108//108 110//110
f 109//109 110//110 111//111
f 111//111 110//110 112//112
f 111//111 112//112 113//113
f 113//113 112//112 114//114
f 113//113 114//114 115//115
f 113//113 115//115 116//116
f 117//117 118//118 119//119
f 118//118 117//117 120//120
f 120//120 117//117 121//121
f 121//121 117//117 122//122
f 121//121 122//122 123//123
f 123//123 122//122 124//124
f 123//123 124//124 125//125
f 125//125 124//124 126//126
f 125//125 126//126 103//103
f 103//103 126//126 106//106
f 106//106 126//126 127//127
f 106//106 127//127 128//128
f 128//128 127//127 129//129
f 129//129 127//127 130//130
f 129//129 130//130 131//131
f 131//131 130//130 132//132
f 131//131 132//132 133//133
f 133//133 132//132 134//134
f 133//133 134//134 135//135
f 133//133 135//135 136//136
f 64//64 106//106 65//65
f 106//106 64//64 104//104
f 66//66 104//104 64//64
f 104//104 66//66 107//107
f 68//68 107//107 66//66
f 107//107 68//68 108//108
f 110//110 68//68 71//71
f 68//68 110//110 108//108
f 112//112 71//71 73//73
f 71//71 112//112 110//110
f 114//114 73//73 75//75
f 73//73 114//114 112//112
f 114//114 78//78 115//115
f 78//78 114//114 75//75
f 116//116 78//78 80//80
f 78//78 116//116 115//115
f 81//81 116//116 80//80
f 116//116 81//81 113//113
f 111//111 81//81 101//101
f 81//81 111//111 113//113
f 109//109 101//101 99//99
f 101//101 109//109 111//111
f 105//105 99//99 97//97
f 99//99 105//105 109//109
f 103//103 97//97 95//95
f 97//97 103//103 105//105
f 125//125 95//95 93//93
f 95//95 125//125 103//103
f 125//125 92//92 123//123
f 92//92 125//125 93//93
f 123//123 90//90 121//121
f 90//90 123//123 92//92
f 121//121 89//89 120//120
f 89//89 121//121 90//90
f 120//120 87//87 118//118
f 87//87 120//120 89//89
f 118//118 37//37 119//119
f 37//37 118//118 87//87
f 119//119 36//36 117//117
f 36//36 119//119 37//37
f 117//117 39//39 122//122
f 39//39 117//117 36//36
f 122//122 40//40 124//124
f 40//40 122//122 39//39
f 124//124 42//42 126//126
f 42//42 124//124 40//40
f 127//127 42//42 44//44
f 42//42 127//127 126//126
f 130//130 44//44 46//46
f 44//44 130//130 127//127
f 132//132 46//46 48//48
f 46//46 132//132 130//130
f 134//134 48//48 50//50
f 48//48 134//134 132//132
f 135//135 50//50 52//52
f 50//50 135//135 134//134
f 53//53 135//135 52//52
f 135//135 53//53 136//136
f 133//133 53//53 61//61
f 53//53 133//133 136//136
f 131//131 61//61 59//59
f 61//61 131//131 133//133
f 129//129 59//59 57//57
f 59//59 129//129 131//131
f 54//54 129//129 57//57
f 129//129 54//54 128//128
f 65//65 128//128 54//54
f 128//128 65//65 106//106
# 268 faces, 0 coords texture

# End of File
