# File produced by Open Asset Import Library (http://www.assimp.sf.net)
# (assimp v5.0.1588609223)

mtllib result.mtl

# 84 vertex positions
v  -2.1000164 0.59997553 0.10000016
v  -1.9500164 0.47290915 0.10000016
v  -1.6999818 0.66665643 0.10000019
v  -1.9500164 0.14999996 0.10000013
v  -1.5850184 0.53374988 0.10000016
v  -0.63334155 3.9999897 0.10000058
v  -0.43762827 4.1194329 0.10000058
v  -1.0333253 4.0666709 0.10000058
v  -0.88332522 4.1937346 0.1000006
v  -1.0333253 4.6666465 0.10000066
v  0.50003052 -4.1723251e-08 0.1000001
v  0.65003037 0.14999996 0.10000013
v  0.50003052 0.59997553 0.10000016
v  2.1000164 -4.1723251e-08 0.1000001
v  1.9500163 0.14999996 0.10000013
v  1.9500163 0.47290915 0.10000016
v  -0.88332522 4.5166464 0.10000063
v  0.43334961 4.6666465 0.10000066
v  0.32350755 4.5166464 0.10000063
v  1.5847106 0.53380114 0.10000016
v  1.6999817 0.66665643 0.10000019
v  2.1000164 0.59997553 0.10000016
v  0.65003037 0.4729118 0.10000016
v  0.90001416 0.66665643 0.10000019
v  1.0954487 0.547167 0.10000016
v  -0.90001428 0.66665643 0.10000019
v  -0.78395391 1.5499939 0.10000028
v  -1.0940295 0.54692686 0.10000016
v  -0.67331958 1.3999939 0.10000028
v  0.77633572 1.5499939 0.10000028
v  0.66665649 1.3999939 0.10000028
v  -2.1000164 -4.1723251e-08 0.1000001
v  -0.49997973 -4.1723251e-08 0.1000001
v  -0.64997971 0.14999996 0.10000013
v  -0.64997971 0.47290915 0.10000016
v  -0.49997973 0.59997553 0.10000016
v  0.90001416 0.66665649 -0.24999982
v  0.66665649 1.3999939 -0.24999973
v  -0.67331958 1.3999939 -0.24999973
v  -0.90001428 0.66665649 -0.24999982
v  -0.49997973 0.59997559 -0.24999982
v  -0.49997973 0 -0.2499999
v  -1.6999818 0.66665649 -0.24999982
v  -2.1000164 0.59997559 -0.24999982
v  -0.63334155 3.9999897 -0.24999942
v  -1.0333253 4.0666709 -0.2499994
v  -1.0333253 4.6666465 -0.24999934
v  0.43334961 4.6666465 -0.24999934
v  1.6999817 0.66665649 -0.24999982
v  2.1000164 0.59997559 -0.24999982
v  2.1000164 0 -0.2499999
v  0.50003052 0 -0.2499999
v  0.50003052 0.59997559 -0.24999982
v  0 3.5333252 -0.24999948
v  -0.44001269 2.1333313 0.10000037
v  -0.44001269 2.1333313 -0.24999964
v  0 3.5333252 0.10000052
v  0.44001245 2.1333313 -0.24999964
v  0.44001245 2.1333313 0.10000037
v  0.64439106 1.9833313 0.10000034
v  -0.6443913 1.9833313 0.10000034
v  0 4.0335994 0.10000058
v  -0.64997971 0.14999995 0.25000012
v  -1.9500164 0.47290912 0.25000018
v  -1.9500164 0.14999995 0.25000012
v  -1.5850184 0.53374988 0.25000018
v  -1.0940295 0.54692686 0.25000018
v  -0.64997971 0.47290912 0.25000018
v  -0.43762827 4.1194329 0.2500006
v  -0.78395391 1.5499938 0.2500003
v  -0.6443913 1.9833312 0.25000036
v  0 4.0335994 0.2500006
v  0.77633572 1.5499938 0.2500003
v  0.64439106 1.9833312 0.25000036
v  1.9500163 0.14999995 0.25000012
v  0.65003037 0.47291178 0.25000018
v  0.65003037 0.14999995 0.25000012
v  1.0954487 0.547167 0.25000018
v  1.5847106 0.53380114 0.25000018
v  1.9500163 0.47290912 0.25000018
v  -0.88332522 4.5166464 0.25000066
v  -0.88332522 4.1937346 0.2500006
v  0.32350755 4.5166464 0.25000066
v  -2.1000164 0 -0.2499999

# 0 UV coordinates

# 16 vertex normals
vn 0 -1.1920929e-07 1
vn -0.9529171 -0.30323094 -3.6147945e-08
vn 0 -1 -1.1920929e-07
vn 0.95539278 -0.29533815 -3.5207051e-08
vn 0.16441932 0.98639053 1.1758691e-07
vn 1 0 0
vn -0.16441932 0.98639053 1.1758691e-07
vn -0.95242631 0.30476886 3.6331279e-08
vn -0.16443966 -0.98638713 -1.1758651e-07
vn -1 0 0
vn 0 1 1.1920929e-07
vn 0.9533444 0.30188492 3.5987487e-08
vn -0.16443966 0.98638713 1.1758651e-07
vn 0.95399088 -0.29983562 -3.5743192e-08
vn -0.95399088 -0.29983562 -3.5743192e-08
vn 0 1.1920929e-07 -1

# Mesh 'A' with 168 faces
g A
usemtl font
f  1//1 2//1 3//1
f  2//1 1//1 4//1
f  3//1 2//1 5//1
f  3//1 5//1 6//1
f  6//1 5//1 7//1
f  8//1 9//1 10//1
f  9//1 8//1 6//1
f  9//1 6//1 7//1
f  11//1 12//1 13//1
f  12//1 11//1 14//1
f  12//1 14//1 15//1
f  15//1 14//1 16//1
f  10//1 17//1 18//1
f  17//1 10//1 9//1
f  18//1 17//1 19//1
f  18//1 19//1 20//1
f  18//1 20//1 21//1
f  21//1 20//1 16//1
f  21//1 16//1 22//1
f  22//1 16//1 14//1
f  13//1 23//1 24//1
f  23//1 13//1 12//1
f  24//1 23//1 25//1
f  26//1 27//1 28//1
f  27//1 26//1 29//1
f  27//1 29//1 30//1
f  30//1 29//1 31//1
f  30//1 31//1 24//1
f  30//1 24//1 25//1
f  32//1 4//1 1//1
f  4//1 32//1 33//1
f  4//1 33//1 34//1
f  34//1 33//1 35//1
f  35//1 26//1 28//1
f  26//1 35//1 36//1
f  36//1 35//1 33//1
f  31//2 37//2 24//2
f  37//2 31//2 38//2
f  31//3 39//3 38//3
f  39//3 31//3 29//3
f  39//4 26//4 40//4
f  26//4 39//4 29//4
f  26//5 41//5 40//5
f  41//5 26//5 36//5
f  41//6 33//6 42//6
f  33//6 41//6 36//6
f  1//7 43//7 44//7
f  43//7 1//7 3//7
f  6//8 43//8 3//8
f  43//8 6//8 45//8
f  6//9 46//9 45//9
f  46//9 6//9 8//9
f  10//10 46//10 8//10
f  46//10 10//10 47//10
f  10//11 48//11 47//11
f  48//11 10//11 18//11
f  48//12 21//12 49//12
f  21//12 48//12 18//12
f  21//5 50//5 49//5
f  50//5 21//5 22//5
f  50//6 14//6 51//6
f  14//6 50//6 22//6
f  14//3 52//3 51//3
f  52//3 14//3 11//3
f  13//10 52//10 11//10
f  52//10 13//10 53//10
f  13//13 37//13 53//13
f  37//13 13//13 24//13
f  54//14 55//14 56//14
f  55//14 54//14 57//14
f  55//11 58//11 56//11
f  58//11 55//11 59//11
f  57//15 58//15 59//15
f  58//15 57//15 54//15
f  60//1 55//1 61//1
f  55//1 60//1 59//1
f  55//1 62//1 61//1
f  62//1 55//1 57//1
f  62//1 57//1 59//1
f  62//1 59//1 60//1
f  63//1 64//1 65//1
f  64//1 63//1 66//1
f  66//1 63//1 67//1
f  67//1 63//1 68//1
f  67//1 69//1 66//1
f  69//1 67//1 70//1
f  69//1 70//1 71//1
f  69//1 71//1 72//1
f  73//1 71//1 70//1
f  71//1 73//1 74//1
f  75//1 76//1 77//1
f  76//1 75//1 78//1
f  78//1 75//1 79//1
f  79//1 75//1 80//1
f  69//1 81//1 82//1
f  81//1 69//1 83//1
f  83//1 69//1 72//1
f  83//1 72//1 74//1
f  83//1 74//1 79//1
f  79//1 74//1 73//1
f  79//1 73//1 78//1
f  16//6 75//6 15//6
f  75//6 16//6 80//6
f  79//5 16//5 20//5
f  16//5 79//5 80//5
f  19//12 79//12 20//12
f  79//12 19//12 83//12
f  81//11 19//11 17//11
f  19//11 81//11 83//11
f  81//10 9//10 82//10
f  9//10 81//10 17//10
f  69//9 9//9 7//9
f  9//9 69//9 82//9
f  69//8 5//8 66//8
f  5//8 69//8 7//8
f  64//7 5//7 2//7
f  5//7 64//7 66//7
f  64//10 4//10 65//10
f  4//10 64//10 2//10
f  63//3 4//3 34//3
f  4//3 63//3 65//3
f  35//6 63//6 34//6
f  63//6 35//6 68//6
f  67//5 35//5 28//5
f  35//5 67//5 68//5
f  27//4 67//4 28//4
f  67//4 27//4 70//4
f  73//3 27//3 30//3
f  27//3 73//3 70//3
f  73//2 25//2 78//2
f  25//2 73//2 30//2
f  76//13 25//13 23//13
f  25//13 76//13 78//13
f  76//10 12//10 77//10
f  12//10 76//10 23//10
f  75//3 12//3 15//3
f  12//3 75//3 77//3
f  62//14 71//14 61//14
f  71//14 62//14 72//14
f  72//15 60//15 74//15
f  60//15 72//15 62//15
f  71//11 60//11 61//11
f  60//11 71//11 74//11
f  45//16 40//16 43//16
f  40//16 45//16 39//16
f  39//16 45//16 56//16
f  39//16 56//16 38//16
f  38//16 56//16 58//16
f  43//16 84//16 44//16
f  84//16 43//16 42//16
f  42//16 43//16 40//16
f  42//16 40//16 41//16
f  48//16 46//16 47//16
f  46//16 48//16 45//16
f  45//16 48//16 54//16
f  45//16 54//16 56//16
f  54//16 48//16 58//16
f  58//16 48//16 49//16
f  58//16 49//16 38//16
f  38//16 49//16 37//16
f  37//16 52//16 53//16
f  52//16 37//16 51//16
f  51//16 37//16 49//16
f  51//16 49//16 50//16
f  33//3 84//3 42//3
f  84//3 33//3 32//3
f  1//10 84//10 32//10
f  84//10 1//10 44//10

