####
#
# OBJ File Generated by Meshlab
#
####
# Object alphabet23.obj
#
# Vertices: 112
# Faces: 220
#
####
mtllib ./alphabet23.obj.mtl

vn 0.577350 0.577350 -0.577350
v -0.023997 0.373332 -0.020000
vn -0.617993 -0.523507 -0.586537
v -0.152000 0.325334 -0.020000
vn -0.577350 0.577350 -0.577350
v -0.152000 0.373332 -0.020000
vn -0.322343 -0.488441 -0.810876
v -0.119997 0.319999 -0.020000
vn 0.303260 -0.129249 -0.944102
v -0.050665 0.319999 -0.020000
vn 0.625282 -0.512593 -0.588449
v -0.023997 0.325334 -0.020000
vn -0.525844 0.000000 -0.850581
v -0.034666 0.186666 -0.020000
vn 0.000000 0.311730 -0.950171
v 0.000002 0.240531 -0.020000
vn 0.577350 0.577350 -0.577350
v 0.152000 0.373332 -0.020000
vn -0.625282 -0.512593 -0.588449
v 0.024001 0.325334 -0.020000
vn -0.577350 0.577350 -0.577350
v 0.024001 0.373332 -0.020000
vn -0.303259 -0.129249 -0.944102
v 0.050669 0.319999 -0.020000
vn 0.322350 -0.488441 -0.810874
v 0.120001 0.319999 -0.020000
vn 0.617997 -0.523500 -0.586538
v 0.152000 0.325334 -0.020000
vn 0.302690 0.128461 -0.944392
v -0.050665 0.053333 -0.020000
vn -0.322342 0.488441 -0.810876
v -0.119997 0.053333 -0.020000
vn -0.000000 -0.313412 -0.949617
v 0.000002 0.132267 -0.020000
vn 0.525844 0.000000 -0.850581
v 0.034670 0.186666 -0.020000
vn -0.302690 0.128461 -0.944392
v 0.050669 0.053333 -0.020000
vn 0.322349 0.488441 -0.810874
v 0.120001 0.053333 -0.020000
vn -0.577350 -0.577350 -0.577350
v 0.024001 0.000000 -0.020000
vn -0.625281 0.512593 -0.588448
v 0.024001 0.047998 -0.020000
vn 0.577350 -0.577350 -0.577350
v 0.152000 0.000000 -0.020000
vn 0.617997 0.523501 -0.586538
v 0.152000 0.047998 -0.020000
vn -0.577350 -0.577350 -0.577350
v -0.152000 0.000000 -0.020000
vn -0.617993 0.523507 -0.586537
v -0.152000 0.047998 -0.020000
vn 0.577350 -0.577350 -0.577350
v -0.023997 0.000000 -0.020000
vn 0.625281 0.512593 -0.588449
v -0.023997 0.047998 -0.020000
vn -0.577350 -0.577350 0.577350
v 0.024001 -0.000000 0.008000
vn -0.301511 -0.301511 0.904534
v 0.036001 0.012000 0.008000
vn -0.625281 0.512593 0.588449
v 0.024001 0.047998 0.008000
vn 0.577350 -0.577350 0.577350
v 0.152000 -0.000000 0.008000
vn 0.301511 -0.301511 0.904534
v 0.140000 0.012000 0.008000
vn 0.355831 0.301421 0.884607
v 0.140000 0.037833 0.008000
vn 0.429490 0.650786 0.626111
v 0.112768 0.042373 0.008000
vn 0.525844 -0.000000 0.850581
v 0.034670 0.186666 0.008000
vn 0.797328 -0.000000 0.603546
v 0.020423 0.186666 0.008000
vn 0.322349 0.488441 0.810874
v 0.120001 0.053333 0.008000
vn 0.617997 0.523500 0.586538
v 0.152000 0.047998 0.008000
vn 0.000000 0.829951 0.557837
v 0.000002 0.218210 0.008000
vn 0.303259 -0.129249 0.944102
v -0.050665 0.319999 0.008000
vn 0.761945 -0.324741 0.560342
v -0.070207 0.328328 0.008000
vn 0.000000 0.311730 0.950171
v 0.000002 0.240531 0.008000
vn -0.761945 -0.324742 0.560342
v 0.070211 0.328328 0.008000
vn -0.303259 -0.129249 0.944102
v 0.050669 0.319999 0.008000
vn -0.625282 -0.512593 0.588449
v 0.024001 0.325334 0.008000
vn -0.366461 -0.300417 0.880600
v 0.036001 0.335171 0.008000
vn -0.577350 0.577350 0.577350
v 0.024001 0.373332 0.008000
vn 0.429490 -0.650786 0.626111
v 0.112768 0.330959 0.008000
vn 0.322350 -0.488441 0.810874
v 0.120001 0.319999 0.008000
vn 0.355831 -0.301421 0.884607
v 0.140000 0.335499 0.008000
vn 0.617998 -0.523500 0.586538
v 0.152000 0.325334 0.008000
vn 0.301511 0.301511 0.904534
v 0.140000 0.361332 0.008000
vn -0.301511 0.301511 0.904534
v 0.036001 0.361332 0.008000
vn 0.577350 0.577350 0.577350
v 0.152000 0.373332 0.008000
vn -0.366461 0.300417 0.880600
v 0.036001 0.038161 0.008000
vn -0.302690 0.128461 0.944392
v 0.050669 0.053333 0.008000
vn -0.762515 0.323609 0.560222
v 0.070268 0.045015 0.008000
vn 0.302690 0.128461 0.944392
v -0.050665 0.053333 0.008000
vn -0.000000 -0.829798 0.558064
v 0.000002 0.154482 0.008000
vn 0.762515 0.323609 0.560222
v -0.070264 0.045015 0.008000
vn 0.000000 -0.313412 0.949617
v 0.000002 0.132267 0.008000
vn -0.617993 0.523507 0.586537
v -0.152000 0.047998 0.008000
vn -0.355824 0.301422 0.884610
v -0.140000 0.037833 0.008000
vn -0.322342 0.488441 0.810876
v -0.119997 0.053333 0.008000
vn -0.301511 -0.301512 0.904534
v -0.140000 0.012000 0.008000
vn -0.429484 0.650792 0.626109
v -0.112764 0.042373 0.008000
vn -0.525844 -0.000000 0.850581
v -0.034666 0.186666 0.008000
vn -0.797328 0.000000 0.603546
v -0.020419 0.186666 0.008000
vn -0.617993 -0.523507 0.586537
v -0.152000 0.325334 0.008000
vn -0.355824 -0.301422 0.884610
v -0.140000 0.335499 0.008000
vn -0.577350 0.577350 0.577350
v -0.152000 0.373332 0.008000
vn -0.322343 -0.488441 0.810876
v -0.119997 0.319999 0.008000
vn -0.429484 -0.650793 0.626109
v -0.112764 0.330959 0.008000
vn -0.577350 -0.577350 0.577350
v -0.152000 -0.000000 0.008000
vn 0.577350 -0.577350 0.577350
v -0.023997 -0.000000 0.008000
vn 0.301511 -0.301511 0.904534
v -0.035997 0.012000 0.008000
vn 0.366461 0.300417 0.880600
v -0.035997 0.038161 0.008000
vn 0.625282 0.512593 0.588449
v -0.023997 0.047998 0.008000
vn 0.366461 -0.300417 0.880600
v -0.035997 0.335171 0.008000
vn 0.625282 -0.512593 0.588449
v -0.023997 0.325334 0.008000
vn 0.301511 0.301511 0.904534
v -0.035997 0.361332 0.008000
vn -0.301511 0.301511 0.904534
v -0.140000 0.361332 0.008000
vn 0.577350 0.577350 0.577350
v -0.023997 0.373332 0.008000
vn 0.577350 -0.577350 0.577350
v -0.035997 0.012000 0.020000
vn -0.617993 0.523507 0.586537
v -0.140000 0.037833 0.020000
vn -0.577350 -0.577350 0.577350
v -0.140000 0.012000 0.020000
vn -0.322342 0.488441 0.810876
v -0.112764 0.042373 0.020000
vn 0.302690 0.128461 0.944392
v -0.070264 0.045015 0.020000
vn 0.625281 0.512593 0.588449
v -0.035997 0.038161 0.020000
vn 0.577350 -0.577350 0.577350
v 0.140000 0.012000 0.020000
vn -0.625282 0.512593 0.588449
v 0.036001 0.038161 0.020000
vn -0.577350 -0.577350 0.577350
v 0.036001 0.012000 0.020000
vn -0.302690 0.128461 0.944392
v 0.070268 0.045015 0.020000
vn 0.322349 0.488441 0.810874
v 0.112768 0.042373 0.020000
vn 0.617997 0.523500 0.586538
v 0.140000 0.037833 0.020000
vn -0.525844 -0.000000 0.850581
v -0.020419 0.186666 0.020000
vn 0.303259 -0.129249 0.944102
v -0.070207 0.328328 0.020000
vn -0.322342 -0.488441 0.810877
v -0.112764 0.330959 0.020000
vn 0.000000 0.311730 0.950171
v 0.000002 0.218210 0.020000
vn 0.000000 -0.313412 0.949617
v 0.000002 0.154482 0.020000
vn 0.525844 -0.000000 0.850581
v 0.020423 0.186666 0.020000
vn -0.303259 -0.129249 0.944102
v 0.070211 0.328328 0.020000
vn 0.322350 -0.488441 0.810874
v 0.112768 0.330959 0.020000
vn -0.577350 0.577350 0.577350
v 0.036001 0.361332 0.020000
vn -0.625281 -0.512593 0.588448
v 0.036001 0.335171 0.020000
vn 0.577350 0.577350 0.577350
v 0.140000 0.361332 0.020000
vn 0.617998 -0.523500 0.586538
v 0.140000 0.335499 0.020000
vn -0.577350 0.577350 0.577350
v -0.140000 0.361332 0.020000
vn -0.617992 -0.523508 0.586537
v -0.140000 0.335499 0.020000
vn 0.577350 0.577350 0.577350
v -0.035997 0.361332 0.020000
vn 0.625282 -0.512593 0.588449
v -0.035997 0.335171 0.020000
# 112 vertices, 0 vertices normals


usemtl material_0
f 1//1 2//2 3//3
f 2//2 1//1 4//4
f 4//4 1//1 5//5
f 5//5 1//1 6//6
f 5//5 7//7 4//4
f 7//7 5//5 8//8
f 9//9 10//10 11//11
f 10//10 9//9 12//12
f 12//12 9//9 13//13
f 13//13 9//9 14//14
f 7//7 15//15 16//16
f 15//15 7//7 17//17
f 17//17 7//7 8//8
f 17//17 8//8 12//12
f 17//17 12//12 18//18
f 18//18 12//12 13//13
f 18//18 19//19 17//17
f 19//19 18//18 20//20
f 19//19 21//21 22//22
f 21//21 19//19 23//23
f 23//23 19//19 20//20
f 23//23 20//20 24//24
f 16//16 25//25 26//26
f 25//25 16//16 27//27
f 27//27 16//16 15//15
f 27//27 15//15 28//28
f 29//29 30//30 31//31
f 30//30 29//29 32//32
f 30//30 32//32 33//33
f 33//33 32//32 34//34
f 35//35 36//36 37//37
f 36//36 35//35 38//38
f 38//38 35//35 34//34
f 38//38 34//34 39//39
f 39//39 34//34 32//32
f 40//40 41//41 42//42
f 41//41 40//40 43//43
f 43//43 40//40 44//44
f 43//43 44//44 45//45
f 46//46 47//47 48//48
f 47//47 46//46 45//45
f 47//47 45//45 44//44
f 36//36 49//49 37//37
f 49//49 36//36 50//50
f 49//49 50//50 51//51
f 51//51 50//50 52//52
f 51//51 52//52 53//53
f 48//48 54//54 55//55
f 54//54 48//48 47//47
f 55//55 54//54 53//53
f 55//55 53//53 52//52
f 31//31 56//56 57//57
f 56//56 31//31 30//30
f 57//57 56//56 58//58
f 59//59 60//60 61//61
f 60//60 59//59 62//62
f 60//60 62//62 57//57
f 60//60 57//57 58//58
f 63//63 64//64 65//65
f 64//64 63//63 66//66
f 65//65 64//64 67//67
f 65//65 67//67 68//68
f 68//68 67//67 69//69
f 70//70 71//71 72//72
f 71//71 70//70 73//73
f 71//71 73//73 74//74
f 74//74 73//73 68//68
f 74//74 68//68 69//69
f 75//75 66//66 63//63
f 66//66 75//75 76//76
f 66//66 76//76 77//77
f 77//77 76//76 78//78
f 78//78 59//59 61//61
f 59//59 78//78 79//79
f 79//79 78//78 76//76
f 41//41 80//80 42//42
f 80//80 41//41 81//81
f 80//80 81//81 82//82
f 72//72 83//83 84//84
f 83//83 72//72 71//71
f 84//84 83//83 82//82
f 84//84 82//82 81//81
f 59//59 28//28 15//15
f 28//28 59//59 79//79
f 28//28 76//76 27//27
f 76//76 28//28 79//79
f 76//76 25//25 27//27
f 25//25 76//76 75//75
f 63//63 25//25 75//75
f 25//25 63//63 26//26
f 63//63 16//16 26//26
f 16//16 63//63 65//65
f 68//68 16//16 65//65
f 16//16 68//68 7//7
f 73//73 7//7 68//68
f 7//7 73//73 4//4
f 73//73 2//2 4//4
f 2//2 73//73 70//70
f 72//72 2//2 70//70
f 2//2 72//72 3//3
f 72//72 1//1 3//3
f 1//1 72//72 84//84
f 1//1 81//81 6//6
f 81//81 1//1 84//84
f 81//81 5//5 6//6
f 5//5 81//81 41//41
f 5//5 43//43 8//8
f 43//43 5//5 41//41
f 45//45 8//8 43//43
f 8//8 45//45 12//12
f 45//45 10//10 12//12
f 10//10 45//45 46//46
f 48//48 10//10 46//46
f 10//10 48//48 11//11
f 48//48 9//9 11//11
f 9//9 48//48 55//55
f 9//9 52//52 14//14
f 52//52 9//9 55//55
f 52//52 13//13 14//14
f 13//13 52//52 50//50
f 13//13 36//36 18//18
f 36//36 13//13 50//50
f 18//18 38//38 20//20
f 38//38 18//18 36//36
f 38//38 24//24 20//20
f 24//24 38//38 39//39
f 24//24 32//32 23//23
f 32//32 24//24 39//39
f 32//32 21//21 23//23
f 21//21 32//32 29//29
f 31//31 21//21 29//29
f 21//21 31//31 22//22
f 31//31 19//19 22//22
f 19//19 31//31 57//57
f 62//62 19//19 57//57
f 19//19 62//62 17//17
f 17//17 59//59 15//15
f 59//59 17//17 62//62
f 85//85 86//86 87//87
f 86//86 85//85 88//88
f 88//88 85//85 89//89
f 89//89 85//85 90//90
f 91//91 92//92 93//93
f 92//92 91//91 94//94
f 94//94 91//91 95//95
f 95//95 91//91 96//96
f 97//97 98//98 99//99
f 98//98 97//97 100//100
f 100//100 97//97 101//101
f 100//100 101//101 94//94
f 100//100 94//94 102//102
f 102//102 94//94 95//95
f 102//102 103//103 100//100
f 103//103 102//102 104//104
f 103//103 105//105 106//106
f 105//105 103//103 107//107
f 107//107 103//103 104//104
f 107//107 104//104 108//108
f 89//89 97//97 88//88
f 97//97 89//89 101//101
f 99//99 109//109 110//110
f 109//109 99//99 111//111
f 111//111 99//99 98//98
f 111//111 98//98 112//112
f 109//109 71//71 110//110
f 71//71 109//109 83//83
f 99//99 71//71 74//74
f 71//71 99//99 110//110
f 99//99 69//69 97//97
f 69//69 99//99 74//74
f 97//97 67//67 88//88
f 67//67 97//97 69//69
f 86//86 67//67 64//64
f 67//67 86//86 88//88
f 86//86 66//66 87//87
f 66//66 86//86 64//64
f 85//85 66//66 77//77
f 66//66 85//85 87//87
f 78//78 85//85 77//77
f 85//85 78//78 90//90
f 89//89 78//78 61//61
f 78//78 89//89 90//90
f 60//60 89//89 61//61
f 89//89 60//60 101//101
f 101//101 58//58 94//94
f 58//58 101//101 60//60
f 92//92 58//58 56//56
f 58//58 92//92 94//94
f 92//92 30//30 93//93
f 30//30 92//92 56//56
f 91//91 30//30 33//33
f 30//30 91//91 93//93
f 34//34 91//91 33//33
f 91//91 34//34 96//96
f 95//95 34//34 35//35
f 34//34 95//95 96//96
f 37//37 95//95 35//35
f 95//95 37//37 102//102
f 49//49 102//102 37//37
f 102//102 49//49 104//104
f 108//108 49//49 51//51
f 49//49 108//108 104//104
f 53//53 108//108 51//51
f 108//108 53//53 107//107
f 105//105 53//53 54//54
f 53//53 105//105 107//107
f 105//105 47//47 106//106
f 47//47 105//105 54//54
f 103//103 47//47 44//44
f 47//47 103//103 106//106
f 103//103 40//40 100//100
f 40//40 103//103 44//44
f 42//42 100//100 40//40
f 100//100 42//42 98//98
f 112//112 42//42 80//80
f 42//42 112//112 98//98
f 82//82 112//112 80//80
f 112//112 82//82 111//111
f 109//109 82//82 83//83
f 82//82 109//109 111//111
# 220 faces, 0 coords texture

# End of File
