####
#
# OBJ File Generated by Meshlab
#
####
# Object alphabet21.obj
#
# Vertices: 60
# Faces: 116
#
####
mtllib ./alphabet21.obj.mtl

vn 0.577350 0.577350 -0.577350
v -0.037331 0.372009 -0.020000
vn -0.617993 -0.523507 -0.586537
v -0.165334 0.324011 -0.020000
vn -0.577350 0.577350 -0.577350
v -0.165334 0.372009 -0.020000
vn -0.350037 -0.403434 -0.845408
v -0.133331 0.318676 -0.020000
vn 0.333773 -0.205890 -0.919894
v -0.069334 0.318676 -0.020000
vn 0.617993 -0.523507 -0.586537
v -0.037331 0.324011 -0.020000
vn 0.577350 0.577350 -0.577350
v 0.165334 0.372009 -0.020000
vn -0.617997 -0.523500 -0.586538
v 0.037335 0.324011 -0.020000
vn -0.577350 0.577350 -0.577350
v 0.037335 0.372009 -0.020000
vn -0.333781 -0.205894 -0.919890
v 0.069334 0.318676 -0.020000
vn 0.350043 -0.403438 -0.845404
v 0.133335 0.318676 -0.020000
vn 0.617997 -0.523500 -0.586538
v 0.165334 0.324011 -0.020000
vn -0.474756 -0.648326 -0.595214
v -0.032001 -0.001323 -0.020000
vn -0.000001 0.161321 -0.986902
v 0.000002 0.094677 -0.020000
vn 0.474752 -0.648328 -0.595215
v 0.032001 -0.001323 -0.020000
vn -0.617993 -0.523507 0.586537
v -0.165334 0.324011 0.008000
vn -0.355824 -0.301422 0.884610
v -0.153334 0.334176 0.008000
vn -0.577350 0.577350 0.577350
v -0.165334 0.372009 0.008000
vn -0.350037 -0.403434 0.845408
v -0.133331 0.318676 0.008000
vn -0.521158 -0.600659 0.606303
v -0.124110 0.329305 0.008000
vn -0.474757 -0.648326 0.595214
v -0.032001 -0.001323 0.008000
vn -0.294622 -0.402336 0.866789
v -0.023213 0.010677 0.008000
vn 0.474752 -0.648329 0.595214
v 0.032001 -0.001323 0.008000
vn 0.294622 -0.402340 0.866787
v 0.023213 0.010677 0.008000
vn 0.521159 -0.600655 0.606306
v 0.124114 0.329305 0.008000
vn 0.350043 -0.403438 0.845404
v 0.133335 0.318676 0.008000
vn 0.355831 -0.301421 0.884607
v 0.153334 0.334176 0.008000
vn 0.617997 -0.523500 0.586538
v 0.165334 0.324011 0.008000
vn 0.301511 0.301511 0.904534
v 0.153334 0.360009 0.008000
vn -0.577350 0.577350 0.577350
v 0.037335 0.372009 0.008000
vn -0.301511 0.301511 0.904534
v 0.049335 0.360009 0.008000
vn 0.577350 0.577350 0.577350
v 0.165334 0.372009 0.008000
vn -0.355830 -0.301421 0.884607
v 0.049335 0.334176 0.008000
vn -0.000008 0.839867 0.542793
v 0.000002 0.054094 0.008000
vn 0.333773 -0.205890 0.919894
v -0.069334 0.318676 0.008000
vn 0.698958 -0.431156 0.570581
v -0.084860 0.328254 0.008000
vn -0.000001 0.161321 0.986902
v 0.000002 0.094677 0.008000
vn -0.333781 -0.205894 0.919890
v 0.069334 0.318676 0.008000
vn -0.698957 -0.431155 0.570583
v 0.084860 0.328254 0.008000
vn -0.617997 -0.523501 0.586538
v 0.037335 0.324011 0.008000
vn 0.355824 -0.301422 0.884610
v -0.049331 0.334176 0.008000
vn 0.617993 -0.523507 0.586537
v -0.037331 0.324011 0.008000
vn 0.301511 0.301511 0.904534
v -0.049331 0.360009 0.008000
vn -0.301511 0.301511 0.904534
v -0.153334 0.360009 0.008000
vn 0.577350 0.577350 0.577350
v -0.037331 0.372009 0.008000
vn -0.474756 -0.648326 0.595214
v -0.023213 0.010677 0.020000
vn 0.333773 -0.205890 0.919894
v -0.084860 0.328254 0.020000
vn -0.350037 -0.403434 0.845408
v -0.124110 0.329305 0.020000
vn -0.000001 0.161321 0.986902
v 0.000002 0.054094 0.020000
vn 0.474752 -0.648329 0.595214
v 0.023213 0.010677 0.020000
vn -0.333782 -0.205894 0.919890
v 0.084860 0.328254 0.020000
vn 0.350043 -0.403438 0.845404
v 0.124114 0.329305 0.020000
vn -0.577350 0.577350 0.577350
v 0.049335 0.360009 0.020000
vn -0.617997 -0.523501 0.586538
v 0.049335 0.334176 0.020000
vn 0.577350 0.577350 0.577350
v 0.153334 0.360009 0.020000
vn 0.617997 -0.523501 0.586538
v 0.153334 0.334176 0.020000
vn -0.577350 0.577350 0.577350
v -0.153334 0.360009 0.020000
vn -0.617993 -0.523507 0.586537
v -0.153334 0.334176 0.020000
vn 0.577350 0.577350 0.577350
v -0.049331 0.360009 0.020000
vn 0.617993 -0.523507 0.586537
v -0.049331 0.334176 0.020000
# 60 vertices, 0 vertices normals


usemtl material_0
f 1//1 2//2 3//3
f 2//2 1//1 4//4
f 4//4 1//1 5//5
f 5//5 1//1 6//6
f 7//7 8//8 9//9
f 8//8 7//7 10//10
f 10//10 7//7 11//11
f 11//11 7//7 12//12
f 5//5 13//13 4//4
f 13//13 5//5 14//14
f 13//13 14//14 15//15
f 15//15 14//14 10//10
f 15//15 10//10 11//11
f 16//16 17//17 18//18
f 17//17 16//16 19//19
f 17//17 19//19 20//20
f 20//20 19//19 21//21
f 20//20 21//21 22//22
f 22//22 21//21 23//23
f 22//22 23//23 24//24
f 24//24 23//23 25//25
f 25//25 23//23 26//26
f 25//25 26//26 27//27
f 27//27 26//26 28//28
f 27//27 28//28 29//29
f 30//30 31//31 32//32
f 31//31 30//30 33//33
f 32//32 31//31 29//29
f 32//32 29//29 28//28
f 34//34 35//35 36//36
f 35//35 34//34 37//37
f 37//37 34//34 38//38
f 38//38 34//34 39//39
f 40//40 33//33 30//30
f 33//33 40//40 38//38
f 33//33 38//38 39//39
f 35//35 41//41 36//36
f 41//41 35//35 42//42
f 41//41 42//42 43//43
f 18//18 44//44 45//45
f 44//44 18//18 17//17
f 45//45 44//44 43//43
f 45//45 43//43 42//42
f 38//38 14//14 37//37
f 14//14 38//38 10//10
f 38//38 8//8 10//10
f 8//8 38//38 40//40
f 30//30 8//8 40//40
f 8//8 30//30 9//9
f 30//30 7//7 9//9
f 7//7 30//30 32//32
f 7//7 28//28 12//12
f 28//28 7//7 32//32
f 28//28 11//11 12//12
f 11//11 28//28 26//26
f 11//11 23//23 15//15
f 23//23 11//11 26//26
f 23//23 13//13 15//15
f 13//13 23//23 21//21
f 19//19 13//13 21//21
f 13//13 19//19 4//4
f 19//19 2//2 4//4
f 2//2 19//19 16//16
f 18//18 2//2 16//16
f 2//2 18//18 3//3
f 18//18 1//1 3//3
f 1//1 18//18 45//45
f 1//1 42//42 6//6
f 42//42 1//1 45//45
f 42//42 5//5 6//6
f 5//5 42//42 35//35
f 5//5 37//37 14//14
f 37//37 5//5 35//35
f 46//46 47//47 48//48
f 47//47 46//46 49//49
f 49//49 46//46 50//50
f 49//49 50//50 51//51
f 51//51 50//50 52//52
f 51//51 53//53 54//54
f 53//53 51//51 55//55
f 55//55 51//51 52//52
f 55//55 52//52 56//56
f 48//48 57//57 58//58
f 57//57 48//48 59//59
f 59//59 48//48 47//47
f 59//59 47//47 60//60
f 53//53 33//33 54//54
f 33//33 53//53 31//31
f 51//51 33//33 39//39
f 33//33 51//51 54//54
f 51//51 34//34 49//49
f 34//34 51//51 39//39
f 36//36 49//49 34//34
f 49//49 36//36 47//47
f 60//60 36//36 41//41
f 36//36 60//60 47//47
f 43//43 60//60 41//41
f 60//60 43//43 59//59
f 57//57 43//43 44//44
f 43//43 57//57 59//59
f 57//57 17//17 58//58
f 17//17 57//57 44//44
f 48//48 17//17 20//20
f 17//17 48//48 58//58
f 48//48 22//22 46//46
f 22//22 48//48 20//20
f 50//50 22//22 24//24
f 22//22 50//50 46//46
f 25//25 50//50 24//24
f 50//50 25//25 52//52
f 56//56 25//25 27//27
f 25//25 56//56 52//52
f 29//29 56//56 27//27
f 56//56 29//29 55//55
f 53//53 29//29 31//31
f 29//29 53//53 55//55
# 116 faces, 0 coords texture

# End of File
