####
#
# OBJ File Generated by Meshlab
#
####
# Object alphabet15.obj
#
# Vertices: 156
# Faces: 312
#
####
mtllib ./alphabet15.obj.mtl

vn 0.032695 0.716338 -0.696987
v 0.031999 0.373332 -0.020000
vn -0.617993 -0.523507 -0.586537
v -0.138668 0.325334 -0.020000
vn -0.577350 0.577350 -0.577350
v -0.138668 0.373332 -0.020000
vn -0.355824 -0.301422 -0.884610
v -0.106665 0.319999 -0.020000
vn 0.301511 -0.301511 -0.904534
v -0.042668 0.314665 -0.020000
vn -0.355824 0.301422 -0.884610
v -0.106665 0.053333 -0.020000
vn -0.063463 -0.682028 -0.728568
v 0.031999 0.314665 -0.020000
vn 0.137529 0.714909 -0.685558
v 0.053315 0.371382 -0.020000
vn -0.247349 -0.607311 -0.754978
v 0.048334 0.311598 -0.020000
vn -0.462825 -0.468530 -0.752511
v 0.062134 0.302399 -0.020000
vn 0.278500 0.673574 -0.684643
v 0.072999 0.365532 -0.020000
vn -0.604157 -0.250485 -0.756473
v 0.071533 0.288666 -0.020000
vn -0.681985 -0.063551 -0.728599
v 0.074666 0.272001 -0.020000
vn 0.407753 0.603199 -0.685484
v 0.091049 0.355782 -0.020000
vn -0.681985 0.063552 -0.728599
v 0.074666 0.261332 -0.020000
vn -0.063463 0.682028 -0.728568
v 0.031999 0.218669 -0.020000
vn -0.577350 -0.577350 -0.577350
v -0.042668 0.160002 -0.020000
vn 0.904534 0.301511 -0.301511
v -0.042668 0.218669 -0.020000
vn 0.032695 -0.716338 -0.696987
v 0.031999 0.160002 -0.020000
vn -0.247350 0.607312 -0.754977
v 0.048334 0.221735 -0.020000
vn 0.137529 -0.714909 -0.685558
v 0.053315 0.161952 -0.020000
vn -0.462825 0.468530 -0.752511
v 0.062134 0.230935 -0.020000
vn 0.278500 -0.673574 -0.684643
v 0.072999 0.167801 -0.020000
vn -0.604157 0.250485 -0.756473
v 0.071533 0.244667 -0.020000
vn 0.407753 -0.603199 -0.685484
v 0.091049 0.177551 -0.020000
vn 0.513774 0.513804 -0.687053
v 0.107467 0.342133 -0.020000
vn 0.513774 -0.513804 -0.687053
v 0.107467 0.191201 -0.020000
vn 0.603180 0.407785 -0.685482
v 0.121117 0.325716 -0.020000
vn 0.603180 -0.407785 -0.685482
v 0.121117 0.207617 -0.020000
vn 0.673567 0.278523 -0.684641
v 0.130868 0.307667 -0.020000
vn 0.673567 -0.278523 -0.684641
v 0.130868 0.225667 -0.020000
vn 0.714909 0.137540 -0.685557
v 0.136718 0.287983 -0.020000
vn 0.714909 -0.137540 -0.685557
v 0.136718 0.245350 -0.020000
vn 0.726501 0.000000 -0.687165
v 0.138668 0.266667 -0.020000
vn -0.577350 -0.577350 -0.577350
v -0.138668 0.000000 -0.020000
vn -0.617993 0.523507 -0.586537
v -0.138668 0.047998 -0.020000
vn 0.577350 -0.577350 -0.577350
v -0.010665 0.000000 -0.020000
vn 0.355824 0.301422 -0.884610
v -0.042668 0.053333 -0.020000
vn 0.617993 0.523507 -0.586537
v -0.010665 0.047998 -0.020000
vn -0.617993 0.523507 0.586537
v -0.138668 0.047998 0.008000
vn -0.355824 0.301422 0.884610
v -0.126668 0.037833 0.008000
vn -0.355824 0.301422 0.884610
v -0.106665 0.053333 0.008000
vn -0.301511 -0.301512 0.904534
v -0.126668 0.012000 0.008000
vn -0.617993 0.523508 0.586536
v -0.094665 0.043167 0.008000
vn -0.355824 -0.301422 0.884610
v -0.106665 0.319999 0.008000
vn -0.617993 -0.523507 0.586537
v -0.138668 0.325334 0.008000
vn -0.355824 -0.301422 0.884610
v -0.126668 0.335499 0.008000
vn -0.577350 0.577350 0.577350
v -0.138668 0.373332 0.008000
vn -0.617993 -0.523507 0.586537
v -0.094665 0.330164 0.008000
vn -0.577350 -0.577350 0.577350
v -0.138668 -0.000000 0.008000
vn 0.577350 -0.577350 0.577350
v -0.010665 -0.000000 0.008000
vn 0.301511 -0.301511 0.904534
v -0.022665 0.012000 0.008000
vn 0.355824 0.301422 0.884610
v -0.022665 0.037833 0.008000
vn 0.617993 0.523507 0.586537
v -0.054668 0.043167 0.008000
vn 0.355824 0.301422 0.884610
v -0.042668 0.053333 0.008000
vn 0.577350 -0.577350 0.577350
v -0.054668 0.172002 0.008000
vn 0.617993 0.523507 0.586537
v -0.010665 0.047998 0.008000
vn 0.301511 -0.301511 0.904534
v -0.042668 0.160002 0.008000
vn 0.031759 -0.695819 0.717515
v 0.031451 0.172002 0.008000
vn 0.032695 -0.716338 0.696987
v 0.031999 0.160002 0.008000
vn 0.129108 -0.671137 0.730005
v 0.051037 0.173793 0.008000
vn 0.137529 -0.714910 0.685558
v 0.053315 0.161952 0.008000
vn 0.260715 -0.630560 0.731041
v 0.068389 0.178950 0.008000
vn 0.278500 -0.673574 0.684643
v 0.072999 0.167801 0.008000
vn 0.382699 -0.566137 0.730089
v 0.084296 0.187542 0.008000
vn 0.407753 -0.603199 0.685484
v 0.091049 0.177551 0.008000
vn 0.484518 -0.484547 0.728325
v 0.098946 0.199722 0.008000
vn 0.513774 -0.513804 0.687053
v 0.107467 0.191201 0.008000
vn 0.566116 -0.382727 0.730091
v 0.111127 0.214371 0.008000
vn 0.603180 -0.407785 0.685482
v 0.121117 0.207617 0.008000
vn 0.630550 -0.260735 0.731044
v 0.119719 0.230277 0.008000
vn 0.671133 -0.129118 0.730006
v 0.124876 0.247628 0.008000
vn 0.673567 -0.278523 0.684640
v 0.130868 0.225667 0.008000
vn 0.685366 -0.000000 0.728199
v 0.126618 0.266667 0.008000
vn -0.301511 0.301511 0.904534
v -0.126668 0.361332 0.008000
vn 0.032695 0.716338 0.696987
v 0.031999 0.373332 0.008000
vn 0.031759 0.695819 0.717515
v 0.031451 0.361332 0.008000
vn 0.129108 0.671137 0.730004
v 0.051037 0.359540 0.008000
vn 0.137529 0.714909 0.685558
v 0.053315 0.371382 0.008000
vn 0.260715 0.630560 0.731042
v 0.068389 0.354383 0.008000
vn 0.278500 0.673574 0.684642
v 0.072999 0.365532 0.008000
vn 0.382700 0.566137 0.730089
v 0.084296 0.345791 0.008000
vn 0.407753 0.603199 0.685484
v 0.091049 0.355782 0.008000
vn 0.484518 0.484547 0.728325
v 0.098946 0.333611 0.008000
vn 0.513774 0.513804 0.687053
v 0.107467 0.342133 0.008000
vn 0.566116 0.382727 0.730091
v 0.111127 0.318962 0.008000
vn 0.603180 0.407785 0.685482
v 0.121117 0.325716 0.008000
vn 0.630549 0.260735 0.731044
v 0.119719 0.303057 0.008000
vn 0.671133 0.129118 0.730006
v 0.124876 0.285705 0.008000
vn 0.673567 0.278523 0.684641
v 0.130868 0.307667 0.008000
vn 0.714909 -0.137540 0.685557
v 0.136718 0.245350 0.008000
vn 0.714909 0.137540 0.685557
v 0.136718 0.287983 0.008000
vn 0.726501 -0.000000 0.687165
v 0.138668 0.266667 0.008000
vn -0.681985 -0.063552 0.728599
v 0.074666 0.272001 0.008000
vn -0.681985 0.063551 0.728599
v 0.074666 0.261332 0.008000
vn -0.604157 -0.250485 0.756473
v 0.071533 0.288666 0.008000
vn -0.462825 -0.468530 0.752511
v 0.062134 0.302399 0.008000
vn -0.247349 -0.607311 0.754978
v 0.048334 0.311598 0.008000
vn -0.063463 -0.682028 0.728567
v 0.031999 0.314665 0.008000
vn 0.301511 -0.301511 0.904534
v -0.042668 0.314665 0.008000
vn 0.301511 0.301511 0.904534
v -0.042668 0.218669 0.008000
vn -0.063463 0.682028 0.728568
v 0.031999 0.218669 0.008000
vn -0.247350 0.607311 0.754977
v 0.048334 0.221735 0.008000
vn -0.462825 0.468530 0.752511
v 0.062134 0.230935 0.008000
vn -0.604157 0.250485 0.756473
v 0.071533 0.244667 0.008000
vn 0.577350 0.577350 0.577350
v -0.054668 0.206669 0.008000
vn 0.577350 -0.577350 0.577350
v -0.054668 0.326665 0.008000
vn -0.067339 0.723686 0.686836
v 0.033115 0.206669 0.008000
vn -0.281787 0.691866 0.664769
v 0.052953 0.210393 0.008000
vn -0.523781 0.530236 0.666711
v 0.070724 0.222239 0.008000
vn -0.691045 0.286510 0.663603
v 0.082860 0.239971 0.008000
vn -0.067339 -0.723686 0.686836
v 0.033115 0.326665 0.008000
vn -0.281787 -0.691866 0.664769
v 0.052953 0.322941 0.008000
vn -0.523781 -0.530236 0.666711
v 0.070724 0.311094 0.008000
vn -0.691046 -0.286510 0.663603
v 0.082860 0.293363 0.008000
vn -0.723704 0.067440 0.686807
v 0.086666 0.260214 0.008000
vn -0.723704 -0.067440 0.686807
v 0.086666 0.273119 0.008000
vn 0.577350 -0.577351 0.577350
v -0.022665 0.012000 0.020000
vn -0.617993 0.523507 0.586537
v -0.126668 0.037833 0.020000
vn -0.577350 -0.577350 0.577350
v -0.126668 0.012000 0.020000
vn -0.355824 0.301422 0.884610
v -0.094665 0.043167 0.020000
vn 0.355824 0.301422 0.884610
v -0.054668 0.043167 0.020000
vn -0.355824 -0.301422 0.884610
v -0.094665 0.330164 0.020000
vn 0.617993 0.523507 0.586537
v -0.022665 0.037833 0.020000
vn 0.032695 -0.716338 0.696987
v 0.031451 0.172002 0.020000
vn -0.577350 0.577350 0.577350
v -0.054668 0.206669 0.020000
vn 0.904534 -0.301511 0.301511
v -0.054668 0.172002 0.020000
vn -0.063463 0.682028 0.728567
v 0.033115 0.206669 0.020000
vn 0.137529 -0.714910 0.685558
v 0.051037 0.173793 0.020000
vn -0.247349 0.607311 0.754978
v 0.052953 0.210393 0.020000
vn 0.278500 -0.673574 0.684643
v 0.068389 0.178950 0.020000
vn -0.462826 0.468530 0.752511
v 0.070724 0.222239 0.020000
vn 0.407753 -0.603200 0.685484
v 0.084296 0.187542 0.020000
vn -0.604157 0.250485 0.756473
v 0.082860 0.239971 0.020000
vn -0.681985 0.063552 0.728600
v 0.086666 0.260214 0.020000
vn 0.513774 -0.513804 0.687052
v 0.098946 0.199722 0.020000
vn -0.681985 -0.063552 0.728600
v 0.086666 0.273119 0.020000
vn -0.577350 0.577350 0.577350
v -0.126668 0.361332 0.020000
vn -0.617993 -0.523507 0.586537
v -0.126668 0.335499 0.020000
vn 0.032695 0.716338 0.696987
v 0.031451 0.361332 0.020000
vn 0.301511 -0.301511 0.904534
v -0.054668 0.326665 0.020000
vn -0.063463 -0.682028 0.728567
v 0.033115 0.326665 0.020000
vn 0.137528 0.714909 0.685559
v 0.051037 0.359540 0.020000
vn -0.247349 -0.607312 0.754977
v 0.052953 0.322941 0.020000
vn 0.278500 0.673575 0.684642
v 0.068389 0.354383 0.020000
vn -0.462825 -0.468530 0.752511
v 0.070724 0.311094 0.020000
vn 0.407754 0.603199 0.685484
v 0.084296 0.345791 0.020000
vn -0.604157 -0.250485 0.756473
v 0.082860 0.293363 0.020000
vn 0.513774 0.513804 0.687053
v 0.098946 0.333611 0.020000
vn 0.603180 -0.407785 0.685482
v 0.111127 0.214371 0.020000
vn 0.603180 0.407785 0.685482
v 0.111127 0.318962 0.020000
vn 0.673567 -0.278523 0.684640
v 0.119719 0.230277 0.020000
vn 0.673567 0.278523 0.684641
v 0.119719 0.303057 0.020000
vn 0.714909 -0.137540 0.685557
v 0.124876 0.247628 0.020000
vn 0.714909 0.137540 0.685557
v 0.124876 0.285705 0.020000
vn 0.726501 -0.000000 0.687166
v 0.126618 0.266667 0.020000
# 156 vertices, 0 vertices normals


usemtl material_0
f 1//1 2//2 3//3
f 2//2 1//1 4//4
f 4//4 1//1 5//5
f 4//4 5//5 6//6
f 5//5 1//1 7//7
f 7//7 1//1 8//8
f 7//7 8//8 9//9
f 9//9 8//8 10//10
f 10//10 8//8 11//11
f 10//10 11//11 12//12
f 12//12 11//11 13//13
f 13//13 11//11 14//14
f 13//13 14//14 15//15
f 16//16 17//17 18//18
f 17//17 16//16 19//19
f 19//19 16//16 20//20
f 19//19 20//20 21//21
f 21//21 20//20 22//22
f 21//21 22//22 23//23
f 23//23 22//22 24//24
f 23//23 24//24 15//15
f 23//23 15//15 25//25
f 25//25 15//15 14//14
f 25//25 14//14 26//26
f 25//25 26//26 27//27
f 27//27 26//26 28//28
f 27//27 28//28 29//29
f 29//29 28//28 30//30
f 29//29 30//30 31//31
f 31//31 30//30 32//32
f 31//31 32//32 33//33
f 33//33 32//32 34//34
f 6//6 35//35 36//36
f 35//35 6//6 37//37
f 37//37 6//6 38//38
f 38//38 6//6 5//5
f 38//38 5//5 18//18
f 38//38 18//18 17//17
f 37//37 38//38 39//39
f 40//40 41//41 42//42
f 41//41 40//40 43//43
f 42//42 41//41 44//44
f 42//42 44//44 45//45
f 46//46 47//47 48//48
f 47//47 46//46 45//45
f 47//47 45//45 49//49
f 49//49 45//45 44//44
f 50//50 43//43 40//40
f 43//43 50//50 51//51
f 43//43 51//51 52//52
f 52//52 51//51 53//53
f 54//54 55//55 56//56
f 55//55 54//54 53//53
f 55//55 53//53 57//57
f 57//57 53//53 51//51
f 56//56 58//58 59//59
f 58//58 56//56 55//55
f 59//59 58//58 60//60
f 59//59 60//60 61//61
f 61//61 60//60 62//62
f 61//61 62//62 63//63
f 63//63 62//62 64//64
f 63//63 64//64 65//65
f 65//65 64//64 66//66
f 65//65 66//66 67//67
f 67//67 66//66 68//68
f 67//67 68//68 69//69
f 69//69 68//68 70//70
f 69//69 70//70 71//71
f 71//71 70//70 72//72
f 72//72 70//70 73//73
f 72//72 73//73 74//74
f 48//48 75//75 76//76
f 75//75 48//48 47//47
f 76//76 75//75 77//77
f 76//76 77//77 78//78
f 76//76 78//78 79//79
f 79//79 78//78 80//80
f 79//79 80//80 81//81
f 81//81 80//80 82//82
f 81//81 82//82 83//83
f 83//83 82//82 84//84
f 83//83 84//84 85//85
f 85//85 84//84 86//86
f 85//85 86//86 87//87
f 87//87 86//86 88//88
f 87//87 88//88 89//89
f 87//87 89//89 90//90
f 90//90 89//89 74//74
f 90//90 74//74 73//73
f 90//90 73//73 91//91
f 90//90 91//91 92//92
f 92//92 91//91 93//93
f 48//48 1//1 3//3
f 1//1 48//48 76//76
f 76//76 8//8 1//1
f 8//8 76//76 79//79
f 79//79 11//11 8//8
f 11//11 79//79 81//81
f 81//81 14//14 11//11
f 14//14 81//81 83//83
f 83//83 26//26 14//14
f 26//26 83//83 85//85
f 26//26 87//87 28//28
f 87//87 26//26 85//85
f 28//28 90//90 30//30
f 90//90 28//28 87//87
f 30//30 92//92 32//32
f 92//92 30//30 90//90
f 32//32 93//93 34//34
f 93//93 32//32 92//92
f 34//34 91//91 33//33
f 91//91 34//34 93//93
f 33//33 73//73 31//31
f 73//73 33//33 91//91
f 31//31 70//70 29//29
f 70//70 31//31 73//73
f 29//29 68//68 27//27
f 68//68 29//29 70//70
f 68//68 25//25 27//27
f 25//25 68//68 66//66
f 66//66 23//23 25//25
f 23//23 66//66 64//64
f 64//64 21//21 23//23
f 21//21 64//64 62//62
f 62//62 19//19 21//21
f 19//19 62//62 60//60
f 60//60 17//17 19//19
f 17//17 60//60 58//58
f 17//17 55//55 38//38
f 55//55 17//17 58//58
f 55//55 39//39 38//38
f 39//39 55//55 57//57
f 39//39 51//51 37//37
f 51//51 39//39 57//57
f 51//51 35//35 37//37
f 35//35 51//51 50//50
f 40//40 35//35 50//50
f 35//35 40//40 36//36
f 40//40 6//6 36//36
f 6//6 40//40 42//42
f 45//45 6//6 42//42
f 6//6 45//45 4//4
f 45//45 2//2 4//4
f 2//2 45//45 46//46
f 48//48 2//2 46//46
f 2//2 48//48 3//3
f 94//94 15//15 95//95
f 15//15 94//94 13//13
f 96//96 13//13 94//94
f 13//13 96//96 12//12
f 97//97 12//12 96//96
f 12//12 97//97 10//10
f 97//97 9//9 10//10
f 9//9 97//97 98//98
f 98//98 7//7 9//9
f 7//7 98//98 99//99
f 99//99 5//5 7//7
f 5//5 99//99 100//100
f 5//5 101//101 18//18
f 101//101 5//5 100//100
f 101//101 16//16 18//18
f 16//16 101//101 102//102
f 102//102 20//20 16//16
f 20//20 102//102 103//103
f 103//103 22//22 20//20
f 22//22 103//103 104//104
f 105//105 22//22 104//104
f 22//22 105//105 24//24
f 95//95 24//24 105//105
f 24//24 95//95 15//15
f 106//106 101//101 107//107
f 101//101 106//106 108//108
f 101//101 108//108 102//102
f 102//102 108//108 103//103
f 103//103 108//108 109//109
f 103//103 109//109 104//104
f 104//104 109//109 110//110
f 104//104 110//110 105//105
f 105//105 110//110 111//111
f 105//105 111//111 95//95
f 95//95 111//111 94//94
f 107//107 100//100 112//112
f 100//100 107//107 101//101
f 112//112 100//100 99//99
f 112//112 99//99 98//98
f 112//112 98//98 113//113
f 113//113 98//98 97//97
f 113//113 97//97 114//114
f 114//114 97//97 96//96
f 114//114 96//96 115//115
f 115//115 96//96 94//94
f 115//115 94//94 111//111
f 115//115 111//111 116//116
f 115//115 116//116 117//117
f 118//118 119//119 120//120
f 119//119 118//118 121//121
f 121//121 118//118 122//122
f 121//121 122//122 123//123
f 122//122 118//118 124//124
f 125//125 126//126 127//127
f 126//126 125//125 128//128
f 128//128 125//125 129//129
f 128//128 129//129 130//130
f 130//130 129//129 131//131
f 130//130 131//131 132//132
f 132//132 131//131 133//133
f 132//132 133//133 134//134
f 134//134 133//133 135//135
f 135//135 133//133 136//136
f 135//135 136//136 137//137
f 123//123 138//138 139//139
f 138//138 123//123 140//140
f 140//140 123//123 141//141
f 141//141 123//123 122//122
f 141//141 122//122 127//127
f 141//141 127//127 126//126
f 140//140 141//141 142//142
f 140//140 142//142 143//143
f 143//143 142//142 144//144
f 143//143 144//144 145//145
f 145//145 144//144 146//146
f 145//145 146//146 147//147
f 147//147 146//146 148//148
f 147//147 148//148 137//137
f 147//147 137//137 149//149
f 149//149 137//137 136//136
f 149//149 136//136 150//150
f 149//149 150//150 151//151
f 151//151 150//150 152//152
f 151//151 152//152 153//153
f 153//153 152//152 154//154
f 153//153 154//154 155//155
f 155//155 154//154 156//156
f 53//53 118//118 52//52
f 118//118 53//53 124//124
f 122//122 53//53 54//54
f 53//53 122//122 124//124
f 56//56 122//122 54//54
f 122//122 56//56 127//127
f 125//125 56//56 59//59
f 56//56 125//125 127//127
f 129//129 59//59 61//61
f 59//59 129//129 125//125
f 131//131 61//61 63//63
f 61//61 131//131 129//129
f 133//133 63//63 65//65
f 63//63 133//133 131//131
f 136//136 65//65 67//67
f 65//65 136//136 133//133
f 69//69 136//136 67//67
f 136//136 69//69 150//150
f 71//71 150//150 69//69
f 150//150 71//71 152//152
f 72//72 152//152 71//71
f 152//152 72//72 154//154
f 74//74 154//154 72//72
f 154//154 74//74 156//156
f 89//89 156//156 74//74
f 156//156 89//89 155//155
f 88//88 155//155 89//89
f 155//155 88//88 153//153
f 86//86 153//153 88//88
f 153//153 86//86 151//151
f 84//84 151//151 86//86
f 151//151 84//84 149//149
f 147//147 84//84 82//82
f 84//84 147//147 149//149
f 145//145 82//82 80//80
f 82//82 145//145 147//147
f 143//143 80//80 78//78
f 80//80 143//143 145//145
f 140//140 78//78 77//77
f 78//78 140//140 143//143
f 138//138 77//77 75//75
f 77//77 138//138 140//140
f 138//138 47//47 139//139
f 47//47 138//138 75//75
f 123//123 47//47 49//49
f 47//47 123//123 139//139
f 123//123 44//44 121//121
f 44//44 123//123 49//49
f 119//119 44//44 41//41
f 44//44 119//119 121//121
f 119//119 43//43 120//120
f 43//43 119//119 41//41
f 118//118 43//43 52//52
f 43//43 118//118 120//120
f 126//126 108//108 106//106
f 108//108 126//126 128//128
f 107//107 126//126 106//106
f 126//126 107//107 141//141
f 142//142 107//107 112//112
f 107//107 142//142 141//141
f 144//144 112//112 113//113
f 112//112 144//144 142//142
f 146//146 113//113 114//114
f 113//113 146//146 144//144
f 146//146 115//115 148//148
f 115//115 146//146 114//114
f 148//148 117//117 137//137
f 117//117 148//148 115//115
f 137//137 116//116 135//135
f 116//116 137//137 117//117
f 135//135 111//111 134//134
f 111//111 135//135 116//116
f 134//134 110//110 132//132
f 110//110 134//134 111//111
f 130//130 110//110 109//109
f 110//110 130//130 132//132
f 128//128 109//109 108//108
f 109//109 128//128 130//130
# 312 faces, 0 coords texture

# End of File
