####
#
# OBJ File Generated by Meshlab
#
####
# Object alphabet7.obj
#
# Vertices: 112
# Faces: 220
#
####
mtllib ./alphabet7.obj.mtl

vn 0.577350 0.577350 -0.577350
v -0.034664 0.373332 -0.020000
vn -0.617993 -0.523507 -0.586537
v -0.162667 0.325334 -0.020000
vn -0.577350 0.577350 -0.577350
v -0.162667 0.373332 -0.020000
vn -0.355824 -0.301422 -0.884610
v -0.130664 0.319999 -0.020000
vn 0.355824 -0.301422 -0.884610
v -0.066667 0.319999 -0.020000
vn -0.355824 0.301422 -0.884610
v -0.130664 0.053333 -0.020000
vn 0.617993 -0.523507 -0.586537
v -0.034664 0.325334 -0.020000
vn 0.577351 0.577351 -0.577350
v 0.162667 0.373332 -0.020000
vn -0.617997 -0.523500 -0.586538
v 0.034668 0.325334 -0.020000
vn -0.577350 0.577350 -0.577350
v 0.034668 0.373332 -0.020000
vn -0.355831 -0.301421 -0.884607
v 0.066667 0.319999 -0.020000
vn -0.301511 0.301512 -0.904534
v 0.066667 0.229333 -0.020000
vn 0.355831 -0.301421 -0.884607
v 0.130668 0.319999 -0.020000
vn -0.301511 -0.301511 -0.904534
v 0.066667 0.170667 -0.020000
vn -0.355831 0.301421 -0.884607
v 0.066667 0.053333 -0.020000
vn 0.617997 -0.523500 -0.586538
v 0.162667 0.325334 -0.020000
vn -0.577350 -0.577350 -0.577350
v 0.034668 0.000000 -0.020000
vn -0.617997 0.523501 -0.586538
v 0.034668 0.047998 -0.020000
vn 0.577350 -0.577350 -0.577350
v 0.162667 0.000000 -0.020000
vn 0.355831 0.301421 -0.884607
v 0.130668 0.053333 -0.020000
vn 0.617997 0.523501 -0.586538
v 0.162667 0.047998 -0.020000
vn 0.904534 -0.301511 -0.301511
v -0.066667 0.170667 -0.020000
vn -0.577350 0.577350 -0.577350
v -0.066667 0.229333 -0.020000
vn -0.577350 -0.577350 -0.577350
v -0.162667 0.000000 -0.020000
vn -0.617993 0.523507 -0.586537
v -0.162667 0.047998 -0.020000
vn 0.577350 -0.577350 -0.577350
v -0.034664 0.000000 -0.020000
vn 0.355824 0.301422 -0.884610
v -0.066667 0.053333 -0.020000
vn 0.617993 0.523507 -0.586537
v -0.034664 0.047998 -0.020000
vn -0.617993 0.523507 0.586537
v -0.162667 0.047998 0.008000
vn -0.355824 0.301422 0.884610
v -0.150667 0.037833 0.008000
vn -0.355824 0.301422 0.884610
v -0.130664 0.053333 0.008000
vn -0.301511 -0.301512 0.904534
v -0.150667 0.012000 0.008000
vn -0.617993 0.523508 0.586536
v -0.118664 0.043167 0.008000
vn -0.355824 -0.301422 0.884610
v -0.130664 0.319999 0.008000
vn -0.617993 -0.523507 0.586537
v -0.162667 0.325334 0.008000
vn -0.355824 -0.301422 0.884610
v -0.150667 0.335499 0.008000
vn -0.577350 0.577350 0.577350
v -0.162667 0.373332 0.008000
vn -0.617993 -0.523507 0.586537
v -0.118664 0.330164 0.008000
vn 0.577350 0.577350 0.577350
v -0.078667 0.217333 0.008000
vn 0.301511 0.301511 0.904534
v -0.066667 0.229333 0.008000
vn 0.617993 -0.523507 0.586537
v -0.078667 0.330164 0.008000
vn -0.577350 0.577350 0.577350
v 0.078667 0.217333 0.008000
vn -0.301511 0.301511 0.904534
v 0.066667 0.229333 0.008000
vn -0.355831 -0.301421 0.884607
v 0.066667 0.319999 0.008000
vn -0.617998 -0.523500 0.586538
v 0.034668 0.325334 0.008000
vn -0.355831 -0.301421 0.884607
v 0.046668 0.335499 0.008000
vn -0.577350 0.577350 0.577350
v 0.034668 0.373332 0.008000
vn -0.617997 -0.523501 0.586538
v 0.078667 0.330164 0.008000
vn -0.617997 0.523500 0.586538
v 0.034668 0.047998 0.008000
vn -0.355831 0.301421 0.884607
v 0.046668 0.037833 0.008000
vn -0.355831 0.301421 0.884607
v 0.066667 0.053333 0.008000
vn -0.301511 -0.301512 0.904534
v 0.046668 0.012000 0.008000
vn -0.617997 0.523500 0.586538
v 0.078667 0.043167 0.008000
vn -0.301511 -0.301511 0.904534
v 0.066667 0.170667 0.008000
vn 0.577350 -0.577350 0.577350
v -0.078667 0.182667 0.008000
vn 0.301511 -0.301511 0.904534
v -0.066667 0.170667 0.008000
vn -0.577350 -0.577350 0.577350
v 0.078667 0.182667 0.008000
vn 0.355824 0.301422 0.884610
v -0.066667 0.053333 0.008000
vn -0.577350 -0.577350 0.577350
v -0.162667 -0.000000 0.008000
vn 0.577350 -0.577350 0.577350
v -0.034664 -0.000000 0.008000
vn 0.301511 -0.301511 0.904534
v -0.046664 0.012000 0.008000
vn 0.355824 0.301422 0.884610
v -0.046664 0.037833 0.008000
vn 0.617993 0.523507 0.586537
v -0.078667 0.043167 0.008000
vn 0.617993 0.523507 0.586537
v -0.034664 0.047998 0.008000
vn -0.577350 -0.577350 0.577350
v 0.034668 -0.000000 0.008000
vn 0.577350 -0.577350 0.577350
v 0.162667 -0.000000 0.008000
vn 0.301511 -0.301511 0.904534
v 0.150667 0.012000 0.008000
vn 0.355831 0.301421 0.884607
v 0.150667 0.037833 0.008000
vn 0.617997 0.523500 0.586538
v 0.118668 0.043167 0.008000
vn 0.355831 0.301421 0.884607
v 0.130668 0.053333 0.008000
vn 0.617997 -0.523500 0.586538
v 0.118668 0.330164 0.008000
vn 0.617997 0.523500 0.586538
v 0.162667 0.047998 0.008000
vn 0.355831 -0.301421 0.884607
v 0.130668 0.319999 0.008000
vn 0.355831 -0.301421 0.884607
v 0.150667 0.335499 0.008000
vn 0.617998 -0.523500 0.586538
v 0.162667 0.325334 0.008000
vn 0.301511 0.301511 0.904534
v 0.150667 0.361332 0.008000
vn -0.301511 0.301511 0.904534
v 0.046668 0.361332 0.008000
vn 0.577350 0.577350 0.577350
v 0.162667 0.373332 0.008000
vn 0.355824 -0.301422 0.884610
v -0.066667 0.319999 0.008000
vn 0.355824 -0.301422 0.884610
v -0.046664 0.335499 0.008000
vn 0.617993 -0.523507 0.586537
v -0.034664 0.325334 0.008000
vn 0.301511 0.301511 0.904534
v -0.046664 0.361332 0.008000
vn -0.301511 0.301511 0.904534
v -0.150667 0.361332 0.008000
vn 0.577350 0.577350 0.577350
v -0.034664 0.373332 0.008000
vn 0.577350 -0.577351 0.577350
v -0.046664 0.012000 0.020000
vn -0.617993 0.523507 0.586537
v -0.150667 0.037833 0.020000
vn -0.577350 -0.577350 0.577350
v -0.150667 0.012000 0.020000
vn -0.355824 0.301422 0.884610
v -0.118664 0.043167 0.020000
vn 0.355824 0.301422 0.884610
v -0.078667 0.043167 0.020000
vn -0.355824 -0.301422 0.884610
v -0.118664 0.330164 0.020000
vn 0.617993 0.523507 0.586537
v -0.046664 0.037833 0.020000
vn 0.577350 -0.577351 0.577350
v 0.150667 0.012000 0.020000
vn -0.617997 0.523500 0.586538
v 0.046668 0.037833 0.020000
vn -0.577350 -0.577350 0.577350
v 0.046668 0.012000 0.020000
vn -0.355831 0.301421 0.884607
v 0.078667 0.043167 0.020000
vn 0.355831 0.301421 0.884607
v 0.118668 0.043167 0.020000
vn -0.301511 -0.301511 0.904534
v 0.078667 0.182667 0.020000
vn -0.301511 0.301511 0.904534
v 0.078667 0.217333 0.020000
vn -0.355831 -0.301421 0.884607
v 0.078667 0.330164 0.020000
vn 0.617997 0.523500 0.586538
v 0.150667 0.037833 0.020000
vn -0.577350 0.577350 0.577350
v 0.046668 0.361332 0.020000
vn -0.617997 -0.523501 0.586538
v 0.046668 0.335499 0.020000
vn 0.577350 0.577350 0.577350
v 0.150667 0.361332 0.020000
vn 0.355831 -0.301421 0.884607
v 0.118668 0.330164 0.020000
vn 0.617997 -0.523501 0.586538
v 0.150667 0.335499 0.020000
vn 0.904534 0.301511 0.301511
v -0.078667 0.217333 0.020000
vn -0.577350 -0.577350 0.577350
v -0.078667 0.182667 0.020000
vn -0.577350 0.577350 0.577350
v -0.150667 0.361332 0.020000
vn -0.617993 -0.523507 0.586537
v -0.150667 0.335499 0.020000
vn 0.577350 0.577350 0.577350
v -0.046664 0.361332 0.020000
vn 0.355824 -0.301422 0.884610
v -0.078667 0.330164 0.020000
vn 0.617993 -0.523507 0.586537
v -0.046664 0.335499 0.020000
# 112 vertices, 0 vertices normals


usemtl material_0
f 1//1 2//2 3//3
f 2//2 1//1 4//4
f 4//4 1//1 5//5
f 4//4 5//5 6//6
f 5//5 1//1 7//7
f 8//8 9//9 10//10
f 9//9 8//8 11//11
f 11//11 8//8 12//12
f 12//12 8//8 13//13
f 12//12 13//13 14//14
f 14//14 13//13 15//15
f 13//13 8//8 16//16
f 15//15 17//17 18//18
f 17//17 15//15 19//19
f 19//19 15//15 20//20
f 20//20 15//15 13//13
f 19//19 20//20 21//21
f 12//12 22//22 23//23
f 22//22 12//12 14//14
f 6//6 24//24 25//25
f 24//24 6//6 26//26
f 26//26 6//6 27//27
f 27//27 6//6 5//5
f 27//27 5//5 23//23
f 27//27 23//23 22//22
f 26//26 27//27 28//28
f 29//29 30//30 31//31
f 30//30 29//29 32//32
f 31//31 30//30 33//33
f 31//31 33//33 34//34
f 35//35 36//36 37//37
f 36//36 35//35 34//34
f 36//36 34//34 38//38
f 38//38 34//34 33//33
f 39//39 40//40 41//41
f 40//40 39//39 42//42
f 40//40 42//42 43//43
f 43//43 42//42 44//44
f 45//45 46//46 47//47
f 46//46 45//45 44//44
f 46//46 44//44 48//48
f 48//48 44//44 42//42
f 49//49 50//50 51//51
f 50//50 49//49 52//52
f 51//51 50//50 53//53
f 51//51 53//53 54//54
f 55//55 56//56 57//57
f 56//56 55//55 58//58
f 57//57 56//56 54//54
f 57//57 54//54 53//53
f 59//59 32//32 29//29
f 32//32 59//59 60//60
f 32//32 60//60 61//61
f 61//61 60//60 62//62
f 63//63 58//58 55//55
f 58//58 63//63 62//62
f 58//58 62//62 64//64
f 64//64 62//62 60//60
f 65//65 52//52 49//49
f 52//52 65//65 66//66
f 52//52 66//66 67//67
f 67//67 66//66 68//68
f 69//69 70//70 71//71
f 70//70 69//69 68//68
f 70//70 68//68 72//72
f 72//72 68//68 66//66
f 71//71 73//73 74//74
f 73//73 71//71 70//70
f 74//74 73//73 75//75
f 74//74 75//75 76//76
f 47//47 77//77 78//78
f 77//77 47//47 46//46
f 78//78 77//77 76//76
f 78//78 76//76 75//75
f 41//41 79//79 80//80
f 79//79 41//41 40//40
f 80//80 79//79 81//81
f 80//80 81//81 82//82
f 37//37 83//83 84//84
f 83//83 37//37 36//36
f 84//84 83//83 82//82
f 84//84 82//82 81//81
f 47//47 9//9 45//45
f 9//9 47//47 10//10
f 47//47 8//8 10//10
f 8//8 47//47 78//78
f 8//8 75//75 16//16
f 75//75 8//8 78//78
f 75//75 13//13 16//16
f 13//13 75//75 73//73
f 13//13 70//70 20//20
f 70//70 13//13 73//73
f 70//70 21//21 20//20
f 21//21 70//70 72//72
f 21//21 66//66 19//19
f 66//66 21//21 72//72
f 66//66 17//17 19//19
f 17//17 66//66 65//65
f 49//49 17//17 65//65
f 17//17 49//49 18//18
f 49//49 15//15 18//18
f 15//15 49//49 51//51
f 54//54 15//15 51//51
f 15//15 54//54 14//14
f 54//54 22//22 14//14
f 22//22 54//54 56//56
f 22//22 58//58 27//27
f 58//58 22//22 56//56
f 58//58 28//28 27//27
f 28//28 58//58 64//64
f 28//28 60//60 26//26
f 60//60 28//28 64//64
f 60//60 24//24 26//26
f 24//24 60//60 59//59
f 29//29 24//24 59//59
f 24//24 29//29 25//25
f 29//29 6//6 25//25
f 6//6 29//29 31//31
f 34//34 6//6 31//31
f 6//6 34//34 4//4
f 34//34 2//2 4//4
f 2//2 34//34 35//35
f 37//37 2//2 35//35
f 2//2 37//37 3//3
f 37//37 1//1 3//3
f 1//1 37//37 84//84
f 1//1 81//81 7//7
f 81//81 1//1 84//84
f 81//81 5//5 7//7
f 5//5 81//81 79//79
f 5//5 40//40 23//23
f 40//40 5//5 79//79
f 40//40 12//12 23//23
f 12//12 40//40 43//43
f 44//44 12//12 43//43
f 12//12 44//44 11//11
f 44//44 9//9 11//11
f 9//9 44//44 45//45
f 85//85 86//86 87//87
f 86//86 85//85 88//88
f 88//88 85//85 89//89
f 88//88 89//89 90//90
f 89//89 85//85 91//91
f 92//92 93//93 94//94
f 93//93 92//92 95//95
f 95//95 92//92 96//96
f 95//95 96//96 97//97
f 97//97 96//96 98//98
f 98//98 96//96 99//99
f 96//96 92//92 100//100
f 99//99 101//101 102//102
f 101//101 99//99 103//103
f 103//103 99//99 104//104
f 104//104 99//99 96//96
f 103//103 104//104 105//105
f 97//97 106//106 107//107
f 106//106 97//97 98//98
f 90//90 108//108 109//109
f 108//108 90//90 110//110
f 110//110 90//90 111//111
f 111//111 90//90 89//89
f 111//111 89//89 107//107
f 111//111 107//107 106//106
f 110//110 111//111 112//112
f 99//99 42//42 98//98
f 42//42 99//99 48//48
f 106//106 42//42 39//39
f 42//42 106//106 98//98
f 41//41 106//106 39//39
f 106//106 41//41 111//111
f 112//112 41//41 80//80
f 41//41 112//112 111//111
f 82//82 112//112 80//80
f 112//112 82//82 110//110
f 108//108 82//82 83//83
f 82//82 108//108 110//110
f 108//108 36//36 109//109
f 36//36 108//108 83//83
f 90//90 36//36 38//38
f 36//36 90//90 109//109
f 90//90 33//33 88//88
f 33//33 90//90 38//38
f 86//86 33//33 30//30
f 33//33 86//86 88//88
f 86//86 32//32 87//87
f 32//32 86//86 30//30
f 85//85 32//32 61//61
f 32//32 85//85 87//87
f 62//62 85//85 61//61
f 85//85 62//62 91//91
f 89//89 62//62 63//63
f 62//62 89//89 91//91
f 55//55 89//89 63//63
f 89//89 55//55 107//107
f 97//97 55//55 57//57
f 55//55 97//97 107//107
f 97//97 53//53 95//95
f 53//53 97//97 57//57
f 93//93 53//53 50//50
f 53//53 93//93 95//95
f 93//93 52//52 94//94
f 52//52 93//93 50//50
f 92//92 52//52 67//67
f 52//52 92//92 94//94
f 68//68 92//92 67//67
f 92//92 68//68 100//100
f 96//96 68//68 69//69
f 68//68 96//96 100//100
f 71//71 96//96 69//69
f 96//96 71//71 104//104
f 105//105 71//71 74//74
f 71//71 105//105 104//104
f 76//76 105//105 74//74
f 105//105 76//76 103//103
f 101//101 76//76 77//77
f 76//76 101//101 103//103
f 101//101 46//46 102//102
f 46//46 101//101 77//77
f 99//99 46//46 48//48
f 46//46 99//99 102//102
# 220 faces, 0 coords texture

# End of File
