####
#
# OBJ File Generated by Meshlab
#
####
# Object alphabet19.obj
#
# Vertices: 64
# Faces: 124
#
####
mtllib ./alphabet19.obj.mtl

vn -0.577350 0.577350 -0.577350
v -0.136001 0.371801 -0.020000
vn 0.301945 -0.348157 -0.887477
v -0.082664 0.313134 -0.020000
vn -0.577350 -0.577350 -0.577350
v -0.136001 0.275801 -0.020000
vn 0.577350 0.577350 -0.577350
v 0.136001 0.371801 -0.020000
vn 0.531295 -0.612607 -0.585183
v -0.087998 0.275801 -0.020000
vn -0.301511 -0.301511 -0.904534
v -0.032001 0.313134 -0.020000
vn 0.301511 -0.301511 -0.904534
v 0.032001 0.313134 -0.020000
vn -0.355831 0.301421 -0.884607
v -0.032001 0.051802 -0.020000
vn -0.301945 -0.348157 -0.887477
v 0.082668 0.313134 -0.020000
vn -0.531295 -0.612607 -0.585183
v 0.088003 0.275801 -0.020000
vn 0.577350 -0.577350 -0.577350
v 0.136001 0.275801 -0.020000
vn -0.577350 -0.577350 -0.577350
v -0.063999 -0.001531 -0.020000
vn -0.617997 0.523501 -0.586538
v -0.063999 0.046468 -0.020000
vn 0.577350 -0.577350 -0.577350
v 0.063999 -0.001531 -0.020000
vn 0.355831 0.301421 -0.884607
v 0.032001 0.051802 -0.020000
vn 0.617997 0.523501 -0.586538
v 0.063999 0.046468 -0.020000
vn -0.617997 0.523500 0.586538
v -0.063999 0.046468 0.008000
vn -0.355831 0.301421 0.884607
v -0.051999 0.036302 0.008000
vn -0.355831 0.301421 0.884607
v -0.032001 0.051802 0.008000
vn -0.301511 -0.301512 0.904534
v -0.051999 0.010469 0.008000
vn -0.617997 0.523500 0.586538
v -0.020001 0.041637 0.008000
vn -0.301511 -0.301511 0.904534
v -0.032001 0.313134 0.008000
vn -0.577350 -0.577350 0.577350
v -0.136001 0.275801 0.008000
vn -0.301511 -0.301511 0.904534
v -0.124001 0.287801 0.008000
vn -0.577350 0.577350 0.577350
v -0.136001 0.371801 0.008000
vn 0.531295 -0.612607 0.585183
v -0.087998 0.275801 0.008000
vn 0.301945 -0.348157 0.887477
v -0.098406 0.287801 0.008000
vn 0.531295 -0.612607 0.585183
v -0.093071 0.325134 0.008000
vn 0.301945 -0.348157 0.887477
v -0.082664 0.313134 0.008000
vn -0.577350 -0.577350 0.577350
v -0.020001 0.325134 0.008000
vn -0.577350 -0.577350 0.577350
v -0.063999 -0.001531 0.008000
vn 0.577350 -0.577350 0.577350
v 0.063999 -0.001531 0.008000
vn 0.301511 -0.301511 0.904534
v 0.051999 0.010469 0.008000
vn 0.355831 0.301421 0.884607
v 0.051999 0.036302 0.008000
vn 0.617997 0.523500 0.586538
v 0.020001 0.041637 0.008000
vn 0.355831 0.301421 0.884607
v 0.032001 0.051802 0.008000
vn 0.577350 -0.577350 0.577350
v 0.020001 0.325134 0.008000
vn 0.617997 0.523500 0.586538
v 0.063999 0.046468 0.008000
vn 0.301511 -0.301511 0.904534
v 0.032001 0.313134 0.008000
vn -0.531295 -0.612607 0.585183
v 0.093075 0.325134 0.008000
vn -0.301945 -0.348157 0.887477
v 0.082668 0.313134 0.008000
vn -0.531295 -0.612607 0.585183
v 0.088003 0.275801 0.008000
vn -0.301945 -0.348157 0.887477
v 0.098410 0.287801 0.008000
vn 0.577350 -0.577350 0.577350
v 0.136001 0.275801 0.008000
vn 0.301511 -0.301511 0.904534
v 0.124001 0.287801 0.008000
vn 0.301511 0.301511 0.904534
v 0.124001 0.359801 0.008000
vn -0.301511 0.301511 0.904534
v -0.124001 0.359801 0.008000
vn 0.577350 0.577350 0.577350
v 0.136001 0.371801 0.008000
vn 0.577350 -0.577351 0.577350
v 0.051999 0.010469 0.020000
vn -0.617997 0.523500 0.586538
v -0.051999 0.036302 0.020000
vn -0.577350 -0.577350 0.577350
v -0.051999 0.010469 0.020000
vn -0.355831 0.301421 0.884607
v -0.020001 0.041637 0.020000
vn 0.355831 0.301421 0.884607
v 0.020001 0.041637 0.020000
vn -0.301511 -0.301511 0.904534
v -0.020001 0.325134 0.020000
vn 0.617997 0.523500 0.586538
v 0.051999 0.036302 0.020000
vn 0.531295 -0.612607 0.585183
v -0.098406 0.287801 0.020000
vn -0.577350 0.577350 0.577350
v -0.124001 0.359801 0.020000
vn -0.577350 -0.577350 0.577350
v -0.124001 0.287801 0.020000
vn 0.301945 -0.348157 0.887477
v -0.093071 0.325134 0.020000
vn 0.577350 0.577350 0.577350
v 0.124001 0.359801 0.020000
vn 0.301511 -0.301511 0.904534
v 0.020001 0.325134 0.020000
vn -0.301945 -0.348157 0.887477
v 0.093075 0.325134 0.020000
vn -0.531295 -0.612607 0.585183
v 0.098410 0.287801 0.020000
vn 0.577350 -0.577350 0.577350
v 0.124001 0.287801 0.020000
# 64 vertices, 0 vertices normals


usemtl material_0
f 1//1 2//2 3//3
f 2//2 1//1 4//4
f 3//3 2//2 5//5
f 2//2 4//4 6//6
f 6//6 4//4 7//7
f 6//6 7//7 8//8
f 7//7 4//4 9//9
f 9//9 4//4 10//10
f 10//10 4//4 11//11
f 8//8 12//12 13//13
f 12//12 8//8 14//14
f 14//14 8//8 15//15
f 15//15 8//8 7//7
f 14//14 15//15 16//16
f 17//17 18//18 19//19
f 18//18 17//17 20//20
f 19//19 18//18 21//21
f 19//19 21//21 22//22
f 23//23 24//24 25//25
f 24//24 23//23 26//26
f 24//24 26//26 27//27
f 27//27 26//26 28//28
f 28//28 26//26 29//29
f 28//28 29//29 30//30
f 30//30 29//29 22//22
f 30//30 22//22 21//21
f 31//31 20//20 17//17
f 20//20 31//31 32//32
f 20//20 32//32 33//33
f 33//33 32//32 34//34
f 35//35 36//36 37//37
f 36//36 35//35 34//34
f 36//36 34//34 38//38
f 38//38 34//34 32//32
f 37//37 39//39 40//40
f 39//39 37//37 36//36
f 40//40 39//39 41//41
f 40//40 41//41 42//42
f 40//40 42//42 43//43
f 43//43 42//42 44//44
f 43//43 44//44 45//45
f 45//45 44//44 46//46
f 25//25 47//47 48//48
f 47//47 25//25 24//24
f 48//48 47//47 46//46
f 48//48 46//46 44//44
f 17//17 12//12 31//31
f 12//12 17//17 13//13
f 17//17 8//8 13//13
f 8//8 17//17 19//19
f 22//22 8//8 19//19
f 8//8 22//22 6//6
f 22//22 2//2 6//6
f 2//2 22//22 29//29
f 2//2 26//26 5//5
f 26//26 2//2 29//29
f 26//26 3//3 5//5
f 3//3 26//26 23//23
f 25//25 3//3 23//23
f 3//3 25//25 1//1
f 25//25 4//4 1//1
f 4//4 25//25 48//48
f 4//4 44//44 11//11
f 44//44 4//4 48//48
f 44//44 10//10 11//11
f 10//10 44//44 42//42
f 41//41 10//10 42//42
f 10//10 41//41 9//9
f 41//41 7//7 9//9
f 7//7 41//41 39//39
f 7//7 36//36 15//15
f 36//36 7//7 39//39
f 36//36 16//16 15//15
f 16//16 36//36 38//38
f 16//16 32//32 14//14
f 32//32 16//16 38//38
f 32//32 12//12 14//14
f 12//12 32//32 31//31
f 49//49 50//50 51//51
f 50//50 49//49 52//52
f 52//52 49//49 53//53
f 52//52 53//53 54//54
f 53//53 49//49 55//55
f 56//56 57//57 58//58
f 57//57 56//56 59//59
f 57//57 59//59 60//60
f 60//60 59//59 54//54
f 60//60 54//54 61//61
f 61//61 54//54 53//53
f 60//60 61//61 62//62
f 60//60 62//62 63//63
f 60//60 63//63 64//64
f 34//34 49//49 33//33
f 49//49 34//34 55//55
f 53//53 34//34 35//35
f 34//34 53//53 55//55
f 37//37 53//53 35//35
f 53//53 37//37 61//61
f 62//62 37//37 40//40
f 37//37 62//62 61//61
f 62//62 43//43 63//63
f 43//43 62//62 40//40
f 64//64 43//43 45//45
f 43//43 64//64 63//63
f 46//46 64//64 45//45
f 64//64 46//46 60//60
f 57//57 46//46 47//47
f 46//46 57//57 60//60
f 57//57 24//24 58//58
f 24//24 57//57 47//47
f 56//56 24//24 27//27
f 24//24 56//56 58//58
f 28//28 56//56 27//27
f 56//56 28//28 59//59
f 54//54 28//28 30//30
f 28//28 54//54 59//59
f 54//54 21//21 52//52
f 21//21 54//54 30//30
f 50//50 21//21 18//18
f 21//21 50//50 52//52
f 50//50 20//20 51//51
f 20//20 50//50 18//18
f 49//49 20//20 33//33
f 20//20 49//49 51//51
# 124 faces, 0 coords texture

# End of File
