# File produced by Open Asset Import Library (http://www.assimp.sf.net)
# (assimp v5.0.1588609223)

mtllib result.mtl

# 88 vertex positions
v  -0.80001825 0.7333374 -0.25000024
v  -1.0000101 0 -0.25000033
v  -1.0000101 0.7333374 -0.25000024
v  -0.80001825 0 -0.25000033
v  -0.56250882 0.78000385 -0.25000024
v  -0.51792145 0.026458105 -0.25000033
v  -0.37000018 0.92000324 -0.25000021
v  -0.25833124 0.10583242 -0.25000033
v  -0.24249393 1.1166636 -0.25000021
v  -0.021247804 0.23812294 -0.2500003
v  -0.19999182 1.333313 -0.25000018
v  1.0000101 5.5332947 -0.24999967
v  -0.60002637 4.9333191 -0.24999975
v  -0.60002637 5.5332947 -0.24999967
v  -0.19999182 4.8666382 -0.24999975
v  0.59997559 4.8666382 -0.24999975
v  0.19332886 0.42332968 -0.25000027
v  0.3712368 0.64311981 -0.25000024
v  0.4983139 0.87916058 -0.25000021
v  0.57456017 1.131452 -0.25000018
v  1.0000101 4.9333191 -0.24999975
v  0.59997559 1.3999939 -0.25000015
v  -1.0000101 0.73333734 0.099999756
v  -0.85001016 0.58333737 0.099999726
v  -0.80001825 0.73333734 0.099999756
v  -0.85001016 0.14999996 0.099999696
v  -0.78542161 0.58333737 0.099999726
v  -0.56250882 0.78000379 0.099999756
v  -0.50108039 0.63920546 0.099999756
v  -0.37000018 0.92000318 0.099999785
v  -0.2592755 0.81505483 0.099999756
v  -0.24249393 1.1166636 0.099999785
v  -0.10087562 1.0593642 0.099999785
v  -0.19999182 1.333313 0.099999815
v  -0.19999182 4.8666382 0.10000023
v  -0.60002637 4.9333191 0.10000026
v  -0.45002639 5.0603857 0.10000026
v  -0.60002637 5.5332947 0.10000032
v  -0.049991846 4.9937048 0.10000026
v  -0.049991846 1.3187385 0.099999815
v  -1.0000101 -4.1723251e-08 0.099999666
v  -0.80001825 -4.1723251e-08 0.099999666
v  -0.80703717 0.14999996 0.099999696
v  -0.5471561 0.17437442 0.099999696
v  -0.51792145 0.026458064 0.099999666
v  -0.31747001 0.24460505 0.099999696
v  -0.25833124 0.10583238 0.099999666
v  -0.10768616 0.36166263 0.099999696
v  -0.021247804 0.2381229 0.099999696
v  0.085171461 0.52812302 0.099999726
v  0.19332886 0.42332965 0.099999726
v  0.24581468 0.72658408 0.099999756
v  0.3712368 0.64311975 0.099999756
v  0.35909009 0.93698877 0.099999785
v  0.42663932 1.1605024 0.099999815
v  0.4983139 0.87916052 0.099999785
v  0.44997561 1.4070762 0.099999845
v  0.44997561 4.9937048 0.10000026
v  0.59997559 4.8666382 0.10000023
v  0.85001016 5.0603857 0.10000026
v  0.57456017 1.131452 0.099999815
v  0.59997559 1.3999939 0.099999845
v  1.0000101 4.9333191 0.10000026
v  0.85001016 5.3832946 0.10000032
v  -0.45002639 5.3832946 0.10000032
v  1.0000101 5.5332947 0.10000032
v  -0.80703717 0.14999995 0.24999967
v  -0.85001016 0.58333737 0.24999973
v  -0.85001016 0.14999995 0.24999967
v  -0.78542161 0.58333737 0.24999973
v  -0.5471561 0.1743744 0.24999967
v  -0.50108039 0.63920546 0.24999973
v  -0.31747001 0.24460503 0.24999967
v  -0.2592755 0.81505483 0.24999979
v  -0.10768616 0.3616626 0.24999973
v  -0.10087562 1.0593641 0.24999979
v  0.085171461 0.52812302 0.24999973
v  -0.049991846 1.3187385 0.24999985
v  -0.049991846 4.9937048 0.25000027
v  -0.45002639 5.3832946 0.25000033
v  -0.45002639 5.0603857 0.25000027
v  0.85001016 5.3832946 0.25000033
v  0.44997561 4.9937048 0.25000027
v  0.24581468 0.72658408 0.24999973
v  0.35909009 0.93698877 0.24999979
v  0.42663932 1.1605024 0.24999979
v  0.44997561 1.4070761 0.24999985
v  0.85001016 5.0603857 0.25000027

# 0 UV coordinates

# 22 vertex normals
vn 0 1.1920929e-07 -1
vn 0 -1.1920929e-07 1
vn -1 0 0
vn 0 1 1.1920929e-07
vn -0.09685351 0.99529862 1.1864884e-07
vn -0.39988551 0.91656512 1.0926308e-07
vn -0.72578484 0.68792176 8.2006665e-08
vn -0.9269976 0.37506732 4.4711509e-08
vn -0.99531281 0.096708097 1.1528503e-08
vn -0.16441932 -0.98639053 -1.1758691e-07
vn 1 0 0
vn 0.16441932 -0.98639053 -1.1758691e-07
vn 0.99888718 -0.047163099 -5.6222795e-09
vn 0.98125553 -0.19271129 -2.2972976e-08
vn 0.92350417 -0.3835884 -4.5727301e-08
vn 0.83251095 -0.5540086 -6.6042972e-08
vn 0.71818751 -0.69584966 -8.2951743e-08
vn 0.57328665 -0.81935483 -9.7674707e-08
vn 0.39204082 -0.9199478 -1.0966632e-07
vn 0.1938927 -0.98102272 -1.1694702e-07
vn 0.046741601 -0.99890703 -1.19079e-07
vn 0 -1 -1.1920929e-07

# Mesh 'J' with 172 faces
g J
usemtl font
f  1//1 2//1 3//1
f  2//1 1//1 4//1
f  4//1 1//1 5//1
f  4//1 5//1 6//1
f  6//1 5//1 7//1
f  6//1 7//1 8//1
f  8//1 7//1 9//1
f  8//1 9//1 10//1
f  10//1 9//1 11//1
f  12//1 13//1 14//1
f  13//1 12//1 15//1
f  15//1 12//1 16//1
f  15//1 16//1 11//1
f  11//1 16//1 10//1
f  10//1 16//1 17//1
f  17//1 16//1 18//1
f  18//1 16//1 19//1
f  19//1 16//1 20//1
f  16//1 12//1 21//1
f  22//1 20//1 16//1
f  23//2 24//2 25//2
f  24//2 23//2 26//2
f  25//2 24//2 27//2
f  25//2 27//2 28//2
f  28//2 27//2 29//2
f  28//2 29//2 30//2
f  30//2 29//2 31//2
f  30//2 31//2 32//2
f  32//2 31//2 33//2
f  32//2 33//2 34//2
f  34//2 33//2 35//2
f  36//2 37//2 38//2
f  37//2 36//2 35//2
f  37//2 35//2 39//2
f  39//2 35//2 33//2
f  39//2 33//2 40//2
f  41//2 26//2 23//2
f  26//2 41//2 42//2
f  26//2 42//2 43//2
f  43//2 42//2 44//2
f  44//2 42//2 45//2
f  44//2 45//2 46//2
f  46//2 45//2 47//2
f  46//2 47//2 48//2
f  48//2 47//2 49//2
f  48//2 49//2 50//2
f  50//2 49//2 51//2
f  50//2 51//2 52//2
f  52//2 51//2 53//2
f  52//2 53//2 54//2
f  54//2 53//2 55//2
f  55//2 53//2 56//2
f  55//2 56//2 57//2
f  57//2 56//2 58//2
f  58//2 56//2 59//2
f  58//2 59//2 60//2
f  59//2 56//2 61//2
f  59//2 61//2 62//2
f  60//2 59//2 63//2
f  60//2 63//2 64//2
f  38//2 65//2 66//2
f  65//2 38//2 37//2
f  66//2 65//2 64//2
f  66//2 64//2 63//2
f  23//3 2//3 41//3
f  2//3 23//3 3//3
f  23//4 1//5 3//4
f  1//5 23//4 25//5
f  25//5 5//6 1//5
f  5//6 25//5 28//6
f  28//6 7//7 5//6
f  7//7 28//6 30//7
f  32//8 7//7 30//7
f  7//7 32//8 9//8
f  34//9 9//8 32//8
f  9//8 34//9 11//9
f  35//3 11//9 34//9
f  11//9 35//3 15//3
f  35//10 13//10 15//10
f  13//10 35//10 36//10
f  38//3 13//3 36//3
f  13//3 38//3 14//3
f  38//4 12//4 14//4
f  12//4 38//4 66//4
f  12//11 63//11 21//11
f  63//11 12//11 66//11
f  63//12 16//12 21//12
f  16//12 63//12 59//12
f  16//11 62//13 22//13
f  62//13 16//11 59//11
f  22//13 61//14 20//14
f  61//14 22//13 62//13
f  20//14 56//15 19//15
f  56//15 20//14 61//14
f  19//15 53//16 18//16
f  53//16 19//15 56//15
f  18//16 51//17 17//17
f  51//17 18//16 53//16
f  51//17 10//18 17//17
f  10//18 51//17 49//18
f  49//18 8//19 10//18
f  8//19 49//18 47//19
f  47//19 6//20 8//19
f  6//20 47//19 45//20
f  45//20 4//21 6//20
f  4//21 45//20 42//21
f  42//21 2//22 4//21
f  2//22 42//21 41//22
f  67//2 68//2 69//2
f  68//2 67//2 70//2
f  70//2 67//2 71//2
f  70//2 71//2 72//2
f  72//2 71//2 73//2
f  72//2 73//2 74//2
f  74//2 73//2 75//2
f  74//2 75//2 76//2
f  76//2 75//2 77//2
f  76//2 77//2 78//2
f  78//2 77//2 79//2
f  79//2 80//2 81//2
f  80//2 79//2 82//2
f  82//2 79//2 83//2
f  83//2 79//2 77//2
f  83//2 77//2 84//2
f  83//2 84//2 85//2
f  83//2 85//2 86//2
f  83//2 86//2 87//2
f  82//2 83//2 88//2
f  78//9 33//8 76//8
f  33//8 78//9 40//9
f  76//8 31//7 74//7
f  31//7 76//8 33//8
f  72//6 31//7 29//6
f  31//7 72//6 74//7
f  70//5 29//6 27//5
f  29//6 70//5 72//6
f  68//4 27//5 24//4
f  27//5 68//4 70//5
f  68//3 26//3 69//3
f  26//3 68//3 24//3
f  67//21 26//22 43//21
f  26//22 67//21 69//22
f  71//20 43//21 44//20
f  43//21 71//20 67//21
f  73//19 44//20 46//19
f  44//20 73//19 71//20
f  75//18 46//19 48//18
f  46//19 75//18 73//19
f  77//17 48//18 50//17
f  48//18 77//17 75//18
f  52//16 77//17 50//17
f  77//17 52//16 84//16
f  54//15 84//16 52//16
f  84//16 54//15 85//15
f  55//14 85//15 54//15
f  85//15 55//14 86//14
f  57//13 86//14 55//14
f  86//14 57//13 87//13
f  58//11 87//13 57//13
f  87//13 58//11 83//11
f  88//12 58//12 60//12
f  58//12 88//12 83//12
f  64//11 88//11 60//11
f  88//11 64//11 82//11
f  80//4 64//4 65//4
f  64//4 80//4 82//4
f  80//3 37//3 81//3
f  37//3 80//3 65//3
f  79//10 37//10 39//10
f  37//10 79//10 81//10
f  79//3 40//9 78//9
f  40//9 79//3 39//3

