# File produced by Open Asset Import Library (http://www.assimp.sf.net)
# (assimp v5.0.1588609223)

mtllib result.mtl

# 216 vertex positions
v  0.50000513 4.6666465 -0.24999972
v  -1.766688 4.0666709 -0.24999978
v  -1.766688 4.6666465 -0.24999972
v  -1.3666534 3.9999897 -0.24999979
v  -0.56668591 3.9333088 -0.24999981
v  -1.3666534 0.66665649 -0.25000018
v  0.36664331 3.9333088 -0.24999981
v  0.57083142 3.8949776 -0.24999981
v  0.7460357 4.6449804 -0.24999972
v  0.74333203 3.7799835 -0.24999982
v  0.8608247 3.6083221 -0.24999984
v  0.9708215 4.5799828 -0.24999972
v  0.89998877 3.3999889 -0.24999987
v  0.92083609 1.7833201 -0.25000006
v  0.96666968 1.5666708 -0.25000009
v  0.96666968 1.2999979 -0.25000012
v  0.36664331 2.8666687 -0.24999993
v  -0.56668591 2.1333313 -0.25
v  -0.56668591 2.8666687 -0.24999993
v  0.36664331 2.1333313 -0.25
v  0.57083142 2.905 -0.24999993
v  0.58749521 2.0916622 -0.25000003
v  0.74333203 3.019994 -0.24999991
v  0.78333533 1.9666544 -0.25000003
v  0.8608247 3.1916554 -0.24999988
v  -1.766688 0 -0.25000027
v  -1.766688 0.59997559 -0.25000021
v  0.36664331 0 -0.25000027
v  -0.56668591 0.7333374 -0.25000018
v  0.36664331 0.7333374 -0.25000018
v  0.58749521 0.77500659 -0.25000018
v  0.64332807 0.025000572 -0.25000027
v  0.78333533 0.90001422 -0.25000015
v  0.90000784 0.10000229 -0.25000027
v  0.92083609 1.0833486 -0.25000015
v  1.1366829 0.22500515 -0.25000024
v  1.1743625 4.4716535 -0.24999973
v  1.1666616 2.4866741 -0.24999997
v  1.4000002 2.6754284 -0.24999996
v  1.3566591 4.3199921 -0.24999975
v  1.5068737 4.1366625 -0.24999978
v  1.5666708 2.901675 -0.24999993
v  1.6141702 3.9333279 -0.24999981
v  1.6666731 3.1654136 -0.2499999
v  1.678548 3.7099886 -0.24999982
v  1.7000071 3.4666443 -0.24999985
v  1.3533529 0.40000916 -0.25000021
v  1.4083353 2.2833378 -0.25
v  1.534187 0.61042947 -0.25000021
v  1.6000112 2.0200093 -0.25000003
v  1.6633543 0.84168118 -0.25000018
v  1.7250189 1.7100143 -0.25000006
v  1.7408546 1.0937643 -0.25000015
v  1.766688 1.3666788 -0.25000012
v  -1.766688 0.59997553 0.099999785
v  -1.616688 0.47290915 0.099999785
v  -1.3666534 0.66665643 0.099999815
v  -1.616688 0.14999996 0.099999756
v  -1.2166533 0.53959 0.099999785
v  -1.3666534 3.9999897 0.1000002
v  -1.766688 4.0666709 0.1000002
v  -1.616688 4.193737 0.10000023
v  -1.766688 4.6666465 0.10000029
v  -1.2166533 4.1270561 0.10000023
v  -1.766688 -4.1723251e-08 0.099999726
v  0.36664331 -4.1723251e-08 0.099999726
v  0.35988033 0.14999996 0.099999756
v  0.61527979 0.17307726 0.099999756
v  0.64332807 0.025000531 0.099999726
v  0.84337199 0.23972565 0.099999756
v  0.90000784 0.10000224 0.099999726
v  1.0537568 0.35084304 0.099999756
v  1.1366829 0.22500511 0.099999756
v  1.2484857 0.50812519 0.099999785
v  1.3533529 0.40000913 0.099999785
v  1.4105896 0.69675076 0.099999815
v  1.534187 0.61042941 0.099999785
v  1.5246476 0.90095228 0.099999845
v  1.5929681 1.1231766 0.099999845
v  1.6633543 0.84168112 0.099999815
v  1.6158291 1.3646876 0.099999875
v  1.2978007 2.1803083 0.099999994
v  1.1666616 2.4866741 0.10000002
v  0.93096864 2.4889483 0.10000002
v  1.4083353 2.2833378 0.099999994
v  1.4678286 1.94672 0.099999964
v  1.6000112 2.0200093 0.099999964
v  1.5784975 1.6722823 0.099999934
v  1.7250189 1.7100143 0.099999934
v  1.7408546 1.0937643 0.099999845
v  1.766688 1.3666788 0.099999875
v  1.2906698 2.7799211 0.10000005
v  1.4000002 2.6754284 0.10000005
v  1.4337057 2.9740849 0.10000008
v  1.5666708 2.901675 0.10000008
v  1.5196747 3.2008133 0.10000011
v  1.5492772 3.4683216 0.10000014
v  -1.616688 4.5166464 0.10000026
v  0.50000513 4.6666465 0.10000029
v  0.49341333 4.5166464 0.10000026
v  0.71836483 4.4968367 0.10000026
v  0.7460357 4.6449804 0.10000029
v  0.91414273 4.4402266 0.10000026
v  0.9708215 4.5799828 0.10000026
v  1.0902802 4.3464823 0.10000023
v  1.1743625 4.4716535 0.10000026
v  1.2497126 4.2138424 0.10000023
v  1.3566591 4.3199921 0.10000023
v  1.3812662 4.053288 0.1000002
v  1.5068737 4.1366625 0.10000023
v  1.47431 3.8769634 0.1000002
v  1.5304011 3.6823716 0.10000017
v  1.6141702 3.9333279 0.1000002
v  1.6666731 3.1654136 0.10000011
v  1.678548 3.7099886 0.10000017
v  1.7000071 3.4666443 0.10000014
v  -0.56668591 2.8666687 0.10000005
v  0.36664331 2.8666687 0.10000005
v  0.57083142 2.905 0.10000008
v  0.74333203 3.019994 0.10000008
v  0.8608247 3.1916554 0.10000011
v  0.89998877 3.3999889 0.10000014
v  0.8608247 3.6083221 0.10000014
v  0.74333203 3.7799835 0.10000017
v  0.57083142 3.8949776 0.1000002
v  0.36664331 3.9333088 0.1000002
v  -0.56668591 3.9333088 0.1000002
v  0.96666968 1.5666708 0.099999905
v  0.96666968 1.2999979 0.099999875
v  0.92083609 1.7833201 0.099999934
v  0.78333533 1.9666544 0.099999964
v  0.58749521 2.0916622 0.099999964
v  0.36664331 2.1333313 0.099999994
v  -0.56668591 2.1333313 0.099999994
v  -0.56668591 0.73333734 0.099999815
v  0.36664331 0.73333734 0.099999815
v  0.58749521 0.77500653 0.099999815
v  0.78333533 0.90001416 0.099999845
v  0.92083609 1.0833486 0.099999845
v  -0.71668601 2.7166686 0.10000005
v  -0.71668601 4.0833087 0.1000002
v  0.38060081 2.7166686 0.10000005
v  0.6285764 2.7632201 0.10000005
v  0.85070598 2.9112985 0.10000008
v  1.0024167 3.1329536 0.10000011
v  0.38060081 4.0833087 0.1000002
v  0.6285764 4.0367575 0.1000002
v  0.85070598 3.8886793 0.1000002
v  1.0024167 3.6670239 0.10000017
v  1.0526162 3.3999889 0.10000014
v  -0.71668601 0.58333737 0.099999785
v  -0.71668601 2.2833314 0.099999994
v  0.38067019 0.58333737 0.099999785
v  0.64377844 0.63297927 0.099999815
v  0.88699639 0.78822875 0.099999815
v  1.0607268 1.0198692 0.099999845
v  1.0607268 1.8467995 0.099999934
v  1.1166698 1.5823638 0.099999905
v  1.1166698 1.2843049 0.099999875
v  0.38067019 2.2833314 0.099999994
v  0.64377844 2.2336893 0.099999994
v  0.88699639 2.07844 0.099999964
v  0.35988033 0.14999995 0.24999973
v  -1.616688 0.47290912 0.24999979
v  -1.616688 0.14999995 0.24999973
v  -1.2166533 0.53959 0.24999979
v  -0.71668601 0.58333737 0.24999979
v  -1.2166533 4.1270561 0.25000021
v  0.38067019 0.58333737 0.24999979
v  0.61527979 0.17307724 0.24999973
v  0.64377844 0.63297927 0.24999979
v  0.84337199 0.23972563 0.24999973
v  0.88699639 0.78822875 0.24999985
v  1.0537568 0.35084301 0.24999979
v  1.0607268 1.0198691 0.24999985
v  1.2484857 0.50812519 0.24999979
v  1.1166698 1.2843049 0.24999991
v  1.1166698 1.5823638 0.24999991
v  1.0607268 1.8467994 0.24999997
v  0.93096864 2.4889483 0.25000003
v  0.88699639 2.07844 0.24999997
v  1.2978007 2.1803083 0.24999997
v  1.4105896 0.69675076 0.24999979
v  1.4678286 1.9467199 0.24999997
v  1.5246476 0.90095228 0.24999985
v  1.5784975 1.6722822 0.24999991
v  1.5929681 1.1231766 0.24999985
v  1.6158291 1.3646874 0.24999991
v  0.38067019 2.2833314 0.25000003
v  -0.71668601 2.7166686 0.25000003
v  -0.71668601 2.2833314 0.25000003
v  0.38060081 2.7166686 0.25000003
v  0.6285764 2.7632201 0.25000009
v  0.64377844 2.2336893 0.24999997
v  0.85070598 2.9112985 0.25000009
v  1.0024167 3.1329536 0.25000009
v  1.2906698 2.7799211 0.25000009
v  1.0526162 3.3999889 0.25000015
v  1.0902802 4.3464823 0.25000027
v  1.2497126 4.2138424 0.25000021
v  1.3812662 4.053288 0.25000021
v  1.4337057 2.9740849 0.25000009
v  1.47431 3.8769634 0.25000021
v  1.5196747 3.2008133 0.25000009
v  1.5304011 3.6823716 0.25000015
v  1.5492772 3.4683216 0.25000015
v  -1.616688 4.5166464 0.25000027
v  -1.616688 4.193737 0.25000021
v  0.49341333 4.5166464 0.25000027
v  -0.71668601 4.0833087 0.25000021
v  0.38060081 4.0833087 0.25000021
v  0.6285764 4.0367575 0.25000021
v  0.71836483 4.4968367 0.25000027
v  0.85070598 3.8886793 0.25000021
v  0.91414273 4.4402266 0.25000027
v  1.0024167 3.6670239 0.25000015

# 0 UV coordinates

# 54 vertex normals
vn 0 1.1920929e-07 -1
vn 0 -1.1920929e-07 1
vn 0.99993807 -0.011126785 -1.3264161e-09
vn 0.97220677 -0.23412383 -2.7909735e-08
vn 0.87821877 -0.47825909 -5.7012926e-08
vn 0.72292012 -0.69093162 -8.2365467e-08
vn 0.62891877 -0.77747101 -9.2681766e-08
vn 0.64380467 0.76518989 9.1217743e-08
vn 0.7315048 0.68183631 8.1281222e-08
vn 0.87456542 0.48490748 5.7805476e-08
vn 0.96840495 0.24938297 2.9728767e-08
vn 0.99991292 0.013198997 1.573443e-09
vn 0.98079062 -0.19506356 -2.3253389e-08
vn 0.91956335 -0.39294183 -4.6842317e-08
vn 0.81984502 -0.57258552 -6.8257513e-08
vn 0.69623953 -0.7178095 -8.556956e-08
vn 0.55025554 -0.83499634 -9.9539321e-08
vn 0.37565559 -0.92675936 -1.1047833e-07
vn 0.18610755 -0.9825294 -1.1712663e-07
vn 0.045041203 -0.99898511 -1.1908831e-07
vn 0 -1 -1.1920929e-07
vn -1 0 0
vn -0.16441932 0.98639053 1.1758691e-07
vn -0.16441932 -0.98639053 -1.1758691e-07
vn 0 1 1.1920929e-07
vn 0.0439035 0.99903578 1.1909435e-07
vn 0.18360835 0.9829995 1.1718267e-07
vn 0.37582323 0.92669135 1.1047022e-07
vn 0.55761248 0.83010143 9.8955802e-08
vn 0.70974618 0.70445752 8.3977881e-08
vn 0.83316237 0.55302846 6.592613e-08
vn 0.92751187 0.37379375 4.4559687e-08
vn 0.98306471 0.18325868 2.1846137e-08
vn -0.092649944 0.99569875 1.1869654e-07
vn -0.37720042 0.92613167 1.104035e-07
vn -0.70276874 0.71141833 8.4807674e-08
vn -0.82521731 0.5648154 6.7331243e-08
vn -0.98278517 0.18475209 2.2024166e-08
vn -0.92375875 -0.38297489 -4.5654165e-08
vn -0.70276874 -0.71141833 -8.4807674e-08
vn -0.37720042 -0.92613167 -1.104035e-07
vn -0.092649944 -0.99569875 -1.1869654e-07
vn 1 0 0
vn -0.99457181 -0.10405257 -1.2404032e-08
vn -0.99457181 0.10405257 1.2404032e-08
vn -0.91062933 -0.41322416 -4.9260159e-08
vn -0.6799584 -0.73325074 -8.7410299e-08
vn -0.36841136 -0.92966288 -1.1082445e-07
vn -0.093106307 -0.99565619 -1.1869147e-07
vn -0.093106307 0.99565619 1.1869147e-07
vn -0.36841136 0.92966288 1.1082445e-07
vn -0.6799584 0.73325074 8.7410299e-08
vn -0.80000001 0.60000002 7.1525577e-08
vn -0.97834611 0.2069755 2.4673403e-08

# Mesh 'B' with 436 faces
g B
usemtl font
f  1//1 2//1 3//1
f  2//1 1//1 4//1
f  4//1 1//1 5//1
f  4//1 5//1 6//1
f  5//1 1//1 7//1
f  7//1 1//1 8//1
f  8//1 1//1 9//1
f  8//1 9//1 10//1
f  10//1 9//1 11//1
f  11//1 9//1 12//1
f  11//1 12//1 13//1
f  13//1 12//1 14//1
f  14//1 12//1 15//1
f  15//1 12//1 16//1
f  17//1 18//1 19//1
f  18//1 17//1 20//1
f  20//1 17//1 21//1
f  20//1 21//1 22//1
f  22//1 21//1 23//1
f  22//1 23//1 24//1
f  24//1 23//1 25//1
f  24//1 25//1 14//1
f  14//1 25//1 13//1
f  6//1 26//1 27//1
f  26//1 6//1 28//1
f  28//1 6//1 29//1
f  29//1 6//1 5//1
f  29//1 5//1 19//1
f  29//1 19//1 18//1
f  28//1 29//1 30//1
f  28//1 30//1 31//1
f  28//1 31//1 32//1
f  32//1 31//1 33//1
f  32//1 33//1 34//1
f  34//1 33//1 35//1
f  34//1 35//1 36//1
f  36//1 35//1 16//1
f  36//1 16//1 12//1
f  36//1 12//1 37//1
f  36//1 37//1 38//1
f  38//1 37//1 39//1
f  39//1 37//1 40//1
f  39//1 40//1 41//1
f  39//1 41//1 42//1
f  42//1 41//1 43//1
f  42//1 43//1 44//1
f  44//1 43//1 45//1
f  44//1 45//1 46//1
f  38//1 47//1 36//1
f  47//1 38//1 48//1
f  47//1 48//1 49//1
f  49//1 48//1 50//1
f  49//1 50//1 51//1
f  51//1 50//1 52//1
f  51//1 52//1 53//1
f  53//1 52//1 54//1
f  55//2 56//2 57//2
f  56//2 55//2 58//2
f  57//2 56//2 59//2
f  57//2 59//2 60//2
f  61//2 62//2 63//2
f  62//2 61//2 60//2
f  62//2 60//2 64//2
f  64//2 60//2 59//2
f  65//2 58//2 55//2
f  58//2 65//2 66//2
f  58//2 66//2 67//2
f  67//2 66//2 68//2
f  68//2 66//2 69//2
f  68//2 69//2 70//2
f  70//2 69//2 71//2
f  70//2 71//2 72//2
f  72//2 71//2 73//2
f  72//2 73//2 74//2
f  74//2 73//2 75//2
f  74//2 75//2 76//2
f  76//2 75//2 77//2
f  76//2 77//2 78//2
f  78//2 77//2 79//2
f  79//2 77//2 80//2
f  79//2 80//2 81//2
f  82//2 83//2 84//2
f  83//2 82//2 85//2
f  85//2 82//2 86//2
f  85//2 86//2 87//2
f  87//2 86//2 88//2
f  87//2 88//2 81//2
f  87//2 81//2 89//2
f  89//2 81//2 80//2
f  89//2 80//2 90//2
f  89//2 90//2 91//2
f  83//2 92//2 84//2
f  92//2 83//2 93//2
f  92//2 93//2 94//2
f  94//2 93//2 95//2
f  94//2 95//2 96//2
f  96//2 95//2 97//2
f  63//2 98//2 99//2
f  98//2 63//2 62//2
f  99//2 98//2 100//2
f  99//2 100//2 101//2
f  99//2 101//2 102//2
f  102//2 101//2 103//2
f  102//2 103//2 104//2
f  104//2 103//2 105//2
f  104//2 105//2 106//2
f  106//2 105//2 107//2
f  106//2 107//2 108//2
f  108//2 107//2 109//2
f  108//2 109//2 110//2
f  110//2 109//2 111//2
f  110//2 111//2 112//2
f  110//2 112//2 113//2
f  113//2 112//2 97//2
f  113//2 97//2 95//2
f  113//2 95//2 114//2
f  113//2 114//2 115//2
f  115//2 114//2 116//2
f  46//3 114//4 44//4
f  114//4 46//3 116//3
f  44//4 95//5 42//5
f  95//5 44//4 114//4
f  42//5 93//6 39//6
f  93//6 42//5 95//5
f  93//6 38//7 39//6
f  38//7 93//6 83//7
f  83//8 48//9 38//8
f  48//9 83//8 85//9
f  48//9 87//10 50//10
f  87//10 48//9 85//9
f  50//10 89//11 52//11
f  89//11 50//10 87//10
f  52//11 91//12 54//12
f  91//12 52//11 89//11
f  54//12 90//13 53//13
f  90//13 54//12 91//12
f  53//13 80//14 51//14
f  80//14 53//13 90//13
f  51//14 77//15 49//15
f  77//15 51//14 80//14
f  49//15 75//16 47//16
f  75//16 49//15 77//15
f  75//16 36//17 47//16
f  36//17 75//16 73//17
f  73//17 34//18 36//17
f  34//18 73//17 71//18
f  71//18 32//19 34//18
f  32//19 71//18 69//19
f  69//19 28//20 32//19
f  28//20 69//19 66//20
f  66//20 26//21 28//20
f  26//21 66//20 65//21
f  55//22 26//22 65//22
f  26//22 55//22 27//22
f  55//23 6//23 27//23
f  6//23 55//23 57//23
f  60//22 6//22 57//22
f  6//22 60//22 4//22
f  60//24 2//24 4//24
f  2//24 60//24 61//24
f  63//22 2//22 61//22
f  2//22 63//22 3//22
f  63//25 1//26 3//25
f  1//26 63//25 99//26
f  99//26 9//27 1//26
f  9//27 99//26 102//27
f  102//27 12//28 9//27
f  12//28 102//27 104//28
f  104//28 37//29 12//28
f  37//29 104//28 106//29
f  106//29 40//30 37//29
f  40//30 106//29 108//30
f  40//30 110//31 41//31
f  110//31 40//30 108//30
f  41//31 113//32 43//32
f  113//32 41//31 110//31
f  43//32 115//33 45//33
f  115//33 43//32 113//32
f  45//33 116//3 46//3
f  116//3 45//33 115//33
f  117//25 17//34 19//25
f  17//34 117//25 118//34
f  118//34 21//35 17//34
f  21//35 118//34 119//35
f  119//35 23//36 21//35
f  23//36 119//35 120//36
f  121//37 23//36 120//36
f  23//36 121//37 25//37
f  122//22 25//38 121//38
f  25//38 122//22 13//22
f  123//39 13//22 122//22
f  13//22 123//39 11//39
f  124//40 11//39 123//39
f  11//39 124//40 10//40
f  124//40 8//41 10//40
f  8//41 124//40 125//41
f  125//41 7//42 8//41
f  7//42 125//41 126//42
f  126//42 5//21 7//42
f  5//21 126//42 127//21
f  5//43 117//43 19//43
f  117//43 5//43 127//43
f  128//44 16//45 129//45
f  16//45 128//44 15//44
f  130//46 15//44 128//44
f  15//44 130//46 14//46
f  131//47 14//46 130//46
f  14//46 131//47 24//47
f  131//47 22//48 24//47
f  22//48 131//47 132//48
f  132//48 20//49 22//48
f  20//49 132//48 133//49
f  133//49 18//21 20//49
f  18//21 133//49 134//21
f  18//43 135//43 29//43
f  135//43 18//43 134//43
f  135//25 30//50 29//25
f  30//50 135//25 136//50
f  136//50 31//51 30//50
f  31//51 136//50 137//51
f  137//51 33//52 31//51
f  33//52 137//51 138//52
f  139//53 33//52 138//52
f  33//52 139//53 35//53
f  129//45 35//54 139//54
f  35//54 129//45 16//45
f  140//2 117//2 141//2
f  117//2 140//2 142//2
f  117//2 142//2 118//2
f  118//2 142//2 119//2
f  119//2 142//2 143//2
f  119//2 143//2 120//2
f  120//2 143//2 144//2
f  120//2 144//2 121//2
f  121//2 144//2 145//2
f  121//2 145//2 122//2
f  141//2 127//2 146//2
f  127//2 141//2 117//2
f  146//2 127//2 126//2
f  146//2 126//2 125//2
f  146//2 125//2 147//2
f  147//2 125//2 124//2
f  147//2 124//2 148//2
f  148//2 124//2 123//2
f  148//2 123//2 149//2
f  149//2 123//2 122//2
f  149//2 122//2 145//2
f  149//2 145//2 150//2
f  151//2 135//2 152//2
f  135//2 151//2 153//2
f  135//2 153//2 136//2
f  136//2 153//2 137//2
f  137//2 153//2 154//2
f  137//2 154//2 138//2
f  138//2 154//2 155//2
f  138//2 155//2 139//2
f  139//2 155//2 156//2
f  139//2 156//2 129//2
f  129//2 156//2 128//2
f  128//2 156//2 157//2
f  157//2 156//2 158//2
f  158//2 156//2 159//2
f  152//2 134//2 160//2
f  134//2 152//2 135//2
f  160//2 134//2 133//2
f  160//2 133//2 132//2
f  160//2 132//2 161//2
f  161//2 132//2 131//2
f  161//2 131//2 162//2
f  162//2 131//2 130//2
f  162//2 130//2 157//2
f  157//2 130//2 128//2
f  163//2 164//2 165//2
f  164//2 163//2 166//2
f  166//2 163//2 167//2
f  166//2 167//2 168//2
f  167//2 163//2 169//2
f  169//2 163//2 170//2
f  169//2 170//2 171//2
f  171//2 170//2 172//2
f  171//2 172//2 173//2
f  173//2 172//2 174//2
f  173//2 174//2 175//2
f  175//2 174//2 176//2
f  175//2 176//2 177//2
f  177//2 176//2 178//2
f  179//2 180//2 181//2
f  180//2 179//2 182//2
f  182//2 179//2 178//2
f  182//2 178//2 176//2
f  182//2 176//2 183//2
f  182//2 183//2 184//2
f  184//2 183//2 185//2
f  184//2 185//2 186//2
f  186//2 185//2 187//2
f  186//2 187//2 188//2
f  189//2 190//2 191//2
f  190//2 189//2 192//2
f  192//2 189//2 193//2
f  193//2 189//2 194//2
f  193//2 194//2 195//2
f  195//2 194//2 181//2
f  195//2 181//2 180//2
f  195//2 180//2 196//2
f  196//2 180//2 197//2
f  196//2 197//2 198//2
f  198//2 197//2 199//2
f  199//2 197//2 200//2
f  200//2 197//2 201//2
f  201//2 197//2 202//2
f  201//2 202//2 203//2
f  203//2 202//2 204//2
f  203//2 204//2 205//2
f  205//2 204//2 206//2
f  168//2 207//2 208//2
f  207//2 168//2 209//2
f  209//2 168//2 210//2
f  210//2 168//2 167//2
f  210//2 167//2 191//2
f  210//2 191//2 190//2
f  209//2 210//2 211//2
f  209//2 211//2 212//2
f  209//2 212//2 213//2
f  213//2 212//2 214//2
f  213//2 214//2 215//2
f  215//2 214//2 216//2
f  215//2 216//2 199//2
f  199//2 216//2 198//2
f  164//23 59//23 56//23
f  59//23 164//23 166//23
f  164//22 58//22 165//22
f  58//22 164//22 56//22
f  163//20 58//21 67//20
f  58//21 163//20 165//21
f  170//19 67//20 68//19
f  67//20 170//19 163//20
f  172//18 68//19 70//18
f  68//19 172//18 170//19
f  174//17 70//18 72//17
f  70//18 174//17 172//18
f  176//16 72//17 74//16
f  72//17 176//16 174//17
f  76//15 176//16 74//16
f  176//16 76//15 183//15
f  78//14 183//15 76//15
f  183//15 78//14 185//14
f  79//13 185//14 78//14
f  185//14 79//13 187//13
f  81//12 187//13 79//13
f  187//13 81//12 188//12
f  88//11 188//12 81//12
f  188//12 88//11 186//11
f  86//10 186//11 88//11
f  186//11 86//10 184//10
f  82//9 184//10 86//10
f  184//10 82//9 182//9
f  180//8 82//9 84//8
f  82//9 180//8 182//9
f  197//6 84//7 92//6
f  84//7 197//6 180//7
f  94//5 197//6 92//6
f  197//6 94//5 202//5
f  96//4 202//5 94//5
f  202//5 96//4 204//4
f  97//3 204//4 96//4
f  204//4 97//3 206//3
f  112//33 206//3 97//3
f  206//3 112//33 205//33
f  111//32 205//33 112//33
f  205//33 111//32 203//32
f  109//31 203//32 111//32
f  203//32 109//31 201//31
f  107//30 201//31 109//31
f  201//31 107//30 200//30
f  199//29 107//30 105//29
f  107//30 199//29 200//30
f  215//28 105//29 103//28
f  105//29 215//28 199//29
f  213//27 103//28 101//27
f  103//28 213//27 215//28
f  209//26 101//27 100//26
f  101//27 209//26 213//27
f  207//25 100//26 98//25
f  100//26 207//25 209//26
f  207//22 62//22 208//22
f  62//22 207//22 98//22
f  168//24 62//24 64//24
f  62//24 168//24 208//24
f  168//22 59//22 166//22
f  59//22 168//22 64//22
f  214//40 147//41 148//40
f  147//41 214//40 212//41
f  214//40 149//39 216//39
f  149//39 214//40 148//40
f  216//39 150//22 198//22
f  150//22 216//39 149//39
f  198//22 145//38 196//38
f  145//38 198//22 150//22
f  196//37 144//36 195//36
f  144//36 196//37 145//37
f  193//35 144//36 143//35
f  144//36 193//35 195//36
f  192//34 143//35 142//34
f  143//35 192//34 193//35
f  190//25 142//34 140//25
f  142//34 190//25 192//34
f  141//43 190//43 140//43
f  190//43 141//43 210//43
f  211//42 141//21 146//42
f  141//21 211//42 210//21
f  212//41 146//42 147//41
f  146//42 212//41 211//42
f  194//48 160//49 161//48
f  160//49 194//48 189//49
f  181//47 161//48 162//47
f  161//48 181//47 194//48
f  181//47 157//46 179//46
f  157//46 181//47 162//47
f  179//46 158//44 178//44
f  158//44 179//46 157//46
f  178//44 159//45 177//45
f  159//45 178//44 158//44
f  177//45 156//54 175//54
f  156//54 177//45 159//45
f  175//53 155//52 173//52
f  155//52 175//53 156//53
f  171//51 155//52 154//51
f  155//52 171//51 173//52
f  169//50 154//51 153//50
f  154//51 169//50 171//51
f  167//25 153//50 151//25
f  153//50 167//25 169//50
f  152//43 167//43 151//43
f  167//43 152//43 191//43
f  189//49 152//21 160//49
f  152//21 189//49 191//21

