# File produced by Open Asset Import Library (http://www.assimp.sf.net)
# (assimp v5.0.1588609223)

mtllib result.mtl

# 96 vertex positions
v  1.6333517 4.6666465 -0.24999972
v  -1.6333517 4.0666709 -0.24999978
v  -1.6333517 4.6666465 -0.24999972
v  -1.2333171 3.9999897 -0.24999979
v  -0.43334961 3.9333088 -0.24999981
v  -1.2333171 0.66665649 -0.25000018
v  0.96669519 3.9333088 -0.24999981
v  1.0333251 3.5333252 -0.24999985
v  1.6333517 3.5333252 -0.24999985
v  0.70002234 2.8666687 -0.24999993
v  -0.43334961 2.1333313 -0.25
v  -0.43334961 2.8666687 -0.24999993
v  0.70002234 2.1333313 -0.25
v  0.76665246 3.1333416 -0.2499999
v  0.76665246 1.7333475 -0.25000006
v  1.3666788 3.1333416 -0.2499999
v  1.3666788 1.7333475 -0.25000006
v  -1.6333517 0 -0.25000027
v  -1.6333517 0.59997559 -0.25000021
v  1.6333517 0 -0.25000027
v  -0.43334961 0.7333374 -0.25000018
v  0.96669519 0.7333374 -0.25000018
v  1.0333251 1.2000021 -0.25000012
v  1.6333517 1.2000021 -0.25000012
v  -1.6333517 0.59997553 0.099999785
v  -1.4833517 0.47290915 0.099999785
v  -1.2333171 0.66665643 0.099999815
v  -1.4833517 0.14999996 0.099999756
v  -1.083317 0.53959 0.099999785
v  -1.2333171 3.9999897 0.1000002
v  -1.6333517 4.0666709 0.1000002
v  -1.4833517 4.193737 0.10000023
v  -1.6333517 4.6666465 0.10000029
v  -1.083317 4.1270561 0.10000023
v  -1.6333517 -4.1723251e-08 0.099999726
v  1.6333517 -4.1723251e-08 0.099999726
v  1.4833516 0.14999996 0.099999756
v  1.4833516 1.050002 0.099999845
v  -0.5833497 0.58333737 0.099999785
v  -0.43334961 0.73333734 0.099999815
v  -0.5833497 2.2833314 0.099999994
v  1.0967995 0.58333737 0.099999785
v  0.96669519 0.73333734 0.099999815
v  1.0333251 1.2000021 0.099999875
v  1.1634294 1.050002 0.099999845
v  1.6333517 1.2000021 0.099999875
v  -0.43334961 2.1333313 0.099999994
v  0.82710207 2.2833314 0.099999994
v  0.70002234 2.1333313 0.099999994
v  0.76665246 1.7333475 0.099999934
v  0.89373219 1.8833476 0.099999964
v  1.3666788 1.7333475 0.099999934
v  1.2166787 1.8833476 0.099999964
v  1.2166787 2.9833415 0.10000008
v  -0.5833497 2.7166686 0.10000005
v  -0.43334961 2.8666687 0.10000005
v  -0.5833497 4.0833087 0.1000002
v  0.817155 2.7166686 0.10000005
v  0.70002234 2.8666687 0.10000005
v  0.76665246 3.1333416 0.10000011
v  0.88378513 2.9833415 0.10000008
v  1.3666788 3.1333416 0.10000011
v  -0.43334961 3.9333088 0.1000002
v  1.0937749 4.0833087 0.1000002
v  0.96669519 3.9333088 0.1000002
v  1.0333251 3.5333252 0.10000014
v  1.1604048 3.6833253 0.10000017
v  1.6333517 3.5333252 0.10000014
v  1.4833516 3.6833253 0.10000017
v  1.4833516 4.5166464 0.10000026
v  -1.4833517 4.5166464 0.10000026
v  1.6333517 4.6666465 0.10000029
v  1.4833516 0.14999995 0.24999973
v  -1.4833517 0.47290912 0.24999979
v  -1.4833517 0.14999995 0.24999973
v  -1.083317 0.53959 0.24999979
v  -0.5833497 0.58333737 0.24999979
v  -1.083317 4.1270561 0.25000021
v  1.0967995 0.58333737 0.24999979
v  1.1634294 1.0500019 0.24999985
v  1.4833516 1.0500019 0.24999985
v  0.82710207 2.2833314 0.25000003
v  -0.5833497 2.7166686 0.25000003
v  -0.5833497 2.2833314 0.25000003
v  0.817155 2.7166686 0.25000003
v  0.88378513 2.9833415 0.25000009
v  0.89373219 1.8833475 0.24999997
v  1.2166787 2.9833415 0.25000009
v  1.2166787 1.8833475 0.24999997
v  -1.4833517 4.5166464 0.25000027
v  -1.4833517 4.193737 0.25000021
v  1.4833516 4.5166464 0.25000027
v  -0.5833497 4.0833087 0.25000021
v  1.0937749 4.0833087 0.25000021
v  1.1604048 3.6833253 0.25000015
v  1.4833516 3.6833253 0.25000015

# 0 UV coordinates

# 11 vertex normals
vn 0 1.1920929e-07 -1
vn 0 -1.1920929e-07 1
vn -1 0 0
vn 0 1 1.1920929e-07
vn 1 0 0
vn 0 -1 -1.1920929e-07
vn -0.98640746 -0.16431762 -1.9588187e-08
vn -0.97017515 0.24240501 2.8896929e-08
vn -0.98996025 0.14134583 1.6849736e-08
vn -0.16441932 0.98639053 1.1758691e-07
vn -0.16441932 -0.98639053 -1.1758691e-07

# Mesh 'E' with 188 faces
g E
usemtl font
f  1//1 2//1 3//1
f  2//1 1//1 4//1
f  4//1 1//1 5//1
f  4//1 5//1 6//1
f  5//1 1//1 7//1
f  7//1 1//1 8//1
f  8//1 1//1 9//1
f  10//1 11//1 12//1
f  11//1 10//1 13//1
f  13//1 10//1 14//1
f  13//1 14//1 15//1
f  15//1 14//1 16//1
f  15//1 16//1 17//1
f  6//1 18//1 19//1
f  18//1 6//1 20//1
f  20//1 6//1 21//1
f  21//1 6//1 5//1
f  21//1 5//1 12//1
f  21//1 12//1 11//1
f  20//1 21//1 22//1
f  20//1 22//1 23//1
f  20//1 23//1 24//1
f  25//2 26//2 27//2
f  26//2 25//2 28//2
f  27//2 26//2 29//2
f  27//2 29//2 30//2
f  31//2 32//2 33//2
f  32//2 31//2 30//2
f  32//2 30//2 34//2
f  34//2 30//2 29//2
f  35//2 28//2 25//2
f  28//2 35//2 36//2
f  28//2 36//2 37//2
f  37//2 36//2 38//2
f  39//2 40//2 41//2
f  40//2 39//2 42//2
f  40//2 42//2 43//2
f  43//2 42//2 44//2
f  44//2 42//2 45//2
f  44//2 45//2 46//2
f  46//2 45//2 38//2
f  46//2 38//2 36//2
f  41//2 47//2 48//2
f  47//2 41//2 40//2
f  48//2 47//2 49//2
f  48//2 49//2 50//2
f  48//2 50//2 51//2
f  51//2 50//2 52//2
f  51//2 52//2 53//2
f  53//2 52//2 54//2
f  55//2 56//2 57//2
f  56//2 55//2 58//2
f  56//2 58//2 59//2
f  59//2 58//2 60//2
f  60//2 58//2 61//2
f  60//2 61//2 62//2
f  62//2 61//2 54//2
f  62//2 54//2 52//2
f  57//2 63//2 64//2
f  63//2 57//2 56//2
f  64//2 63//2 65//2
f  64//2 65//2 66//2
f  64//2 66//2 67//2
f  67//2 66//2 68//2
f  67//2 68//2 69//2
f  69//2 68//2 70//2
f  33//2 71//2 72//2
f  71//2 33//2 32//2
f  72//2 71//2 70//2
f  72//2 70//2 68//2
f  33//3 2//3 31//3
f  2//3 33//3 3//3
f  33//4 1//4 3//4
f  1//4 33//4 72//4
f  1//5 68//5 9//5
f  68//5 1//5 72//5
f  68//6 8//6 9//6
f  8//6 68//6 66//6
f  65//7 8//7 66//7
f  8//7 65//7 7//7
f  65//6 5//6 7//6
f  5//6 65//6 63//6
f  5//5 56//5 12//5
f  56//5 5//5 63//5
f  56//4 10//4 12//4
f  10//4 56//4 59//4
f  60//8 10//8 59//8
f  10//8 60//8 14//8
f  60//4 16//4 14//4
f  16//4 60//4 62//4
f  16//5 52//5 17//5
f  52//5 16//5 62//5
f  52//6 15//6 17//6
f  15//6 52//6 50//6
f  49//7 15//7 50//7
f  15//7 49//7 13//7
f  49//6 11//6 13//6
f  11//6 49//6 47//6
f  11//5 40//5 21//5
f  40//5 11//5 47//5
f  40//4 22//4 21//4
f  22//4 40//4 43//4
f  44//9 22//9 43//9
f  22//9 44//9 23//9
f  44//4 24//4 23//4
f  24//4 44//4 46//4
f  24//5 36//5 20//5
f  36//5 24//5 46//5
f  36//6 18//6 20//6
f  18//6 36//6 35//6
f  25//3 18//3 35//3
f  18//3 25//3 19//3
f  25//10 6//10 19//10
f  6//10 25//10 27//10
f  30//3 6//3 27//3
f  6//3 30//3 4//3
f  30//11 2//11 4//11
f  2//11 30//11 31//11
f  73//2 74//2 75//2
f  74//2 73//2 76//2
f  76//2 73//2 77//2
f  76//2 77//2 78//2
f  77//2 73//2 79//2
f  79//2 73//2 80//2
f  80//2 73//2 81//2
f  82//2 83//2 84//2
f  83//2 82//2 85//2
f  85//2 82//2 86//2
f  86//2 82//2 87//2
f  86//2 87//2 88//2
f  88//2 87//2 89//2
f  78//2 90//2 91//2
f  90//2 78//2 92//2
f  92//2 78//2 93//2
f  93//2 78//2 77//2
f  93//2 77//2 84//2
f  93//2 84//2 83//2
f  92//2 93//2 94//2
f  92//2 94//2 95//2
f  92//2 95//2 96//2
f  90//3 32//3 91//3
f  32//3 90//3 71//3
f  78//11 32//11 34//11
f  32//11 78//11 91//11
f  78//3 29//3 76//3
f  29//3 78//3 34//3
f  74//10 29//10 26//10
f  29//10 74//10 76//10
f  74//3 28//3 75//3
f  28//3 74//3 26//3
f  73//6 28//6 37//6
f  28//6 73//6 75//6
f  38//5 73//5 37//5
f  73//5 38//5 81//5
f  80//4 38//4 45//4
f  38//4 80//4 81//4
f  80//9 42//9 79//9
f  42//9 80//9 45//9
f  77//4 42//4 39//4
f  42//4 77//4 79//4
f  41//5 77//5 39//5
f  77//5 41//5 84//5
f  82//6 41//6 48//6
f  41//6 82//6 84//6
f  82//7 51//7 87//7
f  51//7 82//7 48//7
f  89//6 51//6 53//6
f  51//6 89//6 87//6
f  54//5 89//5 53//5
f  89//5 54//5 88//5
f  86//4 54//4 61//4
f  54//4 86//4 88//4
f  86//8 58//8 85//8
f  58//8 86//8 61//8
f  83//4 58//4 55//4
f  58//4 83//4 85//4
f  57//5 83//5 55//5
f  83//5 57//5 93//5
f  94//6 57//6 64//6
f  57//6 94//6 93//6
f  94//7 67//7 95//7
f  67//7 94//7 64//7
f  96//6 67//6 69//6
f  67//6 96//6 95//6
f  70//5 96//5 69//5
f  96//5 70//5 92//5
f  90//4 70//4 71//4
f  70//4 90//4 92//4

