# File produced by Open Asset Import Library (http://www.assimp.sf.net)
# (assimp v5.0.1588609223)

mtllib result.mtl

# 112 vertex positions
v  -0.43329883 4.6666465 -0.24999972
v  -2.0333354 4.0666709 -0.24999978
v  -2.0333354 4.6666465 -0.24999972
v  -1.6333009 3.9999897 -0.24999979
v  -0.83333337 3.9999897 -0.24999979
v  -1.6333009 0.66665649 -0.25000018
v  -0.43329883 4.0666709 -0.24999978
v  2.0333354 4.6666465 -0.24999972
v  0.43334961 4.0666709 -0.24999978
v  0.43334961 4.6666465 -0.24999972
v  0.83333325 3.9999897 -0.24999979
v  0.83333325 2.8666687 -0.24999993
v  1.6333516 3.9999897 -0.24999979
v  0.83333325 2.1333313 -0.25
v  0.83333325 0.66665649 -0.25000018
v  2.0333354 4.0666709 -0.24999978
v  0.43334961 7.464389e-39 -0.25000027
v  0.43334961 0.59997559 -0.25000021
v  2.0333354 7.464389e-39 -0.25000027
v  1.6333516 0.66665649 -0.25000018
v  2.0333354 0.59997559 -0.25000021
v  -0.83333337 2.1333313 -0.25
v  -0.83333337 2.8666687 -0.24999993
v  -2.0333354 7.464389e-39 -0.25000027
v  -2.0333354 0.59997559 -0.25000021
v  -0.43329883 7.464389e-39 -0.25000027
v  -0.83333337 0.66665649 -0.25000018
v  -0.43329883 0.59997559 -0.25000021
v  -2.0333354 0.59997553 0.099999785
v  -1.8833355 0.47290915 0.099999785
v  -1.6333009 0.66665643 0.099999815
v  -1.8833355 0.14999996 0.099999756
v  -1.4833009 0.53959 0.099999785
v  -1.6333009 3.9999897 0.1000002
v  -2.0333354 4.0666709 0.1000002
v  -1.8833355 4.193737 0.10000023
v  -2.0333354 4.6666465 0.10000029
v  -1.4833009 4.1270561 0.10000023
v  -0.98333347 2.7166686 0.10000005
v  -0.83333337 2.8666687 0.10000005
v  -0.98333347 4.1270561 0.10000023
v  0.98333335 2.7166686 0.10000005
v  0.83333325 2.8666687 0.10000005
v  0.83333325 3.9999897 0.1000002
v  0.43334961 4.0666709 0.1000002
v  0.58334947 4.1937346 0.10000023
v  0.43334961 4.6666465 0.10000029
v  0.98333335 4.1270537 0.10000023
v  0.43334961 0.59997553 0.099999785
v  0.58334947 0.4729118 0.099999785
v  0.83333325 0.66665643 0.099999815
v  0.58334947 0.14999996 0.099999756
v  0.98333335 0.53959268 0.099999785
v  0.83333325 2.1333313 0.099999994
v  -0.98333347 2.2833314 0.099999994
v  -0.83333337 2.1333313 0.099999994
v  0.98333335 2.2833314 0.099999994
v  -0.83333337 0.66665643 0.099999815
v  -2.0333354 -4.1723251e-08 0.099999726
v  -0.43329883 -4.1723251e-08 0.099999726
v  -0.5832988 0.14999996 0.099999756
v  -0.5832988 0.47290915 0.099999785
v  -0.98333347 0.53959 0.099999785
v  -0.43329883 0.59997553 0.099999785
v  0.43334961 -4.1723251e-08 0.099999726
v  2.0333354 -4.1723251e-08 0.099999726
v  1.8833354 0.14999996 0.099999756
v  1.8833354 0.4729118 0.099999785
v  1.4833515 0.53959268 0.099999785
v  1.6333516 0.66665643 0.099999815
v  1.4833515 4.1270537 0.10000023
v  2.0333354 0.59997553 0.099999785
v  1.6333516 3.9999897 0.1000002
v  1.8833354 4.1937346 0.10000023
v  2.0333354 4.0666709 0.1000002
v  1.8833354 4.5166464 0.10000026
v  0.58334947 4.5166464 0.10000026
v  2.0333354 4.6666465 0.10000029
v  -0.83333337 3.9999897 0.1000002
v  -0.5832988 4.193737 0.10000023
v  -0.43329883 4.0666709 0.1000002
v  -0.5832988 4.5166464 0.10000026
v  -1.8833355 4.5166464 0.10000026
v  -0.43329883 4.6666465 0.10000029
v  -0.5832988 0.14999995 0.24999973
v  -1.8833355 0.47290912 0.24999979
v  -1.8833355 0.14999995 0.24999973
v  -1.4833009 0.53959 0.24999979
v  -0.98333347 0.53959 0.24999979
v  -1.4833009 4.1270561 0.25000021
v  -0.5832988 0.47290912 0.24999979
v  1.8833354 0.14999995 0.24999973
v  0.58334947 0.47291178 0.24999979
v  0.58334947 0.14999995 0.24999973
v  0.98333335 0.53959268 0.24999979
v  1.4833515 0.53959268 0.24999979
v  0.98333335 2.2833314 0.25000003
v  0.98333335 2.7166686 0.25000003
v  0.98333335 4.1270537 0.25000021
v  1.8833354 0.47291178 0.24999979
v  0.58334947 4.5166464 0.25000027
v  0.58334947 4.1937346 0.25000021
v  1.8833354 4.5166464 0.25000027
v  1.4833515 4.1270537 0.25000021
v  1.8833354 4.1937346 0.25000021
v  -0.98333347 2.7166686 0.25000003
v  -0.98333347 2.2833314 0.25000003
v  -1.8833355 4.5166464 0.25000027
v  -1.8833355 4.193737 0.25000021
v  -0.5832988 4.5166464 0.25000027
v  -0.98333347 4.1270561 0.25000021
v  -0.5832988 4.193737 0.25000021

# 0 UV coordinates

# 17 vertex normals
vn 0 1.1920929e-07 -1
vn 0 -1.1920929e-07 1
vn -1 0 0
vn 0 1 1.1920929e-07
vn 1 0 0
vn 0.16443966 -0.98638713 -1.1758651e-07
vn 0.16443966 0.98638713 1.1758651e-07
vn 0 -1 -1.1920929e-07
vn -0.16443966 0.98638713 1.1758651e-07
vn 0.16441932 0.98639053 1.1758691e-07
vn -0.16441932 0.98639053 1.1758691e-07
vn -0.16441932 -0.98639053 -1.1758691e-07
vn 0.16441932 -0.98639053 -1.1758691e-07
vn -0.16443966 -0.98638713 -1.1758651e-07
vn -1.6694283e-32 -1.1920929e-07 1
vn -1 1.9901129e-39 -1.6694283e-32
vn 1 -1.9901129e-39 1.6694283e-32

# Mesh 'H' with 220 faces
g H
usemtl font
f  1//1 2//1 3//1
f  2//1 1//1 4//1
f  4//1 1//1 5//1
f  4//1 5//1 6//1
f  5//1 1//1 7//1
f  8//1 9//1 10//1
f  9//1 8//1 11//1
f  11//1 8//1 12//1
f  12//1 8//1 13//1
f  12//1 13//1 14//1
f  14//1 13//1 15//1
f  13//1 8//1 16//1
f  15//1 17//1 18//1
f  17//1 15//1 19//1
f  19//1 15//1 20//1
f  20//1 15//1 13//1
f  19//1 20//1 21//1
f  12//1 22//1 23//1
f  22//1 12//1 14//1
f  6//1 24//1 25//1
f  24//1 6//1 26//1
f  26//1 6//1 27//1
f  27//1 6//1 5//1
f  27//1 5//1 23//1
f  27//1 23//1 22//1
f  26//1 27//1 28//1
f  29//2 30//2 31//2
f  30//2 29//2 32//2
f  31//2 30//2 33//2
f  31//2 33//2 34//2
f  35//2 36//2 37//2
f  36//2 35//2 34//2
f  36//2 34//2 38//2
f  38//2 34//2 33//2
f  39//2 40//2 41//2
f  40//2 39//2 42//2
f  40//2 42//2 43//2
f  43//2 42//2 44//2
f  45//2 46//2 47//2
f  46//2 45//2 44//2
f  46//2 44//2 48//2
f  48//2 44//2 42//2
f  49//2 50//2 51//2
f  50//2 49//2 52//2
f  51//2 50//2 53//2
f  51//2 53//2 54//2
f  55//2 56//2 57//2
f  56//2 55//2 58//2
f  57//2 56//2 54//2
f  57//2 54//2 53//2
f  59//2 32//2 29//2
f  32//2 59//2 60//2
f  32//2 60//2 61//2
f  61//2 60//2 62//2
f  63//2 58//2 55//2
f  58//2 63//2 62//2
f  58//2 62//2 64//2
f  64//2 62//2 60//2
f  65//2 52//2 49//2
f  52//2 65//2 66//2
f  52//2 66//2 67//2
f  67//2 66//2 68//2
f  69//2 70//2 71//2
f  70//2 69//2 68//2
f  70//2 68//2 72//2
f  72//2 68//2 66//2
f  71//2 73//2 74//2
f  73//2 71//2 70//2
f  74//2 73//2 75//2
f  74//2 75//2 76//2
f  47//2 77//2 78//2
f  77//2 47//2 46//2
f  78//2 77//2 76//2
f  78//2 76//2 75//2
f  41//2 79//2 80//2
f  79//2 41//2 40//2
f  80//2 79//2 81//2
f  80//2 81//2 82//2
f  37//2 83//2 84//2
f  83//2 37//2 36//2
f  84//2 83//2 82//2
f  84//2 82//2 81//2
f  47//3 9//3 45//3
f  9//3 47//3 10//3
f  47//4 8//4 10//4
f  8//4 47//4 78//4
f  8//5 75//5 16//5
f  75//5 8//5 78//5
f  75//6 13//6 16//6
f  13//6 75//6 73//6
f  13//5 70//5 20//5
f  70//5 13//5 73//5
f  70//7 21//7 20//7
f  21//7 70//7 72//7
f  21//5 66//5 19//5
f  66//5 21//5 72//5
f  66//8 17//8 19//8
f  17//8 66//8 65//8
f  49//3 17//3 65//3
f  17//3 49//3 18//3
f  49//9 15//9 18//9
f  15//9 49//9 51//9
f  54//3 15//3 51//3
f  15//3 54//3 14//3
f  54//8 22//8 14//8
f  22//8 54//8 56//8
f  22//5 58//5 27//5
f  58//5 22//5 56//5
f  58//10 28//10 27//10
f  28//10 58//10 64//10
f  28//5 60//5 26//5
f  60//5 28//5 64//5
f  60//8 24//8 26//8
f  24//8 60//8 59//8
f  29//3 24//3 59//3
f  24//3 29//3 25//3
f  29//11 6//11 25//11
f  6//11 29//11 31//11
f  34//3 6//3 31//3
f  6//3 34//3 4//3
f  34//12 2//12 4//12
f  2//12 34//12 35//12
f  37//3 2//3 35//3
f  2//3 37//3 3//3
f  37//4 1//4 3//4
f  1//4 37//4 84//4
f  1//5 81//5 7//5
f  81//5 1//5 84//5
f  81//13 5//13 7//13
f  5//13 81//13 79//13
f  5//5 40//5 23//5
f  40//5 5//5 79//5
f  40//4 12//4 23//4
f  12//4 40//4 43//4
f  44//3 12//3 43//3
f  12//3 44//3 11//3
f  44//14 9//14 11//14
f  9//14 44//14 45//14
f  85//15 86//15 87//15
f  86//15 85//15 88//15
f  88//15 85//15 89//15
f  88//15 89//15 90//15
f  89//15 85//15 91//15
f  92//15 93//15 94//15
f  93//15 92//15 95//15
f  95//15 92//15 96//15
f  95//15 96//15 97//15
f  97//15 96//15 98//15
f  98//15 96//15 99//15
f  96//15 92//15 100//15
f  99//15 101//15 102//15
f  101//15 99//15 103//15
f  103//15 99//15 104//15
f  104//15 99//15 96//15
f  103//15 104//15 105//15
f  97//15 106//15 107//15
f  106//15 97//15 98//15
f  90//15 108//15 109//15
f  108//15 90//15 110//15
f  110//15 90//15 111//15
f  111//15 90//15 89//15
f  111//15 89//15 107//15
f  111//15 107//15 106//15
f  110//15 111//15 112//15
f  99//16 42//16 98//16
f  42//16 99//16 48//16
f  106//4 42//4 39//4
f  42//4 106//4 98//4
f  41//17 106//17 39//17
f  106//17 41//17 111//17
f  112//13 41//13 80//13
f  41//13 112//13 111//13
f  82//17 112//17 80//17
f  112//17 82//17 110//17
f  108//4 82//4 83//4
f  82//4 108//4 110//4
f  108//16 36//16 109//16
f  36//16 108//16 83//16
f  90//12 36//12 38//12
f  36//12 90//12 109//12
f  90//16 33//16 88//16
f  33//16 90//16 38//16
f  86//11 33//11 30//11
f  33//11 86//11 88//11
f  86//16 32//16 87//16
f  32//16 86//16 30//16
f  85//8 32//8 61//8
f  32//8 85//8 87//8
f  62//17 85//17 61//17
f  85//17 62//17 91//17
f  89//10 62//10 63//10
f  62//10 89//10 91//10
f  55//17 89//17 63//17
f  89//17 55//17 107//17
f  97//8 55//8 57//8
f  55//8 97//8 107//8
f  97//16 53//16 95//16
f  53//16 97//16 57//16
f  93//9 53//9 50//9
f  53//9 93//9 95//9
f  93//16 52//16 94//16
f  52//16 93//16 50//16
f  92//8 52//8 67//8
f  52//8 92//8 94//8
f  68//17 92//17 67//17
f  92//17 68//17 100//17
f  96//7 68//7 69//7
f  68//7 96//7 100//7
f  71//17 96//17 69//17
f  96//17 71//17 104//17
f  105//6 71//6 74//6
f  71//6 105//6 104//6
f  76//17 105//17 74//17
f  105//17 76//17 103//17
f  101//4 76//4 77//4
f  76//4 101//4 103//4
f  101//16 46//16 102//16
f  46//16 101//16 77//16
f  99//14 46//14 48//14
f  46//14 99//14 102//14

