# File produced by Open Asset Import Library (http://www.assimp.sf.net)
# (assimp v5.0.1588609223)

mtllib result.mtl

# 100 vertex positions
v  1.6000366 4.6666465 6.755169e-07
v  -2.7755576e-17 4.0666709 6.0399424e-07
v  -2.7755576e-17 4.6666465 6.755169e-07
v  0.40003458 3.9999897 5.960452e-07
v  1.2000021 3.9999897 5.960452e-07
v  0.40003458 0.66665649 1.9868094e-07
v  1.6000366 4.0666709 6.0399424e-07
v  3.799998 4.6666465 6.755169e-07
v  2.0667012 4.0666709 6.0399424e-07
v  2.0667012 4.6666465 6.755169e-07
v  2.4000041 3.9999897 5.960452e-07
v  3.4000142 3.9999897 5.960452e-07
v  3.799998 4.0666709 6.0399424e-07
v  1.2000021 2.0333354 3.6160176e-07
v  1.2000021 2.7333577 4.4505092e-07
v  1.8667094 2.4000041 4.0531208e-07
v  2.8666687 0 1.1920929e-07
v  3.3666992 0.66665649 1.9868094e-07
v  3.799998 0 1.1920929e-07
v  3.799998 0.59997559 1.9073195e-07
v  -2.7755576e-17 0 1.1920929e-07
v  -2.7755576e-17 0.59997559 1.9073195e-07
v  1.6000366 0 1.1920929e-07
v  1.2000021 0.66665649 1.9868094e-07
v  1.6000366 0.59997559 1.9073195e-07
v  -2.7755576e-17 0.59997553 0.35000017
v  0.15000001 0.47290915 0.35000017
v  0.40003458 0.66665643 0.3500002
v  0.15000001 0.14999996 0.35000014
v  0.55003458 0.53959 0.35000017
v  0.40003458 3.9999897 0.35000059
v  -2.7755576e-17 4.0666709 0.35000059
v  0.15000001 4.193737 0.35000062
v  -2.7755576e-17 4.6666465 0.35000068
v  0.55003458 4.1270561 0.35000062
v  -2.7755576e-17 -4.1723251e-08 0.35000011
v  1.6000366 -4.1723251e-08 0.35000011
v  1.4500366 0.14999996 0.35000014
v  1.4500366 0.47290915 0.35000017
v  1.050002 0.53959 0.35000017
v  1.2000021 0.66665643 0.3500002
v  1.050002 2.3569281 0.35000038
v  1.0922022 2.4014714 0.35000041
v  1.050002 4.1270561 0.35000062
v  1.6000366 0.59997553 0.35000017
v  1.8667094 2.4000041 0.35000041
v  3.3261945 4.1397533 0.35000062
v  1.6638858 2.4051538 0.35000041
v  3.4000142 3.9999897 0.35000059
v  3.6499979 4.1937346 0.35000062
v  3.799998 4.0666709 0.35000059
v  3.6499979 4.5166464 0.35000065
v  2.0667012 4.6666465 0.35000068
v  2.2167013 4.5166464 0.35000065
v  3.799998 4.6666465 0.35000068
v  2.2167013 4.1896338 0.35000062
v  2.6955419 4.0938368 0.35000059
v  1.2000021 2.7333577 0.35000044
v  2.4000041 3.9999897 0.35000059
v  2.0667012 4.0666709 0.35000059
v  1.2000021 2.0333354 0.35000035
v  2.9376688 0.14999996 0.35000014
v  2.8666687 -4.1723251e-08 0.35000011
v  3.799998 -4.1723251e-08 0.35000011
v  3.6499979 0.14999996 0.35000014
v  3.6499979 0.47129345 0.35000017
v  3.2893674 0.52679133 0.35000017
v  3.3666992 0.66665643 0.3500002
v  3.799998 0.59997553 0.35000017
v  1.2000021 3.9999897 0.35000059
v  1.4500366 4.193737 0.35000062
v  1.6000366 4.0666709 0.35000059
v  1.4500366 4.5166464 0.35000065
v  0.15000001 4.5166464 0.35000065
v  1.6000366 4.6666465 0.35000068
v  1.4500366 0.14999995 0.50000012
v  0.15000001 0.47290912 0.50000018
v  0.15000001 0.14999995 0.50000012
v  0.55003458 0.53959 0.50000018
v  1.050002 0.53959 0.50000018
v  0.55003458 4.1270561 0.5000006
v  1.4500366 0.47290912 0.50000018
v  0.15000001 4.5166464 0.50000066
v  0.15000001 4.193737 0.5000006
v  1.4500366 4.5166464 0.50000066
v  1.050002 4.1270561 0.5000006
v  1.050002 2.3569281 0.50000042
v  1.4500366 4.193737 0.5000006
v  2.9376688 0.14999995 0.50000012
v  1.6638858 2.4051538 0.50000042
v  1.0922022 2.4014714 0.50000042
v  3.2893674 0.52679133 0.50000018
v  3.6499979 0.14999995 0.50000012
v  3.6499979 0.47129342 0.50000018
v  2.6955419 4.0938368 0.5000006
v  3.3261945 4.1397533 0.5000006
v  2.2167013 4.5166464 0.50000066
v  2.2167013 4.1896338 0.5000006
v  3.6499979 4.5166464 0.50000066
v  3.6499979 4.1937346 0.5000006

# 0 UV coordinates

# 17 vertex normals
vn 0 1.1920929e-07 -1
vn 0 -1.1920929e-07 1
vn 0.72199154 -0.69190186 -8.2481129e-08
vn 0.75617355 0.65437114 7.8007119e-08
vn 0.15210077 0.98836499 1.1782229e-07
vn 1 0 0
vn 0 -1 -1.1920929e-07
vn -0.77339244 -0.63392758 -7.5570057e-08
vn 0.16441932 0.98639053 1.1758691e-07
vn -1 0 0
vn -0.16441932 0.98639053 1.1758691e-07
vn -0.16441932 -0.98639053 -1.1758691e-07
vn 0 1 1.1920929e-07
vn 0.16441932 -0.98639053 -1.1758691e-07
vn -0.72594273 0.68775517 8.1986805e-08
vn -0.19617368 -0.98056918 -1.1689296e-07
vn 0.16443966 -0.98638713 -1.1758651e-07

# Mesh 'K' with 196 faces
g K
usemtl font
f  1//1 2//1 3//1
f  2//1 1//1 4//1
f  4//1 1//1 5//1
f  4//1 5//1 6//1
f  5//1 1//1 7//1
f  8//1 9//1 10//1
f  9//1 8//1 11//1
f  11//1 8//1 12//1
f  12//1 8//1 13//1
f  11//1 14//1 15//1
f  14//1 11//1 16//1
f  16//1 11//1 12//1
f  16//1 17//1 14//1
f  17//1 16//1 18//1
f  17//1 18//1 19//1
f  19//1 18//1 20//1
f  6//1 21//1 22//1
f  21//1 6//1 23//1
f  23//1 6//1 24//1
f  24//1 6//1 5//1
f  24//1 5//1 15//1
f  24//1 15//1 14//1
f  23//1 24//1 25//1
f  26//2 27//2 28//2
f  27//2 26//2 29//2
f  28//2 27//2 30//2
f  28//2 30//2 31//2
f  32//2 33//2 34//2
f  33//2 32//2 31//2
f  33//2 31//2 35//2
f  35//2 31//2 30//2
f  36//2 29//2 26//2
f  29//2 36//2 37//2
f  29//2 37//2 38//2
f  38//2 37//2 39//2
f  40//2 41//2 42//2
f  41//2 40//2 39//2
f  42//2 41//2 43//2
f  42//2 43//2 44//2
f  41//2 39//2 45//2
f  45//2 39//2 37//2
f  46//2 47//2 48//2
f  47//2 46//2 49//2
f  47//2 49//2 50//2
f  50//2 49//2 51//2
f  50//2 51//2 52//2
f  53//2 54//2 55//2
f  54//2 53//2 56//2
f  55//2 54//2 52//2
f  55//2 52//2 51//2
f  57//2 58//2 43//2
f  58//2 57//2 59//2
f  60//2 56//2 53//2
f  56//2 60//2 59//2
f  56//2 59//2 57//2
f  43//2 61//2 62//2
f  61//2 43//2 41//2
f  62//2 61//2 63//2
f  62//2 63//2 64//2
f  62//2 64//2 65//2
f  65//2 64//2 66//2
f  67//2 46//2 48//2
f  46//2 67//2 68//2
f  68//2 67//2 66//2
f  68//2 66//2 69//2
f  69//2 66//2 64//2
f  44//2 70//2 71//2
f  70//2 44//2 43//2
f  70//2 43//2 58//2
f  71//2 70//2 72//2
f  71//2 72//2 73//2
f  34//2 74//2 75//2
f  74//2 34//2 33//2
f  75//2 74//2 73//2
f  75//2 73//2 72//2
f  12//3 46//3 16//3
f  46//3 12//3 49//3
f  16//4 68//4 18//4
f  68//4 16//4 46//4
f  68//5 20//5 18//5
f  20//5 68//5 69//5
f  20//6 64//6 19//6
f  64//6 20//6 69//6
f  64//7 17//7 19//7
f  17//7 64//7 63//7
f  61//8 17//8 63//8
f  17//8 61//8 14//8
f  14//6 41//6 24//6
f  41//6 14//6 61//6
f  41//9 25//9 24//9
f  25//9 41//9 45//9
f  25//6 37//6 23//6
f  37//6 25//6 45//6
f  37//7 21//7 23//7
f  21//7 37//7 36//7
f  26//10 21//10 36//10
f  21//10 26//10 22//10
f  26//11 6//11 22//11
f  6//11 26//11 28//11
f  31//10 6//10 28//10
f  6//10 31//10 4//10
f  31//12 2//12 4//12
f  2//12 31//12 32//12
f  34//10 2//10 32//10
f  2//10 34//10 3//10
f  34//13 1//13 3//13
f  1//13 34//13 75//13
f  1//6 72//6 7//6
f  72//6 1//6 75//6
f  72//14 5//14 7//14
f  5//14 72//14 70//14
f  5//6 58//6 15//6
f  58//6 5//6 70//6
f  59//15 15//15 58//15
f  15//15 59//15 11//15
f  59//16 9//16 11//16
f  9//16 59//16 60//16
f  53//10 9//10 60//10
f  9//10 53//10 10//10
f  53//13 8//13 10//13
f  8//13 53//13 55//13
f  8//6 51//6 13//6
f  51//6 8//6 55//6
f  51//17 12//17 13//17
f  12//17 51//17 49//17
f  76//2 77//2 78//2
f  77//2 76//2 79//2
f  79//2 76//2 80//2
f  79//2 80//2 81//2
f  80//2 76//2 82//2
f  81//2 83//2 84//2
f  83//2 81//2 85//2
f  85//2 81//2 86//2
f  86//2 81//2 80//2
f  86//2 80//2 87//2
f  85//2 86//2 88//2
f  83//10 33//10 84//10
f  33//10 83//10 74//10
f  81//12 33//12 35//12
f  33//12 81//12 84//12
f  81//10 30//10 79//10
f  30//10 81//10 35//10
f  77//11 30//11 27//11
f  30//11 77//11 79//11
f  77//10 29//10 78//10
f  29//10 77//10 27//10
f  76//7 29//7 38//7
f  29//7 76//7 78//7
f  39//6 76//6 38//6
f  76//6 39//6 82//6
f  80//9 39//9 40//9
f  39//9 80//9 82//9
f  42//6 80//6 40//6
f  80//6 42//6 87//6
f  44//6 87//6 42//6
f  87//6 44//6 86//6
f  88//14 44//14 71//14
f  44//14 88//14 86//14
f  73//6 88//6 71//6
f  88//6 73//6 85//6
f  83//13 73//13 74//13
f  73//13 83//13 85//13
f  89//2 90//2 91//2
f  90//2 89//2 92//2
f  92//2 89//2 93//2
f  92//2 93//2 94//2
f  90//2 95//2 91//2
f  95//2 90//2 96//2
f  95//2 97//2 98//2
f  97//2 95//2 99//2
f  99//2 95//2 96//2
f  99//2 96//2 100//2
f  97//10 56//10 98//10
f  56//10 97//10 54//10
f  95//16 56//16 57//16
f  56//16 95//16 98//16
f  95//15 43//15 91//15
f  43//15 95//15 57//15
f  91//8 62//8 89//8
f  62//8 91//8 43//8
f  93//7 62//7 65//7
f  62//7 93//7 89//7
f  66//6 93//6 65//6
f  93//6 66//6 94//6
f  92//5 66//5 67//5
f  66//5 92//5 94//5
f  48//4 92//4 67//4
f  92//4 48//4 90//4
f  47//3 90//3 48//3
f  90//3 47//3 96//3
f  100//17 47//17 50//17
f  47//17 100//17 96//17
f  52//6 100//6 50//6
f  100//6 52//6 99//6
f  97//13 52//13 54//13
f  52//13 97//13 99//13

