# File produced by Open Asset Import Library (http://www.assimp.sf.net)
# (assimp v5.0.1588609223)

mtllib result.mtl

# 62 vertex positions
v  -0.033315063 4.6666465 -0.24999972
v  -1.6333517 4.0666709 -0.24999978
v  -1.6333517 4.6666465 -0.24999972
v  -1.2333171 3.9999897 -0.24999979
v  -0.43334961 3.9999897 -0.24999979
v  -1.2333171 0.66665649 -0.25000018
v  -0.033315063 4.0666709 -0.24999978
v  -1.6333517 0 -0.25000027
v  -1.6333517 0.59997559 -0.25000021
v  1.6333517 0 -0.25000027
v  -0.43334961 0.7333374 -0.25000018
v  0.96669519 0.7333374 -0.25000018
v  0.99001563 0.85998535 -0.25000018
v  1.0166677 1.0166677 -0.25000015
v  1.0333251 1.1333212 -0.25000012
v  1.6333517 1.1333212 -0.25000012
v  -0.5833497 4.1270561 0.10000023
v  -0.43334961 3.9999897 0.1000002
v  -0.18331504 4.193737 0.10000023
v  -0.43334961 0.73333734 0.099999815
v  -0.033315063 4.0666709 0.1000002
v  -0.18331504 4.5166464 0.10000026
v  -1.6333517 4.6666465 0.10000029
v  -1.4833517 4.5166464 0.10000026
v  -0.033315063 4.6666465 0.10000029
v  -1.4833517 4.193737 0.10000023
v  -1.6333517 -4.1723251e-08 0.099999726
v  -1.4833517 0.14999996 0.099999756
v  -1.6333517 0.59997553 0.099999785
v  1.6333517 -4.1723251e-08 0.099999726
v  1.4833516 0.14999996 0.099999756
v  1.4833516 0.98332107 0.099999845
v  -0.5833497 0.58333737 0.099999785
v  1.0915965 0.58333737 0.099999785
v  0.96669519 0.73333734 0.099999815
v  0.99001563 0.85998529 0.099999815
v  1.0166677 1.0166677 0.099999845
v  1.0333251 1.1333212 0.099999875
v  1.16315 0.98332107 0.099999845
v  1.6333517 1.1333212 0.099999875
v  1.1377205 0.83382517 0.099999815
v  -1.4833517 0.47290915 0.099999785
v  -1.2333171 0.66665643 0.099999815
v  -1.083317 0.53959 0.099999785
v  -1.2333171 3.9999897 0.1000002
v  -1.6333517 4.0666709 0.1000002
v  -1.083317 4.1270561 0.10000023
v  1.4833516 0.14999995 0.24999973
v  -1.4833517 0.47290912 0.24999979
v  -1.4833517 0.14999995 0.24999973
v  -1.083317 0.53959 0.24999979
v  -0.5833497 0.58333737 0.24999979
v  -1.083317 4.1270561 0.25000021
v  1.0915965 0.58333737 0.24999979
v  1.1377205 0.83382517 0.24999985
v  1.16315 0.98332107 0.24999985
v  1.4833516 0.98332107 0.24999985
v  -1.4833517 4.5166464 0.25000027
v  -1.4833517 4.193737 0.25000021
v  -0.18331504 4.5166464 0.25000027
v  -0.5833497 4.1270561 0.25000021
v  -0.18331504 4.193737 0.25000021

# 0 UV coordinates

# 14 vertex normals
vn 0 1.1920929e-07 -1
vn 0 -1.1920929e-07 1
vn 1 0 0
vn 0 1 1.1920929e-07
vn -0.98467547 0.1743968 2.0789718e-08
vn -0.98346615 0.18109205 2.1587855e-08
vn -0.98798639 0.15454093 1.8422714e-08
vn -0.98995811 0.14136092 1.6851535e-08
vn 0 -1 -1.1920929e-07
vn -1 0 0
vn -0.16441932 0.98639053 1.1758691e-07
vn -0.16441932 -0.98639053 -1.1758691e-07
vn 0.16441932 -0.98639053 -1.1758691e-07
vn -0.98583919 0.16769347 1.9990619e-08

# Mesh 'L' with 120 faces
g L
usemtl font
f  1//1 2//1 3//1
f  2//1 1//1 4//1
f  4//1 1//1 5//1
f  4//1 5//1 6//1
f  5//1 1//1 7//1
f  6//1 8//1 9//1
f  8//1 6//1 10//1
f  10//1 6//1 11//1
f  11//1 6//1 5//1
f  10//1 11//1 12//1
f  10//1 12//1 13//1
f  10//1 13//1 14//1
f  10//1 14//1 15//1
f  10//1 15//1 16//1
f  17//2 18//2 19//2
f  18//2 17//2 20//2
f  19//2 18//2 21//2
f  19//2 21//2 22//2
f  23//2 24//2 25//2
f  24//2 23//2 26//2
f  25//2 24//2 22//2
f  25//2 22//2 21//2
f  27//2 28//2 29//2
f  28//2 27//2 30//2
f  28//2 30//2 31//2
f  31//2 30//2 32//2
f  33//2 20//2 17//2
f  20//2 33//2 34//2
f  20//2 34//2 35//2
f  35//2 34//2 36//2
f  36//2 34//2 37//2
f  37//2 34//2 38//2
f  38//2 34//2 39//2
f  38//2 39//2 40//2
f  39//2 34//2 41//2
f  40//2 39//2 32//2
f  40//2 32//2 30//2
f  29//2 42//2 43//2
f  42//2 29//2 28//2
f  43//2 42//2 44//2
f  43//2 44//2 45//2
f  46//2 26//2 23//2
f  26//2 46//2 45//2
f  26//2 45//2 47//2
f  47//2 45//2 44//2
f  5//3 20//3 11//3
f  20//3 5//3 18//3
f  20//4 12//4 11//4
f  12//4 20//4 35//4
f  36//5 12//6 35//6
f  12//6 36//5 13//5
f  37//7 13//5 36//5
f  13//5 37//7 14//7
f  38//8 14//7 37//7
f  14//7 38//8 15//8
f  38//4 16//4 15//4
f  16//4 38//4 40//4
f  16//3 30//3 10//3
f  30//3 16//3 40//3
f  30//9 8//9 10//9
f  8//9 30//9 27//9
f  29//10 8//10 27//10
f  8//10 29//10 9//10
f  29//11 6//11 9//11
f  6//11 29//11 43//11
f  45//10 6//10 43//10
f  6//10 45//10 4//10
f  45//12 2//12 4//12
f  2//12 45//12 46//12
f  23//10 2//10 46//10
f  2//10 23//10 3//10
f  23//4 1//4 3//4
f  1//4 23//4 25//4
f  1//3 21//3 7//3
f  21//3 1//3 25//3
f  21//13 5//13 7//13
f  5//13 21//13 18//13
f  48//2 49//2 50//2
f  49//2 48//2 51//2
f  51//2 48//2 52//2
f  51//2 52//2 53//2
f  52//2 48//2 54//2
f  54//2 48//2 55//2
f  55//2 48//2 56//2
f  56//2 48//2 57//2
f  53//2 58//2 59//2
f  58//2 53//2 60//2
f  60//2 53//2 61//2
f  61//2 53//2 52//2
f  60//2 61//2 62//2
f  58//10 26//10 59//10
f  26//10 58//10 24//10
f  53//12 26//12 47//12
f  26//12 53//12 59//12
f  53//10 44//10 51//10
f  44//10 53//10 47//10
f  49//11 44//11 42//11
f  44//11 49//11 51//11
f  49//10 28//10 50//10
f  28//10 49//10 42//10
f  48//9 28//9 31//9
f  28//9 48//9 50//9
f  32//3 48//3 31//3
f  48//3 32//3 57//3
f  56//4 32//4 39//4
f  32//4 56//4 57//4
f  56//14 41//5 55//5
f  41//5 56//14 39//14
f  55//5 34//6 54//6
f  34//6 55//5 41//5
f  52//4 34//4 33//4
f  34//4 52//4 54//4
f  17//3 52//3 33//3
f  52//3 17//3 61//3
f  62//13 17//13 19//13
f  17//13 62//13 61//13
f  22//3 62//3 19//3
f  62//3 22//3 60//3
f  58//4 22//4 24//4
f  22//4 58//4 60//4

