# File produced by Open Asset Import Library (http://www.assimp.sf.net)
# (assimp v5.0.1588609223)

mtllib result.mtl

# 80 vertex positions
v  -0.86667383 4.6666465 -0.24999972
v  -2.0666759 4.0666709 -0.24999978
v  -2.0666759 4.6666465 -0.24999972
v  -1.6666414 3.9999897 -0.24999979
v  -1.6666414 0.66665649 -0.25000018
v  0.86667371 1.5333557 -0.25000009
v  -0.86667383 3.1333416 -0.2499999
v  0.86667371 0 -0.25000027
v  -2.0666759 0 -0.25000027
v  -2.0666759 0.59997559 -0.25000021
v  -0.46663928 0 -0.25000027
v  -0.86667383 0.66665649 -0.25000018
v  -0.46663928 0.59997559 -0.25000021
v  2.0666759 4.6666465 -0.24999972
v  0.46669006 4.0666709 -0.24999978
v  0.46669006 4.6666465 -0.24999972
v  0.86667371 3.9999897 -0.24999979
v  1.666692 3.9999897 -0.24999979
v  2.0666759 4.0666709 -0.24999978
v  1.666692 0 -0.25000027
v  -2.0666759 4.6666465 0.10000029
v  -1.9166759 4.5166464 0.10000026
v  -0.86667383 4.6666465 0.10000029
v  -1.9166759 4.193737 0.10000023
v  -0.95511615 4.5166464 0.10000026
v  1.0166738 0.95233488 0.099999845
v  0.86667371 1.5333557 0.099999905
v  0.86667371 3.9999897 0.1000002
v  0.46669006 4.0666709 0.1000002
v  0.61668992 4.1937346 0.10000023
v  0.46669006 4.6666465 0.10000029
v  1.0166738 4.1270537 0.10000023
v  -1.0166739 3.7143705 0.10000017
v  -0.86667383 3.1333416 0.10000011
v  0.95511675 0.14999996 0.099999756
v  -0.86667383 0.66665643 0.099999815
v  0.86667371 -4.1723251e-08 0.099999726
v  1.666692 -4.1723251e-08 0.099999726
v  1.5166919 0.14999996 0.099999756
v  1.5166919 4.1270537 0.10000023
v  1.666692 3.9999897 0.1000002
v  1.9166758 4.1937346 0.10000023
v  2.0666759 4.0666709 0.1000002
v  1.9166758 4.5166464 0.10000026
v  0.61668992 4.5166464 0.10000026
v  2.0666759 4.6666465 0.10000029
v  -2.0666759 0.59997553 0.099999785
v  -1.9166759 0.47290915 0.099999785
v  -1.6666414 0.66665643 0.099999815
v  -1.9166759 0.14999996 0.099999756
v  -1.5166414 0.53959 0.099999785
v  -1.6666414 3.9999897 0.1000002
v  -2.0666759 4.0666709 0.1000002
v  -1.5166414 4.1270561 0.10000023
v  -2.0666759 -4.1723251e-08 0.099999726
v  -0.46663928 -4.1723251e-08 0.099999726
v  -0.61663926 0.14999996 0.099999756
v  -0.61663926 0.47290915 0.099999785
v  -1.0166739 0.53959 0.099999785
v  -0.46663928 0.59997553 0.099999785
v  -0.61663926 0.14999995 0.24999973
v  -1.9166759 0.47290912 0.24999979
v  -1.9166759 0.14999995 0.24999973
v  -1.5166414 0.53959 0.24999979
v  -1.0166739 0.53959 0.24999979
v  -1.5166414 4.1270561 0.25000021
v  -0.61663926 0.47290912 0.24999979
v  -1.9166759 4.5166464 0.25000027
v  -1.9166759 4.193737 0.25000021
v  -0.95511615 4.5166464 0.25000027
v  -1.0166739 3.7143705 0.25000015
v  0.95511675 0.14999995 0.24999973
v  1.0166738 0.95233488 0.24999985
v  1.5166919 0.14999995 0.24999973
v  1.0166738 4.1270537 0.25000021
v  0.61668992 4.5166464 0.25000027
v  0.61668992 4.1937346 0.25000021
v  1.9166758 4.5166464 0.25000027
v  1.5166919 4.1270537 0.25000021
v  1.9166758 4.1937346 0.25000021

# 0 UV coordinates

# 13 vertex normals
vn 0 1.1920929e-07 -1
vn 0 -1.1920929e-07 1
vn -1 0 0
vn 0 1 1.1920929e-07
vn 1 0 0
vn 0.16443966 -0.98638713 -1.1758651e-07
vn 0 -1 -1.1920929e-07
vn -0.8750329 -0.48406348 -5.7704863e-08
vn 0.16441932 0.98639053 1.1758691e-07
vn -0.16441932 0.98639053 1.1758691e-07
vn -0.16441932 -0.98639053 -1.1758691e-07
vn 0.87502956 0.4840695 5.7705581e-08
vn -0.16443966 -0.98638713 -1.1758651e-07

# Mesh 'N' with 156 faces
g N
usemtl font
f  1//1 2//1 3//1
f  2//1 1//1 4//1
f  4//1 1//1 5//1
f  6//1 7//1 1//1
f  7//1 6//1 8//1
f  5//1 9//1 10//1
f  9//1 5//1 11//1
f  11//1 5//1 12//1
f  12//1 5//1 1//1
f  12//1 1//1 7//1
f  11//1 12//1 13//1
f  14//1 15//1 16//1
f  15//1 14//1 17//1
f  17//1 14//1 18//1
f  17//1 18//1 6//1
f  6//1 18//1 8//1
f  18//1 14//1 19//1
f  20//1 8//1 18//1
f  21//2 22//2 23//2
f  22//2 21//2 24//2
f  23//2 22//2 25//2
f  23//2 25//2 26//2
f  23//2 26//2 27//2
f  27//2 26//2 28//2
f  29//2 30//2 31//2
f  30//2 29//2 28//2
f  30//2 28//2 32//2
f  32//2 28//2 26//2
f  33//2 34//2 35//2
f  34//2 33//2 36//2
f  35//2 34//2 37//2
f  35//2 37//2 38//2
f  35//2 38//2 39//2
f  39//2 38//2 40//2
f  40//2 38//2 41//2
f  40//2 41//2 42//2
f  42//2 41//2 43//2
f  42//2 43//2 44//2
f  31//2 45//2 46//2
f  45//2 31//2 30//2
f  46//2 45//2 44//2
f  46//2 44//2 43//2
f  47//2 48//2 49//2
f  48//2 47//2 50//2
f  49//2 48//2 51//2
f  49//2 51//2 52//2
f  53//2 24//2 21//2
f  24//2 53//2 52//2
f  24//2 52//2 54//2
f  54//2 52//2 51//2
f  55//2 50//2 47//2
f  50//2 55//2 56//2
f  50//2 56//2 57//2
f  57//2 56//2 58//2
f  59//2 36//2 33//2
f  36//2 59//2 58//2
f  36//2 58//2 60//2
f  60//2 58//2 56//2
f  31//3 15//3 29//3
f  15//3 31//3 16//3
f  31//4 14//4 16//4
f  14//4 31//4 46//4
f  14//5 43//5 19//5
f  43//5 14//5 46//5
f  43//6 18//6 19//6
f  18//6 43//6 41//6
f  18//5 38//5 20//5
f  38//5 18//5 41//5
f  38//7 8//7 20//7
f  8//7 38//7 37//7
f  34//8 8//8 37//8
f  8//8 34//8 7//8
f  7//5 36//5 12//5
f  36//5 7//5 34//5
f  36//9 13//9 12//9
f  13//9 36//9 60//9
f  13//5 56//5 11//5
f  56//5 13//5 60//5
f  56//7 9//7 11//7
f  9//7 56//7 55//7
f  47//3 9//3 55//3
f  9//3 47//3 10//3
f  47//10 5//10 10//10
f  5//10 47//10 49//10
f  52//3 5//3 49//3
f  5//3 52//3 4//3
f  52//11 2//11 4//11
f  2//11 52//11 53//11
f  21//3 2//3 53//3
f  2//3 21//3 3//3
f  21//4 1//4 3//4
f  1//4 21//4 23//4
f  1//12 27//12 6//12
f  27//12 1//12 23//12
f  28//3 6//3 27//3
f  6//3 28//3 17//3
f  28//13 15//13 17//13
f  15//13 28//13 29//13
f  61//2 62//2 63//2
f  62//2 61//2 64//2
f  64//2 61//2 65//2
f  64//2 65//2 66//2
f  65//2 61//2 67//2
f  66//2 68//2 69//2
f  68//2 66//2 70//2
f  70//2 66//2 71//2
f  71//2 66//2 65//2
f  70//2 71//2 72//2
f  70//2 72//2 73//2
f  73//2 72//2 74//2
f  73//2 74//2 75//2
f  75//2 76//2 77//2
f  76//2 75//2 78//2
f  78//2 75//2 79//2
f  79//2 75//2 74//2
f  78//2 79//2 80//2
f  68//3 24//3 69//3
f  24//3 68//3 22//3
f  66//11 24//11 54//11
f  24//11 66//11 69//11
f  66//3 51//3 64//3
f  51//3 66//3 54//3
f  62//10 51//10 48//10
f  51//10 62//10 64//10
f  62//3 50//3 63//3
f  50//3 62//3 48//3
f  61//7 50//7 57//7
f  50//7 61//7 63//7
f  58//5 61//5 57//5
f  61//5 58//5 67//5
f  65//9 58//9 59//9
f  58//9 65//9 67//9
f  33//5 65//5 59//5
f  65//5 33//5 71//5
f  71//8 35//8 72//8
f  35//8 71//8 33//8
f  74//7 35//7 39//7
f  35//7 74//7 72//7
f  40//5 74//5 39//5
f  74//5 40//5 79//5
f  80//6 40//6 42//6
f  40//6 80//6 79//6
f  44//5 80//5 42//5
f  80//5 44//5 78//5
f  76//4 44//4 45//4
f  44//4 76//4 78//4
f  76//3 30//3 77//3
f  30//3 76//3 45//3
f  75//13 30//13 32//13
f  30//13 75//13 77//13
f  75//3 26//3 73//3
f  26//3 75//3 32//3
f  25//12 73//12 26//12
f  73//12 25//12 70//12
f  68//4 25//4 22//4
f  25//4 68//4 70//4

