# File produced by Open Asset Import Library (http://www.assimp.sf.net)
# (assimp v5.0.1588609223)

mtllib result.mtl

# 244 vertex positions
v  -0.67396641 5.2448859 -0.24999967
v  -0.86664832 4.034276 -0.24999982
v  -0.90250015 5.176765 -0.24999969
v  -0.82998276 4.2259326 -0.24999979
v  -0.71998596 4.3875933 -0.24999978
v  -0.5566597 4.4975901 -0.24999976
v  -0.42668664 5.2675929 -0.24999967
v  -0.36000574 4.5342555 -0.24999976
v  0.41997266 5.2675929 -0.24999967
v  0.35334277 4.5342555 -0.24999976
v  0.55082965 4.4975901 -0.24999976
v  0.66748309 5.2448859 -0.24999967
v  0.71665454 4.3875933 -0.24999978
v  0.89665723 5.176765 -0.24999969
v  0.82914996 4.2259326 -0.24999979
v  0.86664844 4.034276 -0.24999982
v  0.86664844 2.0275924 -0.25000006
v  1.1074955 5.06323 -0.24999969
v  1.1000061 0.89427131 -0.25000018
v  1.3479202 1.1251113 -0.25000015
v  1.299998 4.9042811 -0.24999972
v  1.4604156 4.7136641 -0.24999973
v  1.5250015 1.390945 -0.25000012
v  1.5749996 4.5051241 -0.24999976
v  1.6312504 1.691772 -0.25000009
v  1.64375 4.2786613 -0.24999979
v  1.6666667 2.0275924 -0.25000006
v  1.6666667 4.034276 -0.24999982
v  0.39998364 2.2009323 -0.25000003
v  -0.46666467 1.8009486 -0.25000009
v  -0.46666467 2.2009323 -0.25000003
v  -0.13336182 1.7342677 -0.25000009
v  0.080006957 1.3342839 -0.25000015
v  0.21998084 0.60094655 -0.25000024
v  0.46666455 0.62093556 -0.25000024
v  0.72001147 1.6076198 -0.25000012
v  0.80001831 0.00097094348 -0.2500003
v  0.82998919 1.8092773 -0.25000009
v  1.333313 0.46763557 -0.25000024
v  1.6666667 0.00097094348 -0.2500003
v  1.6666667 0.40095466 -0.25000024
v  -1.6439581 4.2786613 -0.24999979
v  -1.6666666 2.0275924 -0.25000006
v  -1.6666666 4.034276 -0.24999982
v  -1.6404167 1.7419765 -0.25000009
v  -1.5758324 4.5051241 -0.24999976
v  -1.5616671 1.4784414 -0.25000012
v  -1.4622895 4.7136641 -0.24999973
v  -1.4304177 1.2369869 -0.25000015
v  -1.3033295 4.9042811 -0.24999972
v  -1.2466685 1.0176132 -0.25000018
v  -1.1122878 5.06323 -0.24999969
v  -1.0254208 0.83532155 -0.25000021
v  -0.86664832 2.0275924 -0.25000006
v  -0.78167593 0.70511317 -0.25000021
v  -0.81415176 1.7617652 -0.25000009
v  -0.65666199 1.5376073 -0.25000012
v  -0.51543391 0.62698817 -0.25000021
v  -0.42917252 1.3851148 -0.25000012
v  -0.2266947 0.60094655 -0.25000024
v  -0.16667688 1.3342839 -0.25000015
v  -1.5616671 1.4784414 0.099999875
v  -1.4924148 1.7705956 0.099999905
v  -1.5166667 2.034471 0.099999934
v  -1.4304177 1.2369869 0.099999845
v  -1.422419 1.5363545 0.099999875
v  -1.2466685 1.0176132 0.099999815
v  -1.305794 1.3218042 0.099999845
v  -1.1405821 1.1245618 0.099999815
v  -1.0254208 0.83532149 0.099999785
v  -0.94156682 0.96058792 0.099999815
v  -0.78167593 0.70511311 0.099999785
v  -0.72462142 0.84469581 0.099999785
v  -0.51543391 0.62698811 0.099999785
v  -0.48731184 0.77506059 0.099999785
v  -0.2266947 0.60094649 0.099999756
v  -0.21994412 0.75094646 0.099999785
v  0.21998084 0.60094649 0.099999756
v  0.21391356 0.75094646 0.099999785
v  0.55232263 0.77836806 0.099999785
v  0.46666455 0.6209355 0.099999756
v  0.80001831 0.00097090175 0.099999696
v  0.88967276 0.15097091 0.099999726
v  1.6666667 0.00097090175 0.099999696
v  1.5166667 0.15097091 0.099999726
v  1.5166667 0.27798772 0.099999726
v  1.2352784 0.33427396 0.099999726
v  1.1000061 0.89427125 0.099999815
v  0.91245842 0.9245975 0.099999815
v  1.333313 0.46763554 0.099999756
v  1.6666667 0.40095463 0.099999756
v  1.2328315 1.2229064 0.099999845
v  1.3479202 1.1251113 0.099999845
v  1.3897934 1.4585366 0.099999875
v  1.5250015 1.390945 0.099999875
v  1.4839303 1.7250705 0.099999905
v  1.5166667 2.0354803 0.099999934
v  1.5166667 4.0272584 0.10000017
v  -1.6404167 1.7419765 0.099999905
v  -1.6666666 4.034276 0.10000017
v  -1.6666666 2.0275924 0.099999934
v  -1.6439581 4.2786613 0.1000002
v  -1.5758324 4.5051241 0.10000023
v  -1.5166667 4.0273218 0.10000017
v  -1.4622895 4.7136641 0.10000026
v  -1.4959909 4.2498302 0.1000002
v  -1.4366657 4.4470387 0.10000023
v  -1.3033295 4.9042811 0.10000029
v  -1.3376205 4.6289511 0.10000026
v  -1.196884 4.7977157 0.10000026
v  -1.1122878 5.06323 0.10000029
v  -1.0277975 4.9383974 0.10000029
v  -0.90250015 5.176765 0.10000032
v  -0.84476644 5.0374522 0.10000029
v  -0.67396641 5.2448859 0.10000032
v  -0.64540446 5.0968776 0.10000029
v  -0.42668664 5.2675929 0.10000032
v  -0.41981399 5.1175928 0.10000029
v  0.41997266 5.2675929 0.10000032
v  0.41310644 5.1175928 0.10000029
v  0.63898492 5.0968704 0.10000029
v  0.66748309 5.2448859 0.10000032
v  0.83912635 5.0373793 0.10000029
v  0.89665723 5.176765 0.10000032
v  1.0233765 4.9381618 0.10000029
v  1.1074955 5.06323 0.10000029
v  1.193996 4.7972817 0.10000026
v  1.299998 4.9042811 0.10000029
v  1.3360968 4.6284294 0.10000026
v  1.4604156 4.7136641 0.10000026
v  1.4360092 4.4465914 0.10000023
v  1.4958191 4.2495785 0.1000002
v  1.5749996 4.5051241 0.10000023
v  1.6312504 1.691772 0.099999905
v  1.64375 4.2786613 0.1000002
v  1.6666667 2.0275924 0.099999934
v  1.6666667 4.034276 0.10000017
v  -0.16667688 1.3342839 0.099999845
v  0.080006957 1.3342839 0.099999845
v  -0.13336182 1.7342677 0.099999905
v  -0.46666467 1.8009486 0.099999905
v  -0.46666467 2.2009323 0.099999964
v  0.39998364 2.2009323 0.099999964
v  0.72001147 1.6076198 0.099999875
v  0.82998919 1.8092773 0.099999905
v  0.86664844 2.0275924 0.099999934
v  0.86664844 4.034276 0.10000017
v  0.82914996 4.2259326 0.1000002
v  0.71665454 4.3875933 0.10000023
v  0.55082965 4.4975901 0.10000023
v  0.35334277 4.5342555 0.10000023
v  -0.36000574 4.5342555 0.10000023
v  -0.5566597 4.4975901 0.10000023
v  -0.71998596 4.3875933 0.10000023
v  -0.82998276 4.2259326 0.1000002
v  -0.86664832 4.034276 0.10000017
v  -0.86664832 2.0275924 0.099999934
v  -0.81415176 1.7617652 0.099999905
v  -0.65666199 1.5376073 0.099999875
v  -0.42917252 1.3851148 0.099999875
v  -0.76335806 1.4285458 0.099999875
v  -0.95515364 1.7015319 0.099999905
v  -0.48748434 1.24362 0.099999845
v  -0.18106651 1.184284 0.099999845
v  0.33003128 1.184284 0.099999845
v  -0.31666458 1.9239118 0.099999934
v  -0.034394145 1.8674405 0.099999905
v  -0.31666458 2.0509322 0.099999934
v  0.31046295 2.0509322 0.099999934
v  0.71928477 1.2930003 0.099999845
v  0.97374463 1.7595835 0.099999905
v  0.97029901 4.2857065 0.1000002
v  1.0166483 4.0488119 0.10000017
v  1.0166483 2.0150862 0.099999934
v  -1.0166483 4.0484948 0.10000017
v  -1.0166483 2.0129228 0.099999934
v  -0.97147363 4.2846303 0.1000002
v  -0.8277449 4.4958658 0.10000023
v  -0.61468768 4.6393557 0.10000026
v  -0.37386978 4.6842556 0.10000026
v  0.36714935 4.6842556 0.10000026
v  0.60826921 4.6394887 0.10000026
v  0.82342625 4.4967685 0.10000023
v  -1.4924148 1.7705956 0.24999994
v  -1.5166667 4.0273218 0.25000018
v  -1.5166667 2.034471 0.24999994
v  -1.4959909 4.2498302 0.25000018
v  -1.4366657 4.4470387 0.25000024
v  -1.422419 1.5363545 0.24999988
v  -1.3376205 4.6289511 0.25000024
v  -1.305794 1.321804 0.24999988
v  -1.196884 4.7977157 0.2500003
v  -1.1405821 1.1245618 0.24999982
v  -1.0277975 4.9383974 0.2500003
v  -1.0166483 2.0129228 0.24999994
v  -0.94156682 0.96058792 0.24999982
v  -0.95515364 1.7015319 0.24999988
v  -0.76335806 1.4285457 0.24999988
v  -0.72462142 0.84469581 0.24999982
v  -0.48748434 1.2436199 0.24999982
v  -0.48731184 0.77506059 0.24999982
v  -0.18106651 1.184284 0.24999982
v  -0.21994412 0.75094646 0.24999982
v  0.21391356 0.75094646 0.24999982
v  0.33003128 1.184284 0.24999982
v  0.55232263 0.77836806 0.24999982
v  0.88967276 0.15097089 0.2499997
v  1.2352784 0.33427393 0.24999976
v  0.91245842 0.9245975 0.24999982
v  1.5166667 0.15097089 0.2499997
v  1.5166667 0.27798769 0.24999976
v  -0.034394145 1.8674405 0.24999994
v  -0.31666458 2.0509322 0.24999994
v  -0.31666458 1.9239118 0.24999994
v  0.31046295 2.0509322 0.24999994
v  0.71928477 1.2930002 0.24999988
v  0.97374463 1.7595835 0.24999994
v  1.2328315 1.2229064 0.24999982
v  1.0166483 2.0150862 0.24999994
v  1.0166483 4.0488119 0.25000018
v  1.0233765 4.9381618 0.2500003
v  1.193996 4.7972817 0.2500003
v  1.3360968 4.6284294 0.25000024
v  1.3897934 1.4585366 0.24999988
v  1.4360092 4.4465914 0.25000024
v  1.4839303 1.7250705 0.24999988
v  1.4958191 4.2495785 0.25000018
v  1.5166667 2.0354803 0.24999994
v  1.5166667 4.0272584 0.25000018
v  -1.0166483 4.0484948 0.25000018
v  -0.84476644 5.0374522 0.2500003
v  -0.97147363 4.2846303 0.25000024
v  -0.8277449 4.4958658 0.25000024
v  -0.64540446 5.0968776 0.2500003
v  -0.61468768 4.6393557 0.25000024
v  -0.41981399 5.1175928 0.2500003
v  -0.37386978 4.6842556 0.25000024
v  0.41310644 5.1175928 0.2500003
v  0.36714935 4.6842556 0.25000024
v  0.60826921 4.6394887 0.25000024
v  0.63898492 5.0968704 0.2500003
v  0.82342625 4.4967685 0.25000024
v  0.83912635 5.0373793 0.2500003
v  0.97029901 4.2857065 0.25000024

# 0 UV coordinates

# 65 vertex normals
vn 0 1.1920929e-07 -1
vn 0 -1.1920929e-07 1
vn 0.040416125 -0.99918294 -1.1911189e-07
vn -0.04495864 -0.99898887 -1.1908875e-07
vn -0.18658581 -0.98243868 -1.1711582e-07
vn -0.3783634 -0.92565715 -1.1034693e-07
vn -0.55627453 -0.8309986 -9.9062753e-08
vn -0.70423889 -0.70996308 -8.4634195e-08
vn -0.82670093 -0.56264162 -6.7072108e-08
vn -0.92332834 -0.38401142 -4.5777728e-08
vn -0.98181272 -0.18985204 -2.2632127e-08
vn -0.99895024 -0.045808353 -5.4607812e-09
vn -0.99892706 0.04631098 5.520699e-09
vn -0.98154157 0.191249 2.2798657e-08
vn -0.92284292 0.38517654 4.5916622e-08
vn -0.82711852 0.56202757 6.6998908e-08
vn -0.70670784 0.70750552 8.4341231e-08
vn -0.56051362 0.82814521 9.8722602e-08
vn -0.38284445 0.92381281 1.1012707e-07
vn -0.18947907 0.98188478 1.1704979e-07
vn -0.045769151 0.99895203 1.1908436e-07
vn 0.045726798 0.998954 1.190846e-07
vn 0.18906169 0.98196518 1.1705937e-07
vn 0.38152599 0.92435813 1.1019208e-07
vn 0.55809695 0.82977575 9.8916978e-08
vn 0.70378858 0.71040952 8.4687414e-08
vn 0.82476884 0.56547004 6.7409282e-08
vn 0.92161143 0.38811392 4.6266784e-08
vn 0.98121768 0.19290368 2.2995911e-08
vn 0.99890745 0.046732847 5.5709894e-09
vn 0.99862027 -0.052512608 -6.2599907e-09
vn 0.97539443 -0.22046712 -2.6281729e-08
vn 0.89445996 -0.44714803 -5.3304198e-08
vn 0.76203847 -0.64753175 -7.71918e-08
vn 0.68145579 -0.73185927 -8.7244423e-08
vn 0.87737942 0.47979724 5.7196289e-08
vn 0.19614491 0.98057491 1.1689364e-07
vn 1 0 0
vn 0 -1 -1.1920929e-07
vn -0.88075167 -0.47357836 -5.645494e-08
vn 0.080766208 -0.99673307 -1.1881984e-07
vn 0.095492817 0.99543011 1.1866452e-07
vn 0 1 1.1920929e-07
vn -0.88231254 -0.47066393 -5.6107513e-08
vn -0.19617368 -0.98056918 -1.1689296e-07
vn -1 0 0
vn 0.88012928 0.4747341 5.6592715e-08
vn -0.94512361 0.32671303 3.8947228e-08
vn -0.8779273 0.47879395 5.7076686e-08
vn -0.99654227 0.083087526 9.904805e-09
vn -0.99533719 -0.096456587 -1.1498521e-08
vn -0.92083395 -0.38995495 -4.6486253e-08
vn -0.69919235 -0.71493363 -8.5226731e-08
vn -0.37521642 -0.92693722 -1.1049953e-07
vn -0.091656558 -0.99579066 -1.187075e-07
vn 0.092034958 -0.99575579 -1.1870334e-07
vn 0.37881669 -0.92547172 -1.1032483e-07
vn 0.70542228 -0.70878726 -8.4494026e-08
vn 0.92367095 -0.38318658 -4.56794e-08
vn 0.99553704 -0.094371714 -1.1249985e-08
vn 0.99525183 0.0973332 1.1603022e-08
vn 0.91960734 0.39283881 4.6830035e-08
vn 0.69931281 0.7148158 8.5212683e-08
vn 0.38102534 0.9245646 1.1021669e-07
vn -2.8109983e-17 -1 -1.1920929e-07

# Mesh 'Q' with 488 faces
g Q
usemtl font
f  1//1 2//1 3//1
f  2//1 1//1 4//1
f  4//1 1//1 5//1
f  5//1 1//1 6//1
f  6//1 1//1 7//1
f  6//1 7//1 8//1
f  8//1 7//1 9//1
f  8//1 9//1 10//1
f  10//1 9//1 11//1
f  11//1 9//1 12//1
f  11//1 12//1 13//1
f  13//1 12//1 14//1
f  13//1 14//1 15//1
f  15//1 14//1 16//1
f  16//1 14//1 17//1
f  18//1 19//1 14//1
f  19//1 18//1 20//1
f  20//1 18//1 21//1
f  20//1 21//1 22//1
f  20//1 22//1 23//1
f  23//1 22//1 24//1
f  23//1 24//1 25//1
f  25//1 24//1 26//1
f  25//1 26//1 27//1
f  27//1 26//1 28//1
f  29//1 30//1 31//1
f  30//1 29//1 32//1
f  32//1 29//1 33//1
f  33//1 29//1 34//1
f  34//1 29//1 35//1
f  35//1 29//1 36//1
f  35//1 36//1 37//1
f  37//1 36//1 38//1
f  37//1 38//1 19//1
f  37//1 19//1 39//1
f  37//1 39//1 40//1
f  19//1 38//1 17//1
f  19//1 17//1 14//1
f  40//1 39//1 41//1
f  42//1 43//1 44//1
f  43//1 42//1 45//1
f  45//1 42//1 46//1
f  45//1 46//1 47//1
f  47//1 46//1 48//1
f  47//1 48//1 49//1
f  49//1 48//1 50//1
f  49//1 50//1 51//1
f  51//1 50//1 52//1
f  51//1 52//1 53//1
f  53//1 52//1 3//1
f  53//1 3//1 54//1
f  53//1 54//1 55//1
f  54//1 3//1 2//1
f  55//1 54//1 56//1
f  55//1 56//1 57//1
f  55//1 57//1 58//1
f  58//1 57//1 59//1
f  58//1 59//1 60//1
f  60//1 59//1 61//1
f  60//1 61//1 34//1
f  34//1 61//1 33//1
f  62//2 63//2 64//2
f  63//2 62//2 65//2
f  63//2 65//2 66//2
f  66//2 65//2 67//2
f  66//2 67//2 68//2
f  68//2 67//2 69//2
f  69//2 67//2 70//2
f  69//2 70//2 71//2
f  71//2 70//2 72//2
f  71//2 72//2 73//2
f  73//2 72//2 74//2
f  73//2 74//2 75//2
f  75//2 74//2 76//2
f  75//2 76//2 77//2
f  77//2 76//2 78//2
f  77//2 78//2 79//2
f  79//2 78//2 80//2
f  80//2 78//2 81//2
f  80//2 81//2 82//2
f  80//2 82//2 83//2
f  83//2 82//2 84//2
f  83//2 84//2 85//2
f  85//2 84//2 86//2
f  87//2 88//2 89//2
f  88//2 87//2 90//2
f  90//2 87//2 86//2
f  90//2 86//2 91//2
f  91//2 86//2 84//2
f  88//2 92//2 89//2
f  92//2 88//2 93//2
f  92//2 93//2 94//2
f  94//2 93//2 95//2
f  94//2 95//2 96//2
f  96//2 95//2 97//2
f  97//2 95//2 98//2
f  99//2 100//2 101//2
f  100//2 99//2 102//2
f  102//2 99//2 103//2
f  103//2 99//2 62//2
f  103//2 62//2 104//2
f  103//2 104//2 105//2
f  104//2 62//2 64//2
f  105//2 104//2 106//2
f  105//2 106//2 107//2
f  105//2 107//2 108//2
f  108//2 107//2 109//2
f  108//2 109//2 110//2
f  108//2 110//2 111//2
f  111//2 110//2 112//2
f  111//2 112//2 113//2
f  113//2 112//2 114//2
f  113//2 114//2 115//2
f  115//2 114//2 116//2
f  115//2 116//2 117//2
f  117//2 116//2 118//2
f  117//2 118//2 119//2
f  119//2 118//2 120//2
f  119//2 120//2 121//2
f  119//2 121//2 122//2
f  122//2 121//2 123//2
f  122//2 123//2 124//2
f  124//2 123//2 125//2
f  124//2 125//2 126//2
f  126//2 125//2 127//2
f  126//2 127//2 128//2
f  128//2 127//2 129//2
f  128//2 129//2 130//2
f  130//2 129//2 131//2
f  130//2 131//2 132//2
f  130//2 132//2 133//2
f  133//2 132//2 98//2
f  133//2 98//2 95//2
f  133//2 95//2 134//2
f  133//2 134//2 135//2
f  135//2 134//2 136//2
f  135//2 136//2 137//2
f  78//3 60//4 34//3
f  60//4 78//3 76//4
f  76//4 58//5 60//4
f  58//5 76//4 74//5
f  74//5 55//6 58//5
f  55//6 74//5 72//6
f  72//6 53//7 55//6
f  53//7 72//6 70//7
f  70//7 51//8 53//7
f  51//8 70//7 67//8
f  65//9 51//8 67//8
f  51//8 65//9 49//9
f  62//10 49//9 65//9
f  49//9 62//10 47//10
f  99//11 47//10 62//10
f  47//10 99//11 45//11
f  101//12 45//11 99//11
f  45//11 101//12 43//12
f  100//13 43//12 101//12
f  43//12 100//13 44//13
f  102//14 44//13 100//13
f  44//13 102//14 42//14
f  103//15 42//14 102//14
f  42//14 103//15 46//15
f  105//16 46//15 103//15
f  46//15 105//16 48//16
f  108//17 48//16 105//16
f  48//16 108//17 50//17
f  108//17 52//18 50//17
f  52//18 108//17 111//18
f  111//18 3//19 52//18
f  3//19 111//18 113//19
f  113//19 1//20 3//19
f  1//20 113//19 115//20
f  115//20 7//21 1//20
f  7//21 115//20 117//21
f  117//21 9//22 7//21
f  9//22 117//21 119//22
f  119//22 12//23 9//22
f  12//23 119//22 122//23
f  122//23 14//24 12//23
f  14//24 122//23 124//24
f  124//24 18//25 14//24
f  18//25 124//24 126//25
f  126//25 21//26 18//25
f  21//26 126//25 128//26
f  21//26 130//27 22//27
f  130//27 21//26 128//26
f  22//27 133//28 24//28
f  133//28 22//27 130//27
f  24//28 135//29 26//29
f  135//29 24//28 133//28
f  26//29 137//30 28//30
f  137//30 26//29 135//29
f  28//30 136//31 27//31
f  136//31 28//30 137//30
f  27//31 134//32 25//32
f  134//32 27//31 136//31
f  25//32 95//33 23//33
f  95//33 25//32 134//32
f  23//33 93//34 20//34
f  93//34 23//33 95//33
f  93//34 19//35 20//34
f  19//35 93//34 88//35
f  19//36 90//36 39//36
f  90//36 19//36 88//36
f  90//37 41//37 39//37
f  41//37 90//37 91//37
f  41//38 84//38 40//38
f  84//38 41//38 91//38
f  84//39 37//39 40//39
f  37//39 84//39 82//39
f  81//40 37//40 82//40
f  37//40 81//40 35//40
f  81//41 34//3 35//41
f  34//3 81//41 78//3
f  138//42 33//43 61//42
f  33//43 138//42 139//43
f  140//44 33//44 139//44
f  33//44 140//44 32//44
f  140//45 30//45 32//45
f  30//45 140//45 141//45
f  142//46 30//46 141//46
f  30//46 142//46 31//46
f  142//43 29//43 31//43
f  29//43 142//43 143//43
f  29//47 144//47 36//47
f  144//47 29//47 143//47
f  145//48 36//49 144//49
f  36//49 145//48 38//48
f  146//50 38//48 145//48
f  38//48 146//50 17//50
f  147//51 17//50 146//50
f  17//50 147//51 16//51
f  148//52 16//51 147//51
f  16//51 148//52 15//52
f  149//53 15//52 148//52
f  15//52 149//53 13//53
f  149//53 11//54 13//53
f  11//54 149//53 150//54
f  150//54 10//55 11//54
f  10//55 150//54 151//55
f  151//55 8//56 10//55
f  8//56 151//55 152//56
f  152//56 6//57 8//56
f  6//57 152//56 153//57
f  153//57 5//58 6//57
f  5//58 153//57 154//58
f  5//58 155//59 4//59
f  155//59 5//58 154//58
f  4//59 156//60 2//60
f  156//60 4//59 155//59
f  2//60 157//61 54//61
f  157//61 2//60 156//60
f  54//61 158//62 56//62
f  158//62 54//61 157//61
f  56//62 159//63 57//63
f  159//63 56//62 158//62
f  159//63 59//64 57//63
f  59//64 159//63 160//64
f  160//64 61//42 59//64
f  61//42 160//64 138//42
f  161//2 157//2 162//2
f  157//2 161//2 158//2
f  158//2 161//2 159//2
f  159//2 161//2 163//2
f  159//2 163//2 160//2
f  160//2 163//2 164//2
f  160//2 164//2 138//2
f  138//2 164//2 165//2
f  138//2 165//2 139//2
f  141//2 166//2 142//2
f  166//2 141//2 140//2
f  166//2 140//2 167//2
f  167//2 140//2 139//2
f  167//2 139//2 165//2
f  142//2 168//2 143//2
f  168//2 142//2 166//2
f  143//2 168//2 169//2
f  143//2 169//2 170//2
f  143//2 170//2 144//2
f  144//2 170//2 171//2
f  144//2 171//2 145//2
f  145//2 171//2 146//2
f  146//2 171//2 147//2
f  147//2 171//2 172//2
f  172//2 171//2 173//2
f  173//2 171//2 174//2
f  162//2 175//2 176//2
f  175//2 162//2 177//2
f  177//2 162//2 156//2
f  177//2 156//2 178//2
f  156//2 162//2 157//2
f  178//2 156//2 155//2
f  178//2 155//2 154//2
f  178//2 154//2 179//2
f  179//2 154//2 153//2
f  179//2 153//2 180//2
f  180//2 153//2 152//2
f  180//2 152//2 181//2
f  181//2 152//2 151//2
f  181//2 151//2 150//2
f  181//2 150//2 182//2
f  182//2 150//2 149//2
f  182//2 149//2 183//2
f  183//2 149//2 148//2
f  183//2 148//2 172//2
f  172//2 148//2 147//2
f  184//2 185//2 186//2
f  185//2 184//2 187//2
f  187//2 184//2 188//2
f  188//2 184//2 189//2
f  188//2 189//2 190//2
f  190//2 189//2 191//2
f  190//2 191//2 192//2
f  192//2 191//2 193//2
f  192//2 193//2 194//2
f  194//2 193//2 195//2
f  195//2 193//2 196//2
f  195//2 196//2 197//2
f  197//2 196//2 198//2
f  198//2 196//2 199//2
f  198//2 199//2 200//2
f  200//2 199//2 201//2
f  200//2 201//2 202//2
f  202//2 201//2 203//2
f  202//2 203//2 204//2
f  202//2 204//2 205//2
f  205//2 204//2 206//2
f  207//2 208//2 209//2
f  208//2 207//2 210//2
f  208//2 210//2 211//2
f  212//2 213//2 214//2
f  213//2 212//2 215//2
f  215//2 212//2 205//2
f  215//2 205//2 216//2
f  216//2 205//2 206//2
f  216//2 206//2 207//2
f  216//2 207//2 209//2
f  216//2 209//2 217//2
f  217//2 209//2 218//2
f  217//2 218//2 219//2
f  219//2 218//2 220//2
f  220//2 218//2 221//2
f  221//2 218//2 222//2
f  222//2 218//2 223//2
f  223//2 218//2 224//2
f  223//2 224//2 225//2
f  225//2 224//2 226//2
f  225//2 226//2 227//2
f  227//2 226//2 228//2
f  227//2 228//2 229//2
f  194//2 230//2 231//2
f  230//2 194//2 195//2
f  231//2 230//2 232//2
f  231//2 232//2 233//2
f  231//2 233//2 234//2
f  234//2 233//2 235//2
f  234//2 235//2 236//2
f  236//2 235//2 237//2
f  236//2 237//2 238//2
f  238//2 237//2 239//2
f  238//2 239//2 240//2
f  238//2 240//2 241//2
f  241//2 240//2 242//2
f  241//2 242//2 243//2
f  243//2 242//2 244//2
f  243//2 244//2 221//2
f  221//2 244//2 220//2
f  96//32 224//33 94//33
f  224//33 96//32 226//32
f  97//31 226//32 96//32
f  226//32 97//31 228//31
f  98//30 228//31 97//31
f  228//31 98//30 229//30
f  132//29 229//30 98//30
f  229//30 132//29 227//29
f  131//28 227//29 132//29
f  227//29 131//28 225//28
f  129//27 225//28 131//28
f  225//28 129//27 223//27
f  127//26 223//27 129//27
f  223//27 127//26 222//26
f  221//25 127//26 125//25
f  127//26 221//25 222//26
f  243//24 125//25 123//24
f  125//25 243//24 221//25
f  241//23 123//24 121//23
f  123//24 241//23 243//24
f  238//22 121//23 120//22
f  121//23 238//22 241//23
f  236//21 120//22 118//21
f  120//22 236//21 238//22
f  234//20 118//21 116//20
f  118//21 234//20 236//21
f  231//19 116//20 114//19
f  116//20 231//19 234//20
f  194//18 114//19 112//18
f  114//19 194//18 231//19
f  192//17 112//18 110//17
f  112//18 192//17 194//18
f  192//17 109//16 190//16
f  109//16 192//17 110//17
f  190//16 107//15 188//15
f  107//15 190//16 109//16
f  188//15 106//14 187//14
f  106//14 188//15 107//15
f  187//14 104//13 185//13
f  104//13 187//14 106//14
f  185//13 64//12 186//12
f  64//12 185//13 104//13
f  186//12 63//11 184//11
f  63//11 186//12 64//12
f  184//11 66//10 189//10
f  66//10 184//11 63//11
f  189//10 68//9 191//9
f  68//9 189//10 66//10
f  191//9 69//8 193//8
f  69//8 191//9 68//9
f  196//7 69//8 71//7
f  69//8 196//7 193//8
f  199//6 71//7 73//6
f  71//7 199//6 196//7
f  201//5 73//6 75//5
f  73//6 201//5 199//6
f  203//4 75//5 77//4
f  75//5 203//4 201//5
f  204//3 77//4 79//3
f  77//4 204//3 203//4
f  206//41 79//3 80//41
f  79//3 206//41 204//3
f  206//40 83//40 207//40
f  83//40 206//40 80//40
f  210//65 83//65 85//65
f  83//65 210//65 207//65
f  86//38 210//38 85//38
f  210//38 86//38 211//38
f  208//37 86//37 87//37
f  86//37 208//37 211//37
f  89//36 208//36 87//36
f  208//36 89//36 209//36
f  218//34 89//35 92//34
f  89//35 218//34 209//35
f  94//33 218//34 92//34
f  218//34 94//33 224//33
f  198//63 163//64 161//63
f  163//64 198//63 200//64
f  162//62 198//63 161//63
f  198//63 162//62 197//62
f  176//61 197//62 162//62
f  197//62 176//61 195//61
f  175//60 195//61 176//61
f  195//61 175//60 230//60
f  177//59 230//60 175//60
f  230//60 177//59 232//59
f  178//58 232//59 177//59
f  232//59 178//58 233//58
f  235//57 178//58 179//57
f  178//58 235//57 233//58
f  237//56 179//57 180//56
f  179//57 237//56 235//57
f  239//55 180//56 181//55
f  180//56 239//55 237//56
f  240//54 181//55 182//54
f  181//55 240//54 239//55
f  242//53 182//54 183//53
f  182//54 242//53 240//54
f  242//53 172//52 244//52
f  172//52 242//53 183//53
f  244//52 173//51 220//51
f  173//51 244//52 172//52
f  220//51 174//50 219//50
f  174//50 220//51 173//51
f  219//50 171//48 217//48
f  171//48 219//50 174//50
f  217//48 170//49 216//49
f  170//49 217//48 171//48
f  169//47 216//47 170//47
f  216//47 169//47 215//47
f  213//43 169//43 168//43
f  169//43 213//43 215//43
f  213//46 166//46 214//46
f  166//46 213//46 168//46
f  212//45 166//45 167//45
f  166//45 212//45 214//45
f  212//44 165//44 205//44
f  165//44 212//44 167//44
f  202//42 165//43 164//42
f  165//43 202//42 205//43
f  200//64 164//42 163//64
f  164//42 200//64 202//42

