# File produced by Open Asset Import Library (http://www.assimp.sf.net)
# (assimp v5.0.1588609223)

mtllib result.mtl

# 64 vertex positions
v  -1.7000071 4.6475148 -0.24999972
v  -1.0332998 3.9141777 -0.24999981
v  -1.7000071 3.4475131 -0.24999985
v  1.7000071 4.6475148 -0.24999972
v  -1.0999807 3.4475131 -0.24999985
v  -0.40000916 3.9141777 -0.24999981
v  0.40000904 3.9141777 -0.24999981
v  -0.40000916 0.64752519 -0.25000018
v  1.0333506 3.9141777 -0.24999981
v  1.1000315 3.4475131 -0.24999985
v  1.7000071 3.4475131 -0.24999985
v  -0.79999292 -0.019131297 -0.25000027
v  -0.79999292 0.58084428 -0.25000021
v  0.79999292 -0.019131297 -0.25000027
v  0.40000904 0.64752519 -0.25000018
v  0.79999292 0.58084428 -0.25000021
v  -0.79999292 0.58084422 0.099999785
v  -0.64999294 0.4537805 0.099999785
v  -0.40000916 0.64752513 0.099999815
v  -0.64999294 0.13086866 0.099999756
v  -0.25000918 0.52046138 0.099999785
v  -0.40000916 3.9141777 0.1000002
v  -1.7000071 3.4475131 0.10000014
v  -1.5500071 3.597513 0.10000014
v  -1.7000071 4.6475148 0.10000029
v  -1.0999807 3.4475131 0.10000014
v  -1.2300709 3.597513 0.10000014
v  -1.1633902 4.0641775 0.1000002
v  -1.0332998 3.9141777 0.1000002
v  -0.25000918 4.0641775 0.1000002
v  -0.79999292 -0.019131338 0.099999726
v  0.79999292 -0.019131338 0.099999726
v  0.64999282 0.13086866 0.099999756
v  0.64999282 0.4537805 0.099999785
v  0.25000918 0.52046138 0.099999785
v  0.40000904 0.64752513 0.099999815
v  0.25000918 4.0641775 0.1000002
v  0.79999292 0.58084422 0.099999785
v  0.40000904 3.9141777 0.1000002
v  1.1634408 4.0641775 0.1000002
v  1.0333506 3.9141777 0.1000002
v  1.1000315 3.4475131 0.10000014
v  1.2301217 3.597513 0.10000014
v  1.7000071 3.4475131 0.10000014
v  1.5500072 3.597513 0.10000014
v  1.5500072 4.4975152 0.10000026
v  -1.5500071 4.4975152 0.10000026
v  1.7000071 4.6475148 0.10000029
v  0.64999282 0.13086864 0.24999973
v  -0.64999294 0.45378047 0.24999979
v  -0.64999294 0.13086864 0.24999973
v  -0.25000918 0.52046138 0.24999979
v  0.25000918 0.52046138 0.24999979
v  -0.25000918 4.0641775 0.25000021
v  0.64999282 0.45378047 0.24999979
v  -1.2300709 3.597513 0.25000015
v  -1.5500071 4.4975152 0.25000027
v  -1.5500071 3.597513 0.25000015
v  -1.1633902 4.0641775 0.25000021
v  1.5500072 4.4975152 0.25000027
v  0.25000918 4.0641775 0.25000021
v  1.1634408 4.0641775 0.25000021
v  1.2301217 3.597513 0.25000015
v  1.5500072 3.597513 0.25000015

# 0 UV coordinates

# 10 vertex normals
vn 0 1.1920929e-07 -1
vn 0 -1.1920929e-07 1
vn -1 0 0
vn -0.16443966 0.98638713 1.1758651e-07
vn 0 -1 -1.1920929e-07
vn 0.98994517 -0.14145157 -1.6862341e-08
vn 0 1 1.1920929e-07
vn 1 0 0
vn -0.98994517 -0.14145157 -1.6862341e-08
vn 0.16443966 0.98638713 1.1758651e-07

# Mesh 'T' with 124 faces
g T
usemtl font
f  1//1 2//1 3//1
f  2//1 1//1 4//1
f  3//1 2//1 5//1
f  2//1 4//1 6//1
f  6//1 4//1 7//1
f  6//1 7//1 8//1
f  7//1 4//1 9//1
f  9//1 4//1 10//1
f  10//1 4//1 11//1
f  8//1 12//1 13//1
f  12//1 8//1 14//1
f  14//1 8//1 15//1
f  15//1 8//1 7//1
f  14//1 15//1 16//1
f  17//2 18//2 19//2
f  18//2 17//2 20//2
f  19//2 18//2 21//2
f  19//2 21//2 22//2
f  23//2 24//2 25//2
f  24//2 23//2 26//2
f  24//2 26//2 27//2
f  27//2 26//2 28//2
f  28//2 26//2 29//2
f  28//2 29//2 30//2
f  30//2 29//2 22//2
f  30//2 22//2 21//2
f  31//2 20//2 17//2
f  20//2 31//2 32//2
f  20//2 32//2 33//2
f  33//2 32//2 34//2
f  35//2 36//2 37//2
f  36//2 35//2 34//2
f  36//2 34//2 38//2
f  38//2 34//2 32//2
f  37//2 39//2 40//2
f  39//2 37//2 36//2
f  40//2 39//2 41//2
f  40//2 41//2 42//2
f  40//2 42//2 43//2
f  43//2 42//2 44//2
f  43//2 44//2 45//2
f  45//2 44//2 46//2
f  25//2 47//2 48//2
f  47//2 25//2 24//2
f  48//2 47//2 46//2
f  48//2 46//2 44//2
f  17//3 12//3 31//3
f  12//3 17//3 13//3
f  17//4 8//4 13//4
f  8//4 17//4 19//4
f  22//3 8//3 19//3
f  8//3 22//3 6//3
f  22//5 2//5 6//5
f  2//5 22//5 29//5
f  2//6 26//6 5//6
f  26//6 2//6 29//6
f  26//5 3//5 5//5
f  3//5 26//5 23//5
f  25//3 3//3 23//3
f  3//3 25//3 1//3
f  25//7 4//7 1//7
f  4//7 25//7 48//7
f  4//8 44//8 11//8
f  44//8 4//8 48//8
f  44//5 10//5 11//5
f  10//5 44//5 42//5
f  41//9 10//9 42//9
f  10//9 41//9 9//9
f  41//5 7//5 9//5
f  7//5 41//5 39//5
f  7//8 36//8 15//8
f  36//8 7//8 39//8
f  36//10 16//10 15//10
f  16//10 36//10 38//10
f  16//8 32//8 14//8
f  32//8 16//8 38//8
f  32//5 12//5 14//5
f  12//5 32//5 31//5
f  49//2 50//2 51//2
f  50//2 49//2 52//2
f  52//2 49//2 53//2
f  52//2 53//2 54//2
f  53//2 49//2 55//2
f  56//2 57//2 58//2
f  57//2 56//2 59//2
f  57//2 59//2 60//2
f  60//2 59//2 54//2
f  60//2 54//2 61//2
f  61//2 54//2 53//2
f  60//2 61//2 62//2
f  60//2 62//2 63//2
f  60//2 63//2 64//2
f  34//8 49//8 33//8
f  49//8 34//8 55//8
f  53//10 34//10 35//10
f  34//10 53//10 55//10
f  37//8 53//8 35//8
f  53//8 37//8 61//8
f  62//5 37//5 40//5
f  37//5 62//5 61//5
f  62//9 43//9 63//9
f  43//9 62//9 40//9
f  64//5 43//5 45//5
f  43//5 64//5 63//5
f  46//8 64//8 45//8
f  64//8 46//8 60//8
f  57//7 46//7 47//7
f  46//7 57//7 60//7
f  57//3 24//3 58//3
f  24//3 57//3 47//3
f  56//5 24//5 27//5
f  24//5 56//5 58//5
f  28//6 56//6 27//6
f  56//6 28//6 59//6
f  54//5 28//5 30//5
f  28//5 54//5 59//5
f  54//3 21//3 52//3
f  21//3 54//3 30//3
f  50//4 21//4 18//4
f  21//4 50//4 52//4
f  50//3 20//3 51//3
f  20//3 50//3 18//3
f  49//5 20//5 33//5
f  20//5 49//5 51//5

