# File produced by Open Asset Import Library (http://www.assimp.sf.net)
# (assimp v5.0.1588609223)

mtllib result.mtl

# 60 vertex positions
v  -0.46663928 4.6501112 -0.24999972
v  -2.0666759 4.0501356 -0.24999979
v  -2.0666759 4.6501112 -0.24999972
v  -1.6666414 3.9834547 -0.24999979
v  -0.86667383 3.9834547 -0.24999979
v  -0.46663928 4.0501356 -0.24999979
v  2.0666757 4.6501112 -0.24999972
v  0.46669006 4.0501356 -0.24999979
v  0.46669006 4.6501112 -0.24999972
v  0.86667371 3.9834547 -0.24999979
v  1.666692 3.9834547 -0.24999979
v  2.0666757 4.0501356 -0.24999979
v  -0.40000927 -0.016535148 -0.25000027
v  2.5272369e-05 1.1834669 -0.25000012
v  0.40000916 -0.016535148 -0.25000027
v  -2.0666759 4.0501356 0.1000002
v  -1.9166759 4.1772022 0.10000023
v  -2.0666759 4.6501112 0.10000029
v  -1.6666414 3.9834547 0.1000002
v  -1.5513703 4.1163101 0.1000002
v  -0.40000927 -0.016535189 0.099999726
v  -0.29016721 0.13346481 0.099999756
v  0.40000916 -0.016535189 0.099999726
v  0.29016829 0.13346481 0.099999756
v  1.5514216 4.1163082 0.1000002
v  1.666692 3.9834547 0.1000002
v  1.9166758 4.1771994 0.10000023
v  2.0666757 4.0501356 0.1000002
v  1.9166758 4.5001111 0.10000026
v  0.46669006 4.6501112 0.10000029
v  0.61668992 4.5001111 0.10000026
v  2.0666757 4.6501112 0.10000029
v  0.61668992 4.1771994 0.10000023
v  2.9563904e-05 0.67617387 0.099999815
v  -0.86667383 3.9834547 0.1000002
v  -1.0607529 4.1031737 0.1000002
v  2.5272369e-05 1.1834669 0.099999875
v  0.86667371 3.9834547 0.1000002
v  1.0607488 4.1031709 0.1000002
v  0.46669006 4.0501356 0.1000002
v  -0.61663926 4.1772022 0.10000023
v  -0.46663928 4.0501356 0.1000002
v  -0.61663926 4.5001111 0.10000026
v  -1.9166759 4.5001111 0.10000026
v  -0.46663928 4.6501112 0.10000029
v  -0.29016721 0.1334648 0.24999973
v  -1.0607529 4.1031737 0.25000021
v  -1.5513703 4.1163101 0.25000021
v  2.9563904e-05 0.67617387 0.24999979
v  0.29016829 0.1334648 0.24999973
v  1.0607488 4.1031709 0.25000021
v  1.5514216 4.1163082 0.25000021
v  0.61668992 4.5001111 0.25000027
v  0.61668992 4.1771994 0.25000021
v  1.9166758 4.5001111 0.25000027
v  1.9166758 4.1771994 0.25000021
v  -1.9166759 4.5001111 0.25000027
v  -1.9166759 4.1772022 0.25000021
v  -0.61663926 4.5001111 0.25000027
v  -0.61663926 4.1772022 0.25000021

# 0 UV coordinates

# 14 vertex normals
vn 0 1.1920929e-07 -1
vn 0 -1.1920929e-07 1
vn -0.95528728 0.29567921 3.5247709e-08
vn -0.16443966 -0.98638713 -1.1758651e-07
vn -1 0 0
vn 0 1 1.1920929e-07
vn 1 0 0
vn 0.16443966 -0.98638713 -1.1758651e-07
vn 0.95334089 -0.30189592 -3.5988798e-08
vn 0 -1 -1.1920929e-07
vn -0.9533444 -0.30188492 -3.5987487e-08
vn -0.16441932 -0.98639053 -1.1758691e-07
vn 0.16441932 -0.98639053 -1.1758691e-07
vn 0.95528239 0.29569504 3.5249595e-08

# Mesh 'V' with 116 faces
g V
usemtl font
f  1//1 2//1 3//1
f  2//1 1//1 4//1
f  4//1 1//1 5//1
f  5//1 1//1 6//1
f  7//1 8//1 9//1
f  8//1 7//1 10//1
f  10//1 7//1 11//1
f  11//1 7//1 12//1
f  5//1 13//1 4//1
f  13//1 5//1 14//1
f  13//1 14//1 15//1
f  15//1 14//1 10//1
f  15//1 10//1 11//1
f  16//2 17//2 18//2
f  17//2 16//2 19//2
f  17//2 19//2 20//2
f  20//2 19//2 21//2
f  20//2 21//2 22//2
f  22//2 21//2 23//2
f  22//2 23//2 24//2
f  24//2 23//2 25//2
f  25//2 23//2 26//2
f  25//2 26//2 27//2
f  27//2 26//2 28//2
f  27//2 28//2 29//2
f  30//2 31//2 32//2
f  31//2 30//2 33//2
f  32//2 31//2 29//2
f  32//2 29//2 28//2
f  34//2 35//2 36//2
f  35//2 34//2 37//2
f  37//2 34//2 38//2
f  38//2 34//2 39//2
f  40//2 33//2 30//2
f  33//2 40//2 38//2
f  33//2 38//2 39//2
f  35//2 41//2 36//2
f  41//2 35//2 42//2
f  41//2 42//2 43//2
f  18//2 44//2 45//2
f  44//2 18//2 17//2
f  45//2 44//2 43//2
f  45//2 43//2 42//2
f  38//3 14//3 37//3
f  14//3 38//3 10//3
f  38//4 8//4 10//4
f  8//4 38//4 40//4
f  30//5 8//5 40//5
f  8//5 30//5 9//5
f  30//6 7//6 9//6
f  7//6 30//6 32//6
f  7//7 28//7 12//7
f  28//7 7//7 32//7
f  28//8 11//8 12//8
f  11//8 28//8 26//8
f  11//9 23//9 15//9
f  23//9 11//9 26//9
f  23//10 13//10 15//10
f  13//10 23//10 21//10
f  19//11 13//11 21//11
f  13//11 19//11 4//11
f  19//12 2//12 4//12
f  2//12 19//12 16//12
f  18//5 2//5 16//5
f  2//5 18//5 3//5
f  18//6 1//6 3//6
f  1//6 18//6 45//6
f  1//7 42//7 6//7
f  42//7 1//7 45//7
f  42//13 5//13 6//13
f  5//13 42//13 35//13
f  5//14 37//14 14//14
f  37//14 5//14 35//14
f  46//2 47//2 48//2
f  47//2 46//2 49//2
f  49//2 46//2 50//2
f  49//2 50//2 51//2
f  51//2 50//2 52//2
f  51//2 53//2 54//2
f  53//2 51//2 55//2
f  55//2 51//2 52//2
f  55//2 52//2 56//2
f  48//2 57//2 58//2
f  57//2 48//2 59//2
f  59//2 48//2 47//2
f  59//2 47//2 60//2
f  53//5 33//5 54//5
f  33//5 53//5 31//5
f  51//4 33//4 39//4
f  33//4 51//4 54//4
f  51//3 34//3 49//3
f  34//3 51//3 39//3
f  36//14 49//14 34//14
f  49//14 36//14 47//14
f  60//13 36//13 41//13
f  36//13 60//13 47//13
f  43//7 60//7 41//7
f  60//7 43//7 59//7
f  57//6 43//6 44//6
f  43//6 57//6 59//6
f  57//5 17//5 58//5
f  17//5 57//5 44//5
f  48//12 17//12 20//12
f  17//12 48//12 58//12
f  48//11 22//11 46//11
f  22//11 48//11 20//11
f  50//10 22//10 24//10
f  22//10 50//10 46//10
f  25//9 50//9 24//9
f  50//9 25//9 52//9
f  56//8 25//8 27//8
f  25//8 56//8 52//8
f  29//7 56//7 27//7
f  56//7 29//7 55//7
f  53//6 29//6 31//6
f  29//6 53//6 55//6

