# File produced by Open Asset Import Library (http://www.assimp.sf.net)
# (assimp v5.0.1588609223)

mtllib result.mtl

# 112 vertex positions
v  -0.2999624 4.6666465 -0.24999972
v  -1.899999 4.0666709 -0.24999978
v  -1.899999 4.6666465 -0.24999972
v  -1.4999645 3.9999897 -0.24999979
v  -0.63331604 3.9999897 -0.24999979
v  -0.2999624 4.0666709 -0.24999978
v  -0.43332422 2.3333232 -0.24999999
v  2.5391579e-05 3.0066426 -0.24999991
v  1.899999 4.6666465 -0.24999972
v  0.30001318 4.0666709 -0.24999978
v  0.30001318 4.6666465 -0.24999972
v  0.63336694 3.9999897 -0.24999979
v  1.5000151 3.9999897 -0.24999979
v  1.899999 4.0666709 -0.24999978
v  -0.63331604 0.66665649 -0.25000018
v  -1.4999645 0.66665649 -0.25000018
v  2.5391579e-05 1.6533407 -0.25000006
v  0.433375 2.3333232 -0.24999999
v  0.63336694 0.66665649 -0.25000018
v  1.5000151 0.66665649 -0.25000018
v  0.30001318 0 -0.25000027
v  0.30001318 0.59997559 -0.25000021
v  1.899999 0 -0.25000027
v  1.899999 0.59997559 -0.25000021
v  -1.899999 0 -0.25000027
v  -1.899999 0.59997559 -0.25000021
v  -0.2999624 0 -0.25000027
v  -0.2999624 0.59997559 -0.25000021
v  0.30001318 -4.1723251e-08 0.099999726
v  0.45001328 0.14999996 0.099999756
v  0.30001318 0.59997553 0.099999785
v  1.899999 -4.1723251e-08 0.099999726
v  1.7499989 0.14999996 0.099999756
v  1.7499989 0.4729118 0.099999785
v  1.409603 0.52965885 0.099999785
v  0.433375 2.3333232 0.099999994
v  0.25528634 2.3333232 0.099999994
v  1.5000151 0.66665643 0.099999815
v  1.899999 0.59997553 0.099999785
v  2.5391579e-05 2.7276285 0.10000005
v  -0.63331604 3.9999897 0.1000002
v  -0.87758923 4.1040993 0.1000002
v  2.5391579e-05 3.0066426 0.10000008
v  0.87763989 4.1040993 0.1000002
v  0.63336694 3.9999897 0.1000002
v  0.30001318 4.0666709 0.1000002
v  0.45001328 4.1896377 0.10000023
v  0.30001318 4.6666465 0.10000029
v  1.409603 4.1369872 0.10000023
v  1.5000151 3.9999897 0.1000002
v  1.7499989 4.1937346 0.10000023
v  1.899999 4.0666709 0.1000002
v  1.7499989 4.5166464 0.10000026
v  0.45001328 4.5166464 0.10000026
v  1.899999 4.6666465 0.10000029
v  0.45001328 0.47700864 0.099999785
v  0.63336694 0.66665643 0.099999815
v  0.87834561 0.56268817 0.099999785
v  -0.63331604 0.66665643 0.099999815
v  2.5391579e-05 1.9310255 0.099999964
v  -0.87829483 0.56268817 0.099999785
v  2.5391579e-05 1.6533407 0.099999934
v  -1.899999 0.59997553 0.099999785
v  -1.749999 0.47290915 0.099999785
v  -1.4999645 0.66665643 0.099999815
v  -1.749999 0.14999996 0.099999756
v  -1.4095531 0.5296573 0.099999785
v  -0.43332422 2.3333232 0.099999994
v  -0.25523567 2.3333232 0.099999994
v  -1.899999 4.0666709 0.1000002
v  -1.749999 4.193737 0.10000023
v  -1.899999 4.6666465 0.10000029
v  -1.4999645 3.9999897 0.1000002
v  -1.4095531 4.1369891 0.10000023
v  -1.899999 -4.1723251e-08 0.099999726
v  -0.2999624 -4.1723251e-08 0.099999726
v  -0.44996238 0.14999996 0.099999756
v  -0.44996238 0.47700864 0.099999785
v  -0.2999624 0.59997553 0.099999785
v  -0.44996238 4.1896377 0.10000023
v  -0.2999624 4.0666709 0.1000002
v  -0.44996238 4.5166464 0.10000026
v  -1.749999 4.5166464 0.10000026
v  -0.2999624 4.6666465 0.10000029
v  -0.44996238 0.14999995 0.24999973
v  -1.749999 0.47290912 0.24999979
v  -1.749999 0.14999995 0.24999973
v  -1.4095531 0.5296573 0.24999979
v  -0.87829483 0.56268817 0.24999979
v  -0.44996238 0.47700861 0.24999979
v  1.7499989 0.14999995 0.24999973
v  0.45001328 0.47700861 0.24999979
v  0.45001328 0.14999995 0.24999973
v  0.87834561 0.56268817 0.24999979
v  1.409603 0.52965885 0.24999979
v  1.7499989 0.47291178 0.24999979
v  -0.25523567 2.3333232 0.25000003
v  -0.87758923 4.1040993 0.25000021
v  -1.4095531 4.1369891 0.25000021
v  2.5391579e-05 2.7276285 0.25000003
v  2.5391579e-05 1.9310255 0.24999997
v  0.25528634 2.3333232 0.25000003
v  0.87763989 4.1040993 0.25000021
v  1.409603 4.1369872 0.25000021
v  0.45001328 4.5166464 0.25000027
v  0.45001328 4.1896377 0.25000021
v  1.7499989 4.5166464 0.25000027
v  1.7499989 4.1937346 0.25000021
v  -1.749999 4.5166464 0.25000027
v  -1.749999 4.193737 0.25000021
v  -0.44996238 4.5166464 0.25000027
v  -0.44996238 4.1896377 0.25000021

# 0 UV coordinates

# 25 vertex normals
vn 0 1.1920929e-07 -1
vn 0 -1.1920929e-07 1
vn 0.19614491 0.98057491 1.1689364e-07
vn 1 0 0
vn 0 -1 -1.1920929e-07
vn -1 0 0
vn -0.16441932 0.98639053 1.1758691e-07
vn -0.84227747 0.5390442 6.4259076e-08
vn -0.84227747 -0.5390442 -6.4259076e-08
vn -0.16441932 -0.98639053 -1.1758691e-07
vn 0 1 1.1920929e-07
vn 0.19614491 -0.98057491 -1.1689364e-07
vn 0.84319538 0.53760719 6.4087772e-08
vn -0.84319538 0.53760719 6.4087772e-08
vn -0.19614491 -0.98057491 -1.1689364e-07
vn 0.16443966 -0.98638713 -1.1758651e-07
vn 0.84227747 -0.5390442 -6.4259076e-08
vn 0.84227747 0.5390442 6.4259076e-08
vn 0.16443966 0.98638713 1.1758651e-07
vn -0.19614491 0.98057491 1.1689364e-07
vn -0.84154898 -0.5401808 -6.439457e-08
vn 0.84154898 -0.5401808 -6.439457e-08
vn 2.1597011e-32 -1.1920929e-07 1
vn -1 -2.5745636e-39 2.1597011e-32
vn 1 2.5745636e-39 -2.1597011e-32

# Mesh 'X' with 220 faces
g X
usemtl font
f  1//1 2//1 3//1
f  2//1 1//1 4//1
f  4//1 1//1 5//1
f  5//1 1//1 6//1
f  5//1 7//1 4//1
f  7//1 5//1 8//1
f  9//1 10//1 11//1
f  10//1 9//1 12//1
f  12//1 9//1 13//1
f  13//1 9//1 14//1
f  7//1 15//1 16//1
f  15//1 7//1 17//1
f  17//1 7//1 8//1
f  17//1 8//1 12//1
f  17//1 12//1 18//1
f  18//1 12//1 13//1
f  18//1 19//1 17//1
f  19//1 18//1 20//1
f  19//1 21//1 22//1
f  21//1 19//1 23//1
f  23//1 19//1 20//1
f  23//1 20//1 24//1
f  16//1 25//1 26//1
f  25//1 16//1 27//1
f  27//1 16//1 15//1
f  27//1 15//1 28//1
f  29//2 30//2 31//2
f  30//2 29//2 32//2
f  30//2 32//2 33//2
f  33//2 32//2 34//2
f  35//2 36//2 37//2
f  36//2 35//2 38//2
f  38//2 35//2 34//2
f  38//2 34//2 39//2
f  39//2 34//2 32//2
f  40//2 41//2 42//2
f  41//2 40//2 43//2
f  43//2 40//2 44//2
f  43//2 44//2 45//2
f  46//2 47//2 48//2
f  47//2 46//2 45//2
f  47//2 45//2 44//2
f  36//2 49//2 37//2
f  49//2 36//2 50//2
f  49//2 50//2 51//2
f  51//2 50//2 52//2
f  51//2 52//2 53//2
f  48//2 54//2 55//2
f  54//2 48//2 47//2
f  55//2 54//2 53//2
f  55//2 53//2 52//2
f  31//2 56//2 57//2
f  56//2 31//2 30//2
f  57//2 56//2 58//2
f  59//2 60//2 61//2
f  60//2 59//2 62//2
f  60//2 62//2 57//2
f  60//2 57//2 58//2
f  63//2 64//2 65//2
f  64//2 63//2 66//2
f  65//2 64//2 67//2
f  65//2 67//2 68//2
f  68//2 67//2 69//2
f  70//2 71//2 72//2
f  71//2 70//2 73//2
f  71//2 73//2 74//2
f  74//2 73//2 68//2
f  74//2 68//2 69//2
f  75//2 66//2 63//2
f  66//2 75//2 76//2
f  66//2 76//2 77//2
f  77//2 76//2 78//2
f  78//2 59//2 61//2
f  59//2 78//2 79//2
f  79//2 78//2 76//2
f  41//2 80//2 42//2
f  80//2 41//2 81//2
f  80//2 81//2 82//2
f  72//2 83//2 84//2
f  83//2 72//2 71//2
f  84//2 83//2 82//2
f  84//2 82//2 81//2
f  59//3 28//3 15//3
f  28//3 59//3 79//3
f  28//4 76//4 27//4
f  76//4 28//4 79//4
f  76//5 25//5 27//5
f  25//5 76//5 75//5
f  63//6 25//6 75//6
f  25//6 63//6 26//6
f  63//7 16//7 26//7
f  16//7 63//7 65//7
f  68//8 16//8 65//8
f  16//8 68//8 7//8
f  73//9 7//9 68//9
f  7//9 73//9 4//9
f  73//10 2//10 4//10
f  2//10 73//10 70//10
f  72//6 2//6 70//6
f  2//6 72//6 3//6
f  72//11 1//11 3//11
f  1//11 72//11 84//11
f  1//4 81//4 6//4
f  81//4 1//4 84//4
f  81//12 5//12 6//12
f  5//12 81//12 41//12
f  5//13 43//13 8//13
f  43//13 5//13 41//13
f  45//14 8//14 43//14
f  8//14 45//14 12//14
f  45//15 10//15 12//15
f  10//15 45//15 46//15
f  48//6 10//6 46//6
f  10//6 48//6 11//6
f  48//11 9//11 11//11
f  9//11 48//11 55//11
f  9//4 52//4 14//4
f  52//4 9//4 55//4
f  52//16 13//16 14//16
f  13//16 52//16 50//16
f  13//17 36//17 18//17
f  36//17 13//17 50//17
f  18//18 38//18 20//18
f  38//18 18//18 36//18
f  38//19 24//19 20//19
f  24//19 38//19 39//19
f  24//4 32//4 23//4
f  32//4 24//4 39//4
f  32//5 21//5 23//5
f  21//5 32//5 29//5
f  31//6 21//6 29//6
f  21//6 31//6 22//6
f  31//20 19//20 22//20
f  19//20 31//20 57//20
f  62//21 19//21 57//21
f  19//21 62//21 17//21
f  17//22 59//22 15//22
f  59//22 17//22 62//22
f  85//23 86//23 87//23
f  86//23 85//23 88//23
f  88//23 85//23 89//23
f  89//23 85//23 90//23
f  91//23 92//23 93//23
f  92//23 91//23 94//23
f  94//23 91//23 95//23
f  95//23 91//23 96//23
f  97//23 98//23 99//23
f  98//23 97//23 100//23
f  100//23 97//23 101//23
f  100//23 101//23 94//23
f  100//23 94//23 102//23
f  102//23 94//23 95//23
f  102//23 103//23 100//23
f  103//23 102//23 104//23
f  103//23 105//23 106//23
f  105//23 103//23 107//23
f  107//23 103//23 104//23
f  107//23 104//23 108//23
f  89//23 97//23 88//23
f  97//23 89//23 101//23
f  99//23 109//23 110//23
f  109//23 99//23 111//23
f  111//23 99//23 98//23
f  111//23 98//23 112//23
f  109//24 71//24 110//24
f  71//24 109//24 83//24
f  99//10 71//10 74//10
f  71//10 99//10 110//10
f  99//9 69//9 97//9
f  69//9 99//9 74//9
f  97//8 67//8 88//8
f  67//8 97//8 69//8
f  86//7 67//7 64//7
f  67//7 86//7 88//7
f  86//24 66//24 87//24
f  66//24 86//24 64//24
f  85//5 66//5 77//5
f  66//5 85//5 87//5
f  78//25 85//25 77//25
f  85//25 78//25 90//25
f  89//3 78//3 61//3
f  78//3 89//3 90//3
f  60//22 89//22 61//22
f  89//22 60//22 101//22
f  101//21 58//21 94//21
f  58//21 101//21 60//21
f  92//20 58//20 56//20
f  58//20 92//20 94//20
f  92//24 30//24 93//24
f  30//24 92//24 56//24
f  91//5 30//5 33//5
f  30//5 91//5 93//5
f  34//25 91//25 33//25
f  91//25 34//25 96//25
f  95//19 34//19 35//19
f  34//19 95//19 96//19
f  37//18 95//18 35//18
f  95//18 37//18 102//18
f  49//17 102//17 37//17
f  102//17 49//17 104//17
f  108//16 49//16 51//16
f  49//16 108//16 104//16
f  53//25 108//25 51//25
f  108//25 53//25 107//25
f  105//11 53//11 54//11
f  53//11 105//11 107//11
f  105//24 47//24 106//24
f  47//24 105//24 54//24
f  103//15 47//15 44//15
f  47//15 103//15 106//15
f  103//14 40//14 100//14
f  40//14 103//14 44//14
f  42//13 100//13 40//13
f  100//13 42//13 98//13
f  112//12 42//12 80//12
f  42//12 112//12 98//12
f  82//25 112//25 80//25
f  112//25 82//25 111//25
f  109//11 82//11 83//11
f  82//11 109//11 111//11

